<?xml version="1.0" encoding="utf-8"?>
<!-- Generator: Adobe Illustrator 28.2.0, SVG Export Plug-In . SVG Version: 6.00 Build 0)  -->
<svg version="1.1" id="レイヤー_1" xmlns="http://www.w3.org/2000/svg" xmlns:xlink="http://www.w3.org/1999/xlink" x="0px"
	 y="0px" viewBox="0 0 546 55.5" style="enable-background:new 0 0 546 55.5;" xml:space="preserve">
<g>
	<g id="グループ_9541" transform="translate(0 0)">
		<path id="パス_6539" d="M32.3,22c0,0.5-0.2,0.9-0.4,1.3c-0.2,0.3-0.3,0.6-0.4,0.9c0,0.3-0.1,0.6-0.2,0.9
			c-6,20-23.1,28.8-25.1,28.8c-0.6,0-1.1-0.4-1.1-0.8c0-0.3,0.3-0.6,0.7-0.8c17.3-9.4,22-27.6,22-29.3c-0.1-1.2-0.7-2.3-1.8-3
			c-1.4,0.2-5.4,0.9-8.2,1.8c-0.3,0.1-0.6,0.1-0.9,0.1c-1.2-0.3-2.4-0.9-3.4-1.7c-4.8,8-11,14.4-12.6,14.4c-0.4,0.1-0.8-0.3-0.9-0.7
			c0-0.4,0.3-0.8,0.6-1.1c5.8-5.3,13.8-19.8,13.8-24.5c0-0.8-1.1-1.5-2.9-1.8c-0.4,0-0.8-0.3-0.8-0.8c0-0.9,0.9-1,1.6-1
			c3.7,0,7.1,1.9,7.1,3.4c0,0.6-0.3,1.2-0.8,1.6c-0.5,0.5-0.9,1.2-1.1,1.8c-0.8,2.3-1.8,4.5-3,6.7c0.5,0.3,1,0.4,1.6,0.4
			c1.5,0,15.8-1.7,20.5-2.5c1.1-0.2,1.8-1.3,3.1-1.3c1.1,0,6.3,1.1,6.3,3.2c0,0.8-0.8,1.3-2,1.3h-0.3c-2-0.1-4.1-0.3-6.1-0.3
			c-1.9,0-6.3,0.3-8.4,0.6C30.9,20.2,32.3,21.2,32.3,22"/>
		<path id="パス_6540" d="M59.3,53.7c-0.4,0-0.8-0.3-0.8-0.8c0,0,0,0,0,0c0-0.4,0.2-0.7,0.5-0.9c22-10.4,29.2-31,29.2-31.6
			c0-0.3-0.1-0.4-0.5-0.4c-6.8,0.9-13.6,2.1-20.3,3.7c-1.3,0.3-2.8,1.1-4.2,1.1c-1.6,0-7.7-2.6-7.7-5.5c0-0.4,0.2-0.8,0.6-0.8
			c0,0,0,0,0.1,0c0.3,0,0.6,0.2,0.9,0.4c1.9,1.3,4.1,2,6.4,2c0.4,0,0.8,0,1.2-0.1c8.7-1.3,16.2-2.3,21.3-3c0.7-0.1,1.3-0.4,2-0.7
			c0.4-0.2,0.9-0.4,1.3-0.5c1.4,0,4.9,2,4.9,3.4c0,0.4-0.3,0.9-1,1.5c-0.4,0.3-0.8,0.7-1.1,1.1C79.8,48.5,59.6,53.7,59.3,53.7
			 M72,11.7c-1.3,0.2-2.7,0.4-4,0.4c-3,0-6.9-2.3-6.9-4.7c0-0.4,0.2-0.7,0.6-0.7c0.5,0.1,0.9,0.2,1.3,0.5c1.8,1.1,3.9,1.6,6,1.6
			c2.6,0,9.9-1,12.5-2.6c0.5-0.3,1-0.5,1.5-0.6h0.2c1.1,0,3.6,0.4,3.9,1c0.2,0.3,0.3,0.7,0.3,1.1c0,0.6-0.4,1.3-1.9,1.6
			C82.6,10,74.3,11.3,72,11.7"/>
		<path id="パス_6541" d="M113.8,21.3c-1.7-2.6-4.1-4.8-6.9-6.2c-0.2-0.1-0.3-0.3-0.3-0.4c0.1-0.5,0.5-1,1.1-1
			c0.1,0,0.1,0.1,0.2,0.1c8.6,2.8,9.1,5.2,9.1,7c0,0.8-0.3,2-1.3,2C115.2,22.7,114.5,22.3,113.8,21.3 M116.9,41.6
			c0.1,2.6,0.4,5.3,0.9,7.9c0.1,0.6,0.2,1.3,0.2,1.9c0,2.2-0.8,4.2-2.6,4.2c-1.1,0-1.9-1.1-1.9-2.7c0-0.2,0-0.5,0.1-0.7
			c0.5-2.8,0.7-5.6,0.8-8.4c0-2.4-0.3-6.7-5.8-6.7c-0.4,0-0.6-0.4-0.6-0.9s0.2-0.9,0.7-0.9h0.1c1.4,0.1,2.8,0.2,4.2,0.2
			c0.9,0,1.7-0.5,2.2-1.3c1.6-2.9,5.6-12.4,9.8-24.1c0.1-0.2,0.3-0.4,0.6-0.4c0.5,0,1.1,0.4,1.1,1c0,0.2,0,0.2-7.2,21
			C117.1,38.1,116.9,39.5,116.9,41.6 M118.6,8.7c-1.5-2.8-3.8-5.2-6.6-6.7c-0.2-0.1-0.3-0.3-0.3-0.4c0-0.4,0.6-0.9,1.1-0.9
			c0.6,0,7.9,3.6,8.7,5.6c0.3,0.6,0.4,1.3,0.4,2c0,1-0.4,2.2-1.3,2.2C120,10.5,119.3,9.9,118.6,8.7 M162.5,37
			c-0.1,1.3-0.9,8.4-1.1,10.4v0.3c-0.1,0.5,0.2,1,0.6,1.1c0.1,0.1,0.3,0.1,0.3,0.1c0.7,0.4,1.5,0.8,1.5,1.8c0,1.5-0.6,3.2-18.9,3.2
			c-7.3,0-14.4-0.1-14.4-7.2V22.9c-2.3,0.8-4.4,1.5-5.7,2c-0.8-0.7-1.5-1.7-1.8-2.7c2.2-0.4,4.9-1,7.5-1.7v-8.4
			c0-2.2-0.1-4.4-0.5-6.5c4.4,0.1,5.4,0.4,5.4,1.3c0,0.6-0.7,1.2-1.8,1.6v11.1c2.5-0.7,4.6-1.4,5.8-1.8l3.6-1.3V6.8
			c0-2.3-0.2-4.6-0.5-6.8c1.5,0.2,3.5,0.3,4.6,0.6c0.8,0.2,1.1,0.6,1.1,1c0,0.8-1.1,1.5-2.2,1.7v12.2l10.5-3.8
			c0.4-0.5,0.7-1.2,1.1-1.7c0.1-0.1,0.2-0.2,0.3-0.2c0.1,0,0.2,0.1,0.3,0.1c1.2,0.4,3.6,1.7,3.6,2.7c0,0.6-0.6,1.2-2.1,1.8
			c0,11.7-0.3,15.1-0.8,18c-0.6,3.2-3.1,5.7-6.3,6.1c-0.6,0-0.7-0.4-1-1c0-0.2-0.1-0.4-0.3-0.5c-0.2-0.4-0.3-0.4-3.4-1.5
			c-0.3-0.1-0.4-0.4-0.4-0.7c0-0.4,0.3-1,0.6-1h0.1c1.4,0.3,2.9,0.5,4.3,0.6c3.5,0,3.9-4.2,4.1-12.4v-8.3l-10.7,3.8v8.3
			c0,1.6,0,7.4,0.1,12.9c0,0.6,0.1,3.2,0.1,4c0,1.4-1.8,1.6-2.3,1.6c-0.7,0.1-1.4-0.4-1.5-1.2c0-0.1,0-0.1,0-0.2
			c0-0.1,0.1-2,0.1-3.3c0.3-4.9,0.4-12.2,0.4-13.9v-7.2l-3.1,1.1c-1.5,0.5-3.8,1.3-6.3,2.1v24.4c0,4.2,3.2,4.6,10.8,4.6
			c10.8,0,13.4-0.3,14.3-2.7c0.4-0.9,0.8-3.7,2-11.4c0.1-0.3,0.4-0.5,0.8-0.5C162.1,36.2,162.5,36.5,162.5,37L162.5,37z"/>
		<path id="パス_6542" d="M178.3,49.8c-0.6,0-1-0.3-1-0.6c0-0.3,0.3-0.7,0.8-1c24.3-12.7,33.1-34.8,33.1-34.9
			c0-0.1-0.1-0.1-0.1-0.1c-0.1-0.1-0.1-0.1-0.3-0.1c-0.3,0-0.6,0.1-0.8,0.1c-4.8,0.6-13.4,2.9-15.9,4.1c-0.6,0.3-1.3,0.4-2,0.4
			c-1.8,0-5.5-2.1-7-5.2c-0.1-0.1-0.1-0.2-0.1-0.4c0-0.5,0.4-0.9,0.8-1c0.3,0,0.6,0.2,0.8,0.4c0.8,0.7,1.7,1.2,2.6,1.6
			c1.1,0.4,2.2,0.6,3.4,0.6c0.3,0,0.6-0.1,0.9-0.1c3.6-0.4,10.8-2.2,16.1-2.8c0.4-0.1,0.8-0.2,1.1-0.4c0.3-0.3,0.7-0.5,1.1-0.7h0.2
			c0.9,0,4.7,1.7,4.7,3.2c0,0.5-0.4,1-1.1,1.5c-0.4,0.3-0.7,0.6-1.1,0.9c-2.7,4.8-5.8,9.4-9.2,13.7c10.3,6.5,16.7,12.9,17.2,15.1
			c0.1,0.5,0.2,1.1,0.2,1.7c0,2.3-1,2.8-1.5,2.8c-0.7,0-1.4-0.6-2.1-1.9c-2.5-4.7-7.8-10.7-15.1-16.2
			C192.5,44.7,179.1,49.8,178.3,49.8"/>
		<path id="パス_6543" d="M269.4,22c0,0.5-0.2,0.9-0.4,1.3c-0.2,0.3-0.3,0.6-0.4,0.9c0,0.3-0.1,0.6-0.2,0.9
			c-6,20-23.1,28.8-25.1,28.8c-0.6,0-1.1-0.4-1.1-0.8c0-0.3,0.3-0.6,0.7-0.8c17.3-9.4,22-27.6,22-29.3c-0.1-1.2-0.7-2.3-1.8-3
			c-1.4,0.2-5.4,0.9-8.2,1.8c-0.3,0.1-0.6,0.1-0.9,0.1c-1.2-0.3-2.4-0.9-3.4-1.7c-4.8,8-11,14.4-12.6,14.4c-0.4,0.1-0.8-0.3-0.9-0.7
			c0-0.4,0.3-0.8,0.6-1.1c5.8-5.3,13.8-19.8,13.8-24.5c0-0.8-1.1-1.5-2.9-1.8c-0.4,0-0.8-0.3-0.8-0.8c0-0.9,0.9-1,1.6-1
			c3.7,0,7.1,1.9,7.1,3.4c0,0.6-0.3,1.2-0.8,1.6c-0.5,0.5-0.9,1.2-1.1,1.8c-0.8,2.3-1.8,4.5-3,6.7c0.5,0.3,1,0.4,1.6,0.4
			c1.5,0,15.8-1.7,20.5-2.5c1.1-0.2,1.8-1.3,3.1-1.3c1.1,0,6.3,1.1,6.3,3.2c0,0.8-0.8,1.3-2,1.3h-0.3c-2-0.1-4.1-0.3-6.1-0.3
			c-1.9,0-6.3,0.3-8.4,0.6C267.9,20.2,269.4,21.2,269.4,22"/>
		<path id="パス_6544" d="M337.2,29.6c-2.9,0.1-10.5,0.1-17.5,0.3c-7.1,0.1-13.6,0.3-14.1,0.3c-0.7,0.3-1.5,0.5-2.2,0.6
			c-2.2,0-6.6-4.7-6.6-7.1c0-0.5,0.3-0.8,0.5-0.8c0.2,0,0.4,0.1,0.5,0.3c2.8,3.3,4.7,3.5,8.8,3.5c7.2,0,25.8-0.6,31.5-0.8h1
			c0.4,0,6.2,0,6.2,1.6c0,0.8-1.5,1.6-4,1.8C340,29.6,338.6,29.6,337.2,29.6"/>
		<path id="パス_6545" d="M369.6,27.2c0,7.7,0.2,16.2,0.4,21.5v0.4c0,3-0.8,5.1-2,5.1c-1.9,0-2.7-4.5-2.7-5.6
			c0-0.9,0.2-1.8,0.5-2.6c0.3-0.6,0.8-1.8,0.8-24.4c0-4.1-0.1-8-0.2-10.7c-0.1-2.8-0.8-3.4-3.8-4.4c-0.6-0.2-0.8-0.5-0.8-0.8
			c0-0.6,0.6-1,1.6-1c2.5,0.2,4.9,1,7,2.3c0.5,0.2,0.8,0.7,0.8,1.2c0,0.4-0.1,0.8-0.3,1.1c-0.1,0.2-0.2,0.4-0.3,0.6
			c-0.8,2.1-1,6.6-1,12.4c6.4,1.2,14.1,4.2,18,7.2c1,0.9,1.6,2.2,1.6,3.5c0,1.4-0.6,1.6-1.1,1.6c-0.8-0.1-1.5-0.5-2.1-1.1
			c-4.9-4-10.5-7.2-16.5-9.2L369.6,27.2z"/>
		<path id="パス_6546" d="M413.2,12.7c-0.1,0.7-0.1,2-0.1,3.6c0,2.2,0.1,4.9,0.1,7.3v3c0,5.6,0,8-1.8,8c-1.3,0-2.5-2-2.5-3.9
			c0-0.4,0.1-0.7,0.2-1.1c0.7-2.5,0.8-4.2,0.8-12.4c0-1.1-0.1-2.1-0.1-2.8c-0.1-0.7-0.1-1.3-0.1-2c0-2.2-0.5-3.8-3.3-4.6
			c-0.6-0.1-0.8-0.5-0.8-0.8V6.8c0.1-0.4,0.6-0.8,1.4-0.8c1.3,0,6.9,1.5,6.9,3.9c0,0.6-0.2,1.2-0.5,1.7
			C413.3,12,413.3,12.3,413.2,12.7 M406.9,54.2c0-0.3,0.3-0.7,0.8-1C418.6,48,427,36.8,427,21.9c0-5.7-0.1-8.2-0.1-11.1
			c0-2.1,0-4.3-4.1-5.1c-0.5-0.1-0.8-0.4-0.8-0.7c0-0.5,0.4-1.1,1.8-1.1c1.9,0,7.9,1.5,7.9,4.1c0,0.3,0,0.5-0.1,0.8
			c-0.1,0.3-0.2,0.7-0.4,1.1c-0.2,0.7-0.3,1.3-0.4,2c-0.2,1.9-0.2,5.6-0.3,6.6c-0.1,0.3-0.1,0.7-0.1,1c0,0.8,0.1,1.6,0.1,3
			c0,23.7-21.1,32.5-22.6,32.5C407.4,55,406.9,54.7,406.9,54.2"/>
		<path id="パス_6547" d="M450.8,13.9c-0.4-0.1-0.7-0.5-0.7-0.9c0-0.1,0.1-0.3,0.1-0.4c0.3-0.3,0.8-0.5,1.2-0.4
			c1.6,0,12.9,4.2,14.4,7.2c0.4,0.8,0.6,1.6,0.6,2.5c0,0.4-0.1,2.3-1.5,2.3c-0.9-0.1-1.7-0.7-2.1-1.5
			C459.9,18.6,452.9,14.8,450.8,13.9 M461.9,47.7c-0.2,0.2-0.4,0.4-0.6,0.6c-0.4,0.2-0.8,0.3-1.2,0.3c-3.4,0-8.4-4.2-8.4-6.9
			c0-0.5,0.3-1,0.9-1c0,0,0,0,0,0c0.3,0,0.6,0.1,0.8,0.4c0.8,1,2.5,2.9,4.7,2.9c0.5,0,1.1-0.1,1.6-0.3c12.1-4.4,28.1-20.3,33.8-28.9
			c0.2-0.4,0.5-0.6,1-0.6c0.5,0.1,0.9,0.5,0.8,1c0,2.5-14.4,21.7-31.8,31.4c-0.3,0.2-0.6,0.4-0.8,0.6L461.9,47.7z"/>
		<path id="パス_6548" d="M530.2,14.9c-0.8,0.3-1.5,0.4-2.3,0.4c-0.3,0-0.6,0-0.8-0.1c-0.6-0.1-1.1-0.3-1.6-0.6
			c-6,9-15.6,18.4-17.9,18.4c-0.4,0-0.8-0.3-0.9-0.7c0,0,0,0,0,0c0.1-0.5,0.4-0.9,0.8-1.2c8.4-6.8,17.4-20.8,17.4-22.8
			c0-1.1-0.9-2-3-2.3c-0.5-0.1-1-0.3-1-0.8c0-0.8,1.1-1.1,2.1-1.1c2,0,7,1.9,7,3.9c-0.1,0.7-0.5,1.3-1.1,1.8c-0.4,0.3-0.7,0.7-1,1.1
			c-0.2,0.2-0.3,0.4-0.4,0.7c-0.3,0.4-0.4,0.8-0.7,1.2c0.3,0,0.4,0.1,0.7,0.1c0.7,0,0.7,0,11.9-1.8c0.8-0.1,1.3-1.1,2.2-1.1
			c1.3,0,4.5,2.2,4.5,3.4c0,0.8-0.8,1.3-1.2,1.6c-0.6,0.3-1,0.8-1.3,1.4c-16,31.2-36.6,36.6-37.3,36.6s-1.2-0.4-1.2-0.8
			c0-0.3,0.3-0.6,0.8-0.9c24.3-10.9,34.6-37.9,34.6-38s-0.1-0.2-0.3-0.2C540.2,12.9,534.2,13.9,530.2,14.9"/>
	</g>
</g>
</svg>
