<svg xmlns="http://www.w3.org/2000/svg" xmlns:xlink="http://www.w3.org/1999/xlink" width="546" height="55.489" viewBox="0 0 546 55.489">
  <defs>
    <clipPath id="clip-path">
      <rect id="長方形_24122" data-name="長方形 24122" width="546" height="55.489" fill="#fff" stroke="#fff" stroke-width="1"/>
    </clipPath>
  </defs>
  <g id="グループ_9542" data-name="グループ 9542" transform="translate(0 0)">
    <g id="グループ_9541" data-name="グループ 9541" transform="translate(0 0)" clip-path="url(#clip-path)">
      <path id="パス_6539" data-name="パス 6539" d="M32.308,18.236a2.426,2.426,0,0,1-.444,1.262,3.032,3.032,0,0,0-.444.887,5.5,5.5,0,0,1-.19.887C25.215,41.29,8.107,50.037,6.143,50.037c-.629,0-1.072-.386-1.072-.766,0-.254.254-.565.7-.819C23.06,39.014,27.745,20.829,27.745,19.123a3.708,3.708,0,0,0-1.775-2.979c-1.389.248-5.445.945-8.234,1.769a3.731,3.731,0,0,1-.887.132,7.4,7.4,0,0,1-3.354-1.711C8.741,24.379,2.535,30.711.887,30.711a.8.8,0,0,1-.887-.7,1.524,1.524,0,0,1,.634-1.077C6.4,23.681,14.445,9.109,14.445,4.424c0-.761-1.141-1.516-2.852-1.775a.824.824,0,0,1-.824-.761c0-.945.887-1.014,1.648-1.014,3.734,0,7.093,1.9,7.093,3.359a2.171,2.171,0,0,1-.824,1.579,4.885,4.885,0,0,0-1.077,1.843,44.8,44.8,0,0,1-2.974,6.65,3,3,0,0,0,1.585.444c1.452,0,15.771-1.711,20.456-2.535,1.141-.19,1.838-1.268,3.106-1.268,1.141,0,6.333,1.141,6.333,3.232,0,.761-.824,1.268-2.028,1.268h-.312c-2.028-.127-4.12-.254-6.079-.254-1.9,0-6.275.312-8.43.57,1.585.7,3.042,1.648,3.042,2.472" transform="translate(0 3.747)" fill="#fff" stroke="#fff" stroke-width="1"/>
      <path id="パス_6540" data-name="パス 6540" d="M14.366,49.193a.8.8,0,0,1-.829-.819.873.873,0,0,1,.512-.887c21.977-10.389,29.2-31.04,29.2-31.611,0-.259-.127-.444-.5-.444A188.179,188.179,0,0,0,22.41,19.109c-1.268.312-2.789,1.077-4.246,1.077-1.648,0-7.664-2.6-7.664-5.456a.736.736,0,0,1,.7-.819,1.485,1.485,0,0,1,.882.38,11.61,11.61,0,0,0,6.4,1.965,7.67,7.67,0,0,0,1.2-.063c8.678-1.268,16.215-2.345,21.349-3.042a8,8,0,0,0,1.96-.7,4.821,4.821,0,0,1,1.331-.507c1.394,0,4.88,1.965,4.88,3.359,0,.38-.254.887-1.014,1.452a4.318,4.318,0,0,0-1.077,1.077c-12.227,26.1-32.5,31.357-32.746,31.357M27.032,7.135a34.879,34.879,0,0,1-3.988.444c-2.979,0-6.908-2.345-6.908-4.748,0-.444.19-.7.57-.7a3.188,3.188,0,0,1,1.331.5,12.1,12.1,0,0,0,5.952,1.648c2.6,0,9.945-1.009,12.544-2.593a3.679,3.679,0,0,1,1.521-.634h.19c1.141,0,3.613.444,3.93,1.009a2.692,2.692,0,0,1,.312,1.077c0,.634-.38,1.268-1.9,1.585-2.979.761-11.276,2.086-13.558,2.408" transform="translate(44.958 4.522)" fill="#fff" stroke="#fff" stroke-width="1"/>
      <path id="パス_6541" data-name="パス 6541" d="M27.405,21.28a17.555,17.555,0,0,0-6.9-6.2.667.667,0,0,1-.317-.444,1.218,1.218,0,0,1,1.077-1.019c.058,0,.127.069.19.069,8.551,2.783,9.121,5.192,9.121,6.967,0,.761-.254,2.028-1.331,2.028-.507,0-1.141-.38-1.838-1.4m3.106,20.271a42.019,42.019,0,0,0,.945,7.859,13.825,13.825,0,0,1,.2,1.9c0,2.218-.824,4.178-2.6,4.178-1.077,0-1.9-1.141-1.9-2.657a2.639,2.639,0,0,1,.063-.7,59.126,59.126,0,0,0,.761-8.361c0-2.4-.317-6.65-5.768-6.65-.375,0-.565-.444-.565-.887s.248-.945.692-.945H22.4q2.084.182,4.178.185a2.386,2.386,0,0,0,2.155-1.262c1.648-2.852,5.636-12.417,9.819-24.137a.609.609,0,0,1,.57-.38c.507,0,1.141.444,1.141.951,0,.19,0,.19-7.22,21.032-2.408,6.46-2.535,7.849-2.535,9.877m1.706-32.81a16.942,16.942,0,0,0-6.65-6.713c-.19-.132-.317-.254-.317-.444,0-.38.57-.887,1.141-.887.634,0,7.854,3.613,8.683,5.577A5.152,5.152,0,0,1,35.512,8.3c0,1.014-.438,2.155-1.326,2.155-.57,0-1.273-.507-1.97-1.711m43.9,28.252c-.127,1.268-.887,8.361-1.077,10.389v.254a1.063,1.063,0,0,0,.634,1.141c.127.063.254.063.317.127.7.38,1.521.755,1.521,1.838,0,1.521-.634,3.164-18.877,3.164-7.347,0-14.382-.121-14.382-7.151V22.933c-2.276.755-4.368,1.521-5.7,2.028a6.35,6.35,0,0,1-1.838-2.725c2.218-.38,4.944-1.014,7.537-1.711V12.164a37.976,37.976,0,0,0-.5-6.528c4.368.132,5.445.444,5.445,1.331,0,.57-.7,1.2-1.838,1.585V19.7c2.472-.7,4.627-1.394,5.826-1.838L56.734,16.6V6.84A55.157,55.157,0,0,0,56.227,0c1.521.19,3.486.317,4.563.57.819.19,1.136.57,1.136,1.014,0,.824-1.077,1.521-2.15,1.711V15.523l10.511-3.8c.444-.507.7-1.2,1.141-1.711a.616.616,0,0,1,.317-.19c.127,0,.19.063.317.063,1.2.444,3.613,1.706,3.613,2.725,0,.634-.634,1.2-2.086,1.775,0,11.657-.259,15.074-.829,17.989a7.4,7.4,0,0,1-6.333,6.079c-.57,0-.7-.38-.951-1.014a1.274,1.274,0,0,0-.254-.507c-.19-.38-.254-.444-3.359-1.458-.254-.063-.38-.375-.38-.7,0-.444.254-.951.57-.951h.069a41.289,41.289,0,0,0,4.3.639c3.544,0,3.93-4.183,4.056-12.354v-8.3l-10.706,3.8v8.3c0,1.648,0,7.352.127,12.924,0,.634.127,3.232.127,3.993,0,1.389-1.838,1.579-2.282,1.579a1.347,1.347,0,0,1-1.521-1.331c0-.121.063-2.023.127-3.29.254-4.938.38-12.158.38-13.875V18.75l-3.106,1.077c-1.458.507-3.8,1.268-6.269,2.092V46.31c0,4.236,3.232,4.558,10.833,4.558,10.833,0,13.368-.254,14.313-2.725.38-.945.761-3.739,1.965-11.4a.719.719,0,0,1,.761-.507.8.8,0,0,1,.887.7Z" transform="translate(86.426 0)" fill="#fff" stroke="#fff" stroke-width="1"/>
      <path id="パス_6542" data-name="パス 6542" d="M34.527,41.934c-.57,0-.951-.254-.951-.634,0-.317.254-.7.824-1.014C58.727,27.615,67.532,5.511,67.532,5.384s-.063-.127-.063-.127c-.063-.063-.127-.063-.254-.063-.254,0-.634.063-.761.063-4.817.57-13.368,2.852-15.9,4.114a4.678,4.678,0,0,1-1.965.444c-1.838,0-5.514-2.092-7.03-5.192a.749.749,0,0,1-.069-.38.96.96,0,0,1,.824-.951,1.257,1.257,0,0,1,.824.38,9.847,9.847,0,0,0,2.6,1.585,8.426,8.426,0,0,0,3.359.57c.312,0,.629-.069.945-.069,3.613-.375,10.833-2.15,16.093-2.783a2.533,2.533,0,0,0,1.141-.444,3.54,3.54,0,0,1,1.141-.7h.19c.887,0,4.685,1.711,4.685,3.169,0,.507-.444.951-1.141,1.458a7.2,7.2,0,0,0-1.077.882,107.369,107.369,0,0,1-9.248,13.748C72.09,27.615,78.492,34.016,79.062,36.166a8.045,8.045,0,0,1,.248,1.653c0,2.276-1.009,2.783-1.521,2.783q-1.038,0-2.086-1.9C73.168,33.953,67.912,28,60.624,22.55c-11.9,14.25-25.273,19.384-26.1,19.384" transform="translate(143.762 7.857)" fill="#fff" stroke="#fff" stroke-width="1"/>
      <path id="パス_6543" data-name="パス 6543" d="M77.188,18.236a2.426,2.426,0,0,1-.444,1.262,3.033,3.033,0,0,0-.444.887,5.5,5.5,0,0,1-.19.887C70.095,41.29,52.987,50.037,51.023,50.037c-.629,0-1.072-.386-1.072-.766,0-.254.254-.565.7-.819C67.94,39.014,72.625,20.829,72.625,19.123a3.708,3.708,0,0,0-1.775-2.979c-1.389.248-5.445.945-8.234,1.769a3.731,3.731,0,0,1-.887.132,7.4,7.4,0,0,1-3.354-1.711c-4.754,8.044-10.96,14.377-12.607,14.377a.8.8,0,0,1-.887-.7,1.524,1.524,0,0,1,.634-1.077C51.281,23.681,59.325,9.109,59.325,4.424c0-.761-1.141-1.516-2.852-1.775a.824.824,0,0,1-.824-.761c0-.945.887-1.014,1.648-1.014,3.734,0,7.093,1.9,7.093,3.359a2.172,2.172,0,0,1-.824,1.579,4.885,4.885,0,0,0-1.077,1.843,44.8,44.8,0,0,1-2.974,6.65,3,3,0,0,0,1.585.444c1.452,0,15.771-1.711,20.461-2.535,1.136-.19,1.833-1.268,3.1-1.268,1.141,0,6.333,1.141,6.333,3.232,0,.761-.824,1.268-2.028,1.268h-.317c-2.023-.127-4.114-.254-6.079-.254-1.9,0-6.269.312-8.424.57,1.585.7,3.042,1.648,3.042,2.472" transform="translate(192.162 3.747)" fill="#fff" stroke="#fff" stroke-width="1"/>
      <path id="パス_6544" data-name="パス 6544" d="M96.6,11.055c-2.852.063-10.516.121-17.546.254-7.1.121-13.558.254-14.065.312a11.445,11.445,0,0,1-2.213.576c-2.218,0-6.592-4.69-6.592-7.1,0-.507.254-.755.507-.755a.64.64,0,0,1,.507.312c2.789,3.3,4.69,3.486,8.81,3.486,7.22,0,25.843-.57,31.542-.761h1.014c.444,0,6.206,0,6.206,1.648,0,.819-1.521,1.648-3.988,1.769a37.883,37.883,0,0,1-4.183.259" transform="translate(240.562 18.592)" fill="#fff" stroke="#fff" stroke-width="1"/>
      <path id="パス_6545" data-name="パス 6545" d="M76.285,23.388c0,7.664.19,16.157.38,21.539V45.3c0,2.979-.761,5.07-2.028,5.07-1.9,0-2.657-4.495-2.657-5.636a8.805,8.805,0,0,1,.507-2.6c.312-.634.824-1.838.824-24.449,0-4.12-.069-7.986-.2-10.706-.127-2.789-.755-3.359-3.8-4.373-.57-.19-.824-.507-.824-.761,0-.634.57-.951,1.648-.951a15.981,15.981,0,0,1,6.967,2.345,1.321,1.321,0,0,1,.761,1.2,3.735,3.735,0,0,1-.254,1.141,6.584,6.584,0,0,1-.254.634c-.761,2.092-.951,6.65-1.014,12.417,6.4,1.2,14.065,4.178,17.989,7.22a4.741,4.741,0,0,1,1.585,3.549c0,1.389-.634,1.643-1.077,1.643a3.547,3.547,0,0,1-2.086-1.077,52.774,52.774,0,0,0-16.474-9.248Z" transform="translate(293.274 3.85)" fill="#fff" stroke="#fff" stroke-width="1"/>
      <path id="パス_6546" data-name="パス 6546" d="M84.4,9.537c-.069.692-.127,2.023-.127,3.607,0,2.218.058,4.88.058,7.289V23.47c0,5.641,0,8.049-1.769,8.049-1.268,0-2.472-1.965-2.472-3.93a6.4,6.4,0,0,1,.19-1.077c.7-2.467.761-4.241.761-12.417,0-1.141-.063-2.15-.063-2.847-.063-.7-.063-1.331-.063-1.965,0-2.155-.507-3.8-3.29-4.621-.576-.132-.829-.512-.829-.829V3.706c.127-.444.57-.761,1.394-.761,1.268,0,6.908,1.526,6.908,3.866a3.648,3.648,0,0,1-.512,1.711A4.417,4.417,0,0,0,84.4,9.537M78.067,51.024c0-.317.254-.7.824-.951,10.833-5.192,19.257-16.4,19.257-31.352,0-5.7-.063-8.239-.063-11.15,0-2.092,0-4.31-4.056-5.07-.5-.127-.761-.38-.761-.692,0-.507.444-1.077,1.775-1.077,1.9,0,7.859,1.458,7.859,4.051a2.855,2.855,0,0,1-.069.761c-.121.317-.248.7-.444,1.141a11.8,11.8,0,0,0-.375,2.028c-.19,1.9-.19,5.641-.254,6.65a5.48,5.48,0,0,0-.063,1.014c0,.761.063,1.648.063,3.042,0,23.688-21.1,32.493-22.553,32.493-.634,0-1.141-.375-1.141-.887" transform="translate(328.83 3.135)" fill="#fff" stroke="#fff" stroke-width="1"/>
      <path id="パス_6547" data-name="パス 6547" d="M85.909,4.025a.987.987,0,0,1-.7-.887.925.925,0,0,1,.127-.38,1.623,1.623,0,0,1,1.2-.444c1.648,0,12.861,4.183,14.445,7.162a4.971,4.971,0,0,1,.629,2.467c0,.444-.058,2.345-1.516,2.345a2.74,2.74,0,0,1-2.092-1.516c-2.979-4.125-9.945-7.917-12.1-8.746M97,37.791a5.7,5.7,0,0,0-.634.565,2.217,2.217,0,0,1-1.2.254c-3.423,0-8.361-4.236-8.361-6.9a.946.946,0,0,1,.887-1.019,1.122,1.122,0,0,1,.824.386c.824,1.009,2.472,2.852,4.685,2.852a5.039,5.039,0,0,0,1.585-.322c12.1-4.431,28.067-20.335,33.829-28.944a1.222,1.222,0,0,1,.951-.639.935.935,0,0,1,.824,1.014C130.381,7.575,116,26.7,98.58,36.4a4.047,4.047,0,0,0-.824.629Z" transform="translate(364.851 9.908)" fill="#fff" stroke="#fff" stroke-width="1"/>
      <path id="パス_6548" data-name="パス 6548" d="M120.779,11.71a9.058,9.058,0,0,1-2.345.444,3.469,3.469,0,0,1-.824-.121,4.853,4.853,0,0,1-1.648-.639c-6.016,9-15.581,18.37-17.863,18.37A.8.8,0,0,1,97.218,29a1.863,1.863,0,0,1,.755-1.2C106.339,21.027,115.392,6.962,115.392,5c0-1.077-.882-1.965-3.037-2.345-.507-.121-1.014-.312-1.014-.824,0-.819,1.078-1.072,2.092-1.072,1.96,0,7.03,1.9,7.03,3.924a2.8,2.8,0,0,1-1.078,1.775,5.972,5.972,0,0,0-.951,1.077,3.192,3.192,0,0,0-.444.7c-.253.38-.444.755-.7,1.2.253,0,.444.063.7.063.7,0,.7,0,11.91-1.838.761-.121,1.331-1.072,2.155-1.072,1.331,0,4.495,2.155,4.495,3.423,0,.755-.819,1.331-1.2,1.585a3.022,3.022,0,0,0-1.262,1.389C118.054,44.145,97.529,49.6,96.832,49.6s-1.2-.38-1.2-.824c0-.322.259-.639.829-.887,24.322-10.9,34.585-37.88,34.585-38.012s-.063-.19-.317-.19c0,0-6.016,1.019-9.945,2.028" transform="translate(409.449 3.237)" fill="#fff" stroke="#fff" stroke-width="1"/>
    </g>
  </g>
</svg>
