<?xml version="1.0" encoding="UTF-8"?>
<svg id="_レイヤー_2" data-name="レイヤー 2" xmlns="http://www.w3.org/2000/svg" xmlns:xlink="http://www.w3.org/1999/xlink" version="1.1" viewBox="0 0 565 795.6">
  <defs>
    <style>
      .cls-1 {
        letter-spacing: -.2em;
      }

      .cls-2 {
        fill: #5c5c5c;
        font-size: 14.2px;
        letter-spacing: 0em;
        stroke: #5c5c5c;
      }

      .cls-2, .cls-3, .cls-4, .cls-5, .cls-6, .cls-7, .cls-8, .cls-9, .cls-10 {
        font-family: TsukuMinPr6N-L-83pv-RKSJ-H, 'FOT-TsukuMin Pr6N';
        stroke-miterlimit: 10;
      }

      .cls-2, .cls-3, .cls-4, .cls-5, .cls-8, .cls-9 {
        stroke-width: .2px;
      }

      .cls-3, .cls-4, .cls-5, .cls-6, .cls-7, .cls-11, .cls-8, .cls-9, .cls-10 {
        fill: #000;
      }

      .cls-3, .cls-4, .cls-5, .cls-6, .cls-7, .cls-8, .cls-9, .cls-10 {
        stroke: #000;
      }

      .cls-3, .cls-4, .cls-6, .cls-8, .cls-10 {
        font-size: 16.6px;
      }

      .cls-3, .cls-12 {
        letter-spacing: .1em;
      }

      .cls-13 {
        letter-spacing: 0em;
      }

      .cls-14 {
        letter-spacing: 0em;
      }

      .cls-5 {
        font-size: 11.9px;
      }

      .cls-15 {
        letter-spacing: .1em;
      }

      .cls-16 {
        letter-spacing: 0em;
      }

      .cls-17 {
        letter-spacing: 0em;
      }

      .cls-18 {
        letter-spacing: 0em;
      }

      .cls-19 {
        letter-spacing: 0em;
      }

      .cls-20 {
        letter-spacing: 0em;
      }

      .cls-21 {
        letter-spacing: 0em;
      }

      .cls-22 {
        clip-path: url(#clippath);
      }

      .cls-23 {
        letter-spacing: 0em;
      }

      .cls-24 {
        fill: none;
      }

      .cls-24, .cls-25, .cls-26, .cls-27, .cls-11, .cls-28, .cls-29, .cls-30, .cls-31, .cls-32 {
        stroke-width: 0px;
      }

      .cls-33 {
        letter-spacing: 0em;
      }

      .cls-34 {
        letter-spacing: -.1em;
      }

      .cls-35 {
        letter-spacing: -.1em;
      }

      .cls-36 {
        letter-spacing: 0em;
      }

      .cls-25 {
        fill: #ed1c24;
      }

      .cls-37 {
        letter-spacing: 0em;
      }

      .cls-6 {
        letter-spacing: 0em;
      }

      .cls-6, .cls-7, .cls-10 {
        stroke-width: .3px;
      }

      .cls-38 {
        letter-spacing: 0em;
      }

      .cls-7 {
        font-size: 13.1px;
        letter-spacing: 0em;
      }

      .cls-39 {
        letter-spacing: -.1em;
      }

      .cls-40 {
        letter-spacing: 0em;
      }

      .cls-41 {
        letter-spacing: 0em;
      }

      .cls-42 {
        letter-spacing: 0em;
      }

      .cls-26 {
        fill: #2e5694;
      }

      .cls-27 {
        fill: #e8e8d8;
      }

      .cls-28 {
        fill: #f15a24;
      }

      .cls-8, .cls-43, .cls-10 {
        letter-spacing: .1em;
      }

      .cls-44 {
        letter-spacing: 0em;
      }

      .cls-45 {
        letter-spacing: .1em;
      }

      .cls-46 {
        letter-spacing: .1em;
      }

      .cls-47 {
        letter-spacing: 0em;
      }

      .cls-48 {
        letter-spacing: 0em;
      }

      .cls-9 {
        font-size: 15.4px;
      }

      .cls-49 {
        letter-spacing: 0em;
      }

      .cls-50 {
        letter-spacing: 0em;
      }

      .cls-29 {
        fill: red;
      }

      .cls-51 {
        letter-spacing: 0em;
      }

      .cls-52 {
        letter-spacing: 0em;
      }

      .cls-30 {
        fill: #00b700;
      }

      .cls-31 {
        fill: #fff;
      }

      .cls-32 {
        fill: #81a020;
      }

      .cls-53 {
        letter-spacing: 0em;
      }
    </style>
    <clipPath id="clippath">
      <rect class="cls-24" x=".6" y=".8" width="564.1" height="794.3"/>
    </clipPath>
  </defs>
  <g class="cls-22">
    <g id="_グループ_11272" data-name=" グループ 11272">
      <path id="_パス_11899" data-name=" パス 11899" class="cls-27" d="M239.5,271.4c-.4-.4-.9-.8-1.5-1.1-.9-.6-2-1.2-3.6-2.1-3-1.7-7.1-3.9-12-6.4-14.1-7.4-35.2-18.6-56.1-32.1-10.5-6.8-20.7-14.1-30.3-22-9.1-7.4-17.5-15.7-24.8-24.9-24.2-30.9-38.1-53.9-49.4-72.4-5.6-9.2-10.4-17.1-15.4-24.2C31.5,65.1-1.4,15.5-1.7,15l2.2-1.4c.3.5,33.2,49.9,48.2,71.3,5,7.2,9.9,15.1,15.5,24.3,11.3,18.5,25.3,41.4,49.3,72.2,7.3,9,15.5,17.2,24.5,24.5,9.6,7.8,19.6,15.1,30.1,21.8,20.8,13.5,41.9,24.6,55.9,31.9,4.8,2.5,9,4.8,12,6.4,4.1,2.3,5.3,3.2,5.8,3.9l-2.1,1.6h0Z"/>
      <path id="_パス_11900" data-name=" パス 11900" class="cls-27" d="M363.1,640.9s-10.8,48.2-13.3,55.4c0-.4,64.4,17.3,64.4,17.3,0,0,24.1-46.3,39.5-96.1l-54.6-15.4c-10.5,14.3-22.6,27.3-36,38.7"/>
      <rect id="_長方形_24919" data-name=" 長方形 24919" class="cls-27" x="143.9" y="144.8" width="78.3" height="48.9"/>
      <rect id="_長方形_24920" data-name=" 長方形 24920" class="cls-27" x="148.8" y="278" width="86.9" height="48.9"/>
      <path id="_パス_11901" data-name=" パス 11901" class="cls-27" d="M258.6,851.9l-8-5.1c.7-1.1,67.1-106.3,82-197,13.2-80.8-17.4-180.2-31.2-219.3-12.2-34.6-16.2-45.3-25.4-60.9-1.9-3.1-3.9-6-6.1-8.8-7.4-9.7-14.4-18.9-19.9-56.6-7-47.1-35.1-347.1-35.4-350.1l9.4-.9c.3,3,28.6,302.8,35.4,349.6,5.2,35.3,11.5,43.6,18.1,52.3,2.4,3.1,4.7,6.3,6.7,9.7,9.7,16.3,14,28.1,26.2,62.6,14,39.7,45.1,141.1,31.6,223.9-15.2,92.6-82.7,199.5-83.3,200.5h0Z"/>
      <path id="_パス_11902" data-name=" パス 11902" class="cls-27" d="M212.6,497.4l-1.7-2c5.5-4.7,11.6-8.7,18.2-11.8,5.9-2.9,11.9-5.3,18.1-7.4,2.9-.9,5.7-2.3,8.1-4.1,1.7-1.3,3.2-3,4.2-4.9,1.9-3.6,2.1-8,2.4-13.1,0-4.4.6-8.8,1.5-13.1,1-4.2,3.6-7.5,7.9-9.8,4-2,8.3-3.2,12.7-3.5,5.6-.6,11.3-.5,17,.2l-.4,2.6c-5.4-.7-10.9-.7-16.3-.2-4.1.3-8.1,1.4-11.7,3.3-1.6.8-3,2-4.2,3.3-1.2,1.4-2,3-2.4,4.8-.9,4.2-1.4,8.4-1.5,12.6-.3,5.4-.6,10-2.7,14.2-2.4,4.6-6.7,7.8-13.8,10.2-6.1,2-12,4.4-17.8,7.2-6.3,3-12.3,6.9-17.6,11.4h0Z"/>
      <path id="_パス_11903" data-name=" パス 11903" class="cls-27" d="M303.2,752.7s-4.1-1.6-10.6-4.6c-6-2.8-15.5-7.5-26.4-13.8-11.8-6.9-23.2-14.6-33.9-23-12.3-9.5-23.6-20.2-33.5-32-6.2-7.1-11.2-15.3-14.8-24l2.5-1c3.5,8.5,8.3,16.3,14.3,23.3,9.9,11.7,21.1,22.3,33.1,31.6,10.7,8.3,22,15.9,33.6,22.8,10.8,6.3,20.2,10.9,26.1,13.7,6.5,3,10.5,4.6,10.5,4.6l-1,2.5h0Z"/>
      <path id="_パス_11904" data-name=" パス 11904" class="cls-27" d="M74,397.2h-19.8c-17.1,0-40.5-.6-55-1.7l.2-2.6c27.5,2.2,87,1.8,88.7,1.8s13-.7,29.3-2.7c9.8-1.2,19.2-2.6,27.8-4.3,9.6-1.8,19.2-4.1,28.6-6.9,10.3-3.2,29.6-8.6,62.4-15.9,19.7-4.4,35-7.4,35.1-7.4l.5,2.6c-.2,0-15.6,3-35.1,7.4-18.1,4-43.5,10-62.1,15.8-9.5,2.9-19.1,5.2-28.9,7-8.7,1.6-18.1,3.1-27.9,4.3-16.8,2.1-29.4,2.7-29.5,2.8h-14.2v-.2h0Z"/>
      <path id="_パス_11905" data-name=" パス 11905" class="cls-27" d="M693.9,429.8l-109.4-29.4c-.5,0-16.1-4-36.9-7.5-12.4-2.1-24.2-3.7-35-4.7-12-1.2-24.1-1.6-36-1.2-11.2.5-21.3-.8-30.2-3.8-6.9-2.3-13.2-5.9-18.7-10.7-3.7-3.2-6.9-7-9.5-11.2-1-1.7-1.9-3.4-2.7-5.3h0c-1.5-4.4-4-8.4-7.4-11.6-2.8-2.6-6.1-4.6-9.7-5.9-3.8-1.5-7.9-2.4-12-2.5h0c-4.7-.4-9.4-.2-14,.6-4.8.8-9.5,2-14,3.6-9.3,3.4-18.2,7.9-26.4,13.3-16.4,10.5-29.5,22.7-35,27.9-2.7,2.5-3,2.8-3.5,2.9l-.6-2.6c0,0-.2,0-.3,0,.3-.2,1.4-1.3,2.7-2.4,5.7-5.3,18.9-17.6,35.4-28.2,8.5-5.5,17.5-10.1,27-13.5,4.7-1.7,9.5-2.9,14.5-3.7,4.8-.8,9.7-1,14.6-.6,4.4.2,8.8,1.1,12.9,2.7,3.9,1.5,7.5,3.7,10.5,6.5,3.7,3.5,6.5,7.8,8.1,12.6.7,1.7,1.5,3.3,2.5,4.9,2.4,3.9,5.5,7.5,9,10.5,5.2,4.5,11.3,7.9,17.8,10.1,8.5,2.9,18.3,4.1,29.1,3.6,12.2-.4,24.4,0,36.4,1.2,10.9,1,22.8,2.6,35.2,4.7,21.2,3.6,37,7.5,37.1,7.6h0l109.4,29.4-.7,2.5h0Z"/>
      <path id="_パス_11914" data-name=" パス 11914" class="cls-11" d="M265.6,382.7c0,4.5-3.6,8.1-8.1,8.1s-8.1-3.6-8.1-8.1,3.6-8.1,8.1-8.1,8.1,3.6,8.1,8.1"/>
      <path id="_パス_11929" data-name=" パス 11929" class="cls-11" d="M283.8,536.3c0,4.5-3.6,8.1-8.1,8.1s-8.1-3.6-8.1-8.1,3.6-8.1,8.1-8.1h0c4.5,0,8.1,3.6,8.1,8.1h0"/>
      <path id="_パス_11958" data-name=" パス 11958" class="cls-11" d="M243.5,592c0,4.5-3.6,8.1-8.1,8.1s-8.1-3.6-8.1-8.1,3.6-8.1,8.1-8.1h0c4.5,0,8.1,3.6,8.1,8.1h0"/>
      <path id="_パス_11973" data-name=" パス 11973" class="cls-11" d="M408.4,558.9c0,4.5-3.6,8.1-8.1,8.1s-8.1-3.6-8.1-8.1,3.6-8.1,8.1-8.1,8.1,3.6,8.1,8.1h0"/>
      <path id="_パス_11974" data-name=" パス 11974" class="cls-27" d="M659.7,788.8h-.3l-110.2-25.8c-.6,0-1.2,0-1.8-.2-.9-.2-2.3-.5-4.1-.9-3.3-.8-8.2-2-14.4-3.6-11.1-2.8-27-7-47.3-12.5-37.1-9.9-81.4-22-113.7-30.8-21.6-5.9-38.5-10.5-39.7-10.8-.7,0-1.2-.8-1.1-1.5,0-.6.7-1.1,1.3-1.1,1.1.2,2.3.5,3.4.8,1.8.5,4.5,1.2,8.2,2.2,7,1.9,17,4.6,28.7,7.8,31.6,8.6,75,20.4,111.8,30.3,20.2,5.4,36,9.6,47.3,12.5,6.4,1.6,11.4,2.9,15,3.7,2.8.7,4.3,1,5.2,1.2v-.2l1.6.4,110.5,25.9c.7.2,1.1.9,1,1.6,0,.6-.7,1-1.3,1h0Z"/>
      <path id="_線_820" data-name=" 線 820" class="cls-27" d="M364.4,649.9l-26.9-2.9.7-7,26.9,2.9-.7,7Z"/>
      <path id="_線_821" data-name=" 線 821" class="cls-27" d="M341.9,557.5l-4.6-5.3,65.4-57.5,4.6,5.3-65.4,57.5Z"/>
      <path id="_パス_11975" data-name=" パス 11975" class="cls-27" d="M358.3,537.1l-20.6-74.2s-5-19.5,24.5-24.9c29.6-5.4,52.5,50.7,52.5,50.7l-56.5,48.2h0Z"/>
      <path id="_パス_11976" data-name=" パス 11976" class="cls-27" d="M356.4,543.4l-22-79.5c-1.1-5.4,0-11,2.9-15.7,4.4-6.9,12.6-11.4,24.4-13.6,1.5-.3,3.1-.4,4.7-.4,29.6,0,50.9,51.1,51.8,53.3l1,2.3-62.6,53.4h-.2,0ZM366.3,441.3c-1.1,0-2.3,0-3.4.3-9.7,1.8-16.3,5.3-19.7,10.4-2,3-2.7,6.7-2.1,10.2l19.1,68.8,50.4-43c-4.4-9.7-22.6-46.6-44.3-46.6h0Z"/>
      <path id="_パス_11983" data-name=" パス 11983" class="cls-11" d="M322.2,386c0,4.5-3.6,8.1-8.1,8.1s-8.1-3.6-8.1-8.1,3.6-8.1,8.1-8.1,8.1,3.6,8.1,8.1h0"/>
      <path id="_パス_11992" data-name=" パス 11992" class="cls-11" d="M370.9,310.2c0,4.5-3.6,8.1-8.1,8.1s-8.1-3.6-8.1-8.1,3.6-8.1,8.1-8.1,8.1,3.6,8.1,8.1h0"/>
      <path id="_パス_12001" data-name=" パス 12001" class="cls-11" d="M522,413.9c0,4.5-3.6,8.1-8.1,8.1s-8.1-3.6-8.1-8.1,3.6-8.1,8.1-8.1,8.1,3.6,8.1,8.1"/>
      <path id="_パス_12020" data-name=" パス 12020" class="cls-11" d="M406.8,248.3c0,4.5-3.6,8.1-8.1,8.1s-8.1-3.6-8.1-8.1,3.6-8.1,8.1-8.1,8.1,3.6,8.1,8.1h0"/>
      <path id="_パス_12021" data-name=" パス 12021" class="cls-27" d="M297.1,366.1s34.8-26,54.5-34.5l-22.8-60.1h-64.5c0,0,4.8,39,11.9,63.7,2.5,8.9,20.9,31,20.9,31"/>
      <rect id="_長方形_24921" data-name=" 長方形 24921" class="cls-11" x="238.4" y="258.7" width="26.6" height="16.2"/>
      <path id="_パス_12022" data-name=" パス 12022" class="cls-11" d="M246.5,266.8c0,4.5-3.6,8.1-8.1,8.1s-8.1-3.6-8.1-8.1,3.6-8.1,8.1-8.1,8.1,3.6,8.1,8.1h0"/>
      <path id="_パス_12023" data-name=" パス 12023" class="cls-31" d="M243.2,266.8c0,2.7-2.2,4.8-4.8,4.8s-4.8-2.2-4.8-4.8,2.2-4.8,4.8-4.8,4.8,2.2,4.8,4.8"/>
      <path id="_パス_12024" data-name=" パス 12024" class="cls-11" d="M259.5,266.8c0,4.5-3.6,8.1-8.1,8.1s-8.1-3.6-8.1-8.1,3.6-8.1,8.1-8.1,8.1,3.6,8.1,8.1h0"/>
      <path id="_パス_12025" data-name=" パス 12025" class="cls-31" d="M256.2,266.8c0,2.7-2.2,4.8-4.8,4.8s-4.8-2.2-4.8-4.8,2.2-4.8,4.8-4.8,4.8,2.2,4.8,4.8"/>
      <path id="_パス_12026" data-name=" パス 12026" class="cls-11" d="M272.4,266.8c0,4.5-3.6,8.1-8.1,8.1s-8.1-3.6-8.1-8.1,3.6-8.1,8.1-8.1,8.1,3.6,8.1,8.1h0"/>
      <path id="_パス_12027" data-name=" パス 12027" class="cls-31" d="M269.1,266.8c0,2.7-2.2,4.8-4.8,4.8s-4.8-2.2-4.8-4.8,2.2-4.8,4.8-4.8,4.8,2.2,4.8,4.8"/>
      <path id="_線_822" data-name=" 線 822" class="cls-11" d="M250.1,260.9l-.2-28.2h1l.2,28.2h-1Z"/>
      <path id="_線_823" data-name=" 線 823" class="cls-27" d="M250.6,302.7h-23.8v-2.6h23.8v2.6Z"/>
      <path id="_線_824" data-name=" 線 824" class="cls-27" d="M220.1,169.4v-2.6c0,0,15.5-.7,15.5-.7v2.6c0,0-15.5.7-15.5.7Z"/>
      <path id="_パス_12062" data-name=" パス 12062" class="cls-27" d="M51.6,73.5l31.6,50.1h127.2l-.2-50.5-158.7.4h0Z"/>
      <path id="_パス_12087" data-name=" パス 12087" class="cls-31" d="M94.9,66.2c0,8.3-6.8,15.1-15.1,15.1s-15.1-6.8-15.1-15.1,6.8-15.1,15.1-15.1h0c8.3,0,15.1,6.8,15.1,15.1"/>
      <path id="_パス_12088" data-name=" パス 12088" class="cls-32" d="M83,60.2c-1-.6-2.1-.8-3.2-.7h-1.6v6.9h1.9c1,0,2.1-.2,3-.7.8-.7,1.3-1.7,1.3-2.7s-.5-2-1.3-2.7"/>
      <path id="_パス_12089" data-name=" パス 12089" class="cls-32" d="M79.7,49.3c-9.4,0-17,7.5-17,16.9s7.5,17,16.9,17,17-7.5,17-16.9h0c0-9.4-7.5-17-16.9-17h0ZM86.1,67.1c-1.3,1.2-3.1,1.8-4.9,1.7h-2.4v7.2h-3.8v-19.4h5.6c1.8-.2,3.7.3,5.1,1.5,2.5,2.4,2.6,6.4.4,9"/>
      <path id="_線_825" data-name=" 線 825" class="cls-27" d="M67.3,94.3h-15.9v-2.6h15.9v2.6Z"/>
      <path id="_線_826" data-name=" 線 826" class="cls-28" d="M246.8,302h-16.6v-1h16.6v1Z"/>
      <path id="_パス_12090" data-name=" パス 12090" class="cls-28" d="M231.1,298.2l-5.6,3.2,5.6,3.2v-6.5h0Z"/>
      <path id="_線_827" data-name=" 線 827" class="cls-28" d="M344.3,551.2l-.6-.8,16.3-13.6.6.8-16.3,13.6Z"/>
      <path id="_パス_12091" data-name=" パス 12091" class="cls-28" d="M361.7,540.3l2.2-6.1-6.4,1.1,4.2,5h0Z"/>
      <path id="_線_828" data-name=" 線 828" class="cls-28" d="M219.4,168.5v-1l12.9-.5v1l-12.9.5Z"/>
      <path id="_パス_12092" data-name=" パス 12092" class="cls-28" d="M220.2,164.8l-5.5,3.5,5.7,3-.3-6.5h0Z"/>
      <path id="_線_829" data-name=" 線 829" class="cls-28" d="M365,646.8l-18.9-2.3v-1c0,0,19,2.3,19,2.3v1h0Z"/>
      <path id="_パス_12093" data-name=" パス 12093" class="cls-28" d="M363.7,649.4l6-2.5-5.2-3.9-.8,6.4Z"/>
      <path id="_線_830" data-name=" 線 830" class="cls-28" d="M53.1,93.6v-1h12.9v1h-12.9Z"/>
      <path id="_パス_12094" data-name=" パス 12094" class="cls-28" d="M65.1,96.3l5.6-3.2-5.6-3.2v6.5h0Z"/>
      <path id="_線_831" data-name=" 線 831" class="cls-27" d="M309.7,368.2l-5.3-8.7,2.2-1.4,5.3,8.7-2.2,1.4Z"/>
      <path id="_パス_12095" data-name=" パス 12095" class="cls-25" d="M295.7,381.3l-.5-.9h0s9.9-8.6,10.8-9.3h0l4.2-3.7-5.7-9.3.9-.5,6.1,10-4.9,4.2c-.5.4-4.4,3.9-5.7,4.9l-5.2,4.5h0Z"/>
      <path id="_パス_12096" data-name=" パス 12096" class="cls-25" d="M302.6,360.4l-.2-6.5,5.7,3.1-5.5,3.4Z"/>
      <path id="_線_832" data-name=" 線 832" class="cls-27" d="M219.2,29.1H9.2v-2.6h210v2.6h0Z"/>
      <path id="_線_833" data-name=" 線 833" class="cls-28" d="M237.1,138.9v-.8h.9c0,0,0,.7,0,.7h-.9Z"/>
      <path id="_線_834" data-name=" 線 834" class="cls-28" d="M236.7,134.9v-1c0,0,.9,0,.9,0v1c0,0-.9,0-.9,0ZM236.4,132v-1c0,0,.9,0,.9,0v1c0,0-.9,0-.9,0ZM236.1,129v-1c0,0,.9,0,.9,0v1c0,0-.9,0-.9,0ZM235.8,126.1v-1c0,0,.9,0,.9,0v1c0,0-.9,0-.9,0ZM235.4,123.1v-1c0,0,.9,0,.9,0v1c0,0-.9,0-.9,0ZM235.1,120.1v-1c0,0,.9,0,.9,0v1c0,0-.9,0-.9,0ZM234.8,117.2v-1c0,0,.9,0,.9,0v1c0,0-.9,0-.9,0ZM234.5,114.2v-1c0,0,.9,0,.9,0v1c0,0-.9,0-.9,0ZM234.2,111.2v-1h.9v1c0,0-.9,0-.9,0ZM233.9,108.3v-1h.9v1c0,0-.9,0-.9,0ZM233.6,105.3v-1h.9v1c0,0-.9,0-.9,0ZM233.3,102.3v-1h.9v1h-.9ZM233,99.4v-1h.9v1h-.9ZM232.7,96.4v-1h.9v1h-.9ZM232.4,93.4v-1h.9v1h-.9ZM232.1,90.5v-1h.9v1h-.9ZM231.8,87.5v-1h.9v1h-.9ZM231.5,84.5v-1h.9v1h-.9ZM231.2,81.6v-1h.9v1h-.9ZM230.9,78.6v-1h.9v1h-.9ZM230.5,75.6v-1h.9v1h-.9ZM230.2,72.7v-1h.9v1h-.9ZM229.9,69.7v-1h.9v1h-.9ZM229.6,66.8v-1h.9v1h-.9ZM229.3,63.9v-1h.9v1h-.9ZM229,60.9v-1h.9v.9h-.9ZM228.7,57.9v-1h.9v.9h-.9ZM228.4,55v-1c0,0,.9,0,.9,0v1h-.9ZM228.1,52v-1c0,0,.9,0,.9,0v1h-.9ZM227.8,49v-1c0,0,.9,0,.9,0v1h-.9ZM227.5,46.1v-1c0,0,.9,0,.9,0v1h-.9ZM227.2,43.1v-1c0,0,.9,0,.9,0v1c0,0-.9,0-.9,0ZM226.9,40.1v-1h.9v.9c0,0-.9,0-.9,0h0ZM226.6,37.2v-1c0,0,.9,0,.9,0v1c0,0-.9,0-.9,0ZM226.3,34.2v-1h.9v1c0,0-.9,0-.9,0ZM226,31.3v-.8h.9c0,0,0,.7,0,.7h-.9Z"/>
      <path id="_パス_12097" data-name=" パス 12097" class="cls-28" d="M225.7,28.8v-.4h-.4v-1h1.3v1.3c0,0-.9,0-.9,0h0Z"/>
      <path id="_パス_12098" data-name=" パス 12098" class="cls-28" d="M222.1,28.4h-1v-1h1v1ZM219.1,28.4h-1v-1h1v1ZM216.1,28.4h-1v-1h1v1ZM213.1,28.4h-1v-1h1v1ZM210.2,28.3h-1v-1h1v1ZM207.2,28.3h-1v-1h1v1ZM204.2,28.3h-1v-1h1v1ZM201.2,28.2h-1v-1h1v1ZM198.3,28.2h-1v-1h1v1ZM195.4,28.2h-1v-1h1v1ZM192.4,28.2h-1v-1h1v1ZM189.4,28.2h-1v-1h1v1ZM186.4,28.2h-1v-1h1v1ZM183.4,28.2h-1v-1h1v1ZM180.5,28.2h-1v-1h1v1ZM177.5,28.2h-1v-1h1v1ZM174.5,28.2h-1v-1h1v1ZM171.5,28.2h-1v-1h1v1ZM168.6,28.2h-1v-1h1v1ZM165.6,28.2h-1v-1h1v1ZM162.6,28.2h-1v-1h1v1ZM159.6,28.2h-1v-1h1v1ZM156.6,28.2h-1v-1h1v1ZM153.7,28.1h-1v-1h1v1ZM150.7,28.1h-1v-1h1v1ZM147.7,28.1h-1v-1h1v1ZM144.7,28.1h-1v-1h1v1ZM141.7,28.1h-1v-1h1v1ZM138.8,28.1h-1v-1h1v1ZM135.8,28.1h-1v-1h1v1ZM132.9,28.1h-1v-1h1v1ZM129.9,28.1h-1v-1h1v1ZM126.9,28.1h-1v-1h1v1ZM124,28.1h-1v-1h1v1ZM121,28.1h-1v-1h1v1ZM118,28.1h-1v-1h1v1ZM115,28.1h-1v-1h1v1ZM112.1,28.1h-1v-1h1v1ZM109.1,28.1h-1v-1h1v1ZM106.1,28h-1v-1h1v1ZM103.1,28h-1v-1h1v1ZM100.1,28h-1v-1h1v1ZM97.2,28h-1v-1h1v1ZM94.2,28h-1v-1h1v1ZM91.2,28h-1v-1h1v1ZM88.2,28h-1v-1h1v1ZM85.2,28h-1v-1h1v1ZM82.3,28h-1v-1h1v1ZM79.3,28h-1v-1h1v1ZM76.3,28h-1v-1h1v1ZM73.3,28h-1v-1h1v1ZM70.4,28h-1v-1h1v1ZM67.5,28h-1v-1h1v1ZM64.5,28h-1v-1h1v1ZM61.5,28h-1v-1h1v1ZM58.5,28h-1v-1h1v1ZM55.6,27.9h-1v-1h1v1ZM52.6,27.9h-1v-1h1v1ZM49.6,27.9h-1v-1h1v1ZM46.6,27.9h-1v-1h1v1ZM43.6,27.9h-1v-1h1v1ZM40.7,27.9h-1v-1h1v1ZM37.7,27.9h-1v-1h1v1ZM34.7,27.9h-1v-1h1v1ZM31.7,27.9h-1v-1h1v1ZM28.7,27.9h-1v-1h1v1ZM25.8,27.9h-1v-1h1v1ZM22.8,27.9h-1v-1h1v1ZM19.8,27.9h-1v-1h1v1ZM16.8,27.9h-1v-1h1v1ZM13.9,27.9h-1v-1h1v1ZM10.9,27.9h-.2v-1h.2v1Z"/>
      <path id="_パス_12099" data-name=" パス 12099" class="cls-28" d="M8.4,28.4l-1-1.5h1.8v.8h0c0,0-.7.6-.7.6h0Z"/>
      <path id="_線_835" data-name=" 線 835" class="cls-28" d="M50.4,89.9l-.6-.8.8-.6.6.8-.8.6ZM48.6,87.4l-.6-.8.8-.6.6.8-.8.6ZM46.9,84.9l-.6-.8.8-.6.6.8-.8.6ZM45.2,82.4l-.6-.8.8-.6.6.8-.8.6ZM43.5,79.9l-.6-.8.8-.6.6.8-.8.6ZM41.8,77.3l-.6-.8.8-.6.6.8-.8.6ZM40,74.8l-.6-.8.8-.6.6.8-.8.6ZM38.3,72.3l-.6-.8.8-.6.6.8-.8.6ZM36.6,69.8l-.6-.8.8-.6.6.8-.8.6ZM34.9,67.3l-.6-.8.8-.6.6.8-.8.6ZM33.1,64.8l-.6-.8.8-.6.6.8-.8.6ZM31.4,62.3l-.6-.8.8-.6.6.8-.8.6ZM29.7,59.8l-.6-.8.8-.6.6.8-.8.6ZM28,57.2l-.6-.8.8-.6.6.8-.8.6ZM26.2,54.7l-.6-.8.8-.6.6.8-.8.6ZM24.5,52.2l-.6-.8.8-.6.6.8-.8.6ZM22.8,49.7l-.6-.8.8-.6.6.8-.8.6ZM21.1,47.1l-.6-.8.8-.6.6.8-.8.6ZM19.4,44.6l-.6-.8.8-.6.6.8-.8.6ZM17.6,42.1l-.6-.8.8-.6.6.8-.8.6ZM15.9,39.6l-.6-.8.8-.6.6.8-.8.6ZM14.2,37l-.6-.8.8-.6.6.8-.8.6ZM12.5,34.5l-.6-.8.8-.6.6.8-.8.6ZM10.7,32l-.6-.8.8-.6.6.8-.8.6Z"/>
      <path id="_パス_12100" data-name=" パス 12100" class="cls-28" d="M53.9,93.6h-1.1l-.6-.9.8-.6.3.5h.5v1h0Z"/>
      <path id="_線_836" data-name=" 線 836" class="cls-28" d="M58.1,93.6h-.8v-1h.8v1Z"/>
      <rect id="_長方形_24922" data-name=" 長方形 24922" class="cls-28" x="281.8" y="344.6" width="16.2" height="16.2"/>
      <path id="_長方形_24923" data-name=" 長方形 24923" class="cls-31" d="M281.3,344.1h17.2v17.2h-17.2v-17.2ZM297.5,345.1h-15.2v15.2h15.2v-15.2Z"/>
      <rect id="_長方形_24924" data-name=" 長方形 24924" class="cls-28" x="393.8" y="594.3" width="16.2" height="16.2"/>
      <path id="_長方形_24925" data-name=" 長方形 24925" class="cls-31" d="M393.3,593.8h17.2v17.2h-17.2v-17.2ZM409.6,594.8h-15.2v15.2h15.2v-15.2Z"/>
      <rect id="_長方形_24926" data-name=" 長方形 24926" class="cls-28" x="339.4" y="321.4" width="16.2" height="16.2"/>
      <path id="_長方形_24927" data-name=" 長方形 24927" class="cls-31" d="M338.9,320.9h17.2v17.2h-17.2v-17.2ZM355.1,321.8h-15.2v15.2h15.2v-15.2Z"/>
      <rect id="_長方形_24928" data-name=" 長方形 24928" class="cls-28" x="390.1" y="501.6" width="16.2" height="16.2"/>
      <path id="_長方形_24929" data-name=" 長方形 24929" class="cls-31" d="M389.6,501.1h17.2v17.2h-17.2v-17.2h0ZM405.9,502.1h-15.2v15.2h15.2v-15.2h0Z"/>
      <path id="_長方形_24930" data-name=" 長方形 24930" class="cls-11" d="M414.5,3.7h140.9v190.9h-140.9V3.7ZM555.1,3.9h-140.4v190.4h140.4V3.9Z"/>
      <rect id="_長方形_24931" data-name=" 長方形 24931" class="cls-28" x="429.1" y="81.6" width="12.1" height="12.1"/>
      <path id="_パス_12111" data-name=" パス 12111" class="cls-26" d="M436.8,55.7c-.5-.3-1-.4-1.5-.3h-.7v3.2h.9c.5,0,1,0,1.4-.3s.6-.8.6-1.3-.2-1-.6-1.2"/>
      <path id="_パス_12112" data-name=" パス 12112" class="cls-26" d="M435.2,50.6c-4.4,0-7.9,3.5-8,7.9,0,4.4,3.5,7.9,7.9,8,4.4,0,7.9-3.5,8-7.9h0c0-4.4-3.5-7.9-7.9-8ZM438.2,58.9c-.6.6-1.4.9-2.3.8h-1.1v3.4h-1.8v-9.1h2.6c.9,0,1.7.2,2.4.7,1.1,1.1,1.2,3,.2,4.2"/>
      <path id="_パス_12123" data-name=" パス 12123" class="cls-31" d="M185.4,171.1c0,8.3-6.8,15.1-15.1,15.1s-15.1-6.8-15.1-15.1,6.8-15.1,15.1-15.1h0c8.3,0,15.1,6.8,15.1,15.1"/>
      <path id="_パス_12124" data-name=" パス 12124" class="cls-32" d="M209.3,165l-7.4,17.6h-5.1l7.4-17.1h-9.1v-4.3h14.2v3.7h0Z"/>
      <path id="_パス_12125" data-name=" パス 12125" class="cls-32" d="M173.4,165c-1-.6-2.1-.8-3.2-.7h-1.6v6.9h1.9c1,0,2.1-.2,3-.7.8-.7,1.3-1.7,1.3-2.7s-.5-2-1.3-2.7"/>
      <path id="_パス_12126" data-name=" パス 12126" class="cls-32" d="M170.1,154.2c-9.4,0-17,7.5-17,16.9s7.5,17,16.9,17,17-7.5,17-16.9h0c0-9.4-7.5-17-16.9-17h0ZM176.5,172c-1.3,1.2-3.1,1.8-4.9,1.7h-2.4v7.2h-3.8v-19.4h5.6c1.8-.2,3.7.3,5.1,1.5,2.5,2.4,2.6,6.4.4,9"/>
      <path id="_パス_12127" data-name=" パス 12127" class="cls-31" d="M191.5,303.7c0,8.3-6.8,15.1-15.1,15.1s-15.1-6.8-15.1-15.1,6.8-15.1,15.1-15.1h0c8.3,0,15.1,6.8,15.1,15.1"/>
      <path id="_パス_12128" data-name=" パス 12128" class="cls-32" d="M211.5,298c-.5-.4-1.1-.6-1.7-.5-1,0-2,.5-2.4,1.4-.6,1.5-.8,3-.8,4.6.5-.7,1.1-1.3,1.9-1.6,2.5-1.1,5.3-.6,7.3,1.2,1.2,1.4,1.9,3.2,1.7,5.1,0,1.3-.3,2.6-.9,3.8-.6,1.1-1.4,1.9-2.5,2.5-1.2.6-2.6.9-3.9.9-3,0-5.1-.9-6.3-2.8-1.2-1.9-1.8-4.6-1.8-8.1s.6-6.5,1.9-8.3,3.2-2.7,6-2.7,2.6.3,3.7.9c1,.5,1.7,1.3,2.3,2.3.5.9.8,2,.9,3.1h-4.7c0-.6-.4-1.2-.8-1.6M207.9,306c-.6.5-.9,1.3-.8,2.1,0,.8.2,1.6.8,2.2s1.4.8,2.2.8,1.5-.2,2-.8c.5-.6.8-1.3.7-2.1,0-.8-.2-1.6-.7-2.2-.6-.6-1.3-.8-2.1-.8s-1.5.2-2.1.7"/>
      <path id="_パス_12129" data-name=" パス 12129" class="cls-32" d="M179.5,297.6c-1-.6-2.1-.8-3.2-.7h-1.6v6.9h1.9c1,0,2.1-.2,3-.7.8-.7,1.3-1.7,1.3-2.7s-.5-2-1.3-2.7"/>
      <path id="_パス_12130" data-name=" パス 12130" class="cls-32" d="M176.2,286.8c-9.4,0-17,7.5-17,16.9s7.5,17,16.9,17,17-7.5,17-16.9h0c0-9.4-7.5-17-16.9-17h0ZM182.6,304.5c-1.3,1.2-3.1,1.8-4.9,1.7h-2.4v7.2h-3.8v-19.4h5.6c1.8-.2,3.7.3,5.1,1.5,2.5,2.4,2.6,6.4.4,9"/>
      <path id="_パス_12131" data-name=" パス 12131" class="cls-31" d="M308.5,310.2c0,8.3-6.8,15.1-15.1,15.1s-15.1-6.8-15.1-15.1,6.8-15.1,15.1-15.1h0c8.3,0,15.1,6.8,15.1,15.1"/>
      <path id="_パス_12132" data-name=" パス 12132" class="cls-26" d="M318.3,305v-4.7h8.1v21.4h-5.2v-16.7h-2.9Z"/>
      <path id="_パス_12133" data-name=" パス 12133" class="cls-26" d="M297.8,306.8c0,1.1-.4,2.1-1.3,2.7s-1.9.8-3,.7h-1.9v-6.9h1.6c1.1,0,2.3.2,3.2.7.8.6,1.3,1.6,1.3,2.7M310,310.2h0c0,9.5-7.7,17.1-17,17-9.3,0-17-7.7-17-17s7.7-17,17-17,16.9,7.6,17,17M301.2,306.7c0-1.8-.7-3.5-2-4.7-1.4-1.2-3.3-1.7-5.1-1.5h-5.6v19.4h3.8v-7.2h2.4c1.8,0,3.6-.5,4.9-1.7,1.1-1.2,1.6-2.7,1.6-4.3"/>
      <path id="_パス_12134" data-name=" パス 12134" class="cls-31" d="M380,475.5c0,8.3-6.8,15.1-15.1,15.1s-15.1-6.8-15.1-15.1,6.8-15.1,15.1-15.1h0c8.3,0,15.1,6.8,15.1,15.1"/>
      <path id="_パス_12135" data-name=" パス 12135" class="cls-26" d="M389.4,482.3c1.9-1.6,3.4-2.9,4.5-3.9s2-2,2.8-3.2c.7-.9,1.1-2.1,1.1-3.3s-.2-1.3-.6-1.9c-.4-.5-1-.7-1.7-.7s-1.3.3-1.7.8c-.5.7-.7,1.5-.6,2.4h-4.8c0-1.5.4-2.9,1.1-4.2.6-1.1,1.6-1.9,2.7-2.5,1.2-.5,2.4-.8,3.7-.8,1.9,0,3.8.5,5.3,1.8,1.2,1.2,1.8,2.9,1.8,4.7s-.8,4.2-2.1,5.8c-1.6,2-3.4,3.7-5.4,5.2h7.9v4.1h-14.7v-3.7c.7-.5,1-.8.9-.7"/>
      <path id="_パス_12136" data-name=" パス 12136" class="cls-26" d="M369.3,472.1c0,1.1-.4,2.1-1.3,2.7-.9.6-1.9.8-3,.7h-1.9v-6.9h1.6c1.1,0,2.3.2,3.2.7.8.6,1.3,1.6,1.3,2.7M381.6,475.5h0c0,9.5-7.7,17.1-17,17-9.4,0-17-7.7-17-17s7.7-17,17-17,16.9,7.6,17,17M372.7,472c0-1.8-.7-3.5-2-4.7-1.4-1.2-3.3-1.7-5.1-1.5h-5.6v19.4h3.8v-7.2h2.4c1.8,0,3.6-.5,4.9-1.7,1.1-1.2,1.6-2.7,1.6-4.3"/>
      <path id="_パス_12137" data-name=" パス 12137" class="cls-31" d="M405.5,654.7c0,8.3-6.8,15.1-15.1,15.1s-15.1-6.8-15.1-15.1,6.8-15.1,15.1-15.1,15.1,6.8,15.1,15.1h0"/>
      <path id="_パス_12138" data-name=" パス 12138" class="cls-26" d="M416.1,646.1c1.5-1.2,3.3-1.8,5.2-1.7,1.3,0,2.6.2,3.8.8,1,.4,1.8,1.2,2.4,2.1.5.9.8,1.9.8,3,0,2.1-1.2,4.1-3.2,4.8h0c1.1.4,2,1.1,2.6,2,.7,1,1,2.1,1,3.3s-.3,2.2-.8,3.2c-.6.9-1.4,1.7-2.4,2.2-1.2.6-2.5.8-3.8.8-2,0-4-.5-5.6-1.7-1.5-1.3-2.3-3.2-2.2-5.2h4.9c0,.7.2,1.5.7,2s1.3.8,2.1.7c.7,0,1.3-.2,1.8-.7.4-.5.7-1.1.6-1.7,0-.8-.3-1.6-.9-2-.9-.5-1.9-.7-2.9-.6h-.9v-4.1h.9c.8,0,1.7,0,2.4-.5.6-.4,1-1.1.9-1.8,0-.6-.2-1.2-.6-1.6-.4-.4-1-.6-1.6-.6s-1.2.2-1.7.7c-.4.5-.6,1.1-.6,1.7h-4.9c0-1.8.7-3.6,2.1-4.8"/>
      <path id="_パス_12139" data-name=" パス 12139" class="cls-26" d="M394.8,651.4c0,1.1-.4,2.1-1.3,2.7-.9.6-1.9.8-3,.7h-1.9v-6.9h1.6c1.1,0,2.3.2,3.2.7.8.6,1.3,1.6,1.3,2.7M407.1,654.8h0c0,9.5-7.7,17.1-17,17-9.4,0-17-7.7-17-17s7.7-17,17-17,16.9,7.6,17,17M398.2,651.3c0-1.8-.7-3.5-2-4.7-1.4-1.2-3.3-1.7-5.1-1.5h-5.6v19.4h3.8v-7.2h2.4c1.8,0,3.6-.5,4.9-1.7,1.1-1.2,1.6-2.7,1.6-4.3"/>
      <path id="_パス_12174" data-name=" パス 12174" class="cls-32" d="M436.8,22.8c-.5-.3-1-.4-1.5-.3h-.7v3.2h.9c.5,0,1,0,1.4-.3s.6-.8.6-1.3-.2-1-.6-1.2"/>
      <path id="_パス_12175" data-name=" パス 12175" class="cls-32" d="M435.2,17.7c-4.4,0-7.9,3.5-8,7.9,0,4.4,3.5,7.9,7.9,8,4.4,0,7.9-3.5,8-7.9h0c0-4.4-3.5-7.9-7.9-8ZM438.2,26c-.6.6-1.4.9-2.3.8h-1.1v3.4h-1.8v-9.1h2.6c.9,0,1.7.2,2.4.7,1.1,1.1,1.2,3,.2,4.2"/>
    </g>
  </g>
  <text class="cls-4" transform="translate(415.4 253.1)"><tspan class="cls-12"><tspan x="0" y="0">星野温泉</tspan></tspan><tspan class="cls-34" x="-3.3" y="19.4">ト</tspan><tspan class="cls-18" x="11.1" y="19.4">ン</tspan><tspan class="cls-44" x="28.6" y="19.4">ボ</tspan><tspan class="cls-17" x="46.4" y="19.4">の</tspan><tspan class="cls-12" x="64.7" y="19.4">湯</tspan></text>
  <text class="cls-2" transform="translate(415.5 289.8)"><tspan x="0" y="0">Tombo no Yu</tspan></text>
  <text class="cls-3" transform="translate(379.3 317)"><tspan x="0" y="0">村民食堂</tspan></text>
  <text class="cls-2" transform="translate(379.9 335.3)"><tspan x="0" y="0">Sonmin-Shokudo</tspan></text>
  <text class="cls-4" transform="translate(328.5 391.7)"><tspan class="cls-40" x="0" y="0">バ</tspan><tspan class="cls-42" x="17.3" y="0">ス</tspan><tspan class="cls-12" x="34.2" y="0">停</tspan></text>
  <text class="cls-4" transform="translate(176.9 390.3)"><tspan class="cls-16" x="0" y="0">エ</tspan><tspan class="cls-19" x="17.5" y="0">ネ</tspan><tspan class="cls-14" x="33.4" y="0">オ</tspan><tspan class="cls-42" x="49.7" y="0">ス</tspan></text>
  <text class="cls-9" transform="translate(194.1 223.7)"><tspan class="cls-52" x="0" y="0">千</tspan><tspan class="cls-36" x="15.3" y="0">ヶ</tspan><tspan class="cls-46" x="30.3" y="0">滝南</tspan></text>
  <text class="cls-8" transform="translate(240.3 19.6)"><tspan x="0" y="0">至 北軽井沢 草津</tspan></text>
  <text class="cls-10" transform="translate(99.7 95.5)"><tspan x="0" y="0">臨時駐車場</tspan></text>
  <text class="cls-5" transform="translate(100.5 113.9)"><tspan class="cls-45" x="0" y="0">特定</tspan><tspan class="cls-15" x="26.6" y="0">日のみ</tspan><tspan class="cls-45" x="65.8" y="0">開場</tspan></text>
  <text class="cls-4" transform="translate(484.8 442.4)"><tspan class="cls-38" x="0" y="0">ピ</tspan><tspan class="cls-53" x="15.6" y="0">ッ</tspan><tspan class="cls-51" x="31.1" y="0">キ</tspan><tspan class="cls-40" x="47.5" y="0">オ</tspan></text>
  <text class="cls-2" transform="translate(487.2 460.8)"><tspan x="0" y="0">Picchio</tspan></text>
  <text class="cls-4" transform="translate(417.1 564.7)"><tspan class="cls-49" x="0" y="0">ハ</tspan><tspan class="cls-18" x="17.1" y="0">ル</tspan><tspan class="cls-33" x="34.6" y="0">ニ</tspan><tspan class="cls-37" x="50.9" y="0">レ</tspan><tspan class="cls-48" x="67" y="0">テ</tspan><tspan class="cls-20" x="82.8" y="0">ラ</tspan><tspan class="cls-50" x="98.7" y="0">ス</tspan></text>
  <text class="cls-2" transform="translate(418 583.1)"><tspan x="0" y="0">Harunire Terrace</tspan></text>
  <text class="cls-8" transform="translate(133 542.7)"><tspan x="0" y="0">軽井沢高原教会</tspan></text>
  <text class="cls-4" transform="translate(114.3 598.2)"><tspan class="cls-43" x="0" y="0">軽井</tspan><tspan class="cls-41" x="37.2" y="0">沢</tspan><tspan class="cls-21" x="55.2" y="0">ホテ</tspan><tspan class="cls-23" x="88.4" y="0">ル</tspan><tspan class="cls-42" x="-19" y="19.4">ブ</tspan><tspan class="cls-13" x="-2" y="19.4">レ</tspan><tspan class="cls-1" x="14.5" y="19.4">ス</tspan><tspan class="cls-35" x="28.1" y="19.4">ト</tspan><tspan class="cls-50" x="42.6" y="19.4">ン</tspan><tspan class="cls-21" x="59.5" y="19.4">コ</tspan><tspan class="cls-39" x="76.1" y="19.4">ー</tspan><tspan class="cls-47" x="90.8" y="19.4">ト</tspan></text>
  <text class="cls-2" transform="translate(95 561.1)"><tspan x="0" y="0">Karuizawa Kogen Church</tspan></text>
  <text class="cls-2" transform="translate(111.1 635.3)"><tspan x="0" y="0">Karuizawa Hotel</tspan><tspan x="18.2" y="14.2">Bleston Court</tspan></text>
  <text class="cls-3" transform="translate(326.2 789.3)"><tspan x="0" y="0">至 中軽井沢駅</tspan></text>
  <text class="cls-6" transform="translate(450.1 31.9)"><tspan x="0" y="0">無料駐車場</tspan></text>
  <text class="cls-6" transform="translate(450.1 64.3)"><tspan x="0" y="0">有料駐車場</tspan></text>
  <text class="cls-6" transform="translate(450.1 93.1)"><tspan x="0" y="0">事前精算機</tspan></text>
  <text class="cls-7" transform="translate(427.8 125.8)"><tspan x="0" y="0">駐車場状況</tspan></text>
  <text class="cls-6" transform="translate(450.1 152.6)"><tspan x="0" y="0">空車</tspan></text>
  <text class="cls-6" transform="translate(450.1 179.4)"><tspan x="0" y="0">満車</tspan></text>
  <g>
    <rect class="cls-30" x="427.8" y="140.1" width="14.4" height="14.4" rx="2" ry="2" transform="translate(582.3 -287.6) rotate(90)"/>
    <g>
      <path class="cls-31" d="M438.3,150.7h-2.9v-1.7h2.1c.5,0,.8,0,1.1,0v-1c-.3,0-.7,0-1.1,0h-5c-.5,0-.7,0-1,0v1c.3,0,.6,0,1.1,0h2v1.7h-2.7c-.4,0-1,0-1.2,0v1c.3,0,.7,0,1.2,0h6.5c.5,0,.8,0,1.2,0v-1c-.3,0-.7,0-1.2,0Z"/>
      <path class="cls-31" d="M430.8,146h.9v-1.4h1.8c0,.7-.2,1-.5,1.4-.5.5-1,.8-2.1,1,.1.1.3.4.5.8,1.2-.4,1.8-.8,2.3-1.3.4-.5.6-1.1.7-1.9h1v2c0,.6.3.7,1.6.7,1.6,0,2,0,2.1-.9-.4,0-.7-.2-.8-.3,0,.2,0,.2-.2.3-.1,0-.5,0-1,0s-.6,0-.7,0c-.1,0-.1,0-.1-.2v-1.7h2.1v1h.9c0-.2,0-.4,0-.7v-.5c0-.3,0-.5,0-.7-.4,0-.6,0-1.1,0h-2.8v-.4c0-.3,0-.5,0-.7h-1c0,.2,0,.4,0,.7v.4h-2.6c-.4,0-.7,0-1.1,0,0,.2,0,.4,0,.7v.7c0,.3,0,.5,0,.8Z"/>
    </g>
  </g>
  <g>
    <rect class="cls-29" x="427.9" y="167.1" width="14.4" height="14.4" rx="2" ry="2" transform="translate(870.2 348.5) rotate(-180)"/>
    <g>
      <path class="cls-31" d="M430.6,178l.8.7c0-.1,0-.1.2-.4.4-.7.8-1.8,1.1-2.8l-.7-.5c-.4,1.4-.9,2.4-1.4,3Z"/>
      <path class="cls-31" d="M438.8,173c.5,0,.8,0,1.1,0v-.9c-.3,0-.5,0-1.1,0h-.8v-.9h.6c.4,0,.7,0,1,0v-.9c-.3,0-.6,0-1,0h-.6c0-.4,0-.7,0-.9h-1c0,.2,0,.5,0,.8h0c0,.1-1.7.1-1.7.1h0c0-.4,0-.7,0-.9h-1c0,.2,0,.4,0,.8h0c0,.1-.4.1-.4.1-.4,0-.7,0-1,0v.9c.3,0,.6,0,1,0h.4v.9h-.7c-.5,0-.8,0-1,0v.9c.3,0,.6,0,1.1,0h2v.7h-2c-.4,0-.6,0-.8,0,0,.3,0,.5,0,.9v3.1c0,.5,0,.8,0,1.1h.9c0-.3,0-.6,0-1.1v-3.3h1.9v2.1h-.6v-.8c0-.4,0-.6,0-.8h-.8c0,.3,0,.4,0,.8v1.3c0,.3,0,.6,0,.8h.8v-.6h2.1c.3,0,.5,0,.7,0,0-.2,0-.4,0-.8v-.8c0-.4,0-.6,0-.8h-.8c0,.2,0,.4,0,.8v.8h-.6v-2.1h1.9v3.2c0,.2,0,.2-.3.2s-.6,0-1,0c.1.4.2.6.2.9.2,0,.6,0,.8,0,.9,0,1.2-.2,1.2-.8v-3.2c0-.5,0-.8,0-1-.3,0-.6,0-1.1,0h-1.8v-.7h2.2ZM435.4,172.3v-.9h1.7v.9h-1.7Z"/>
      <path class="cls-31" d="M432.3,171.5l.6-.7c-.4-.4-.7-.6-1.3-1l-.6.6c.6.4.9.7,1.3,1.1Z"/>
      <path class="cls-31" d="M432,174l.6-.7c-.5-.5-.8-.7-1.4-1.1l-.6.6c.5.4,1,.7,1.4,1.2Z"/>
    </g>
  </g>
</svg>