<?xml version="1.0" encoding="utf-8"?>
<!-- Generator: Adobe Illustrator 28.2.0, SVG Export Plug-In . SVG Version: 6.00 Build 0)  -->
<svg version="1.1" id="レイヤー_1" xmlns="http://www.w3.org/2000/svg" xmlns:xlink="http://www.w3.org/1999/xlink" x="0px"
	 y="0px" viewBox="0 0 335 118.5" style="enable-background:new 0 0 335 118.5;" xml:space="preserve">
<g id="グループ_9502" transform="translate(0 0)">
	<path id="パス_6468" d="M177.4,110.8c-0.2-1-0.6-2.3,0.9-2.9c0.3-0.1,0.5-0.4,0.2-0.6c-1.7-1-0.3-2.2-0.3-3.3l-0.5,0
		c-0.2,0.2-0.4,0.4-0.7,0.3c-0.5-0.2,0-0.4,0-0.6c0.2-0.7,0.5-1.3,0.7-2c-0.1-0.1-0.2-0.2-0.4-0.4c-1.1,1-1.1,2.7-2.3,4.2
		c-0.1-1.1-0.5-2.1-1-3.1c-1.1-2.5-1.4-5.3-2.9-7.5c-0.6-0.8-0.4-1.8-0.8-2.6c-1.2-2.5-2.8-4.7-3.8-7.3c-1.3-3.3-3-6.4-4.9-9.4
		c-0.9-1.5-1.6-3-2.4-4.5c-0.9-1.7-0.4-2.4,1.4-2.7c0.6-0.2,1.2-0.4,1.7-0.7c0.8-0.4,1.6-0.7,2.4-1c2-0.5,4-0.9,6-1.2
		c0.3,0,0.7-0.1,0.8-0.5c0.1-0.3-0.1-0.7-0.4-0.8c-1.4-0.4-1.1-1.7-1.3-2.7c-0.3-1.1,0-1.9,1.3-2c0.4,0,1.1-0.2,0.7-0.8
		c-0.5-0.7-0.8-1.5-1.7-1.8c-2.5-0.9-5-0.5-7.4,0c-2.5,0.6-5,1.5-7.4,2.6c-1.6,0.7-3.2,1.5-4.7,2.3c-1.1,0.6-2.3,1.4-4,0.8
		c2-0.8,3.5-2.1,5.1-3c1.1-0.6-0.6-1.3,0-2c0.1-0.1-0.3-0.1-0.5-0.1c-1.9,0.4-3.9,0.9-5.8,1.2c-0.5,0.1-2,0.6-1.8-0.7
		c0.3-1.5-0.5-0.9-1.1-0.8c-0.5,0.1-1,0.4-1.6,0.2c-0.8-0.2-1.8,0.8-2.5,0.1c-1-1,0.8-1.4,0.7-2c-0.1-1.5,1.2-1.9,1.7-2.8
		c0.5-1.1,1.6-1.8,1.8-3.1c-2.3,1.3-4.5,2.7-6.7,4.2c-1,0.6-1.9,1.5-3.1,1.4c-1.8,0-3.1,0.9-4.4,1.7c-0.8,0.5-1.6,0.9-2.5,1.2
		c-2.8,0.9-5.3,2.2-6.7,5c-0.1,0.2-0.2,0.6-0.4,0.7c-0.5,0.3-1.1,0.7-1.4-0.2c-0.7-2.3-1.6-4.6-2.2-6.9c-0.4-1.7-1.5-1.5-2.3-1.4
		c-0.9,0.1-1.5,0.8-1.5,1.7c-0.1,1.2-0.1,2.5-0.2,3.7c-0.1,1.7,0.6,3.3,0.2,5c-0.3,1.4-0.4,2.8-0.3,4.2c0.2,4.6,0.1,9.1-0.2,13.7
		c-0.1,2.8-0.1,5.6,0.2,8.4c0.6,3.8,1.6,7.5,2.8,11.1c1,3.3,3.3,6.1,6.3,7.8c1.7,0.9,3.5,1.5,5.3,1.9c2.4,0.8,5.1,0.6,7.4-0.5
		c3.8-1.8,7.6-3.5,11.4-5.4c2.2-1.1,4.2-2.6,6.6-3.5c2.1-0.8,2.9-3.3,5.3-3.9c1-0.2,1.8-1.6,2.6-2.4c0.2-0.2,0.2-0.5,0.1-0.7
		c-1.3,0.2-1.3-1.4-2.3-1.6c-1.7-0.3-3.2-1.6-5.1-0.9c-0.3,0.1-0.7,0.1-0.8-0.3c-0.1-0.4,0.2-0.6,0.5-0.7c1.1-0.4,1.9-1.5,3.3-1.7
		c1.1-0.1,1.8-2.1,1.4-3.1c-0.6-1.6-2-2.1-3.3-2.9c-0.2-0.1-0.5,0-0.5-0.4c0-0.2,0.2-0.4,0.4-0.4c0.4-0.1,1.1-0.3,0.7-0.7
		c-0.5-0.5-1.1-1.3-1.9-1.1c-1.7,0.5-3.4-0.1-5,0.4c-1.7,0.5-3.4,0.4-5.1,0c-0.9-0.2-1.7-1.3-2.4-1.1c-1.8,0.7-4,0.2-5.6,1.5
		c-1.5,1.3-3.1,0.8-4.4-0.2c-0.8-0.6-1.3-1-2.2-0.2c-0.9,0.9-0.4,1.6,0.2,2.2c0.5,0.5,0.6,0.9,0.2,1.4c-0.9,1.1-4.2,0.3-4.7-1.1
		c-1.5-4.6-1.4-9.4-2.5-14.1c-0.1-0.4-0.1-0.9,0.5-0.7c0.9,0.1,1.9-0.1,2.7-0.4c3.2-0.6,6.6-0.4,9.8-1.2c1.2-0.3,2.5,0.1,3.2,1.1
		c1,0.9,0.7,1.7-0.2,2.3c-1.8,1.2-3.6,2.3-5.4,3.5c-0.6,0.4-1.7,0.6-1.1,1.7c0.3,1.1,1.5,1.6,2.5,1.3c0,0,0.1,0,0.1,0
		c0.7-0.2,1.7-1.3,1.9,0.6c0,0.2,0.4,0.2,0.7,0.2c1.1,0,2.3-0.4,3.1-1.1c1.1-1,2.6-1.4,4-1.1c0.9,0.1,1.8,0.1,2.7,0
		c1.4-0.3,2.8-0.1,4.1,0.6c2.7,1.6,4.6,3.9,6.6,6.2c1.1,1.3,2.9,1.8,4.1,3.2c0.1,0.1,0.3,0.1,0.5,0.1c0.3,0.1,0.7-0.6,0.9,0.1
		c0.2,0.6-0.6,0.7-0.6,0.9c0,0.6-1.3,0.1-0.8,1.1c0.4,1,1.1,1.8,2,2.4c1.1,0.7,1.4,2.1,0.8,3.3c0.6-0.3,1.4-0.1,1.9,0.4
		c0.4,0.6-0.1,1.3-0.5,1.7c-0.7,0.7,0.1,1.4,0,2c0,0.2,0.1,0.1,0.2,0.1c1.9-0.1,2.7,0.5,2.8,2.2c0,0.2,0.1,0.5,0.2,0.6
		c0.7,0.7,0.9,1.7,0.6,2.6c0.4,0.4,0.5,1.1,0.3,1.6c-0.4-0.4-0.6-1-0.6-1.6c-0.5-0.6-1.1-1.2-1.7-1.5c-0.1-0.1-0.2-0.3-0.2-0.6
		c0-0.4,0-0.8,0-1.1c-0.3-0.4-0.7,0.1-1.1,0c0.7,3,1.7,5.9,3.1,8.6c1.1,2.4,1.9,4.9,3.1,7.3c0.3,0.5,0.5,1.1,1.1,0.9
		c0.5-0.1,1.1,0.3,1.5-0.7c0.4-0.9,1-1.6,1.8-2.2c0.6-0.4,1-0.6,1.4,0.1c0.3,0.6,0.9,1.2,1.5,0.8c0.7-0.4,1-1.2,0.8-1.9
		C178,113.4,177.6,112.1,177.4,110.8 M136.3,107.2c-0.5,0.7-1.5,0.9-2.2,0.4c0.9-0.4,1.4-1,2.1-0.8
		C136.3,106.9,136.4,107.2,136.3,107.2 M139.1,104.7c-0.3,0.6,0.9,1.2-0.2,1.7c-0.9,0.4-1.9,0.1-2.4-0.6c-0.4-0.4-0.2-1.1,0.6-1.1
		c0.7-0.1,1.4-0.5,1.8-1.1c1.3-1.5,3-1.1,4.8-0.9C142.4,104.2,140.9,104.6,139.1,104.7 M131.3,102.2c0.4-0.5,0.8-1,1.3-1.4
		c0.3-0.3,0.9-0.3,0.7-0.9c-0.2-0.6-0.7-0.1-1.1-0.2c-0.1,0-0.3-0.1-0.5-0.1c0.6-1.3,2.2-1.3,2.7-2.7c0.5,0.9,0.1,2.7,1.6,1.4
		c0.3-0.3,0.5-0.5,0.2-1c-0.4-0.4-0.3-1,0.1-1.4c0.2-0.2,0.5-0.3,0.8-0.2c2.2,0.6,4.3,0.1,6.5,0.1c0.6,0,1.6-0.2,1.9,0.7
		c0.3,0.9-0.6,1.8-1,2c-3,1.6-5.7,3.7-9.1,4.6c-1.1,0.3-2.3,0-3.4,0.5c-0.3,0.1-0.5,0-0.6-0.3C131.2,102.9,131,102.5,131.3,102.2
		 M130.4,103.4c0.5,0,0.6,0.4,0.7,0.7c0.1,0.2-0.1,0.4-0.4,0.4c-0.3-0.2-0.7-0.3-0.7-0.7C130,103.6,130.2,103.5,130.4,103.4
		 M138.7,74.5c-1.7,1.6-3.4,3.1-6,2.9c0.3-1.2,1.5-0.9,2-1.5c0.4-0.5,0.9-0.9,0.9-1.6c0.1-0.8,0.4-1.1,1-0.4
		c0.3,0.4,0.4,0.4,0.7,0.1c0.2-0.2,0.9-0.2,0.1-0.6c-0.2-0.1-0.1-0.4,0.2-0.5c0.4-0.1,0.8-0.1,1.1,0.2
		C139.1,73.5,139.1,74.1,138.7,74.5C138.8,74.5,138.8,74.5,138.7,74.5 M164.5,93.7c-0.9-0.1-0.5-1.2-1.1-1.8c0.9,0,1.5-0.1,1.7,0.7
		C165.3,93,165,93.7,164.5,93.7"/>
	<path id="パス_6469" d="M63.7,76.9c0,0,0-0.2,0-0.3c0.2-2.8-1.4-4.6-3.5-6.1C58,69,55,69.5,53.5,71.7c0,0,0,0,0,0
		c-0.6,1.1-1,2.4-1.1,3.6c-0.7-1.9-1.2-3.8-2-5.7c-0.4-0.6-0.2-1.5,0.4-1.8c0.1-0.1,0.3-0.1,0.5-0.2c1.8-0.9,3.6-1.6,5.6-2
		c0.6-0.1,1-0.6,1.5-0.8c0.2-0.1,0.6-0.6-0.1-0.8c-1-0.3-1-0.8-0.5-1.6c0.1-0.2,0.6-0.6,0.1-1c-0.1,0-2.7-1-2.8-1
		c-0.1,0-0.1,0-0.2,0c-0.8-0.3-2.1,0.8-2.3-1.1c0-0.3-1.5-1.1-1.9-2c-0.4-1.2-1.4-2.1-2.7-2.3c-1.2-0.4-3-0.1-3.3-2.1
		c0-0.4-0.5-0.3-0.8-0.4c-2.4-0.1-4.8,0-7.1,0.4c-1,0.2-1.9,0.2-2.2-0.7c-0.4-1.7-1.3-3.3-2.5-4.6c-0.5-0.5-0.2-1.8-0.1-1.8
		c1.1,0.3,0.5-0.5,0.4-0.6c-0.9-0.7-0.9-1.9-1.6-2.7c-0.4,0.3-0.7,0.7-1.3,0.3c-0.8-0.2-0.7-0.9-0.5-1.4c0.2-0.4,0.6,0,1,0.1
		c-1.2-3.4-4.4-3-6.9-3.5c-1-0.2-1.7-0.3-2.2-1c-0.7-1.1-1.1-0.5-1.5,0.1c-0.8,1.3-1,2.9-0.5,4.4c0.6,2.2,1.6,2.7,3.4,2.3
		c0-0.3,0.1-0.5,0.3-0.7l0,0c-0.1-1.3,0.6-0.5,1-0.3c0.4,0.3,1.3-1.5,1.3,0.3c0,0.2,0,0.4,0,0.7c0,0.4,0.1,0.7-0.3,1
		c1.2,1.3,2.2,2.8,3,4.4c1.1,2.2,1,4.7,1.5,7c0.1,0.3-0.3,0.7-0.5,0.9c-1,0.9-1.9,2.2-3.2,2.7c-2.2,0.9-3.7,2.6-5.6,3.9
		s-3.5,3-5.5,4c-1.7,0.9-3.6,1.5-5.1,2.8c-2,1.7-3.9,3.5-5.7,5.4c-1.9,2.2-3.2,4.9-3.6,7.7c-0.5,2.5,0.4,4.7,1.4,6.9
		c0.6,1.3,1.8,2.2,3.3,2.3c3.3,0.4,6.1-1.1,8.7-2.5c3-1.8,5.8-4.1,8.2-6.7c1.5-1.6,3.1-2.9,5-3.9c2.6-1.3,3.3-1.2,4.1,1.6
		c1.1,3.8,3.6,7.1,4.4,11.1c0.6,2.6,1.4,5.1,2.3,7.6c0.7,2.4,1.9,4.6,3.6,6.5c0.4,0.5,1.3,0.8,1.6,0.4c0.8-1.2,2.3-1.6,2.9-2.9
		c0.2-0.3,0-1,0.7-0.9c0.4,0,0.5,0.5,0.7,0.9c0.5,1.6,1.6,1.5,2.8,0.8c0.6-0.5,1.5-0.4,2,0.2c0,0,0,0.1,0.1,0.1
		c0.6,0.8,1.2,1.4,2.3,0.8c0.8-0.5,1.3-1.4,1.2-2.4c0-2.9-0.4-5.7,0.6-8.6c0.5-1.5,0.5-3,0-4.5c-0.4-1.5-0.6-3.1-1.2-4.7
		c-0.7-1.7-0.9-3.7-0.6-5.5c0.8,3.1,3.5,4.2,5.7,5.9c0.7,0.5,2.2,0,2.2-0.3c-0.4-1.9,1.3-2.9,1.6-4.4c0.5-0.1,0.9,0.6,1.5,0.1
		c-0.1-0.2-0.2-0.4-0.3-0.6C64.1,79.6,61.8,78.7,63.7,76.9"/>
	<path id="パス_6470" d="M316.2,97.1c0-0.1-0.3-0.2-0.5-0.1c-1.9,0.8-1.7-1-2.3-1.8c-0.3,0-0.7,0.8-0.9,0.3
		c-0.3-0.6,0.5-0.6,0.9-0.8c0.2-0.2,0.5-0.3,0.3-0.6c-0.2-0.3-0.5-0.2-0.9-0.1c-1.3,0.2-2.4,0.9-3.8,0.5c-1.1-0.3-0.9-1.3-1.4-1.8
		c-2.1-2.2-2.4-4.6-0.8-7.1c0.3-0.4,0.5-0.8,0.7-1.3c0.3-2.3,2.2-3.2,3.9-3.8c1.5-0.5,2.9-1.3,4.5-1.7c0.4,0,0.6-0.4,0.5-0.7
		c0-0.2-0.2-0.4-0.4-0.5c-0.9-0.4-0.2-2-1.6-2c-0.1,0,0.4-0.5,0.6-0.8c0.2-0.6,1.3-0.9,0.6-1.9c-0.6,0.6-1.4,0.5-2,0.9
		c-0.2,0.1-0.3,0.5-0.6,0.1c-0.2-0.3-0.4-0.5,0-0.8c0.2-0.2,0.8-0.2,0.6-0.8c-0.4-0.1-0.9-0.2-1.4-0.3c-0.4-0.1-0.7-0.5-0.3-0.7
		c1-0.6,0.3-0.9-0.1-1.4c-0.5-0.7-1.1-0.2-1.4,0.1c-1.2,1.3-1.5,0.2-1.9-0.7c-0.1-0.3-0.1-1-0.6-0.7c-1,0.5-2.3,0.4-2.8,1.7
		c0.3,0.9,1.1-0.5,1.5,0.4c-0.3,0.7-1,1.2-1.8,1.2c-0.6,0,0.3-0.8-0.3-1c-1-0.3-2-0.2-2.9,0.2c-1.3,0.5-2.7,0.6-4,0.2
		c-0.3-0.1-0.7,0.1-0.8-0.3c-0.1-0.5,0.4-0.6,0.7-0.8c2-1,3.8-2.3,5.3-4c1-1,2.3-1.7,3.7-1.9c0.6-0.1,1.6,0,1.7-0.6
		c0.3-0.9,0.2-1.8-0.1-2.7c-0.5-0.8-0.8-1.1,0.2-1.7c0.3-0.1,0.3-0.5,0.2-0.7c-0.1-0.2-0.2-0.3-0.4-0.3c-1.6-0.2-2.6-1.5-3.8-2.4
		c-0.5-0.5-1.3-0.6-2-0.3c-0.9,0.4-1.8,1.3-2.7,1.2c-1.5,0-2.9,0.4-4,1.3c-1.8,1.1-3.3,2.7-5.6,3.1c-0.8,0.2-1.7,0-2.2-0.7
		c-1.3-1.4-1.5-3.1-0.4-3.8c0.7-0.5,1.2-1.1,1.5-1.8c1.3-2.4,2.7-4.8,4.3-7c1.4-1.9,2.7-1.9,3.9,0.2c0.3,0.6,0.8,1.1,1.4,1.5
		c1.5,0.9,1.7,4.2,4.6,2.5c2,1,1.6-1,2.1-1.7c0.7,0,0.8,0.7,1.4,0.8c2.2,0.3,2.4,0.6,2.3,2.8c0,0.3-0.1,0.8,0.3,0.7
		c1.9-0.6,2.5,0.7,3.1,2c0.1,0.4,0.5,0.6,0.8,0.5c0,0,0,0,0.1,0c0.4-0.1,0.6-0.4,0.7-0.8c0.5-1.8,0-3.5-0.3-5.2
		c-0.7-3.4-2.2-6.5-3.3-9.8c-0.1-0.2-0.2-0.6-0.4-0.7c-1.8-0.6-1.9-2.8-3.6-3.7c-1.6-0.8-2.6-2.9-4.8-1.4c-0.4,0.2-0.8,0.2-1.1,0
		c-1.5-0.7-3.3-0.6-4.7,0.4c-3.2,1.6-6,3.9-8.1,6.8c-1.1,1.6-2,3.4-3,5c-0.8-0.3-0.5-1.3-1.5-1.8c0.3,1.1-0.3,1.9-0.3,2.8
		c0,0.2,0.1,0.4-0.4,0.5c-1,0.1-1.8,1-1.9,2c-0.6,4.5-0.5,9.1,0.2,13.7c0.1,1.6,0.8,3.1,2,4.2c1.3,1.1,2.3,0.9,3.1-0.6
		c1.8,1.7,1.8,1.7,4.5,2.2c0.3,0.1,0.7,0.1,0.8,0.5c0.1,0.4-0.3,0.5-0.6,0.7c-2.2,1.9-2.6,4-1,6.5c0.5,0.8,0.1,1.2-0.4,1.6
		c-1,0.7-2.1,1.3-3.1,2.1c-1.5,0.9-2,2.9-1.1,4.4c0.2,0.3,0.5,0.6,0.8,0.8c0.9,0.9,2.2,1.3,3.4,1.2c2.9-0.1,5.2,0.7,6.7,3.4
		c0.8,1.5,0.8,1.9-0.8,2.1c-2.5,0.5-5,1.3-7.4,2.3c-2,0.9-4.1,1.4-6.3,1.5c-2.2,0-4.3,0.7-6.1,2c0,0.6,0.9,0.7,0.7,1.4
		c-0.4,1.6,1.5,4.8,2.9,4.8c1.9-0.1,3,1.2,4.6,1.6c0.8,0,1.6,0.2,2.3,0.5c2.9,1.6,6.2,2.6,9.5,2.9c1.5,0.2,3,0.1,4.5-0.3
		c2.2-0.7,4.2-1.9,6.5-1.9c3.2-0.1,5-1.9,6.3-4.5c0.9-2.1,2.6-3.7,4.8-4.5c1-0.4,1.4-1.2,2.3-2C318.1,98.1,316.8,98.5,316.2,97.1
		 M308.6,76.9c0.4,0,0.6,0.2,0.6,0.5c0,0.7-0.6,0.6-1,0.7c-0.2,0-0.6,0.1-0.6-0.3C307.6,77.1,308.5,77.4,308.6,76.9 M282.6,57.6
		c-0.2-0.8-0.3-1.5-0.5-2.1c0-0.3-0.1-0.6,0.3-0.6c0.2,0,0.4,0,0.6,0.1C282.6,55.8,283.6,56.8,282.6,57.6 M289.3,48.9
		c-0.3,0.3-0.7,0.7-1.2,0.5c-0.2-0.1,0-0.4,0.2-0.5c-0.2-1.2,1.4-0.9,1.5-2.1C290.1,47.6,289.9,48.4,289.3,48.9 M287,46.7
		c0.7-0.3,0.1-1.6,1.2-1.7c0.1-0.6,0.6-1.1,1.2-1.2c0.2-0.4,0.3-0.9,0.9-0.9c0.1,0,0.4,0.2,0.3,0.3c-0.2,0.4-0.5,0.7-0.9,0.9
		c-0.2,0.5-0.5,0.8-1,1l-1,2c-0.3,0.2-0.5,0.6-0.9,0.3C286.6,47.1,286.8,46.8,287,46.7"/>
	<path id="パス_6471" d="M206.8,30.5c2.6-1.8,3.8-4.6,5.6-7c2-2.6,1.3-5.9,2.4-9c0.9,1.6,2.3,2.9,3.9,3.7c3.1,1.4,6.3,2.3,9.5,0.7
		c2.6-1.3,5-1.5,7.5,0.2c2.3,1.6,4.4,3.2,4.2,6.5c0,0.8,0.1,1.6,0.3,2.4c0.1,0.3,0.3,0.5,0.6,0.7c0.3,0.2,0.4-0.2,0.6-0.4
		c1.1-2.2,1.4-4.8,0.8-7.2c-0.6-2.9-2.6-4.7-5-6.2c-1.9-1-3.6-2.4-5.1-3.9c-1.7-2-3.9-3.4-6.4-4.1c-1.1-0.3-2.2-1.1-3.4-0.8
		c-2.9,0.7-5.6,1.8-6.8,5c-0.1,0.2-0.1,0.6-0.5,0.5c-0.5-0.1-0.4-0.5-0.4-0.8c0.4-3.9-1.8-6.7-3.9-9.6c-0.7-1-3.3-1.6-4.3-1
		c-2.2,1.3-4.6,2.3-5.8,4.7c-0.6,1.3-1.4,2.5-2,3.8c-1.2,2.6-2.3,5.2-3.5,7.7c-0.6,1.3-1,2.6-1.6,3.8c-1.8,3.4-3.3,7-4.6,10.6
		c-1.1,3.3-2.4,6.4-3.5,9.7c-1.9,5.7-4.2,11.3-4.4,17.4c0,0.2-0.1,0.4-0.3,0.6c-1.5,0.9-1.3,2.5-1.7,3.8c-0.9,2.9-1.4,6-1.5,9
		c-0.1,1.1,0.4,2.1,1.2,2.8c0.6,0.5,2.6-1,2.9-2.1c0.1-0.4,0.1-0.8,0.1-1.1c0.1-0.8,0.2-1.7,1.5-1.1c0.7,0.3,1.3-0.3,1.6-0.8
		c0.5-0.9,0.7-1.1,1.7-0.4c0.8,0.6,1.6,0.6,1.9-0.9c0.7-3.8,1.7-7.5,2.9-11.2c1.9-5.8,4.3-11.5,7.1-17c1.4-2.7,3.3-5.2,5.4-7.4
		C204.6,31.3,205.8,31.2,206.8,30.5"/>
	<path id="パス_6472" d="M100.1,53.5c-0.5-0.8-0.8-1.8-0.8-2.7c0-0.8-0.6-1.6-1.5-1.6c0,0,0,0,0,0c-2.3-0.3-4.6-0.7-6.9-1
		c-0.7-0.1-1.4-0.4-1.9-1c-1.9-1.6-3.9-3.1-6-4.5c-1.6-1.1-3.7-1.3-5.1-2.7c-2.1-2.1-4.9-2.3-7.6-2.8c-1.5-0.2-2.9,0.6-3.3,2
		c-0.6,1.6-1.2,3.2-0.5,4.9c0.2,0.6,0.3,1.3,0.3,1.9c0.1,0.4-0.1,1,0.5,1.1c1,0.3,1.2,1.1,1.5,1.9c0.8,1.7,1.7,3.4,2.7,5
		c0.7,1.2,1.8,2.7,1.2,3.9c-1.1,2.6-3.1,4.8-5.5,6.2c-0.5,0.3-0.9,0.7-1.1,1.2c-0.6,1.3,0.2,2.1,0.8,3c0.9,1.4,2.3,2.3,4,2.4
		c1.8,0.2,3.2-0.2,3.8-2.2c0-0.1,0.1-0.2,0.1-0.3c1.2-1.7,2.1-1.8,3.7-0.5c0.3,0.3,0.7,0.3,0.7-0.2c0-0.7,0.6-0.8,1-0.9
		c1.2-0.2,2.5-0.2,3.7-0.1c1.3,0.1,1.6,1.6,2.4,2.3c0.5,0.4-0.8,0.6-1.1,1.1c-0.2,0.5-0.5,0.9-0.7,1.4c-0.2,0.5-0.3,0.9-1,1.1
		c-0.1-1.3-0.7-2.5-1.5-3.4c-0.2,0.5-0.4,0.9-0.6,1.4c-0.5-0.3,0.2-1.2-0.6-1c-0.5,0.1-0.3,0.7-0.1,1.1c0.1,0.4,0.1,1.1,0.4,1.2
		c2,0.9,0.3,1.7-0.2,2.1c-0.8,0.6-0.8,1-0.2,1.5c0.7,0.6,1.3,1.4,1.7,2.2c-0.4,0.6-1.4-0.5-1.3,0.4c0.1,1.4,0.5,2.8,0.5,4.3
		c0,0.9,0.2,1.9,0.6,2.7c0.8,0.9,0.3,1.7-0.1,2.5c0,0-0.1,0-0.1,0c0,0-0.1-0.1-0.1-0.1c-0.5,0.5-0.1,1.1-0.3,1.6
		c0.4,0.6,0.6,1.2,0.7,1.9c0.2,1.4-0.4,2.8-0.2,4.3c0,0.7-0.7,1.3-1.4,1.2c-0.1,0-0.1,0-0.2,0c-0.6-0.1-1.3-0.1-1.9-0.1
		c-0.4,0.4-0.9,0.2-1.4,0.3c2.4,0.6,3.5,1.9,3,3.8c-0.7,2.2-0.2,4.7,1.4,6.4c1.1,1.3,2.1,2.7,4.1,2.9c1.8,0.2,3.4,0.4,5-0.8
		c1.4-1.1,3.2-0.3,4,1.4c0.5-0.4,0.8-1.1,0.7-1.7c0-1.8,0.3-3.6,0.2-5.4c-0.2-2.5,0-5-1-7.4c-0.6-1.4-0.6-3.1,0.1-4.5
		c0.6-1.1,0.5-2.5-0.2-3.5c-0.2-0.2-0.2-0.5-0.2-0.7c0.7-1.5-0.2-2.9-0.3-4.3c-0.2-1.9,0.1-3.9-0.6-5.9c-0.9-2.3-0.2-4.9-0.6-7.4
		c-0.3-1.8-0.7-3.7,0.2-5.6c1.1-2.6,2.3-4.9,5.6-5.2c0.9-0.1,2.5-0.1,1.5-1.9c-0.1-0.2,0.1-0.7,0.3-1.1
		C100.7,55.1,100.6,54.2,100.1,53.5 M85,84.4c0-0.3,0.2-0.4,0.4-0.4c0.3,0,0.2,0.3,0.2,0.6c-0.1,0.1,0,0.4-0.3,0.4
		C84.9,85,85,84.7,85,84.4 M85.5,88.3c-0.6-0.3-0.8-1-0.5-1.6c0.1-0.1,0.3-0.2,0.4-0.1C85.8,87.1,85.7,87.6,85.5,88.3 M87.9,89.2
		c-0.2-2-0.9-3.6-0.1-5.2c0.1-0.3,0.2-0.5,0.5-0.5c0.3,0,0.6,0.2,0.7,0.6C89,85.7,89.3,87.3,87.9,89.2"/>
	<path id="パス_6473" d="M208.9,54.3c0.5-1.3,1.2-2.5,2.2-3.5c1.8-1.7,3.7-3.1,5.7-4.4c2.5-1.7,4.5-1,5.9,1.6c1,2,0.6,4.1,0.7,6.1
		c0.2,1.4,0.4,2.8,0.7,4.2c0.1,0.4,0.1,0.8-0.5,1c-0.6,0.3-0.6-0.1-0.8-0.5c-0.4-0.9-1.5-1.3-2.4-0.8c-0.1,0-0.1,0.1-0.2,0.1
		c-3.1,1.3-6,3-9.2,4.3c-0.4,0.1-0.6,0.5-0.6,0.9c-0.3,2,0.8,3.5,1.6,5.2c0.3,0.7,1.3,0.4,1.9,0.6c1.8,0.4,3.7,1.6,5.6,0.5
		c2.5-1.4,5.3-1.8,7.9-2.9c0.7-0.4,1.6-0.2,2.1,0.4c1,1.1,3.3,0.2,3.7,2.3c0.1,0,0.3,0,0.4-0.1c0.6-0.5,0.7,0,0.9,0.4
		c0.7,1,1.5,1.9,2.2,2.7c1-3.2,1.7-6.5,0.7-9.8c-0.8-2.8,0.3-5.6-1.1-8.5c-0.8-1.7-1.4-3.7-2.2-5.6c-1-2.5-3.2-4.3-5.4-5.8
		c-2.1-1.4-4.2-2.9-6.3-4.4c2.1,0.1,4.1,0.4,6.2,0.3c1.7-0.1,2.6-1.3,4-1.9c0.2-0.1,0.1-0.4,0.1-0.7c0-0.7-1.4-0.9-0.8-1.9
		c-1.5-0.4-2-2.1-3.1-2.7c-0.8-0.5-1.1-0.9-1.1-1.6c-0.1-1.6-1.1-1.4-2.2-1.3c-0.6,0-1.9,1.3-1.7-0.7c-0.1-0.1-0.3-0.1-0.4-0.1
		c-0.5,0.7-1.8,0.5-1.9,0.9c-0.6,1.7-1.6,1.2-2.5,0.7c-0.4,0.3-0.2,0.4-0.1,0.6c0.3,0.6,0.1,1.1-0.6,0.7c-0.4-0.2-1.2-0.5-0.9-1.3
		l-0.4-0.4c-0.8,0.5-1.5-0.2-2.2-0.2c-3,0-5.6,2.1-6.2,5.1c-0.6,2.5,0.7,5,3.1,5.9c1,0.2,2,0.3,3,0.4c0.4,0.1,0.8-0.7,1.1-0.1
		c0.2,0.5-0.4,0.8-0.8,1.1c-0.8,1-2.3,1.5-2.6,2.8c-0.3,0.8-0.7,1.5-1.4,2c-1.7,1.6-3.3,3.3-4.9,5c-1.3,1.5-2.5,3.1-3.7,4.7
		c-1.7,2.3-3.8,4.5-3.1,7.8c0.3,1.6,1.7,2.4,3.1,1.6c0.9-0.4,1.8-1,2.6-1.6c1.3-1,2.1-2.4,2.4-4C207.7,57.4,208.2,55.8,208.9,54.3"
		/>
	<path id="パス_6474" d="M122.1,43.5c2.1-1.4,4.5-2.4,7.1-2.9c3-0.3,5.9-0.3,8.9,0.2c0.9,0.1,1.2,0.2,0.9,1.1
		c-0.3,0.8,0.3,1.1,0.6,1.5c0.1,0.2,0.4,0.3,0.6,0.2c0.1,0,0.1-0.1,0.2-0.2c0.3-0.6,1.5-0.8,1-1.8c-0.1-0.3-0.3-0.6,0.1-0.8
		c0.3-0.1,0.6,0,0.7,0.2c0.4,0.6,1.2,0.8,1.9,0.5c1-0.5,2-1,2.6,0.6c0.1,0.3,0.5,0.3,0.9,0.3c0.5,0.1,1,0.3,1.1,0.8
		c0.3,1.3,1.3,2.4,1.1,3.8h0.4c0.2-0.4,1,0.1,0.9-0.7c0-0.3,0-0.6,0.4-0.5c0.3,0.1,0.4,0.4,0.4,0.7c0.1,0.6,0,1.2-0.3,1.8
		c-0.3,0.5,0.1,0.9,0.4,1.2c0.6,0.6,0.4-0.3,0.6-0.4c0.4-0.3,1-0.2,1.3,0.2c0.1,0.1,0.1,0.3,0.2,0.4c0.2,0.5,0.1,1,0.9,1.2
		c1.1,0.3,2.3-0.4,2.6-1.6c0.1-0.2,0.1-0.5,0-0.7c-0.2-3.3,0.8-6.7-0.8-10c-0.1-0.2-0.2-0.5-0.1-0.8c0.8-1.8-0.1-3.5-0.3-5.2
		c-0.2-1.8-1.5-3.4-3.2-3.9c-1.4-0.4-2.6-1.3-3.6-2.4c-0.5-0.6-0.6-0.9,0-1.5c1-1,0.9-1.7-0.6-2.2c-1-0.4-2.2-0.4-3.1-0.8
		c-3.6-1.5-7.2-1.4-10.9-0.7c-1.4,0.3-2.8,0.6-4.2,1c-2.3,0.6-4.8,1.3-6.3,3.3c-2.3,2.9-4.5,5.9-6.5,9.1c-2.3,4.1-5,8-8,11.7
		c-1.1,1.4-1.8,3-1.8,4.8c0,0.9,0.3,1.3,1.2,0.9c1.1-0.5,2.3-1,3.3-1.6C115.8,48.1,118.7,45.5,122.1,43.5"/>
	<path id="パス_6475" d="M250.9,96.7c-1.2-0.9-2.1-2-2.7-3.4c-0.5-1.2-1.5-2.1-2.6-2.7c-2.6-1.8-5.5-1.3-8.4-1.2
		c-0.5,0-1.3,0.6-1.6-0.3c-0.2-0.8,0.2-1.6,1-1.8c0,0,0,0,0,0c0.8-0.2,1.4-0.8,1.7-1.5c0.1-0.3,0.4-0.4,0.8-0.5c2-0.2,3.9,0.3,5.9,0
		c0.6-0.1,1.3,0.5,1.4-0.7c0-0.5,0.5-0.5,0.8-0.7c1.5-1.3,1.1-4.3-0.4-5.6c-1.9-1.6-4.1-1.2-6.2-1.2c-2.2,0.1-4.3,2-3.9,3.9
		c0.3,1.6-0.1,3.2-1.2,4.5c-1.3,2.1-2.8,3.8-5.6,3.8c-0.9,0.1-1.7,0.2-2.5,0.4c-0.7,0.1-1.2,0.6-1.3,1.3c-0.3,1.8-0.7,3.6-0.3,5.3
		c0.3,1-0.1,2.1-0.9,2.8c-1,0.9-2.2,1.6-3.5,1.9c-3,0.8-3,0.9-4.9-1.5c-0.8-1.1-1.6-2.2-2.5-3.2c-1.3-1.3-2-3.1-1.8-5
		c0.2-2.7-0.6-5.2-0.8-7.9c0-0.9,0-1.7-0.1-2.6c-0.5-2.7-2-5.1-2.4-7.8c-0.1-0.3-0.3-0.6-0.6-0.7c-1.1-0.5-2.4,0.1-2.9,1.2
		c-0.1,0.2-0.1,0.5-0.2,0.7c-0.1,1.5,0.1,3,0.5,4.5c0.6,2,1.1,4,1.5,6.1c1,4.7,1.6,9.6,3.7,14c1.2,2.1,1.7,4.4,1.6,6.8
		c-0.2,2,0.8,3.1,2.5,3.8c1.1,0.3,2.1,0.8,3,1.5c0.6,0.6,0.5,1.9,1.7,2c1.1,0.1,1.4-1.1,2-1.6c1.3-1.2,3-2,3.8-3.6
		c1-2.2,2.2-4.3,3.3-6.4c0.7-1.5,1.1-1.5,2.3-0.4c1.2,1,1.9,2.4,3,3.5c1,1,3.3,0.7,3.3,2.9c0,0.1,0.1,0.2,0.2,0.2
		c2.4,1.4,5.4,1,7.5-0.9c1-1.4,2.9-1.8,4.3-0.9c1.3,0.6,2.5,2,4.3,1.2c-0.1-0.6-0.5-1-0.6-1.6c-0.1-1-0.6-1.8,0.8-2.4
		c0.6-0.3,0.8-1.1,0.5-1.7c-0.1-0.1-0.1-0.2-0.2-0.3C253.3,99.6,252.4,97.9,250.9,96.7"/>
	<path id="パス_6476" d="M323,46.2c0.4-0.3,0.9-0.4,1.1,0c0.4,0.6,0.1,0.8-0.5,0.6c-0.2,0.3-0.3,0.6-0.3,1c0,0.2,0.1,0.3,0.3,0.4
		c0,0,0.1,0,0.1,0c0.6-0.1,1.2-0.3,1.8-0.6c0.5-0.4-0.2-1-0.3-1.4c-0.3-0.7-1-1.1,0.3-1.7c0.7-0.5,1-1.3,0.8-2.1
		c-0.7-2.4-0.2-5.1-1.6-7.3c-1.5-2.4-1-5.6-3.5-7.6c-0.1-0.1-0.1-0.4,0-0.6c0.5-1.6-1.1-2.8-0.9-4.3c0-0.2-0.4-0.3-0.7-0.3
		c-0.8,0-1.5-0.4-1.8-1.2c-0.7-1-1.8-1.6-3-1.7c-1.8-0.4-3.6,0-5.3-0.2c-1.1-0.1-1.6-0.6-0.9-1.7c0.6-0.5-0.4-0.4-0.2-0.8
		c-0.1-0.3-0.3-0.7,0.4-0.7c1.5,0.2,1.2-0.4,0.7-1.4c-0.5-0.9-1.4-1.6-1.7-2.7c-0.4-1.6-1.4-2.9-2.7-3.8c-1.5-1.1-2.2-0.9-3.5,0.4
		c-0.5,0.5-1,1-1.5,1.5c-2.3,2.2-2.1,4.8,0.4,6.9c0.6,0.5,1.4,1.1,1.5,2c0.2,0.9-0.1,1.7-0.7,2.4c1.6-0.8,2.4,0.9,3.7,0.9
		c-1.4,0.7-3,1.1-4.5,1.4c-0.5,0-0.9,0.2-1.3,0.6c-1,1.2-2.3,2.1-3.8,2.6c-0.8,0.3-2.6,0.3-2,2.2c1.2-0.5,2.4-0.9,3.7-1.3
		c4.1-0.8,8.4-0.9,12.6-0.4c1.5,0.2,3,0.6,3.6,2.1c0.9,2.5,1.6,5,1.9,7.6c0.2,2,0,4.2,1.1,6.1c1.7-0.1,2,1,1.9,2.3
		c0.3,0.6-0.2,1.8,0.9,1.8c0.9,0,0.3-1.1,0.6-1.6c0.1-0.1,0.1-0.1,0.2-0.2c0.7,1,2.1,1.3,3.1,0.6C322.8,46.3,322.9,46.3,323,46.2
		 M306,19.1c-0.4,0.3-0.6-0.2-0.9-0.3c0,0.4,0.2,1-0.5,0.9c-0.5,0-1.1-0.1-1.4-0.7c-0.1-0.3-0.6-1,0.4-0.7c0.2,0.1,0.1-0.4,0.1-0.5
		c0-0.4,0-1.2,0.2-1.1c0.5,0.3,1.2,0,1.5,0.5c0.2,0.3,0.3,0.6,0.4,0.9C305.8,18.5,306.4,18.7,306,19.1 M319.3,33.7
		c-0.1,0.1-0.1,0.2-0.2,0.2c-0.8,0.6-1.8,1.6-2.5,1c-0.9-0.7-1.1-2.2-0.8-3.5c0-0.2,0.1-0.3,0.2-0.4c0.4,0.5,0.7,1,1,1.4
		c0.5,0.7,1,1.3,1.8,0.3c0.2-0.2,0.5-0.5,0.8-0.2c0.3,0.2,0.5,0.6,0.5,1C320.1,34.3,319.6,33.5,319.3,33.7"/>
	<path id="パス_6477" d="M272.3,59.7c-0.7-1.7-0.8-3.5-0.3-5.2c0.6-2.9-0.4-5.8-2.5-7.8c-1.1-1.3-2.2-2.7-3.2-4.1
		c-1.2-1.7-2.5-3.3-4-4.7c-2.6-2.2-2.4-2-4.5,0.7c-2.7,3.5-2.6,7.4-1.7,11.2c1.2,4.7,2.7,9.4,4.6,13.9c1.1,2.5,2.4,4.2,5,4.7
		c1.2,0.2,1.5,0.7,1.1,1.8c-0.2,0.7,1.2,2,1.9,1.7c1.2-0.5,2.2-1.5,2.6-2.8c0.2-0.4,1-1,0.4-1.7c-0.3-0.3-0.5-0.7,0-0.9
		s0.5,0.5,1.2,0.5c-0.6-2.2-0.2-4.5-0.6-6.7C272.3,60,272.3,59.8,272.3,59.7"/>
	<path id="パス_6478" d="M281,22.2c0.4,1,0.9,1.9,1.6,2.7c0.1-0.6,0.2-0.9,0.4-1.6c1.2,2.5,2.4,4.2,5.1,3.3c0.6-0.2,1.4,0,1.8,0.5
		c0.2,0.1,0.3,0.2,0.5,0.2c0.8-1.2,2.1-1,3.3-1.3c2.4-0.6,2.9-2.9,2.3-5.2c-0.8-3.5-1.3-7.1-3.8-10c-0.7-0.8-1.1-1.8-1.4-2.8
		c-1.1-3.3-3.5-5.1-6.5-6.6c-1.8-0.9-2.8-0.6-3.6,1c-0.2,0.2-0.3,0.4-0.6,0.6c-1.9,1.9-2.9,6.9-1.5,9.2
		C280.6,15.4,279.7,19,281,22.2"/>
	<path id="パス_6479" d="M280.5,40.8c1.8-2.4,3.8-4.6,6-6.7c1-0.7,1.8-1.5,2.5-2.5l0.3-0.8c-1.1,0.1-1.8,1.6-2.4,1.4
		c-1.5-0.5-2.2,0.5-3.1,1.1c-0.8,0.4-1.2,0.1-1.2-0.8c0-0.8,1-2.3-1.2-2c-0.4,0.1-0.3-0.6-0.5-0.9c-0.7-1.6-0.9-3.4-2.1-4.7
		c-2-2.3-3.7-4.8-5-7.5c-1.7-3.3-3.7-5-6.7-1.3c-1.3,1.6-1.4,3.6-2.3,5.4c-0.2,0.6,0,1.4,0.6,1.7c0.8,0.4,0.8,1.1,1.1,1.7
		c0.3,0.7-0.7,2.4,1.3,1.9c0,0.2,0.1,0.3,0.1,0.5c0.4,1.9,1.1,3.8,1.9,5.6c0.2,0.4,0.3,1,1.1,0.8c0-0.9-0.1-1.8-0.4-2.7
		c-0.1-0.3-0.2-0.8,0.4-0.9c0.4-0.1,0.9-0.2,1,0.2c0.4,1.3,1.2,0.5,2,0.2c-0.7,1.5,1.8,1.4,1.1,2.9c0.6-0.9,1.7-0.6,2.4-1.1
		c0.2-0.1,0.4-0.2,0.5,0.1c0.2,0.2,0,0.4-0.1,0.6c-0.7,0.7-1.3,1.6-2.1,2.3c-3.2,2.7-4.2,6.4-4.7,10.3c-0.1,1,0.5,1.9,1.4,2.2
		c0.4,0.3,1,0.2,1.3-0.2C275.7,45,278.5,43.3,280.5,40.8 M271.3,25.4c-0.3-0.3-1-0.2-0.9-0.9c0-0.2,0.3-0.4,0.4-0.4
		C271.3,24.3,271.4,24.7,271.3,25.4 M272.1,27.1c-0.4,0-0.5-0.3-0.4-0.7c0-0.2-0.1-0.6,0.3-0.6c0.4,0,0.4,0.4,0.5,0.7
		C272.3,26.7,272.4,27,272.1,27.1"/>
	<path id="パス_6480" d="M30.5,99.7c0.3-0.3,0.6-0.2,0.8,0.1c0.5,1,0.5,0.1,0.6-0.2c-0.4-0.8-0.8-1.5-1.2-2.3
		c-0.9-1.4-1.1-3.1-0.6-4.6c1-1.9,0.6-4.3-1-5.7c-1.4-1.3-3.2-2.4-5.1-2.2c-3.1,0.4-3.9,2.4-3.9,5.6c0,1.8,0.6,3.6,0.8,5.4
		c0.4,4,1.8,7.7,2.4,11.6c0.2,0.8,0.6,1.5,1.2,2.1c0.6,0.7,1.5,1.4,2.1-0.2c0.3-0.9,1.5-1.4,1.3-2.6c0-0.2,0.7-0.6,1.1-0.7
		c0.7-0.1,2.3-1.7,2.2-2.4c0-0.3,0-0.7-0.6-0.7c-1,0-0.7-0.5-0.4-1.1c0.3-0.6,1-0.3,1.3-0.8c-0.3-0.2-0.6-0.4-0.9-0.6
		C30.4,100.3,30.4,100,30.5,99.7"/>
	<path id="パス_6481" d="M227.9,74.1c-0.2,0-0.5-0.2-0.7-0.3c-1.4-0.1-2.6-0.5-4.1,0.2c-3.1,1.5-5.7,4-9,5.2
		c-0.7,0.2-1.1,1-0.9,1.6c0.5,0.8,0.6,2,1.2,2.6c0.9,0.8,1.4,2.4,3.2,2.1c0.4-0.1,0.8-0.2,1.3-0.3c3.1-0.5,6.1-1.6,8.8-3.2
		c1.6-0.8,3.2-1.6,4.8-2.4c1.2-0.7,1.1-3,0-3.8C231.1,74.8,229.8,73.7,227.9,74.1"/>
	<path id="パス_6482" d="M77.7,84.9c0-0.3-0.1-0.8,0-0.9c1.7-2.1,0.7-4.1,0-6.1c-0.6-1.7-3-4.5-5.2-4.2c-1.6,0-3,1.1-3.4,2.6
		c-0.3,0.8-0.7,1.5-1.2,2.3c-1.3,2-0.8,4.7,1.2,6c0.1,0.1,0.2,0.1,0.3,0.2c1.7,0.9,3.3,2.1,5.2,2.6C76.5,87.7,77.7,86.9,77.7,84.9"
		/>
	<path id="パス_6483" d="M327.1,92.5c-1.1,0.7-1.5,0-2-1.1c-0.2,0.7-0.4,1.1-1.1,0.9c-0.6-0.1-1.2,0.2-1.3,0.8c0,0.1,0,0.2,0,0.2
		c0,1.2-0.5,2.4-1.2,3.3c0,0.1,0,0.3,0,0.4h0c0.6-0.5,1.2-0.8,1.7,0.1c1.2-0.7,2.6-1.2,4-1.3c1.5-0.4,1.5-1.4,1.4-2.5
		C328.3,92.7,327.7,92.3,327.1,92.5"/>
	<path id="パス_6484" d="M24.6,43.7c0-0.2,0-0.4,0-0.5c-0.3,0.1-0.6,0-0.9-0.1l-0.8,0c0,0,0,0.1,0,0.1c-0.1,0.2-0.3,0.4-0.5,0.6
		l1.6,0.3l0.7-0.2C24.6,43.8,24.6,43.8,24.6,43.7"/>
	<path id="パス_6485" d="M22.9,43.1h-0.2l0,0c-0.2,0.2-0.4,0.4-0.3,0.7C22.5,43.5,22.8,43.4,22.9,43.1
		C22.9,43.1,22.9,43.1,22.9,43.1"/>
	<path id="パス_6486" d="M24.6,43.7c0,0,0,0.1,0,0.1l0.3-0.1c0-0.2,0-0.4,0-0.7c-0.1,0.1-0.3,0.1-0.4,0.1
		C24.6,43.4,24.6,43.5,24.6,43.7"/>
	<path id="パス_6487" d="M316.1,43.4l0.1,0.8c1.6-0.7,1.2,1,1.8,1.5C317.9,44.6,317.4,43.6,316.1,43.4"/>
	<path id="パス_6488" d="M316.1,43.4c1.3,0.2,1.8,1.2,1.9,2.3C318.1,44.4,317.8,43.3,316.1,43.4"/>
	<path id="パス_6489" d="M321.4,97.1L321.4,97.1l0.1,0.8c0.6,0,1.2-0.3,1.6-0.7C322.5,97,322,97.3,321.4,97.1"/>
	<path id="パス_6490" d="M321.4,97.1c0.6,0.2,1.1-0.1,1.7,0.1C322.6,96.3,322,96.6,321.4,97.1"/>
	<path id="パス_6491" d="M29.6,42.3c0.1-0.2,0.3-0.3,0.7-0.2c0-0.2,0.1-0.5-0.2-0.7C29.9,41.7,29.3,41.8,29.6,42.3"/>
	<path id="パス_6492" d="M29.1,41.4c-0.2,0.4-0.3,1.2,0.5,1.4c0-0.2,0-0.3,0-0.5c-0.3-0.4,0.3-0.6,0.5-0.8
		C29.7,41.4,29.3,40.9,29.1,41.4"/>
	<path id="パス_6493" d="M165.2,101.7c0.4-0.3,0.4-0.5-0.1-0.8c-0.4-0.1-0.7-0.5-1.1-0.1c-0.3,0.3-0.2,0.6,0.2,0.8
		C164.5,101.4,164.9,100.8,165.2,101.7"/>
	<path id="パス_6494" d="M165.2,101.7c-0.3-0.9-0.7-0.3-1.1,0C164.5,101.8,164.9,101.3,165.2,101.7"/>
	<path id="パス_6495" d="M81.6,87.6c0.1,0,0.1-0.1,0.2-0.1c-0.3-0.3-0.4-0.8-0.2-1.1c-0.4,0.7-0.5,1.6-0.1,2.4
		C81.5,88.4,81.5,88,81.6,87.6"/>
	<path id="パス_6496" d="M81.9,87.6c0,0-0.1-0.1-0.1-0.1c-0.1,0.1-0.1,0.1-0.2,0.1c-0.1,0.4-0.2,0.7-0.1,1.1
		c0,0.2,0.1,0.3,0.2,0.5C81.8,88.7,81.4,88.1,81.9,87.6"/>
	<path id="パス_6497" d="M81.8,87.5C81.8,87.5,81.8,87.4,81.8,87.5c-0.1-0.4-0.2-0.8-0.2-1.1C81.4,86.7,81.5,87.2,81.8,87.5"/>
	<path id="パス_6498" d="M81.8,87.5c0,0,0.1,0.1,0.1,0.1C81.9,87.5,81.9,87.5,81.8,87.5C81.8,87.4,81.8,87.4,81.8,87.5"/>
	<path id="パス_6499" d="M267.4,31.5c0,0.1,0.3,0.1,0.4,0.1c0.6-0.5,0-1,0.3-1.8C267.4,30.5,267.2,31,267.4,31.5"/>
	<path id="パス_6500" d="M321.4,97.1L321.4,97.1c0,0-0.1,0-0.1,0c-0.1-0.1,0-0.3,0.1-0.4c-0.8,0.1-0.7,0.7-0.6,1.2
		c0.1,0.4,0.5,0.2,0.7,0C321.2,97.7,321.2,97.3,321.4,97.1C321.4,97.1,321.4,97.1,321.4,97.1"/>
	<path id="パス_6501" d="M321.3,97.1c0,0,0.1,0,0.1,0c0-0.1,0-0.3,0-0.4C321.2,96.8,321.2,96.9,321.3,97.1"/>
	<path id="パス_6502" d="M321.5,97.8l-0.1-0.8C321.2,97.3,321.2,97.6,321.5,97.8C321.4,97.8,321.4,97.8,321.5,97.8"/>
	<path id="パス_6503" d="M177.6,101.7c0.4-0.4,0.6-1,0.5-1.5c-0.5,0.1-0.9,0.6-0.9,1.2C177.6,101.3,177.7,101.3,177.6,101.7"/>
	<path id="パス_6504" d="M177.3,101.3l0.4,0.4C177.8,101.3,177.6,101.3,177.3,101.3"/>
	<path id="パス_6505" d="M78.7,96.5c-0.7-0.3-1.5-0.2-2.1,0.2l0.8,0C77.7,96.4,78.3,96.8,78.7,96.5"/>
	<path id="パス_6506" d="M77.3,96.8c0.5-0.1,1,0.1,1.4-0.3C78.3,96.8,77.7,96.4,77.3,96.8"/>
	<path id="パス_6507" d="M217.3,29c0.2-0.4,0.9-0.2,1-1l-1.4,0.6C217.2,28.5,217.3,28.7,217.3,29"/>
	<path id="パス_6508" d="M216.8,28.6l0.4,0.4C217.3,28.7,217.2,28.5,216.8,28.6"/>
	<path id="パス_6509" d="M333.3,97.1c0.6,0,0.9,0.5,1.6-0.1C334.4,96.9,334,96.5,333.3,97.1"/>
	<path id="パス_6510" d="M24.7,44c-0.2,0.2-0.5,0.2-0.7,0.1c0.2,0.2,0.5,0.4,0.7,0.6C24.9,44.5,24.7,44.2,24.7,44"/>
	<path id="パス_6511" d="M25,43.7L25,43.7c-0.1,0.1-0.2,0.2-0.3,0.3c0.1,0.2,0.2,0.5,0,0.7C25.1,44.5,25,44.1,25,43.7"/>
	<path id="パス_6512" d="M24.7,44c0,0,0-0.1,0-0.1L24,44.1C24.2,44.2,24.5,44.1,24.7,44"/>
	<path id="パス_6513" d="M24.7,44c0.1-0.1,0.2-0.2,0.3-0.3l-0.3,0.1C24.6,43.9,24.7,43.9,24.7,44"/>
	<path id="パス_6514" d="M149.8,47c-0.6,0.6,0.1,0.8,0.4,1.1V47C150,47.1,149.9,47.1,149.8,47C149.8,47,149.8,47,149.8,47"/>
	<path id="パス_6515" d="M150.1,47h-0.4C149.8,47.1,150,47.1,150.1,47C150.1,47,150.1,47,150.1,47"/>
	<path id="パス_6516" d="M178.1,104c0.3-0.4,0.2-0.8,0-1.2c-0.2,0.4-0.6,0.7-0.5,1.2C177.7,103.8,178,103.8,178.1,104"/>
	<path id="パス_6517" d="M177.6,103.9l0.5,0C178,103.8,177.8,103.8,177.6,103.9"/>
	<path id="パス_6518" d="M24,43c0.1,0,0.3,0,0.5,0C24.3,42.9,24.1,42.9,24,43"/>
	<path id="パス_6519" d="M23.8,43c0.1,0,0.1,0,0.2,0c0.1,0,0.3-0.1,0.5,0c0.2,0,0.4,0,0.6,0.1c0-1.8-0.9-0.1-1.3-0.3
		c0,0.1,0,0.1,0,0.2C23.7,43,23.8,43,23.8,43"/>
	<path id="パス_6520" d="M24.4,43c-0.2,0-0.3,0-0.5,0c-0.1,0-0.1,0-0.2,0c0,0,0,0,0,0c0,0-0.1,0-0.1,0v0.1
		c0.3,0.2,0.6,0.2,0.9,0.1c0,0,0,0,0,0C24.6,43.1,24.5,43,24.4,43"/>
	<path id="パス_6521" d="M24.4,43c0.1,0,0.1,0.1,0.2,0.2c0,0,0,0,0,0c0.1,0,0.3-0.1,0.4-0.1C24.8,43,24.6,42.9,24.4,43"/>
	<path id="パス_6522" d="M23.8,43C23.8,43,23.8,43,23.8,43C23.8,43,23.7,43,23.8,43L23.8,43C23.7,43,23.8,43,23.8,43"/>
	<path id="パス_6523" d="M23.5,42.9C23.5,42.9,23.6,42.9,23.5,42.9C23.6,42.9,23.6,42.9,23.5,42.9c0.1-0.1,0.2-0.2,0.2-0.2
		c-0.4-0.2-1.1-1-1,0.3C22.9,42.8,23.2,42.8,23.5,42.9"/>
	<path id="パス_6524" d="M22.9,43.1l0.8,0c0,0-0.1-0.1-0.1-0.1C23.3,42.9,23.1,42.7,22.9,43.1"/>
	<path id="パス_6525" d="M22.9,43.1c0.2-0.3,0.4-0.2,0.7-0.1c0,0,0,0,0,0c0,0-0.1,0-0.1,0c-0.3-0.1-0.6-0.1-0.8,0.2l0,0L22.9,43.1
		"/>
	<path id="パス_6526" d="M23.6,42.9c0,0,0.1,0,0.1,0v-0.2C23.7,42.7,23.6,42.8,23.6,42.9C23.6,42.9,23.6,42.9,23.6,42.9"/>
	<path id="パス_6527" d="M23.6,43c0,0,0.1,0.1,0.1,0.1c0,0,0-0.1,0-0.1C23.7,43,23.6,43,23.6,43"/>
	<path id="パス_6528" d="M23.7,43c0,0-0.1,0-0.1,0c0,0,0,0,0,0C23.6,43,23.7,43,23.7,43L23.7,43"/>
	<path id="パス_6529" d="M288.3,49c-0.2,0.1-0.4,0.4-0.2,0.5c0.5,0.2,0.8-0.2,1.2-0.5C289,49.2,288.6,49.2,288.3,49"/>
	<path id="パス_6530" d="M289.3,48.9l-1,0C288.6,49.2,289,49.2,289.3,48.9"/>
	<path id="パス_6531" d="M287.7,47c-0.3,0.1-0.7,0.3-0.6-0.4c-0.3,0.1-0.5,0.4-0.3,0.6C287.1,47.7,287.4,47.2,287.7,47"/>
	<path id="パス_6532" d="M287.7,47c-0.2-0.1-0.6,0.1-0.6-0.4C287,47.3,287.3,47.1,287.7,47"/>
	<line id="線_336" x1="305" y1="18.8" x2="305" y2="18.8"/>
	<path id="パス_6533" d="M305,18.8L305,18.8L305,18.8L305,18.8z"/>
	<path id="パス_6534" d="M304.7,18c-0.1,0-0.3,0.2-0.3,0.3c-0.1,0.5,0.2,0.6,0.6,0.6C305.2,18.4,305.1,18.1,304.7,18"/>
	<path id="パス_6535" d="M305,18.8L305,18.8L305,18.8C305,18.8,305,18.8,305,18.8"/>
</g>
</svg>
