<svg xmlns="http://www.w3.org/2000/svg" xmlns:xlink="http://www.w3.org/1999/xlink" width="334.965" height="118.544" viewBox="0 0 334.965 118.544">
  <defs>
    <clipPath id="clip-path">
      <rect id="長方形_24115" data-name="長方形 24115" width="334.965" height="118.544" fill="#fff"/>
    </clipPath>
  </defs>
  <g id="グループ_9503" data-name="グループ 9503" transform="translate(0 0)">
    <g id="グループ_9502" data-name="グループ 9502" transform="translate(0 0)" clip-path="url(#clip-path)">
      <path id="パス_6468" data-name="パス 6468" d="M147.621,97.5c-.194-1.047-.637-2.285.85-2.885.321-.13.459-.43.172-.6-1.665-.994-.274-2.2-.27-3.3l-.53-.02c-.2.171-.393.45-.692.325-.483-.2-.011-.427.045-.614.2-.662.454-1.309.688-1.961-.119-.12-.237-.24-.358-.359-1.148,1.037-1.148,2.715-2.264,4.165a8.149,8.149,0,0,0-.976-3.053c-1.1-2.457-1.355-5.27-2.94-7.486-.607-.85-.441-1.755-.848-2.6-1.181-2.469-2.8-4.736-3.756-7.27a59.131,59.131,0,0,0-4.879-9.4c-.879-1.466-1.632-3.009-2.391-4.543-.86-1.736-.429-2.439,1.443-2.7a7.325,7.325,0,0,0,1.737-.733,16,16,0,0,1,2.439-1.011,37.848,37.848,0,0,1,6-1.157c.311-.023.681-.128.755-.486A.723.723,0,0,0,141.4,51c-1.447-.415-1.071-1.736-1.342-2.69-.3-1.067-.045-1.935,1.327-2.036.4-.029,1.066-.2.674-.767-.468-.673-.785-1.479-1.725-1.836-2.483-.944-4.958-.546-7.371.03a37.9,37.9,0,0,0-7.4,2.588c-1.565.737-3.188,1.46-4.747,2.3-1.146.621-2.323,1.406-3.987.831,2.013-.8,3.469-2.08,5.128-3.029,1.1-.628-.575-1.307.012-2,.085-.1-.257-.145-.478-.1-1.928.43-3.85.932-5.8,1.172-.5.061-2.036.584-1.754-.745.33-1.55-.464-.919-1.058-.818-.528.09-1.025.39-1.587.236-.845-.231-1.785.779-2.463.072-.962-1,.783-1.361.742-2-.1-1.452,1.223-1.867,1.7-2.842.516-1.052,1.634-1.751,1.773-3.059-2.341,1.3-4.546,2.72-6.734,4.165-.955.631-1.908,1.467-3.053,1.436-1.77-.048-3.089.92-4.442,1.707a13.3,13.3,0,0,1-2.473,1.157c-2.807.932-5.279,2.246-6.677,5.024-.121.242-.166.59-.36.715-.48.311-1.084.687-1.357-.232-.687-2.322-1.6-4.6-2.185-6.914-.426-1.671-1.46-1.473-2.3-1.425a1.792,1.792,0,0,0-1.535,1.717c-.056,1.249-.071,2.5-.15,3.746-.106,1.686.635,3.34.235,5.017a13.651,13.651,0,0,0-.255,4.217,132.871,132.871,0,0,1-.162,13.656,55.667,55.667,0,0,0,.24,8.43,68.571,68.571,0,0,0,2.787,11.1A13.234,13.234,0,0,0,90.907,97.6a21.579,21.579,0,0,0,5.342,1.892,10.229,10.229,0,0,0,7.385-.463c3.806-1.75,7.622-3.513,11.359-5.437,2.21-1.137,4.234-2.634,6.563-3.516,2.115-.8,2.877-3.329,5.312-3.858,1-.218,1.757-1.575,2.62-2.417a.646.646,0,0,0,.06-.718c-1.279.192-1.275-1.393-2.345-1.608-1.7-.343-3.236-1.574-5.139-.921-.266.091-.707.119-.826-.3s.233-.575.531-.691c1.148-.449,1.949-1.52,3.3-1.662,1.066-.113,1.773-2.1,1.422-3.134-.555-1.636-2.04-2.124-3.28-2.922-.192-.124-.546,0-.52-.408a.478.478,0,0,1,.392-.448c.382-.123,1.1-.255.669-.74-.452-.51-1.149-1.283-1.871-1.05-1.665.538-3.4-.134-4.983.371a9.331,9.331,0,0,1-5.072-.038c-.932-.207-1.709-1.344-2.429-1.065-1.825.708-3.968.212-5.577,1.515-1.548,1.254-3.109.843-4.422-.161-.833-.636-1.321-.98-2.166-.188-.924.864-.4,1.628.194,2.249.484.508.572.936.156,1.4-.947,1.063-4.225.259-4.669-1.134-1.455-4.573-1.362-9.424-2.484-14.06-.093-.385-.056-.854.534-.715A6.454,6.454,0,0,0,93.686,57c3.246-.584,6.592-.358,9.79-1.181a3.186,3.186,0,0,1,3.24,1.05c.974.884.745,1.656-.151,2.266-1.776,1.208-3.625,2.307-5.435,3.464-.631.4-1.686.591-1.136,1.729a2,2,0,0,0,2.626,1.261c.736-.239,1.7-1.261,1.864.558.02.243.449.186.723.2a4.638,4.638,0,0,0,3.119-1.131,4.685,4.685,0,0,1,4.036-1.122,8.347,8.347,0,0,0,2.736-.023,5.97,5.97,0,0,1,4.058.617c2.659,1.615,4.574,3.928,6.574,6.217,1.123,1.286,2.94,1.808,4.064,3.173.083.1.306.091.464.131.3.076.7-.569.906.117.175.6-.647.712-.64.914.02.629-1.276.1-.783,1.054a5.46,5.46,0,0,0,1.975,2.425,2.486,2.486,0,0,1,.831,3.263,1.539,1.539,0,0,1,1.852.424c.419.607-.124,1.282-.528,1.706-.7.736.109,1.37-.031,2.042-.04.19.067.089.207.081,1.892-.108,2.659.491,2.813,2.191a.771.771,0,0,0,.225.62,2.517,2.517,0,0,1,.569,2.64,1.677,1.677,0,0,1,.328,1.624,2,2,0,0,1-.592-1.617,5.284,5.284,0,0,0-1.737-1.545.773.773,0,0,1-.222-.55,11.156,11.156,0,0,1,.034-1.129c-.341-.446-.722.09-1.075-.044a37.531,37.531,0,0,0,3.127,8.632c1.058,2.409,1.937,4.9,3.1,7.27.261.531.475,1.081,1.115.939.482-.108,1.115.255,1.451-.706a4.744,4.744,0,0,1,1.832-2.154c.564-.382,1.006-.57,1.4.146.34.614.88,1.235,1.507.751a1.59,1.59,0,0,0,.759-1.938,21.924,21.924,0,0,1-1.06-3.871m-41.029-3.516a1.768,1.768,0,0,1-2.219.449c.893-.449,1.361-.981,2.109-.838.064.012.16.341.111.389m2.779-2.526c-.315.6.914,1.212-.222,1.688a2.042,2.042,0,0,1-2.442-.626c-.4-.434-.2-1.056.562-1.149a2.782,2.782,0,0,0,1.826-1.14c1.277-1.478,2.981-1.069,4.818-.857-1.219,1.587-2.8,1.931-4.542,2.084m-7.8-2.528a12.116,12.116,0,0,1,1.282-1.395c.323-.263.914-.333.726-.891-.209-.616-.748-.111-1.127-.188-.142-.029-.283-.066-.532-.124.62-1.257,2.155-1.284,2.727-2.749.464.939.053,2.689,1.6,1.376.318-.27.476-.494.2-.954a.983.983,0,0,1,.951-1.6c2.2.568,4.343.147,6.513.134.6,0,1.557-.2,1.864.655.343.949-.57,1.761-1.04,2.016-2.979,1.621-5.742,3.729-9.09,4.574-1.089.276-2.3-.007-3.387.51-.263.126-.506-.026-.65-.315-.176-.352-.36-.688-.037-1.05m-.959,1.213c.48-.044.558.42.688.73.075.177-.132.371-.374.411-.293-.191-.741-.265-.695-.733a.583.583,0,0,1,.381-.408M109,61.295c-1.673,1.552-3.4,3.076-5.994,2.893.333-1.183,1.484-.867,1.967-1.531.369-.509.891-.921.944-1.615.066-.842.445-1.112,1.028-.4.3.362.4.405.695.081.169-.187.883-.232.094-.6-.171-.079-.1-.427.153-.5a1.024,1.024,0,0,1,1.065.213A1.012,1.012,0,0,1,109,61.295m25.76,19.129c-.921-.127-.517-1.168-1.107-1.817.865-.016,1.538-.071,1.732.7.119.465-.177,1.182-.625,1.121" transform="translate(29.748 13.252)" fill="#fff"/>
      <path id="パス_6469" data-name="パス 6469" d="M63.659,67.178c.05-.049-.019-.212-.01-.319.233-2.843-1.393-4.56-3.513-6.088a4.8,4.8,0,0,0-6.693,1.267,8.51,8.51,0,0,0-1.073,3.628c-.714-1.881-1.2-3.826-1.96-5.652a1.338,1.338,0,0,1,.878-2.021,25.3,25.3,0,0,1,5.566-2.021c.646-.1,1.018-.592,1.55-.843.225-.105.622-.6-.066-.8-.973-.293-1-.848-.55-1.647.134-.24.639-.581.1-.953-.064-.042-2.661-1.01-2.758-1a.363.363,0,0,1-.162,0c-.77-.295-2.095.767-2.343-1.107-.04-.3-1.55-1.118-1.863-2.008a3.443,3.443,0,0,0-2.693-2.275c-1.222-.362-3.039-.116-3.3-2.129-.046-.355-.49-.341-.826-.363a32.4,32.4,0,0,0-7.107.429c-.994.156-1.931.156-2.2-.744a10.741,10.741,0,0,0-2.522-4.606c-.525-.538-.228-1.849-.052-1.8,1.108.315.543-.539.429-.626-.919-.7-.947-1.905-1.624-2.727-.382.3-.737.726-1.273.257-.815-.224-.655-.936-.483-1.38.158-.412.643.042.987.06-1.178-3.353-4.391-3.039-6.943-3.491-.961-.169-1.733-.317-2.165-1-.712-1.129-1.148-.453-1.492.128a5.516,5.516,0,0,0-.506,4.369c.6,2.154,1.567,2.73,3.405,2.338a.7.7,0,0,1,.308-.7h0c-.06-1.338.573-.494.994-.315.4.258,1.286-1.527,1.3.313,0,.221,0,.444,0,.665,0,.356.082.738-.3.976a20.532,20.532,0,0,1,3.045,4.376c1.146,2.211,1.029,4.664,1.516,7,.056.272-.281.706-.543.949-1.017.947-1.935,2.192-3.151,2.687-2.195.894-3.708,2.6-5.551,3.9s-3.5,2.978-5.5,3.974c-1.733.864-3.618,1.49-5.085,2.761a74.052,74.052,0,0,0-5.664,5.414A15.215,15.215,0,0,0,.139,73.785c-.5,2.469.448,4.737,1.377,6.929A3.779,3.779,0,0,0,4.788,82.97c3.3.418,6.069-1.084,8.691-2.54a36.457,36.457,0,0,0,8.155-6.651,19.972,19.972,0,0,1,5.02-3.918c2.6-1.346,3.271-1.152,4.1,1.643,1.134,3.838,3.647,7.072,4.393,11.136a77.875,77.875,0,0,0,2.26,7.647,15.762,15.762,0,0,0,3.607,6.492c.446.476,1.332.8,1.591.4.771-1.19,2.272-1.59,2.891-2.907.153-.328.022-1.006.674-.936.438.045.549.535.662.867.55,1.623,1.563,1.507,2.753.787a1.421,1.421,0,0,1,2.073.269c.61.756,1.219,1.388,2.322.79a2.349,2.349,0,0,0,1.183-2.38c.037-2.861-.405-5.736.562-8.571a7.654,7.654,0,0,0,.025-4.5c-.434-1.542-.639-3.127-1.175-4.662a9.166,9.166,0,0,1-.554-5.514c.756,3.094,3.472,4.25,5.665,5.88.661.49,2.233.034,2.167-.27-.4-1.878,1.277-2.882,1.564-4.411.483-.1.893.636,1.452.13-.1-.217-.2-.409-.281-.606-.532-1.268-2.824-2.125-.927-3.966" transform="translate(0 9.708)" fill="#fff"/>
      <path id="パス_6470" data-name="パス 6470" d="M242.675,87.659c-.038-.089-.334-.16-.456-.108-1.86.793-1.691-.974-2.277-1.787-.332.049-.674.763-.863.332-.262-.6.513-.588.9-.774.173-.187.521-.338.322-.647s-.535-.179-.865-.128c-1.269.19-2.438.858-3.838.5-1.066-.277-.888-1.254-1.41-1.806-2.1-2.225-2.367-4.606-.819-7.115a3.706,3.706,0,0,0,.686-1.279c.293-2.307,2.182-3.214,3.883-3.759,1.541-.493,2.947-1.258,4.474-1.743a.64.64,0,0,0,.183-1.213c-.935-.4-.19-1.976-1.56-1.994-.124,0,.427-.517.558-.846.229-.58,1.3-.867.6-1.862-.558.55-1.35.486-1.965.875-.19.119-.3.5-.607.106-.221-.285-.359-.5-.02-.815.239-.224.818-.182.639-.827-.444-.079-.921-.151-1.392-.252-.389-.082-.651-.465-.311-.659,1.047-.6.3-.929-.068-1.422-.532-.723-1.145-.2-1.388.064-1.232,1.316-1.509.233-1.892-.665-.134-.313-.1-.958-.611-.7-.964.494-2.293.412-2.806,1.664.349.9,1.119-.472,1.523.4a2.033,2.033,0,0,1-1.817,1.167c-.6.034.284-.793-.313-.985a4.35,4.35,0,0,0-2.928.24,6.368,6.368,0,0,1-3.976.233c-.292-.079-.729.07-.83-.336-.128-.517.39-.628.692-.759a18.118,18.118,0,0,0,5.252-3.954,6.073,6.073,0,0,1,3.651-1.873c.607-.072,1.583-.041,1.736-.616a3.745,3.745,0,0,0-.117-2.671c-.515-.809-.8-1.118.177-1.68a.527.527,0,0,0-.224-.984c-1.621-.242-2.635-1.47-3.8-2.364a1.663,1.663,0,0,0-2-.269c-.909.419-1.84,1.254-2.709,1.191a6.348,6.348,0,0,0-4.014,1.339c-1.812,1.133-3.34,2.7-5.609,3.145a2.062,2.062,0,0,1-2.2-.7c-1.258-1.373-1.475-3.14-.405-3.831a4.365,4.365,0,0,0,1.516-1.807,59.24,59.24,0,0,1,4.307-7c1.384-1.928,2.738-1.874,3.936.213a4.509,4.509,0,0,0,1.4,1.494c1.464.9,1.733,4.16,4.564,2.451,1.956.958,1.568-.973,2.076-1.737.655.031.792.749,1.4.837,2.184.313,2.368.562,2.275,2.828-.012.325-.109.83.334.692,1.873-.583,2.489.663,3.072,1.983a.674.674,0,0,0,.89.467,1.03,1.03,0,0,0,.714-.783c.536-1.792.033-3.531-.325-5.22-.718-3.383-2.227-6.527-3.315-9.8-.08-.246-.224-.587-.42-.659-1.752-.643-1.853-2.765-3.561-3.67-1.6-.848-2.589-2.892-4.842-1.4a1.3,1.3,0,0,1-1.108-.02,4.872,4.872,0,0,0-4.687.359A21.479,21.479,0,0,0,214,33.51c-1.1,1.628-2.029,3.366-3.029,5.04-.779-.318-.456-1.335-1.5-1.807.3,1.136-.266,1.926-.266,2.842,0,.214.1.375-.356.452a2.216,2.216,0,0,0-1.918,2.047A49.3,49.3,0,0,0,207.1,55.76a6.314,6.314,0,0,0,1.983,4.153c1.328,1.08,2.327.89,3.065-.616,1.817,1.673,1.815,1.677,4.451,2.236.326.068.677.093.767.471.1.434-.341.491-.568.691-2.214,1.948-2.563,4-.974,6.468.51.8.149,1.242-.386,1.63-1.006.726-2.1,1.332-3.1,2.061a3.213,3.213,0,0,0-.308,5.263,4.592,4.592,0,0,0,3.431,1.235c2.858-.078,5.184.736,6.693,3.4.834,1.471.8,1.853-.849,2.118a32.5,32.5,0,0,0-7.359,2.35,16.789,16.789,0,0,1-6.295,1.535,10.438,10.438,0,0,0-6.121,2c.037.609.868.68.686,1.422-.378,1.553,1.46,4.848,2.891,4.762,1.86-.111,3.035,1.223,4.634,1.61a7.681,7.681,0,0,1,2.3.5,24.181,24.181,0,0,0,9.528,2.882,10.974,10.974,0,0,0,4.467-.278c2.159-.659,4.2-1.856,6.5-1.908,3.181-.07,5.036-1.9,6.316-4.492a8.512,8.512,0,0,1,4.762-4.5c1.022-.374,1.392-1.234,2.337-2.019-1.407-.026-2.676.319-3.269-1.075m-7.554-20.2c.419,0,.628.183.618.465-.025.659-.594.643-1.043.725-.232.042-.6.143-.607-.257-.016-.751.9-.448,1.032-.934M209.034,48.217c-.172-.8-.332-1.471-.454-2.148-.045-.251-.064-.576.289-.636a1.6,1.6,0,0,1,.572.124c-.408.808.652,1.77-.407,2.66m6.735-8.709c-.326.332-.662.729-1.175.489-.158-.074,0-.369.212-.475-.169-1.2,1.441-.876,1.455-2.12a1.694,1.694,0,0,1-.491,2.106m-2.251-2.257c.719-.343.071-1.621,1.168-1.707a1.513,1.513,0,0,1,1.159-1.232c.214-.366.287-.891.869-.853.124.008.356.228.337.283a1.514,1.514,0,0,1-.946.871,1.767,1.767,0,0,1-1,.98l-.953,2.019c-.273.207-.546.613-.9.261-.19-.186,0-.485.266-.62" transform="translate(73.518 9.432)" fill="#fff"/>
      <path id="パス_6471" data-name="パス 6471" d="M159.41,30.491c2.6-1.755,3.806-4.591,5.626-6.952,2.024-2.626,1.267-5.931,2.428-8.96a9.158,9.158,0,0,0,3.917,3.7c3.145,1.415,6.285,2.3,9.48.73,2.626-1.29,5-1.509,7.452.161,2.3,1.567,4.388,3.25,4.217,6.46a8.862,8.862,0,0,0,.349,2.417,1.259,1.259,0,0,0,.635.682c.307.158.43-.162.553-.405a10.593,10.593,0,0,0,.76-7.231c-.628-2.866-2.634-4.726-5-6.192A21.912,21.912,0,0,1,184.7,11a13.771,13.771,0,0,0-6.439-4.111c-1.111-.328-2.222-1.075-3.441-.786-2.948.7-5.637,1.814-6.828,4.956-.093.243-.083.586-.46.538-.476-.061-.383-.475-.352-.764.426-3.892-1.8-6.727-3.869-9.6-.706-.98-3.31-1.591-4.326-1-2.188,1.264-4.6,2.275-5.837,4.739-.639,1.273-1.4,2.488-2,3.775-1.205,2.558-2.317,5.159-3.521,7.718-.591,1.258-1,2.582-1.6,3.843a92.143,92.143,0,0,0-4.632,10.583c-1.075,3.266-2.423,6.431-3.529,9.683-1.937,5.7-4.175,11.254-4.421,17.362a.787.787,0,0,1-.258.573c-1.456.873-1.269,2.539-1.7,3.824a37.774,37.774,0,0,0-1.531,9.015,3.437,3.437,0,0,0,1.212,2.817c.625.535,2.608-1.02,2.869-2.091.089-.366.064-.757.12-1.133.13-.846.231-1.673,1.485-1.092.742.345,1.331-.268,1.6-.783.46-.9.717-1.118,1.654-.416.764.57,1.613.641,1.87-.9a83.53,83.53,0,0,1,2.914-11.156,117.076,117.076,0,0,1,7.145-16.97,30.943,30.943,0,0,1,5.421-7.4c.914-.969,2.171-1.054,3.18-1.736" transform="translate(47.402 0)" fill="#fff"/>
      <path id="パス_6472" data-name="パス 6472" d="M82.488,43.539a6.5,6.5,0,0,1-.849-2.705,1.532,1.532,0,0,0-1.512-1.587c-2.29-.307-4.571-.684-6.864-.985a3.564,3.564,0,0,1-1.93-.961,65.429,65.429,0,0,0-6-4.523c-1.635-1.086-3.708-1.335-5.092-2.7-2.143-2.114-4.916-2.341-7.592-2.75a2.972,2.972,0,0,0-3.308,2.032c-.609,1.6-1.245,3.181-.468,4.942a10.686,10.686,0,0,1,.347,1.905c.09.4-.068.989.469,1.126,1.035.263,1.17,1.144,1.541,1.92a53.755,53.755,0,0,0,2.706,5.01c.721,1.172,1.832,2.7,1.209,3.937A12.909,12.909,0,0,1,49.6,54.367a2.184,2.184,0,0,0-1.089,1.23c-.6,1.333.179,2.083.823,3a5.152,5.152,0,0,0,3.953,2.436c1.826.158,3.225-.232,3.805-2.169a.982.982,0,0,1,.135-.292c1.2-1.7,2.117-1.808,3.731-.457.3.254.678.308.7-.156.029-.715.609-.811.994-.854a17.451,17.451,0,0,1,3.73-.145c1.267.134,1.593,1.571,2.446,2.323.485.427-.839.553-1.065,1.114-.2.494-.517.942-.706,1.439-.177.467-.3.932-.97,1.051a6,6,0,0,0-1.542-3.439c-.242.513-.444.943-.644,1.366-.461-.254.2-1.213-.62-1.041-.483.1-.257.727-.13,1.14s.141,1.056.4,1.178c2,.928.308,1.7-.221,2.062-.841.575-.845,1-.18,1.538a5.748,5.748,0,0,1,1.658,2.219c-.381.558-1.358-.536-1.28.4.117,1.428.475,2.813.524,4.286a6.219,6.219,0,0,0,.564,2.741c.839.864.328,1.676-.1,2.489a.222.222,0,0,1-.115-.042.636.636,0,0,1-.085-.134c-.508.46-.1,1.07-.262,1.589a6.37,6.37,0,0,1,.748,1.916c.158,1.439-.359,2.824-.218,4.281a1.3,1.3,0,0,1-1.579,1.193c-.636-.067-1.279-.059-1.919-.085-.39.4-.9.212-1.358.281,2.414.57,3.528,1.911,3,3.828a6.847,6.847,0,0,0,1.368,6.45c1.086,1.348,2.143,2.665,4.093,2.929,1.8.243,3.364.377,5-.845,1.428-1.067,3.188-.287,3.957,1.4a1.808,1.808,0,0,0,.688-1.7c.011-1.808.311-3.588.186-5.428-.168-2.484.012-4.968-.962-7.365a5.417,5.417,0,0,1,.091-4.482,3.188,3.188,0,0,0-.22-3.471.886.886,0,0,1-.169-.749c.729-1.481-.167-2.873-.326-4.26-.224-1.949.132-3.925-.626-5.884-.908-2.341-.225-4.932-.6-7.416-.276-1.81-.662-3.7.192-5.645,1.146-2.612,2.255-4.943,5.583-5.194.854-.064,2.5-.121,1.458-1.948-.132-.233.106-.74.272-1.071a2.59,2.59,0,0,0-.222-2.439M67.381,74.427c.012-.268.186-.422.407-.386.259.041.244.293.184.56-.068.112.042.43-.27.418-.393-.015-.333-.323-.321-.591m.5,3.917a1.222,1.222,0,0,1-.513-1.583.516.516,0,0,1,.42-.145c.438.512.273,1.066.093,1.728m2.376.9c-.244-2.008-.942-3.581-.117-5.245.128-.257.188-.519.5-.5a.646.646,0,0,1,.662.585c.094,1.62.4,3.285-1.048,5.164" transform="translate(17.621 9.955)" fill="#fff"/>
      <path id="パス_6473" data-name="パス 6473" d="M155.671,46.967a9.678,9.678,0,0,1,2.24-3.525,37.316,37.316,0,0,1,5.719-4.434c2.483-1.684,4.515-1.014,5.873,1.647,1.026,2.012.58,4.053.682,6.082a33.03,33.03,0,0,0,.74,4.15c.079.446.052.816-.5,1.041-.635.262-.577-.1-.828-.508a1.8,1.8,0,0,0-2.615-.721c-3.1,1.333-6.043,2.99-9.165,4.264a.908.908,0,0,0-.58.875c-.251,1.957.778,3.549,1.568,5.181.332.682,1.273.415,1.907.569,1.821.441,3.651,1.6,5.581.5,2.472-1.4,5.3-1.8,7.868-2.938a1.628,1.628,0,0,1,2.065.366c.976,1.123,3.323.168,3.67,2.347a.779.779,0,0,0,.408-.056c.562-.479.674,0,.946.358.73.955,1.522,1.863,2.2,2.686,1-3.18,1.692-6.453.707-9.848-.8-2.751.265-5.641-1.062-8.518-.8-1.736-1.423-3.746-2.185-5.578-1.047-2.517-3.153-4.271-5.383-5.809q-3.151-2.17-6.295-4.352c2.117.119,4.1.353,6.151.289,1.735-.055,2.648-1.265,3.97-1.86.244-.109.111-.444.093-.715-.049-.749-1.417-.9-.819-1.886-1.5-.426-2.016-2.068-3.1-2.7-.83-.485-1.086-.893-1.127-1.576-.1-1.6-1.14-1.385-2.207-1.339-.641.03-1.905,1.306-1.732-.721a.791.791,0,0,0-.4-.145c-.506.7-1.814.52-1.934.867-.59,1.7-1.582,1.193-2.549.671-.374.273-.161.448-.083.629.254.59.141,1.084-.551.717-.4-.212-1.156-.5-.927-1.3l-.408-.382c-.812.465-1.5-.217-2.169-.25a6.312,6.312,0,0,0-6.17,5.068,5.091,5.091,0,0,0,3.071,5.9,17.208,17.208,0,0,0,2.994.375c.389.052.811-.7,1.084-.087.236.538-.444.777-.751,1.131-.845.974-2.272,1.5-2.623,2.8a4.263,4.263,0,0,1-1.408,2.032c-1.669,1.623-3.327,3.266-4.864,5.012-1.316,1.494-2.477,3.128-3.669,4.729-1.718,2.308-3.767,4.466-3.054,7.777.344,1.6,1.675,2.424,3.134,1.643a10.5,10.5,0,0,0,2.579-1.647,6.9,6.9,0,0,0,2.429-4.038,24.418,24.418,0,0,1,1.471-4.76" transform="translate(53.231 7.329)" fill="#fff"/>
      <path id="パス_6474" data-name="パス 6474" d="M93.172,38.03a18.221,18.221,0,0,1,7.06-2.88,34.616,34.616,0,0,1,8.888.162c.909.123,1.241.232.916,1.086-.289.76.266,1.082.644,1.523a.465.465,0,0,0,.815-.016c.344-.591,1.46-.772,1.024-1.762-.147-.334-.313-.607.067-.808a.626.626,0,0,1,.738.192,1.39,1.39,0,0,0,1.856.453c.983-.517,2.024-.994,2.6.58.121.329.536.314.865.345.523.051,1.04.274,1.142.783.259,1.3,1.32,2.361,1.071,3.793h.351c.154-.408.985.063.884-.692-.034-.262-.02-.613.374-.517a.619.619,0,0,1,.384.655,3.613,3.613,0,0,1-.278,1.757c-.263.506.067.873.353,1.156.647.635.4-.293.633-.4a.963.963,0,0,1,1.515.639c.165.51.121,1.045.95,1.176A2.125,2.125,0,0,0,128.632,43c-.236-3.317.839-6.745-.768-9.955a1.116,1.116,0,0,1-.15-.786c.778-1.792-.149-3.464-.311-5.186a4.543,4.543,0,0,0-3.231-3.913,8.023,8.023,0,0,1-3.6-2.372c-.46-.6-.586-.9.018-1.508,1.035-1.041.853-1.724-.553-2.214-1.017-.355-2.158-.381-3.142-.8-3.573-1.509-7.219-1.378-10.9-.652-1.421.28-2.831.622-4.23,1-2.345.629-4.792,1.323-6.3,3.293a91.108,91.108,0,0,0-6.483,9.068A83.509,83.509,0,0,1,81,40.67a7.9,7.9,0,0,0-1.8,4.806c-.026.876.325,1.313,1.156.894a25.84,25.84,0,0,0,3.333-1.593c3.185-2.212,6.138-4.75,9.477-6.746" transform="translate(28.895 5.506)" fill="#fff"/>
      <path id="パス_6475" data-name="パス 6475" d="M196.012,77.325a7.959,7.959,0,0,1-2.67-3.39,5.8,5.8,0,0,0-2.607-2.682c-2.623-1.8-5.515-1.279-8.377-1.212-.517.012-1.271.614-1.563-.262a1.447,1.447,0,0,1,1.028-1.806,2.434,2.434,0,0,0,1.681-1.519c.1-.322.416-.423.786-.454,1.961-.162,3.917.313,5.892-.049.581-.105,1.306.483,1.35-.661.02-.465.5-.5.777-.737,1.526-1.3,1.123-4.343-.362-5.56-1.927-1.582-4.1-1.249-6.192-1.189-2.231.064-4.261,2.047-3.88,3.942a5.57,5.57,0,0,1-1.155,4.49c-1.339,2.065-2.839,3.76-5.555,3.815a14.627,14.627,0,0,0-2.537.445,1.453,1.453,0,0,0-1.313,1.254c-.291,1.769-.747,3.561-.3,5.326a2.633,2.633,0,0,1-.886,2.753,7.6,7.6,0,0,1-3.5,1.916c-3.038.813-3.029.871-4.876-1.493-.833-1.06-1.574-2.2-2.481-3.188a6.408,6.408,0,0,1-1.817-4.991c.177-2.668-.647-5.248-.843-7.891a25.138,25.138,0,0,0-.128-2.559c-.471-2.7-2.042-5.061-2.393-7.8a.841.841,0,0,0-.611-.68,2.19,2.19,0,0,0-3.024,1.905,14.267,14.267,0,0,0,.54,4.488,55.7,55.7,0,0,1,1.5,6.064c1.026,4.732,1.57,9.6,3.741,14.013a12.734,12.734,0,0,1,1.65,6.808c-.183,2.032.788,3.054,2.513,3.8a8.7,8.7,0,0,1,3.033,1.519c.629.617.465,1.9,1.691,1.964,1.131.064,1.429-1.062,2.027-1.616,1.276-1.179,3.023-2,3.751-3.626.985-2.207,2.191-4.291,3.267-6.443.744-1.49,1.07-1.511,2.309-.4,1.153,1.033,1.9,2.4,3.023,3.483,1.047,1.014,3.281.7,3.265,2.874,0,.074.139.164.229.222a6.375,6.375,0,0,0,7.468-.872,3.263,3.263,0,0,1,4.343-.92c1.3.6,2.5,1.969,4.321,1.231-.089-.628-.493-1.007-.55-1.6-.1-.983-.56-1.844.828-2.418a1.242,1.242,0,0,0,.231-1.984c-1.245-1.4-2.11-3.1-3.625-4.31" transform="translate(54.889 19.332)" fill="#fff"/>
      <path id="パス_6476" data-name="パス 6476" d="M244.586,44.162c.422-.3.865-.379,1.141.04.383.58.112.766-.527.625a3.146,3.146,0,0,0-.33.961.323.323,0,0,0,.414.36,4.49,4.49,0,0,0,1.789-.576c.453-.4-.157-.991-.336-1.447-.263-.674-.964-1.141.315-1.662a2.006,2.006,0,0,0,.837-2.118c-.717-2.4-.2-5.115-1.632-7.3-1.55-2.368-1.035-5.646-3.461-7.6-.108-.086-.086-.429-.022-.618.535-1.59-1.076-2.75-.856-4.288.027-.192-.358-.33-.67-.3a1.913,1.913,0,0,1-1.819-1.157,4.037,4.037,0,0,0-3.022-1.656c-1.776-.356-3.561-.023-5.335-.2-1.136-.111-1.576-.584-.886-1.664.636-.468-.42-.435-.229-.772-.066-.349-.31-.748.423-.659,1.493.18,1.232-.377.667-1.377-.52-.921-1.448-1.594-1.666-2.676a6.107,6.107,0,0,0-2.727-3.789c-1.5-1.062-2.236-.936-3.473.426-.472.52-.984,1-1.488,1.494-2.3,2.241-2.118,4.769.374,6.892.614.524,1.438,1.119,1.508,2.01a2.489,2.489,0,0,1-.687,2.354c1.594-.783,2.382.936,3.7.878a17.041,17.041,0,0,1-4.548,1.38,2.12,2.12,0,0,0-1.306.561,8.571,8.571,0,0,1-3.808,2.65c-.83.266-2.574.328-2,2.248a36.768,36.768,0,0,1,3.662-1.264,39.764,39.764,0,0,1,12.575-.353c1.47.229,3.046.614,3.588,2.135a32.564,32.564,0,0,1,1.874,7.625c.206,2.031-.011,4.186,1.122,6.06,1.717-.115,2.016.954,1.949,2.33.291.632-.214,1.836.868,1.834.878,0,.255-1.081.557-1.593a1.03,1.03,0,0,1,.2-.192,2.2,2.2,0,0,0,3.271.4m-16.993-27.1c-.379.347-.6-.242-.936-.259-.035.385.18.961-.519.9-.508-.044-1.136-.061-1.35-.681-.1-.295-.621-.994.434-.695.188.052.061-.353.05-.546-.025-.4-.015-1.205.2-1.062.484.323,1.151-.031,1.471.51a4.043,4.043,0,0,1,.4.876c.1.317.678.558.246.954m13.379,14.574c-.083.06-.126.177-.209.237-.783.575-1.833,1.589-2.54,1.039-.946-.734-1.056-2.185-.77-3.475a3.893,3.893,0,0,1,.172-.446c.414.547.738.962,1.047,1.388.509.7,1,1.28,1.792.262.153-.2.452-.5.834-.2a1.1,1.1,0,0,1,.463.987c-.056.827-.554.042-.789.21" transform="translate(78.365 2.037)" fill="#fff"/>
      <path id="パス_6477" data-name="パス 6477" d="M203.961,49.96a8.463,8.463,0,0,1-.323-5.24,8.486,8.486,0,0,0-2.526-7.842,45.594,45.594,0,0,1-3.164-4.115,28.341,28.341,0,0,0-4.007-4.69c-2.625-2.186-2.425-2-4.47.733-2.65,3.538-2.626,7.42-1.671,11.2a94.371,94.371,0,0,0,4.616,13.909c1.086,2.548,2.428,4.189,5.044,4.668,1.216.222,1.508.663,1.141,1.784-.229.7,1.208,1.98,1.923,1.726a5.125,5.125,0,0,0,2.64-2.769c.209-.4.985-1.025.367-1.721-.28-.315-.48-.673-.035-.925s.454.535,1.186.486c-.579-2.244-.25-4.511-.625-6.73a1.746,1.746,0,0,0-.1-.478" transform="translate(68.297 9.697)" fill="#fff"/>
      <path id="パス_6478" data-name="パス 6478" d="M206.665,21.984a10.7,10.7,0,0,0,1.561,2.7c.131-.551.212-.883.392-1.641,1.205,2.461,2.36,4.249,5.133,3.326a1.762,1.762,0,0,1,1.814.478.99.99,0,0,0,.539.216c.786-1.243,2.11-1.04,3.285-1.31,2.412-.554,2.87-2.863,2.346-5.17-.786-3.463-1.28-7.1-3.76-9.985a8.407,8.407,0,0,1-1.437-2.848c-1.082-3.3-3.493-5.1-6.5-6.589-1.832-.906-2.76-.572-3.64,1.009a3.283,3.283,0,0,1-.553.6c-1.883,1.942-2.949,6.94-1.5,9.233,1.976,3.127,1.069,6.776,2.316,9.99" transform="translate(74.304 0.241)" fill="#fff"/>
      <path id="パス_6479" data-name="パス 6479" d="M209.7,37.038a60.938,60.938,0,0,1,6.011-6.7,10.636,10.636,0,0,0,2.507-2.458l.295-.756c-1.08.061-1.787,1.593-2.417,1.373-1.53-.532-2.159.54-3.143,1.08-.766.419-1.159.105-1.209-.822-.044-.79.991-2.345-1.183-1.956-.4.071-.329-.6-.463-.923-.658-1.585-.882-3.392-2.066-4.7A35.012,35.012,0,0,1,203.04,13.7c-1.71-3.276-3.734-4.992-6.658-1.29-1.3,1.643-1.445,3.607-2.267,5.36a1.407,1.407,0,0,0,.616,1.717c.773.405.819,1.077,1.136,1.716.329.665-.726,2.408,1.3,1.918.03.16.061.319.089.48a30.687,30.687,0,0,0,1.885,5.6c.157.416.333.98,1.06.8a9.5,9.5,0,0,0-.385-2.689c-.105-.295-.2-.756.375-.9.388-.1.884-.177.991.169.411,1.34,1.157.532,2.01.225-.693,1.529,1.8,1.385,1.1,2.918.632-.909,1.665-.61,2.367-1.073.206-.135.383-.186.546.052s.022.422-.124.566c-.727.719-1.277,1.586-2.077,2.259-3.168,2.665-4.19,6.367-4.7,10.251a2.2,2.2,0,0,0,1.368,2.233,1.05,1.05,0,0,0,1.344-.237c1.911-2.567,4.72-4.225,6.7-6.738m-9.229-15.407c-.338-.33-.995-.169-.909-.856.02-.156.328-.429.412-.4.525.191.659.609.5,1.254m.808,1.672c-.422.026-.465-.334-.445-.661.015-.239-.061-.594.28-.618.438-.031.431.352.453.666-.025.243.049.592-.288.613" transform="translate(70.78 3.765)" fill="#fff"/>
      <path id="パス_6480" data-name="パス 6480" d="M25.18,77.046c.262-.323.586-.206.751.131.5,1.032.482.106.639-.162-.415-.755-.818-1.516-1.246-2.263a5.083,5.083,0,0,1-.572-4.616,4.826,4.826,0,0,0-1.017-5.72c-1.429-1.3-3.246-2.436-5.109-2.214-3.108.371-3.858,2.382-3.939,5.646-.045,1.84.587,3.6.772,5.364.415,3.951,1.765,7.669,2.38,11.553a4.279,4.279,0,0,0,1.222,2.066c.639.666,1.482,1.4,2.062-.183.325-.89,1.455-1.358,1.328-2.555-.02-.186.714-.579,1.14-.659.71-.134,2.29-1.733,2.184-2.423-.045-.293.016-.7-.573-.7-1-.007-.692-.515-.374-1.093.307-.56,1.017-.337,1.318-.82a8.734,8.734,0,0,1-.883-.618.544.544,0,0,1-.083-.73" transform="translate(5.357 22.683)" fill="#fff"/>
      <path id="パス_6481" data-name="パス 6481" d="M170.954,54.417c-.218.046-.49-.239-.741-.251-1.381-.061-2.631-.486-4.15.247-3.128,1.509-5.657,4.006-8.953,5.178a1.323,1.323,0,0,0-.861,1.643c.508.848.562,1.987,1.209,2.581.909.835,1.433,2.443,3.169,2.137a12.629,12.629,0,0,1,1.254-.307,26.756,26.756,0,0,0,8.837-3.237c1.568-.849,3.213-1.563,4.763-2.444,1.211-.688,1.144-2.982.038-3.816-1.365-1.029-2.655-2.143-4.565-1.731" transform="translate(56.97 19.696)" fill="#fff"/>
      <path id="パス_6482" data-name="パス 6482" d="M59.713,65.227c0-.321-.112-.751.049-.944,1.7-2.051.674-4.139,0-6.127-.566-1.673-2.992-4.473-5.227-4.212A3.534,3.534,0,0,0,51.09,56.55a11.888,11.888,0,0,1-1.172,2.256,4.336,4.336,0,0,0,1.439,6.172c1.7.9,3.269,2.087,5.225,2.551,1.971.467,3.128-.28,3.132-2.3" transform="translate(17.952 19.674)" fill="#fff"/>
      <path id="パス_6483" data-name="パス 6483" d="M241.18,68.04c-1.13.689-1.539-.03-2.031-1.059-.229.74-.36,1.123-1.1.875a1.113,1.113,0,0,0-1.362,1.07,5.591,5.591,0,0,1-1.228,3.306c.012.135.023.27.034.405h.005c.592-.471,1.174-.751,1.7.085a10.513,10.513,0,0,1,3.993-1.321c1.534-.352,1.469-1.434,1.363-2.509a1.148,1.148,0,0,0-1.377-.853" transform="translate(85.898 24.436)" fill="#fff"/>
      <path id="パス_6484" data-name="パス 6484" d="M18.655,32.215c-.015-.177-.02-.355-.044-.528a1.022,1.022,0,0,1-.9-.143l-.771.007a1.072,1.072,0,0,0-.048.1c-.115.243-.344.389-.487.606l1.589.3.67-.225a.566.566,0,0,1-.008-.117" transform="translate(5.984 11.508)" fill="#fff"/>
      <path id="パス_6485" data-name="パス 6485" d="M16.939,31.549l-.225,0h0a.7.7,0,0,0-.31.7c.143-.217.373-.364.489-.606a.717.717,0,0,1,.046-.1" transform="translate(5.984 11.51)" fill="#fff"/>
      <path id="パス_6486" data-name="パス 6486" d="M18.065,32.214a.566.566,0,0,0,.008.117l.347-.117c0-.221,0-.444,0-.665a2.769,2.769,0,0,1-.4.136c.023.173.029.351.044.528" transform="translate(6.574 11.51)" fill="#fff"/>
      <path id="パス_6487" data-name="パス 6487" d="M231.611,31.816l.119.792c1.6-.663,1.245,1,1.83,1.538-.175-1.174-.62-2.121-1.949-2.33" transform="translate(84.495 11.607)" fill="#fff"/>
      <path id="パス_6488" data-name="パス 6488" d="M231.611,31.818c1.329.209,1.774,1.156,1.949,2.33.067-1.376-.232-2.446-1.949-2.33" transform="translate(84.495 11.605)" fill="#fff"/>
      <path id="パス_6489" data-name="パス 6489" d="M235.487,71.126l-.005,0,.07.757a2.906,2.906,0,0,0,1.639-.677c-.56-.142-1.145.1-1.7-.085" transform="translate(85.908 25.948)" fill="#fff"/>
      <path id="パス_6490" data-name="パス 6490" d="M235.486,71.246c.558.187,1.144-.057,1.7.085-.53-.835-1.112-.555-1.7-.085" transform="translate(85.909 25.828)" fill="#fff"/>
      <path id="パス_6491" data-name="パス 6491" d="M21.711,31.18c.076-.214.285-.289.68-.168-.025-.232.091-.5-.186-.666-.21.265-.831.386-.494.834" transform="translate(7.885 11.071)" fill="#fff"/>
      <path id="パス_6492" data-name="パス 6492" d="M21.36,30.348c-.172.445-.332,1.156.483,1.38a.88.88,0,0,1,.011-.486c-.337-.446.284-.569.494-.833-.345-.018-.828-.474-.988-.061" transform="translate(7.742 11.009)" fill="#fff"/>
      <path id="パス_6493" data-name="パス 6493" d="M121.424,74.8c.363-.319.442-.545-.13-.751-.389-.141-.742-.479-1.118-.057-.254.287-.177.575.172.764.371-.3.753-.863,1.075.044" transform="translate(43.788 26.92)" fill="#fff"/>
      <path id="パス_6494" data-name="パス 6494" d="M121.338,74.664c-.322-.906-.7-.343-1.075-.044.353.134.734-.4,1.075.044" transform="translate(43.874 27.059)" fill="#fff"/>
      <path id="パス_6495" data-name="パス 6495" d="M59.9,64.537a1.172,1.172,0,0,0,.173-.145.865.865,0,0,1-.157-1.131,2.666,2.666,0,0,0-.131,2.4,2.277,2.277,0,0,1,.115-1.123" transform="translate(21.729 23.079)" fill="#fff"/>
      <path id="パス_6496" data-name="パス 6496" d="M60.156,64.225a1.28,1.28,0,0,1-.136-.135,1.247,1.247,0,0,1-.173.145,2.281,2.281,0,0,0-.115,1.125,1.451,1.451,0,0,0,.164.454c.157-.519-.247-1.129.261-1.589" transform="translate(21.78 23.381)" fill="#fff"/>
      <path id="パス_6497" data-name="パス 6497" d="M60.015,64.391c.019-.018.044-.033.061-.052a2.024,2.024,0,0,1-.218-1.078.864.864,0,0,0,.157,1.13" transform="translate(21.786 23.079)" fill="#fff"/>
      <path id="パス_6498" data-name="パス 6498" d="M59.935,64.1a1.279,1.279,0,0,0,.136.135c-.033-.06-.046-.126-.075-.187-.018.019-.042.034-.061.052" transform="translate(21.865 23.367)" fill="#fff"/>
      <path id="パス_6499" data-name="パス 6499" d="M195.9,23.57c.015.063.292.146.36.1.641-.456.014-.991.27-1.823-.586.723-.763,1.186-.631,1.726" transform="translate(71.454 7.969)" fill="#fff"/>
      <path id="パス_6500" data-name="パス 6500" d="M235.665,71.238v-.005a.834.834,0,0,1-.1-.023.306.306,0,0,1,.067-.381c-.759.117-.686.745-.58,1.193.1.412.456.239.684-.026a.515.515,0,0,1-.07-.757" transform="translate(85.726 25.84)" fill="#fff"/>
      <path id="パス_6501" data-name="パス 6501" d="M235.419,71.21c.033.015.067.012.1.025-.011-.135-.023-.27-.034-.405a.308.308,0,0,0-.067.381" transform="translate(85.871 25.84)" fill="#fff"/>
      <path id="パス_6502" data-name="パス 6502" d="M235.587,71.886l-.07-.757a.515.515,0,0,0,.07.757" transform="translate(85.872 25.949)" fill="#fff"/>
      <path id="パス_6503" data-name="パス 6503" d="M130.247,74.914a2.058,2.058,0,0,0,.538-1.512,1.216,1.216,0,0,0-.9,1.153c.313-.074.478,0,.358.359" transform="translate(47.386 26.778)" fill="#fff"/>
      <path id="パス_6504" data-name="パス 6504" d="M129.889,74.254l.358.359c.12-.358-.045-.433-.358-.359" transform="translate(47.386 27.08)" fill="#fff"/>
      <path id="パス_6505" data-name="パス 6505" d="M58.239,70.751a2.327,2.327,0,0,0-2.136.235l.778.046c.394-.375.939-.029,1.358-.281" transform="translate(20.467 25.75)" fill="#fff"/>
      <path id="パス_6506" data-name="パス 6506" d="M56.673,70.987c.457-.07.968.115,1.358-.281-.42.252-.964-.094-1.358.281" transform="translate(20.675 25.795)" fill="#fff"/>
      <path id="パス_6507" data-name="パス 6507" d="M159.292,21.522c.2-.409.947-.222.969-1.013l-1.377.631c.393-.146.461.053.408.382" transform="translate(57.963 7.482)" fill="#fff"/>
      <path id="パス_6508" data-name="パス 6508" d="M158.884,20.984l.408.382c.053-.329-.015-.528-.408-.382" transform="translate(57.963 7.638)" fill="#fff"/>
      <path id="パス_6509" data-name="パス 6509" d="M244.235,71.244c.6-.038.924.48,1.63-.142-.609-.034-.94-.487-1.63.142" transform="translate(89.101 25.87)" fill="#fff"/>
      <path id="パス_6510" data-name="パス 6510" d="M18.253,32.225a.619.619,0,0,1-.685.085c.239.21.476.422.715.633.173-.248.034-.482-.03-.718" transform="translate(6.409 11.756)" fill="#fff"/>
      <path id="パス_6511" data-name="パス 6511" d="M18.4,32.036h0c-.111.086-.22.179-.333.258.064.236.2.469.029.718.385-.237.3-.62.3-.976" transform="translate(6.592 11.688)" fill="#fff"/>
      <path id="パス_6512" data-name="パス 6512" d="M18.253,32.263a.82.82,0,0,1-.014-.142l-.671.227a.619.619,0,0,0,.685-.085" transform="translate(6.409 11.719)" fill="#fff"/>
      <path id="パス_6513" data-name="パス 6513" d="M18.074,32.294c.113-.079.222-.172.333-.258l-.347.116a.82.82,0,0,0,.014.142" transform="translate(6.589 11.688)" fill="#fff"/>
      <path id="パス_6514" data-name="パス 6514" d="M109.788,34.428c-.594.562.105.767.352,1.11V34.429a.224.224,0,0,1-.352,0" transform="translate(39.967 12.56)" fill="#fff"/>
      <path id="パス_6515" data-name="パス 6515" d="M110.077,34.43h-.352a.224.224,0,0,0,.352,0" transform="translate(40.029 12.561)" fill="#fff"/>
      <path id="パス_6516" data-name="パス 6516" d="M130.652,76.5a1.04,1.04,0,0,0-.02-1.205c-.166.422-.588.692-.509,1.185a.423.423,0,0,1,.53.02" transform="translate(47.467 27.468)" fill="#fff"/>
      <path id="パス_6517" data-name="パス 6517" d="M130.121,76.181l.53.02a.423.423,0,0,0-.53-.02" transform="translate(47.47 27.762)" fill="#fff"/>
      <path id="パス_6518" data-name="パス 6518" d="M17.563,31.5c.149,0,.3,0,.45-.016a.785.785,0,0,0-.45.016" transform="translate(6.407 11.476)" fill="#fff"/>
      <path id="パス_6519" data-name="パス 6519" d="M17.465,31.7a1.46,1.46,0,0,0,.172-.007.773.773,0,0,1,.45-.015.855.855,0,0,1,.576.1c-.018-1.84-.906-.055-1.3-.313,0,.07,0,.139,0,.207a.693.693,0,0,0,.1.03" transform="translate(6.333 11.285)" fill="#fff"/>
      <path id="パス_6520" data-name="パス 6520" d="M18.087,31.478c-.151.014-.3.016-.45.016a1.447,1.447,0,0,1-.172.005.118.118,0,0,1-.022,0,.427.427,0,0,1-.082-.008v.075a1.019,1.019,0,0,0,.9.143.432.432,0,0,0,0-.044.364.364,0,0,0-.171-.19" transform="translate(6.334 11.484)" fill="#fff"/>
      <path id="パス_6521" data-name="パス 6521" d="M17.893,31.481a.364.364,0,0,1,.171.19.432.432,0,0,1,0,.044,2.579,2.579,0,0,0,.4-.136.855.855,0,0,0-.576-.1" transform="translate(6.528 11.481)" fill="#fff"/>
      <path id="パス_6522" data-name="パス 6522" d="M17.443,31.5c.007,0,.015,0,.022,0a.9.9,0,0,1-.1-.03v.022a.427.427,0,0,0,.082.008" transform="translate(6.334 11.482)" fill="#fff"/>
      <path id="パス_6523" data-name="パス 6523" d="M17.435,31.587c.026.015.053.011.079.022a.1.1,0,0,1,0-.072c.037-.068.075-.1.113-.1-.422-.177-1.054-1.021-.995.315a.692.692,0,0,1,.8-.161" transform="translate(6.066 11.312)" fill="#fff"/>
      <path id="パス_6524" data-name="パス 6524" d="M16.8,31.6l.771-.007a.3.3,0,0,1-.113-.1c-.242-.076-.493-.217-.658.109" transform="translate(6.127 11.455)" fill="#fff"/>
      <path id="パス_6525" data-name="パス 6525" d="M16.856,31.607c.165-.326.416-.186.658-.109-.005-.01,0-.019,0-.027-.027-.012-.055-.007-.081-.023a.693.693,0,0,0-.8.161h0l.225,0" transform="translate(6.067 11.452)" fill="#fff"/>
      <path id="パス_6526" data-name="パス 6526" d="M17.28,31.5a.67.67,0,0,0,.113.033V31.32c-.038,0-.076.034-.113.1a.087.087,0,0,0,0,.074" transform="translate(6.301 11.426)" fill="#fff"/>
      <path id="パス_6527" data-name="パス 6527" d="M17.278,31.469a.308.308,0,0,0,.115.1c0-.025,0-.051,0-.075a.908.908,0,0,1-.113-.027" transform="translate(6.303 11.481)" fill="#fff"/>
      <path id="パス_6528" data-name="パス 6528" d="M17.392,31.482a.669.669,0,0,1-.113-.033c0,.01-.005.019,0,.027a.718.718,0,0,0,.113.027v-.022" transform="translate(6.303 11.473)" fill="#fff"/>
      <path id="パス_6529" data-name="パス 6529" d="M211.329,35.873c-.209.106-.37.4-.212.475.513.239.849-.158,1.175-.49a.716.716,0,0,1-.964.015" transform="translate(76.996 13.082)" fill="#fff"/>
      <path id="パス_6530" data-name="パス 6530" d="M212.219,35.858l-.964.015a.719.719,0,0,0,.964-.015" transform="translate(77.069 13.082)" fill="#fff"/>
      <path id="パス_6531" data-name="パス 6531" d="M211.043,34.563c-.33.09-.712.27-.639-.359-.27.135-.456.434-.266.62.359.352.632-.053.9-.261" transform="translate(76.633 12.478)" fill="#fff"/>
      <path id="パス_6532" data-name="パス 6532" d="M210.953,34.563c-.233-.085-.588.051-.639-.359-.074.629.308.449.639.359" transform="translate(76.723 12.478)" fill="#fff"/>
      <line id="線_336" data-name="線 336" transform="translate(304.984 18.836)" fill="#2c2c2d"/>
      <path id="パス_6533" data-name="パス 6533" d="M223.462,13.808h0l.04-.026Z" transform="translate(81.522 5.028)" fill="#fff"/>
      <path id="パス_6534" data-name="パス 6534" d="M223.332,13.178c-.064-.019-.254.161-.283.274-.13.524.154.628.581.553.171-.371.156-.691-.3-.827" transform="translate(81.36 4.807)" fill="#fff"/>
      <path id="パス_6535" data-name="パス 6535" d="M223.47,13.784l-.008.023.038-.026a.224.224,0,0,1-.03,0" transform="translate(81.522 5.028)" fill="#fff"/>
    </g>
  </g>
</svg>
