<svg xmlns="http://www.w3.org/2000/svg" xmlns:xlink="http://www.w3.org/1999/xlink" width="89.575" height="89.575" viewBox="0 0 89.575 89.575">
  <defs>
    <clipPath id="clip-path">
      <rect id="長方形_23946" data-name="長方形 23946" width="71.087" height="71.087" fill="#b5b583"/>
    </clipPath>
  </defs>
  <g id="グループ_9207" data-name="グループ 9207" transform="matrix(0.951, 0.309, -0.309, 0.951, 21.967, 0)">
    <g id="グループ_9209" data-name="グループ 9209" clip-path="url(#clip-path)">
      <path id="パス_6453" data-name="パス 6453" d="M42.854,46.54h-.643v0L16.48,54.971v.657l25.731,8.427v0h.643L68.6,55.628v-.657ZM21.024,55.3,42.5,48.267h.04v2.555a4.478,4.478,0,0,1,0,8.956v2.555H42.5Z" transform="translate(-6.996 -19.756)" fill="#b5b583"/>
      <path id="パス_6454" data-name="パス 6454" d="M62.246,60.4A1.847,1.847,0,1,0,60.4,62.246,1.847,1.847,0,0,0,62.246,60.4" transform="translate(-24.855 -24.855)" fill="#b5b583"/>
      <path id="パス_6455" data-name="パス 6455" d="M35.544,1.727A33.817,33.817,0,1,1,1.727,35.544,33.855,33.855,0,0,1,35.544,1.727m0-1.727A35.544,35.544,0,1,0,71.087,35.544,35.543,35.543,0,0,0,35.544,0" fill="#b5b583"/>
    </g>
  </g>
</svg>
