<svg id="parking-icon" xmlns="http://www.w3.org/2000/svg" width="26.77" height="26.914" viewBox="0 0 26.77 26.914">
  <path id="パス_126" data-name="パス 126" d="M98.677,62.993a4.357,4.357,0,0,0-2.561-.585H94.863v5.456h1.475A3.7,3.7,0,0,0,98.7,67.28a2.771,2.771,0,0,0,1-2.171A2.557,2.557,0,0,0,98.677,62.993Z" transform="translate(-82.647 -54.409)" fill="#2e5694"/>
  <path id="パス_127" data-name="パス 127" d="M14.385,1A13.457,13.457,0,1,0,27.77,14.457,13.421,13.421,0,0,0,14.385,1ZM19.5,15.091a5.23,5.23,0,0,1-3.878,1.361H13.691v5.7H10.708V6.764h4.451A5.465,5.465,0,0,1,19.2,7.94a4.915,4.915,0,0,1,1.56,3.714A4.962,4.962,0,0,1,19.5,15.091Z" transform="translate(-1 -1)" fill="#2e5694"/>
</svg>
