<svg xmlns="http://www.w3.org/2000/svg" width="41.307" height="23" viewBox="0 0 41.307 23">
  <g id="グループ_10065" data-name="グループ 10065" transform="translate(0 -1.959)">
    <g id="parking-icon" transform="translate(0 2.543)">
      <path id="パス_126" data-name="パス 126" d="M97.712,62.845a3.254,3.254,0,0,0-1.913-.437h-.936v4.075h1.1a2.766,2.766,0,0,0,1.767-.437,2.07,2.07,0,0,0,.748-1.622A1.91,1.91,0,0,0,97.712,62.845Z" transform="translate(-85.565 -56.317)" fill="#2e5694"/>
      <path id="パス_127" data-name="パス 127" d="M11.153,1A10.208,10.208,0,1,0,21.307,11.208,10.181,10.181,0,0,0,11.153,1ZM15.03,11.689a3.967,3.967,0,0,1-2.941,1.032H10.626v4.322H8.364V5.372H11.74a4.146,4.146,0,0,1,3.063.892,3.729,3.729,0,0,1,1.184,2.817A3.764,3.764,0,0,1,15.03,11.689Z" transform="translate(-1 -1)" fill="#2e5694"/>
    </g>
    <text id="_2" data-name="2" transform="translate(26.307 1.959)" fill="#2e5694" font-size="16" font-family="Poppins-Bold, Poppins" font-weight="700" letter-spacing="0.05em"><tspan x="0" y="17">2</tspan></text>
  </g>
</svg>
