<svg id="グループ_10410" data-name="グループ 10410" xmlns="http://www.w3.org/2000/svg" xmlns:xlink="http://www.w3.org/1999/xlink" width="26.082" height="26.082" viewBox="0 0 26.082 26.082">
  <defs>
    <clipPath id="clip-path">
      <rect id="長方形_24498" data-name="長方形 24498" width="16.591" height="16.591" fill="#fff"/>
    </clipPath>
  </defs>
  <circle id="楕円形_34" data-name="楕円形 34" cx="13.041" cy="13.041" r="13.041" fill="#575757"/>
  <g id="グループ_10310" data-name="グループ 10310" transform="translate(5.132 4.169)">
    <g id="グループ_10309" data-name="グループ 10309" clip-path="url(#clip-path)">
      <path id="パス_8584" data-name="パス 8584" d="M8.159,137.951l-1.6-1.6c-.962.577-3.086,1.528-3.086,1.528a1.528,1.528,0,0,0-.919,1.14l-1.076,5.011-.617.617a.854.854,0,1,0,.842.842l.617-.617L7.336,143.8a1.528,1.528,0,0,0,1.14-.919S9.428,140.76,10,139.8l-1.6-1.6Zm-1.726,3.294a.933.933,0,1,1,0-1.319.934.934,0,0,1,0,1.319" transform="translate(0 -129.769)" fill="#fff"/>
      <path id="パス_8585" data-name="パス 8585" d="M144.432,70.979a1.008,1.008,0,0,1-.885.269l-.462.461,1.631,1.632.369.368-.175-.174-.115-.115.115.115,2.195,2.194.461-.461a1.01,1.01,0,0,1,.269-.885l1.577-1.577-3.4-3.4-1.577,1.577" transform="translate(-136.175 -66.05)" fill="#fff"/>
      <path id="パス_8586" data-name="パス 8586" d="M215.79,2.7l3.461,3.462c.418-.418,1.455-1.3,2.706-2.359L218.149,0c-1.055,1.251-1.941,2.288-2.359,2.706" transform="translate(-205.367 0.001)" fill="#fff"/>
    </g>
  </g>
</svg>
