<svg version="1.1" id="レイヤー_1" xmlns="http://www.w3.org/2000/svg" xmlns:xlink="http://www.w3.org/1999/xlink" x="0px"
	 y="0px" viewBox="0 0 40 40" style="enable-background:new 0 0 40 40;" xml:space="preserve">
<style type="text/css">
	.st0{clip-path:url(#SVGID_00000121246569650503632210000010734611811623485349_);}
	.st1{fill:#090405;}
</style>
<g id="グループ_9234" transform="translate(162 6328.002)">
	<g>
		<defs>
			<rect id="SVGID_1_" x="-155" y="-6319.7" width="26.2" height="22"/>
		</defs>
		<clipPath id="SVGID_00000065062477613739261020000002130482774399320737_">
			<use xlink:href="#SVGID_1_"  style="overflow:visible;"/>
		</clipPath>
		
			<g id="グループ_9020" transform="translate(0 0)" style="clip-path:url(#SVGID_00000065062477613739261020000002130482774399320737_);">
			<path id="パス_6247" class="st1" d="M-133.5-6316.5l-0.8-3.1l-4.7,7.1h-4.7l0,0h-6.5c-0.3,0-0.6-0.1-0.8-0.2
				c-0.4-0.2-0.7-0.5-0.9-0.8c-0.3-0.4-0.6-0.7-0.9-1.1l-2.2,0.9c0.1,0.6,0.3,1.2,0.5,1.7c0.2,0.6,0.6,1.2,1,1.8
				c0.5,0.6,1.1,1.2,1.8,1.5c0.3,0.2,0.6,0.3,0.9,0.4v10.7h3.1l1-5.4h6.5l1,5.4h3.3l1.1-6.2l0,0l1.2-6.4l4,0l0.8-1.5L-133.5-6316.5z
				"/>
		</g>
	</g>
</g>
</svg>
