<svg xmlns="http://www.w3.org/2000/svg" width="15.3" height="15.3" viewBox="0 0 15.3 15.3">
  <g id="グループ_8094" data-name="グループ 8094" transform="translate(-1080.7 -718)">
    <g id="グループ_8093" data-name="グループ 8093" transform="translate(-2586 10722)">
      <path id="パス_169" data-name="パス 169" d="M704.632,378.191c2.043,0,2.285.008,3.091.045a4.234,4.234,0,0,1,1.421.263,2.529,2.529,0,0,1,1.452,1.452,4.235,4.235,0,0,1,.263,1.421c.037.806.045,1.048.045,3.091s-.008,2.284-.045,3.091a4.235,4.235,0,0,1-.263,1.421,2.531,2.531,0,0,1-1.452,1.451,4.227,4.227,0,0,1-1.421.264c-.806.037-1.048.044-3.091.044s-2.284-.007-3.091-.044a4.227,4.227,0,0,1-1.421-.264,2.533,2.533,0,0,1-1.451-1.451,4.228,4.228,0,0,1-.264-1.421c-.037-.807-.044-1.049-.044-3.091s.007-2.285.044-3.091a4.228,4.228,0,0,1,.264-1.421,2.531,2.531,0,0,1,1.451-1.452,4.235,4.235,0,0,1,1.421-.263c.807-.037,1.049-.045,3.091-.045Zm0-1.378c-2.077,0-2.338.009-3.154.046a5.619,5.619,0,0,0-1.857.355,3.913,3.913,0,0,0-2.237,2.238,5.606,5.606,0,0,0-.356,1.857c-.037.816-.046,1.076-.046,3.154s.009,2.338.046,3.154a5.617,5.617,0,0,0,.356,1.857,3.908,3.908,0,0,0,2.237,2.237,5.617,5.617,0,0,0,1.857.356c.816.037,1.077.046,3.154.046s2.338-.009,3.154-.046a5.606,5.606,0,0,0,1.857-.356,3.913,3.913,0,0,0,2.238-2.237,5.62,5.62,0,0,0,.355-1.857c.037-.816.046-1.077.046-3.154s-.009-2.338-.046-3.154a5.609,5.609,0,0,0-.355-1.857,3.919,3.919,0,0,0-2.238-2.238,5.608,5.608,0,0,0-1.857-.355c-.816-.037-1.076-.046-3.154-.046Z" transform="translate(2969.718 -10380.813)"/>
      <path id="パス_170" data-name="パス 170" d="M704.632,380.534a3.928,3.928,0,1,0,3.929,3.929A3.929,3.929,0,0,0,704.632,380.534Zm0,6.479a2.55,2.55,0,1,1,2.55-2.55A2.55,2.55,0,0,1,704.632,387.013Z" transform="translate(2969.718 -10380.813)"/>
      <path id="パス_171" data-name="パス 171" d="M709.634,380.379a.918.918,0,1,1-.918-.918A.918.918,0,0,1,709.634,380.379Z" transform="translate(2969.718 -10380.813)"/>
    </g>
  </g>
</svg>
