<svg xmlns="http://www.w3.org/2000/svg" width="16" height="16.086" viewBox="0 0 16 16.086">
  <g id="parking-icon" transform="translate(-1 -1)">
    <path id="パス_126" data-name="パス 126" d="M97.142,62.758a2.6,2.6,0,0,0-1.531-.35h-.749v3.261h.882a2.214,2.214,0,0,0,1.414-.349,1.656,1.656,0,0,0,.6-1.3A1.529,1.529,0,0,0,97.142,62.758Z" transform="translate(-86.562 -56.627)"/>
    <path id="パス_127" data-name="パス 127" d="M9,1a8.043,8.043,0,1,0,8,8.043A8.022,8.022,0,0,0,9,1Zm3.054,8.422a3.126,3.126,0,0,1-2.318.813H8.585v3.406H6.8v-9.2h2.66a3.267,3.267,0,0,1,2.414.7,2.938,2.938,0,0,1,.933,2.22A2.966,2.966,0,0,1,12.054,9.422Z"/>
  </g>
</svg>
