<?xml version="1.0" encoding="utf-8"?>
<!-- Generator: Adobe Illustrator 28.1.0, SVG Export Plug-In . SVG Version: 6.00 Build 0)  -->
<svg version="1.1" id="レイヤー_1" xmlns="http://www.w3.org/2000/svg" xmlns:xlink="http://www.w3.org/1999/xlink" x="0px"
	 y="0px" viewBox="0 0 40 40" style="enable-background:new 0 0 40 40;" xml:space="preserve">
<style type="text/css">
	.st0{clip-path:url(#SVGID_00000022556681330065909320000005189286097617473450_);}
</style>
<g>
	<defs>
		<rect id="SVGID_1_" x="4" y="8.9" width="32.2" height="23.1"/>
	</defs>
	<clipPath id="SVGID_00000002375355560205533150000009749125320631909797_">
		<use xlink:href="#SVGID_1_"  style="overflow:visible;"/>
	</clipPath>
	<g id="グループ_10254" style="clip-path:url(#SVGID_00000002375355560205533150000009749125320631909797_);">
		<path id="パス_8511" d="M32.6,29.8l1.6,0.2l0.4-2.1l2.2,0l0.4-0.9l-2.7-2.6l-0.4-1.8l-2.6,4h-6.3c-0.2,0-0.3,0-0.5-0.1
			c-0.2-0.1-0.4-0.3-0.5-0.4c-0.2-0.2-0.4-0.4-0.5-0.6l-1.2,0.5c0.1,0.3,0.2,0.6,0.3,1c0.1,0.4,0.3,0.7,0.5,1c0.3,0.4,0.6,0.6,1,0.9
			c0.2,0.1,0.3,0.2,0.5,0.2V32h4.3v-1.2l-1.9-0.3l0.1-0.6l2.4,0.4v0h0V32H35v-1.2l-0.9-0.1l-1.6-0.2l0-0.1L32.6,29.8z"/>
		<path id="パス_8512" d="M19,23.5h5.1V22H19v-6.5h12.8v-1.8l0,0c-0.3-0.1-13.7-4.7-13.7-4.7c0,0-13.7,4.7-13.7,4.7h0v1.8h12.8V22
			H12v1.6h5.1v6.9l-3.3,0.3V32h8.4v-1.2L19,30.5V23.5z"/>
		<path id="パス_8513" d="M5.8,20.3H4v11.8h1.8v-4.3h4.9v4.3h1.8v-6.1H5.8V20.3z"/>
	</g>
</g>
</svg>
