<svg version="1.1" id="レイヤー_1" xmlns="http://www.w3.org/2000/svg" xmlns:xlink="http://www.w3.org/1999/xlink" x="0px"
	 y="0px" viewBox="0 0 40 40" style="enable-background:new 0 0 40 40;" xml:space="preserve">
<g id="グループ_9573">
	<g id="グループ_9232" transform="translate(163.219 6160.59)">
		<path id="パス_5661" d="M-144.1-6151.3c0-0.8-0.6-1.4-1.4-1.4h0v7.9h-1.8v-7.9h-1.4v7.9h-1.8v-7.9c-0.8,0-1.4,0.6-1.4,1.4v7.9
			c0,1.6,1.3,2.9,2.9,2.9v12.9h2.2v-12.9c1.6,0,2.9-1.3,2.9-2.9L-144.1-6151.3L-144.1-6151.3z"/>
		<path id="パス_5662" d="M-138.4-6137c-1.6,0-2.9-1.3-2.9-2.9c0,0,0,0,0,0v-8.6c0-2.1,1.3-4,3.4-4.7c0.4-0.2,0.9-0.3,1.3-0.3h0.4
			v25.8h-2.2L-138.4-6137z"/>
	</g>
</g>
</svg>
