<svg id="グループ_10398" data-name="グループ 10398" xmlns="http://www.w3.org/2000/svg" width="26.082" height="26.082" viewBox="0 0 26.082 26.082">
  <path id="パス_8602" data-name="パス 8602" d="M13.041,0A13.041,13.041,0,1,1,0,13.041,13.041,13.041,0,0,1,13.041,0Z" fill="#956c00"/>
  <g id="スポーツシューズアイコン2" transform="translate(3.449 5.175)">
    <g id="グループ_8392" data-name="グループ 8392" transform="translate(0 0)">
      <path id="パス_5990" data-name="パス 5990" d="M9.186,15.377.509,8.013,0,8.613l8.678,7.365h0a5.487,5.487,0,0,0,3.528,1.287h5.561v-.787H12.207A4.7,4.7,0,0,1,9.186,15.377Z" transform="translate(0 -2.298)" fill="#fff"/>
      <path id="パス_5991" data-name="パス 5991" d="M12.311,14.988H16.5c1.968,0,1.673-1.968.394-2.263a15.423,15.423,0,0,1-1.971-.657,1.674,1.674,0,0,1-.989-.883l-.128-.272-1.606.486A.332.332,0,1,1,12,10.762l1.514-.458-.44-.94-1.5.454a.332.332,0,0,1-.193-.636l1.409-.426-.437-.941-1.4.424a.332.332,0,1,1-.192-.636l1.311-.4c-.188-.409-.324-.712-.361-.807-.158-.41-.5-1.548-1.3-.916-1.3,1.041-3.673.736-4.285-.4a3.276,3.276,0,0,1,0-2.493c.157-.577-.656-1.476-1.246-.689C4.467,2.458.949,6.624.949,6.624L9.8,14.07A3.9,3.9,0,0,0,12.311,14.988Z" transform="translate(-0.104 -1.593)" fill="#fff"/>
    </g>
  </g>
</svg>
