<svg version="1.1" id="レイヤー_1" xmlns="http://www.w3.org/2000/svg" xmlns:xlink="http://www.w3.org/1999/xlink" x="0px"
	 y="0px" viewBox="0 0 40 40" style="enable-background:new 0 0 40 40;" xml:space="preserve">
<style type="text/css">
	.st0{fill:none;}
</style>
<g id="グループ_9574">
	<g id="レイヤー_2-2" transform="translate(158.086 6215.586)">
		<g id="waku-2">
			<rect id="長方形_23780" x="-151.8" y="-6210.2" class="st0" width="27.8" height="27.8"/>
		</g>
		<g id="編集モード-2" transform="translate(5.566 1.642)">
			<path id="パス_6007" d="M-136-6199h-0.6v-1.6h-15.3v10.8c0,2.1,1.7,3.8,3.8,3.8c0,0,0,0,0,0h7.6c1.7,0,3.2-1.1,3.7-2.8h0.7
				c2.8,0,5.1-2.3,5.1-5.1C-130.9-6196.8-133.2-6199-136-6199z M-133.9-6191.8c-0.6,0.6-1.3,0.9-2.1,0.9h-0.6v-6h0.6
				c1.7,0,3,1.3,3,3C-133-6193.2-133.3-6192.4-133.9-6191.8L-133.9-6191.8z"/>
			<path id="パス_6008" d="M-148.9-6204.4c-0.1,0.5-0.3,0.9-0.7,1.2l0.8,1.1c1.4-1,1.8-2.9,0.8-4.4c0,0,0-0.1-0.1-0.1
				c-0.3-0.4-0.4-0.9-0.3-1.3c0.1-0.5,0.3-0.9,0.7-1.2l-0.8-1.1c-1.4,1-1.8,2.9-0.8,4.4c0,0,0,0.1,0.1,0.1
				C-148.9-6205.3-148.8-6204.9-148.9-6204.4L-148.9-6204.4z"/>
			<path id="パス_6009" d="M-144.4-6204.4c-0.1,0.5-0.3,0.9-0.7,1.2l0.8,1.1c1.4-1,1.8-2.9,0.8-4.4c0,0,0-0.1-0.1-0.1
				c-0.3-0.4-0.4-0.9-0.3-1.3c0.1-0.5,0.3-0.9,0.7-1.2l-0.8-1.1c-1.4,1-1.8,2.9-0.8,4.4c0,0,0,0.1,0.1,0.1
				C-144.5-6205.3-144.3-6204.9-144.4-6204.4L-144.4-6204.4z"/>
			<path id="パス_6010" d="M-140-6204.4c-0.1,0.5-0.3,0.9-0.7,1.2l0.8,1.1c1.4-1,1.8-2.9,0.8-4.4c0,0,0-0.1-0.1-0.1
				c-0.3-0.4-0.4-0.9-0.3-1.3c0.1-0.5,0.3-0.9,0.7-1.2l-0.8-1.1c-1.4,1-1.8,2.9-0.8,4.4c0,0,0,0.1,0.1,0.1
				C-140-6205.3-139.9-6204.9-140-6204.4L-140-6204.4z"/>
		</g>
	</g>
</g>
</svg>
