<svg id="コンポーネント_18_2" data-name="コンポーネント 18 – 2" xmlns="http://www.w3.org/2000/svg" xmlns:xlink="http://www.w3.org/1999/xlink" width="18.5" height="14.303" viewBox="0 0 18.5 14.303">
  <defs>
    <clipPath id="clip-path">
      <rect id="長方形_24463" data-name="長方形 24463" width="18.5" height="14.303"/>
    </clipPath>
  </defs>
  <g id="グループ_10240" data-name="グループ 10240" clip-path="url(#clip-path)">
    <path id="パス_8471" data-name="パス 8471" d="M537.269,238.718h-2.56a.551.551,0,1,1,0-1.1h2.56a.551.551,0,1,1,0,1.1" transform="translate(-519.32 -231.016)"/>
    <path id="パス_8472" data-name="パス 8472" d="M538.06,123.645a.551.551,0,0,1-.207-1.062l2.373-.959a.551.551,0,1,1,.413,1.022l-2.373.959a.549.549,0,0,1-.206.04" transform="translate(-522.578 -118.206)"/>
    <path id="パス_8473" data-name="パス 8473" d="M540.434,331.493a.55.55,0,0,1-.206-.04l-2.373-.959a.551.551,0,0,1,.413-1.022l2.373.959a.551.551,0,0,1-.207,1.062" transform="translate(-522.578 -320.28)"/>
    <path id="パス_8474" data-name="パス 8474" d="M191.044,0c-.484,0-1.263.823-1.6,1.161-.243.243-1.881,1.87-5.794,2.406v7.165c3.913.537,5.551,2.166,5.794,2.41.336.336,1.115,1.16,1.6,1.16a.876.876,0,0,0,.875-.875V.875A.876.876,0,0,0,191.044,0" transform="translate(-178.55)"/>
    <path id="パス_8476" data-name="パス 8476" d="M2.067,177.012h0a2.228,2.228,0,0,0,.005,4.445l.087.012V177l-.093.012" transform="translate(0 -172.083)"/>
    <rect id="長方形_24462" data-name="長方形 24462" width="1.866" height="4.47" transform="translate(2.159 4.917)"/>
  </g>
</svg>
