<svg id="レイヤー_2" data-name="レイヤー 2" xmlns="http://www.w3.org/2000/svg" width="29.252" height="29.252" viewBox="0 0 29.252 29.252">
  <g id="waku">
    <rect id="長方形_23913" data-name="長方形 23913" width="29.252" height="29.252" fill="none"/>
  </g>
  <g id="編集モード" transform="translate(0.727 3.655)">
    <path id="パス_6252" data-name="パス 6252" d="M33.6,60.393l1.984,1.994a5.59,5.59,0,0,1,7.938,0l1.984-1.994a8.384,8.384,0,0,0-11.908,0Z" transform="translate(-25.659 -46.626)" fill="#fff"/>
    <path id="パス_6253" data-name="パス 6253" d="M28.144,38.868a11.176,11.176,0,0,1,7.941,3.3l1.984-1.994a13.977,13.977,0,0,0-19.849,0L20.2,42.171a11.176,11.176,0,0,1,7.941-3.3Z" transform="translate(-14.247 -30.398)" fill="#fff"/>
    <path id="パス_6254" data-name="パス 6254" d="M16.717,16.99a16.769,16.769,0,0,1,11.909,4.962l1.983-2a19.568,19.568,0,0,0-27.789,0L4.8,21.951A16.768,16.768,0,0,1,16.717,16.99Z" transform="translate(-2.82 -14.167)" fill="#fff"/>
    <circle id="楕円形_61" data-name="楕円形 61" cx="2.193" cy="2.193" r="2.193" transform="translate(11.704 17.551)" fill="#fff"/>
  </g>
</svg>
