<svg xmlns="http://www.w3.org/2000/svg" xmlns:xlink="http://www.w3.org/1999/xlink" width="17.574" height="15.986" viewBox="0 0 17.574 15.986">
  <defs>
    <clipPath id="clip-path">
      <rect id="長方形_23925" data-name="長方形 23925" width="17.574" height="15.986" fill="none"/>
    </clipPath>
  </defs>
  <g id="グループ_9155" data-name="グループ 9155" transform="translate(0 0)">
    <g id="グループ_9155-2" data-name="グループ 9155" transform="translate(0 0)" clip-path="url(#clip-path)">
      <path id="パス_6370" data-name="パス 6370" d="M17.56,6.079a.259.259,0,0,0-.257-.166l-6.327.016L9.023.17a.264.264,0,0,0-.494,0L6.587,5.93H.259A.257.257,0,0,0,.012,6.1a.239.239,0,0,0,.1.276L5.231,9.908,3.269,15.652a.24.24,0,0,0,.092.287.268.268,0,0,0,.313-.01l5.107-3.556L13.9,15.928a.268.268,0,0,0,.3,0,.238.238,0,0,0,.093-.277L12.345,9.907l5.121-3.548a.239.239,0,0,0,.094-.281" transform="translate(0 0)" fill="#070203"/>
    </g>
  </g>
</svg>
