<svg xmlns="http://www.w3.org/2000/svg" xmlns:xlink="http://www.w3.org/1999/xlink" width="27" height="16" viewBox="0 0 27 16">
  <defs>
    <clipPath id="clip-path">
      <rect id="長方形_24121" data-name="長方形 24121" width="13.644" height="8.544" fill="#fff"/>
    </clipPath>
  </defs>
  <g id="グループ_9627" data-name="グループ 9627" transform="translate(-891 -4643)">
    <g id="グループ_9527" data-name="グループ 9527">
      <g id="グループ_9528" data-name="グループ 9528" transform="translate(891 4643)">
        <rect id="長方形_24120" data-name="長方形 24120" width="27" height="16" rx="5"/>
        <g id="グループ_9530" data-name="グループ 9530" transform="translate(7.218 3.729)">
          <g id="グループ_9529" data-name="グループ 9529" clip-path="url(#clip-path)">
            <path id="パス_6536" data-name="パス 6536" d="M0,8.544V0H1.836a2.758,2.758,0,0,1,.888.131A1.714,1.714,0,0,1,3.42.6a1.842,1.842,0,0,1,.432.786A4.916,4.916,0,0,1,3.972,2.6a6.055,6.055,0,0,1-.066.973,2.032,2.032,0,0,1-.282.744,1.784,1.784,0,0,1-.672.653,2.25,2.25,0,0,1-1.1.235H1.224V8.544ZM1.224,1.152v2.9h.588a1.265,1.265,0,0,0,.576-.107.677.677,0,0,0,.3-.3A1.087,1.087,0,0,0,2.8,3.2q.018-.264.018-.588c0-.2,0-.391-.012-.57A1.233,1.233,0,0,0,2.7,1.572a.684.684,0,0,0-.288-.313,1.144,1.144,0,0,0-.552-.107Z" transform="translate(0 0)" fill="#fff"/>
            <path id="パス_6537" data-name="パス 6537" d="M4.883,8.544V0H6.7A2.1,2.1,0,0,1,8.3.576a2.28,2.28,0,0,1,.546,1.632v4a2.38,2.38,0,0,1-.582,1.769,2.291,2.291,0,0,1-1.674.571ZM6.107,1.152V7.391h.564A.908.908,0,0,0,7.4,7.133a1.244,1.244,0,0,0,.216-.809V2.208a1.3,1.3,0,0,0-.2-.781.874.874,0,0,0-.744-.275Z" transform="translate(0 0)" fill="#fff"/>
            <path id="パス_6538" data-name="パス 6538" d="M10,8.544V0h3.648V1.152H11.22V3.744h2.112V4.9H11.22V8.544Z" transform="translate(0 0)" fill="#fff"/>
          </g>
        </g>
      </g>
    </g>
  </g>
</svg>
