<?xml version="1.0" encoding="utf-8"?>
<!-- Generator: Adobe Illustrator 28.2.0, SVG Export Plug-In . SVG Version: 6.00 Build 0)  -->
<svg version="1.1" id="レイヤー_1" xmlns="http://www.w3.org/2000/svg" xmlns:xlink="http://www.w3.org/1999/xlink" x="0px"
	 y="0px" viewBox="0 0 40 40" style="enable-background:new 0 0 40 40;" xml:space="preserve">
<style type="text/css">
	.st0{fill:#0A0607;}
</style>
<g id="グループ_10566" transform="translate(0 0)">
	<path id="パス_10536" class="st0" d="M21.3,29.6l0.2,3h6.4l0.2-3H21.3z"/>
	<path id="パス_10537" class="st0" d="M11.1,9.5L11,14.8l0,0l1.6,1.1l1.8-1.3l1.8,1.3l1.8-1.3l1.8,1.3l1.8-1.3l1.8,1.3l1.6-1.1
		l0,0l-0.1-5.3H11.1z"/>
	<path id="パス_10538" class="st0" d="M20.9,24.7l0.1,2.1l0.1,1.7h7.2l0.2-3.8L20.9,24.7L20.9,24.7z"/>
	<path id="パス_10539" class="st0" d="M19.9,17l-1.8-1.3L16.2,17l-1.8-1.3L12.6,17l-1.6-1.1l-0.2,10.9H20l-0.1-2.1v0h-0.8l0.1-1
		l0.1-2.2l0-0.9h0.9l0-0.8l0.1-0.9h5l-0.1-3L23.6,17l-1.8-1.3L19.9,17z"/>
	<path id="パス_10540" class="st0" d="M27.7,16.4l-1,3.4h-5.5l-0.1,1.7h-0.8l-0.1,2.2h9.1l-0.1-2.2h-0.8l-0.1-1.7h-0.4l0.7-2.4
		h1.7v-1H27.7z"/>
</g>
</svg>
