<svg xmlns="http://www.w3.org/2000/svg" xmlns:xlink="http://www.w3.org/1999/xlink" width="128.245" height="15.819" viewBox="0 0 128.245 15.819">
  <defs>
    <clipPath id="clip-path">
      <rect id="長方形_23246" data-name="長方形 23246" width="128.245" height="15.819" transform="translate(0 0)" fill="none"/>
    </clipPath>
  </defs>
  <g id="グループ_7657" data-name="グループ 7657" clip-path="url(#clip-path)">
    <path id="パス_5576" data-name="パス 5576" d="M3.85,14.691a.431.431,0,0,1-.459.413c-.254,0-.507-.017-.507-.33v-.083c.032-.446.079-2.872.079-3.054H2.789c-.539,0-1.87.033-2.408.1a1.241,1.241,0,0,1-.317-.825c.57.083,2.076.148,2.916.165V10.1l.016-1.089H1.537c.016.165.016.346.031.429,0,.231-.063.545-.57.545A.307.307,0,0,1,.665,9.64V9.557c.032-.231.048-.693.048-.809.048-.957.048-1.9.063-2.856A17.363,17.363,0,0,0,.634,3.434a5.233,5.233,0,0,1,1,.512H3.027V2.592H2.82c-.523,0-1.965.016-2.5.1A1.275,1.275,0,0,1,0,1.865c.57.083,2.187.148,3.027.165v-.3c0-.479-.032-.957-.1-1.733h.127c1.2,0,1.268.314,1.268.429,0,.182-.142.347-.491.462L3.819,2.03h1.22a5.917,5.917,0,0,1,.57-.693.207.207,0,0,1,.127-.049c.206,0,1.188.743,1.188,1.04,0,.165-.19.264-.364.264H3.819V3.945H5.277A2.207,2.207,0,0,1,5.594,3.6a.135.135,0,0,1,.1-.049c.016,0,.048.016.063.016a1.9,1.9,0,0,1,.84.842c0,.132-.1.281-.476.363V6.24c0,.181.016,1.749.032,2.294.016.182.048.66.048.71,0,.2-.063.462-.57.462-.222,0-.333-.116-.333-.38,0-.1.016-.214.016-.313H3.8v2.063H5.071a5.272,5.272,0,0,1,.6-.743.206.206,0,0,1,.127-.05.193.193,0,0,1,.095.017c.3.165,1.125.825,1.125,1.073,0,.165-.174.264-.364.264H3.819c0,.858.016,1.717.016,2.03,0,.561.016,1.007.016,1.007ZM3.027,4.506H1.553L1.537,6.14H3.011ZM2.995,8.451c.016-.578.016-1.172.016-1.75H1.537v1.75Zm2.329,0c.016-.38.016-1.3.016-1.75H3.819L3.8,8.451Zm.032-3.945H3.819V6.14H5.34Zm3.692,9.755c-.682,0-2.282.082-3.042.165a1.509,1.509,0,0,1-.364-.891c.665.083,2.472.132,3.771.132h.269V10.416h-.7a17.152,17.152,0,0,0-2.187.132,1.826,1.826,0,0,1-.333-.924,19.988,19.988,0,0,0,2.884.2h.333V8.435a8.133,8.133,0,0,0-.111-1.452c.634.016,1.489.066,1.489.429,0,.231-.238.4-.523.5V9.821H12.17c.079-.132.332-.479.554-.759A.191.191,0,0,1,12.867,9c.158,0,1.22.743,1.22,1.122a.289.289,0,0,1-.317.3H10.537l-.016,3.252h2.234c.57-.891.57-.908.681-.908a.288.288,0,0,1,.127.033c.048.016,1.125.809,1.125,1.172a.276.276,0,0,1-.3.3ZM12.312.924c.079-.083.238-.248.317-.347a.134.134,0,0,1,.1-.05c.206,0,.729.528.9.726a.5.5,0,0,1,.079.247c0,.165-.174.3-.586.363a10.451,10.451,0,0,1-2.171,3.12,8.5,8.5,0,0,0,3.819,1.552c.1.017.127.1.127.2,0,.132-.063.281-.19.3a1.177,1.177,0,0,0-.65.38.241.241,0,0,1-.174.1A9.2,9.2,0,0,1,10.363,5.53,11.058,11.058,0,0,1,6.75,7.708a.311.311,0,0,1-.3-.33.172.172,0,0,1,.111-.165A12.525,12.525,0,0,0,9.84,5,10.789,10.789,0,0,1,7.859,1.585a7.351,7.351,0,0,0-1,.1,1.9,1.9,0,0,1-.38-.875c.713.083,2.583.116,2.583.116Zm-3.407.627s-.206,0-.475.017A7.731,7.731,0,0,0,10.363,4.49a9.544,9.544,0,0,0,1.87-2.938Z" transform="translate(0 0)" fill="#1a1311"/>
    <path id="パス_5577" data-name="パス 5577" d="M73.616,9.862V10.9c0,.429,0,1.964.048,3.384.016.165.048.842.048,1.04,0,.165-.063.479-.681.479-.238,0-.475-.1-.475-.413,0-.132.032-.578.048-.858.048-1.287.048-3.186.048-3.631V9.862H69.021c-.523,3.351-2.155,4.688-4.77,6.273a.221.221,0,0,1-.1.033.413.413,0,0,1-.38-.347.227.227,0,0,1,.095-.165c2.266-1.535,3.692-2.641,4.183-5.794-.935.017-3.217.05-3.9.132a1.513,1.513,0,0,1-.317-.858v-.05c.745.083,2.963.148,4.294.165.063-.677.111-1.42.111-2.294v-.4c0-.413-.016-.776-.016-1.123h-.174c-.665,0-2.852.033-3.613.132a1.557,1.557,0,0,1-.317-.908c.808.1,2.916.165,4.1.165,0-.809,0-1.419-.016-1.931a7.591,7.591,0,0,0-.127-1.7c1.6.1,1.68.2,1.68.578-.016.247-.365.363-.555.429V4.845H72.65V3a15.4,15.4,0,0,0-.143-1.882c.3.033.507.033.713.05.253.033.935.083.935.479,0,.264-.364.413-.539.462v2.74h1.807c.174-.264.681-.924.808-.924.253,0,1.394.924,1.394,1.172a.359.359,0,0,1-.4.347H73.616V9.268h2.3c.143-.231.729-.974.856-.974a.175.175,0,0,1,.127.049c.365.2,1.3.891,1.3,1.172a.359.359,0,0,1-.4.347ZM72.65,5.439H69.211v1.9A17.813,17.813,0,0,1,69.1,9.268h3.55Z" transform="translate(-47.724 -0.834)" fill="#1a1311"/>
    <path id="パス_5578" data-name="パス 5578" d="M128.842,6.113a1.29,1.29,0,0,1,.206.677c0,.347-.174.611-.412.611-.159,0-.349-.116-.539-.4a4.455,4.455,0,0,0-1.7-1.6.21.21,0,0,1-.111-.181.364.364,0,0,1,.333-.33s1.759.512,2.218,1.221m.016,6.124a17.135,17.135,0,0,0,.238,2.212,4.573,4.573,0,0,1,.032.5c0,.941-.444,1.172-.7,1.172-.317,0-.539-.38-.539-.792a.585.585,0,0,1,.016-.165,16.768,16.768,0,0,0,.174-2.179c0-.71-.079-1.584-1.363-1.667-.142,0-.206-.148-.206-.3,0-.165.079-.314.222-.314h.032c.333.033.7.05,1.046.05a.592.592,0,0,0,.491-.314,53,53,0,0,0,3.027-6.074.191.191,0,0,1,.19-.116.363.363,0,0,1,.349.314c0,.033-1.157,2.872-2.282,5.332-.665,1.518-.729,1.7-.729,2.344m.507-8.517A4.078,4.078,0,0,0,127.733,2a.211.211,0,0,1-.111-.181.269.269,0,0,1,.079-.181.387.387,0,0,1,.269-.132,4.367,4.367,0,0,1,2.266,1.5,1.455,1.455,0,0,1,.111.545c0,.38-.174.644-.412.644-.174,0-.38-.132-.571-.479M138.429,7.6h-2.408c.761,3.268,2.82,6.47,5.086,7.378a.172.172,0,0,1,.111.165.359.359,0,0,1-.206.33,1.152,1.152,0,0,0-.761.33.232.232,0,0,1-.174.066c-.364,0-3.391-2.443-4.611-8.269h-1.79c0,5.034-1.458,6.933-3.042,8.468a.176.176,0,0,1-.127.049.331.331,0,0,1-.317-.3.192.192,0,0,1,.048-.132c1.521-1.651,2.488-3.714,2.488-8.22a35.97,35.97,0,0,0-.333-5.777,5.013,5.013,0,0,1,1.268.545h4.706c.38-.446.428-.462.491-.462a.166.166,0,0,1,.079.017c.872.5,1,.677,1,.809,0,.215-.238.38-.507.446V6.592c0,.1.016.792.048,1.321,0,.1.016.214.016.314.016.181-.079.479-.586.479-.254,0-.475-.116-.475-.363V7.6Zm.032-4.787h-4.9c.032,1.337.1,4.06.1,4.06l.016.132h4.769c0-.182.016-.347.016-.38Z" transform="translate(-94.505 -1.129)" fill="#1a1311"/>
    <path id="パス_5579" data-name="パス 5579" d="M195.171,15.634c-.561,0-3.483.016-4.061.1a1.663,1.663,0,0,1-.314-.875c.66.083,3.995.148,4.8.148h1.8v-2.03h-1.271c-.578,0-2.146.017-2.74.1a1.7,1.7,0,0,1-.314-.859c.66.083,2.674.149,3.483.149h.842v-1.75h-3.466a8.772,8.772,0,0,1-2.856,2.955.353.353,0,0,1-.33-.3.21.21,0,0,1,.066-.116c1.122-.991,2.773-3.087,3.037-4.671a.978.978,0,0,1-.38.083c-.2,0-.38-.083-.38-.33,0-.2.05-.5.066-.776.033-.594.033-1.321.033-1.7,0,0,.017-1.783.017-2.146a8.8,8.8,0,0,0-.182-1.717,5.172,5.172,0,0,1,1.254.545h7.345c.347-.429.479-.446.512-.446a.327.327,0,0,1,.132.05c.512.264.875.545.875.792,0,.2-.264.347-.528.4V5.566c0,.116.033.858.05,1.535,0,.3.05.578.05.743V7.86c0,.281-.363.462-.66.462-.231,0-.413-.1-.413-.314V7.645h-7.494v.528a.31.31,0,0,1-.2.264c1.2.413,1.337.644,1.337.792,0,.05-.033.33-.545.33-.066,0-.116-.017-.182-.017-.083.165-.165.314-.248.462H197.4a9.913,9.913,0,0,0-.148-1.915c.561,0,1.651.083,1.651.462,0,.264-.314.413-.561.5v.957h3.3a8.471,8.471,0,0,1,.743-.792.22.22,0,0,1,.132-.05c.116,0,1.453.76,1.453,1.156,0,.182-.2.3-.4.3H198.34v1.75h2.839s.693-.792.842-.792c.2,0,1.37.743,1.37,1.106,0,.181-.2.3-.4.3H198.34v2.03h4.49a6.846,6.846,0,0,1,.743-.809.167.167,0,0,1,.116-.066c.083,0,1.469.776,1.469,1.188a.353.353,0,0,1-.38.314Zm6.5-10.366h-7.527l-.016.693.016,1.089h7.511c0-.215.016-.4.016-.644Zm0-2.228h-7.527V4.674h7.527Z" transform="translate(-142.738 -1.423)" fill="#1a1311"/>
    <path id="パス_5580" data-name="パス 5580" d="M260.323,11.9v2.047a32.884,32.884,0,0,0,3.4-.776h.033c.116,0,.231.181.231.33a.2.2,0,0,1-.116.2,44.792,44.792,0,0,1-6.6,1.783c-.016.413-.132.545-.231.611a.264.264,0,0,1-.132.05.509.509,0,0,1-.38-.3,5.716,5.716,0,0,1-.462-1.42c.116,0,.231.017.363.017a22.353,22.353,0,0,0,2.987-.33V11.9H259.3c-.528,0-2.146.016-2.691.1a1.271,1.271,0,0,1-.314-.825c.562.083,2.228.149,3.12.165V9.047h-1.733v.71c0,.215-.314.347-.594.347-.231,0-.446-.1-.446-.314V9.757c.082-.726.1-2.327.1-2.756,0,0,.017-2.509.017-2.691a10.438,10.438,0,0,0-.116-2.08,6.779,6.779,0,0,1,1.056.445h4.341c.165-.181.4-.445.511-.445a.22.22,0,0,1,.116.049c.181.066.875.429.875.776,0,.148-.115.3-.512.4V6.786c0,.347.017,1.667.033,2.2.016.083.016.561.033.644v.049c0,.363-.561.363-.594.363-.215,0-.413-.066-.413-.264V9.047h-1.766v2.294h1.3c.148-.181.611-.759.776-.759.149,0,1.287.693,1.287,1.04,0,.165-.165.281-.363.281Zm-.908-5.777h-1.733l-.016,1.32c0,.1.016.545.016,1.007h1.733Zm0-2.856h-1.733V5.531h1.733Zm2.707,2.261c0-.743,0-1.6-.017-2.261h-1.783V5.531Zm-.017.594h-1.783V8.453h1.783Zm4.539,1.717h-.181s-1.849.016-2.658.1a2.4,2.4,0,0,1-.33-.858c.924.1,2.971.148,2.971.148l3.037-.017a5.12,5.12,0,0,1,.412-.429.219.219,0,0,1,.116-.049c.182,0,1.189.809,1.189,1.254,0,.215-.28.281-.578.281a2.088,2.088,0,0,1-.33-.017,8.527,8.527,0,0,1-1.981,2.063c-.132,0-.347-.148-.347-.281a.122.122,0,0,1,.033-.1,10.127,10.127,0,0,0,1.387-2.08L267.6,7.842v5.282c0,.2,0,.891.033,1.42v.083c0,1.2-1.436,1.849-1.783,1.849a.262.262,0,0,1-.264-.165c-.148-.429-.561-.5-1.816-.627a.292.292,0,0,1-.165-.281c0-.363.182-.363.2-.363a14.275,14.275,0,0,0,1.915.182c.578-.017.924-.248.924-.759Zm.33-4.523s-1.882,0-2.641.066a2.211,2.211,0,0,1-.314-.825c.875.1,2.988.132,2.988.132h1.634a4.134,4.134,0,0,1,.38-.38.125.125,0,0,1,.116-.066c.165,0,1.139.66,1.139,1.073,0,.214-.231.3-.528.3a1.162,1.162,0,0,1-.231-.017,15.344,15.344,0,0,1-1.948,1.915,1.555,1.555,0,0,1,.595,1.122c0,.314-.182.561-.413.561-.182,0-.38-.182-.578-.578a5.643,5.643,0,0,0-2.014-1.981.151.151,0,0,1-.066-.132.336.336,0,0,1,.3-.314,7.906,7.906,0,0,1,1.717.957A14.194,14.194,0,0,0,268.493,3.3Z" transform="translate(-191.616 -1.669)" fill="#1a1311"/>
    <path id="パス_5581" data-name="パス 5581" d="M327.46,22.728c-.355,0-.513-.181-.513-.362s.178-.362.513-.362h5.463l.02-8.267h-4.319c-.355,0-.513-.181-.513-.362s.178-.382.513-.382h9.763c.335,0,.513.181.513.382,0,.161-.158.342-.513.342H334.4V22h5.522c.335,0,.513.181.513.382,0,.161-.158.342-.513.342Z" transform="translate(-244.658 -9.722)" fill="#1a1311"/>
    <path id="パス_5582" data-name="パス 5582" d="M402.1,7.093a.6.6,0,1,1,1.2,0v6.813c0,.5-.3.749-.583.749-.3,0-.6-.25-.6-.749Zm7.283-.23a.572.572,0,0,1,.6-.595.631.631,0,0,1,.659.653c0,.729.037,1.459.037,2.342,0,1.055-.037,2.3-.15,3.973-.283,4.4-3.67,7.274-4.009,7.274a.262.262,0,0,1-.244-.288.277.277,0,0,1,.075-.192,11.785,11.785,0,0,0,2.917-6.852c.113-1.536.151-2.841.151-4.011,0-.806-.038-1.555-.038-2.284Z" transform="translate(-300.892 -4.69)" fill="#1a1311"/>
    <path id="パス_5583" data-name="パス 5583" d="M469.829,10.776a.855.855,0,0,1,.971.818,1.076,1.076,0,0,1-.224.628,12.982,12.982,0,0,1-5.059,4.493.231.231,0,0,1-.243-.209.328.328,0,0,1,.131-.248,14.667,14.667,0,0,0,3.547-4.76l-10.7.152h-.019c-.317,0-.467-.171-.467-.343s.168-.362.485-.362l11.537-.171Zm-5,5.616c0,3.122-.952,5.236-3.7,6.854a.5.5,0,0,1-.261.077.2.2,0,0,1-.205-.21.339.339,0,0,1,.149-.285c1.83-1.409,2.8-3.237,2.8-6.34v-.171c-.019-.647-.094-1.58-.094-2.171v-.019a.608.608,0,0,1,.616-.647c.653,0,.691.476.691,2.818Z" transform="translate(-342.555 -8.064)" fill="#1a1311"/>
  </g>
</svg>
