<svg id="グループ_11002" data-name="グループ 11002" xmlns="http://www.w3.org/2000/svg" xmlns:xlink="http://www.w3.org/1999/xlink" width="38.768" height="48.107" viewBox="0 0 38.768 48.107">
  <defs>
    <clipPath id="clip-path">
      <rect id="長方形_24725" data-name="長方形 24725" width="38.767" height="48.107" fill="none"/>
    </clipPath>
  </defs>
  <g id="グループ_11000" data-name="グループ 11000" transform="translate(0 0)">
    <g id="グループ_10999" data-name="グループ 10999">
      <g id="グループ_10998" data-name="グループ 10998" clip-path="url(#clip-path)">
        <path id="パス_10731" data-name="パス 10731" d="M33.089,5.837A19.011,19.011,0,0,0,6.209,5.305q-.271.259-.532.532A20.267,20.267,0,0,0,0,19.9v.054A20.267,20.267,0,0,0,5.676,34.018L19.384,48.107,33.091,34.018a20.266,20.266,0,0,0,5.676-14.075v-.03A20.266,20.266,0,0,0,33.091,5.837ZM19.384,26.552a6.994,6.994,0,1,1,6.994-6.994,6.994,6.994,0,0,1-6.994,6.994" transform="translate(0 0)"/>
      </g>
    </g>
    <circle id="楕円形_101" data-name="楕円形 101" cx="11.63" cy="11.63" r="11.63" transform="translate(7.943 8.071)"/>
  </g>
  <g id="グループ_11001" data-name="グループ 11001" transform="translate(12.497 11.383)">
    <path id="パス_10732" data-name="パス 10732" d="M31.191,9.532A1.032,1.032,0,0,0,30.16,8.5h0v5.673H28.871V8.5H27.84v5.673H26.552V8.5A1.032,1.032,0,0,0,25.52,9.532V15.2a2.063,2.063,0,0,0,2.063,2.063v9.279H29.13V17.268a2.063,2.063,0,0,0,2.061-2.061V9.532Z" transform="translate(-25.52 -7.985)" fill="#fff"/>
    <path id="パス_10733" data-name="パス 10733" d="M70.069,17.533A2.063,2.063,0,0,1,68,15.475V9.282a3.61,3.61,0,0,1,2.409-3.4,2.284,2.284,0,0,1,.95-.211h.258V24.228H70.071Z" transform="translate(-60.271 -5.67)" fill="#fff"/>
  </g>
</svg>
