<svg xmlns="http://www.w3.org/2000/svg" width="31.37" height="38.927" viewBox="0 0 31.37 38.927">
  <g id="グループ_11188" data-name="グループ 11188" transform="translate(-565.582 -1542.862)">
    <path id="合体_1" data-name="合体 1" d="M2000.594-3828.473a16.4,16.4,0,0,1-4.594-11.379v-.043a16.4,16.4,0,0,1,4.594-11.38c.14-.147.285-.291.431-.431a15.382,15.382,0,0,1,21.751.431h0a16.4,16.4,0,0,1,4.594,11.39v.024a16.4,16.4,0,0,1-4.594,11.389l-11.091,11.4Z" transform="translate(-1430.418 5398.862)" fill="#6e5d23"/>
    <g id="スポーツシューズアイコン2" transform="translate(570.917 1548.879)">
      <g id="グループ_8392" data-name="グループ 8392" transform="translate(0 0)">
        <path id="パス_5990" data-name="パス 5990" d="M10.434,16.378.579,8.013,0,8.695l9.857,8.366h0a6.233,6.233,0,0,0,4.007,1.462h6.317V17.63H13.866A5.338,5.338,0,0,1,10.434,16.378Z" transform="translate(0 -1.521)" fill="#fff"/>
        <path id="パス_5991" data-name="パス 5991" d="M13.855,16.808h4.753c2.235,0,1.9-2.235.447-2.571a17.518,17.518,0,0,1-2.239-.746,1.9,1.9,0,0,1-1.124-1l-.146-.309-1.825.552a.377.377,0,1,1-.219-.722l1.719-.52-.5-1.067-1.705.516a.377.377,0,0,1-.219-.722l1.6-.484-.5-1.068-1.59.481a.377.377,0,1,1-.219-.722l1.49-.451c-.214-.465-.368-.809-.41-.916C12.995,6.588,12.6,5.3,11.7,6.014,10.226,7.2,7.531,6.85,6.836,5.557a3.722,3.722,0,0,1,0-2.831c.179-.655-.745-1.677-1.416-.782C4.945,2.576.949,7.308.949,7.308L11,15.766A4.434,4.434,0,0,0,13.855,16.808Z" transform="translate(0.011 -1.593)" fill="#fff"/>
      </g>
    </g>
  </g>
</svg>
