<svg id="グループ_11036" data-name="グループ 11036" xmlns="http://www.w3.org/2000/svg" xmlns:xlink="http://www.w3.org/1999/xlink" width="38.768" height="48.107" viewBox="0 0 38.768 48.107">
  <defs>
    <clipPath id="clip-path">
      <rect id="長方形_24736" data-name="長方形 24736" width="38.767" height="48.107" fill="none"/>
    </clipPath>
  </defs>
  <g id="グループ_11034" data-name="グループ 11034" transform="translate(0 0)">
    <g id="グループ_11033" data-name="グループ 11033">
      <g id="グループ_11032" data-name="グループ 11032" clip-path="url(#clip-path)">
        <path id="パス_10746" data-name="パス 10746" d="M33.089,5.837A19.011,19.011,0,0,0,6.209,5.305q-.271.259-.532.532A20.267,20.267,0,0,0,0,19.9v.054A20.267,20.267,0,0,0,5.676,34.018L19.384,48.107,33.091,34.018a20.266,20.266,0,0,0,5.676-14.075v-.03A20.266,20.266,0,0,0,33.091,5.837ZM19.384,26.552a6.994,6.994,0,1,1,6.994-6.994,6.994,6.994,0,0,1-6.994,6.994" transform="translate(0 0)"/>
      </g>
    </g>
    <circle id="楕円形_107" data-name="楕円形 107" cx="11.63" cy="11.63" r="11.63" transform="translate(7.943 8.071)"/>
  </g>
  <g id="グループ_11035" data-name="グループ 11035" transform="translate(9.417 13.07)">
    <path id="パス_10747" data-name="パス 10747" d="M38.3,17.718A1.937,1.937,0,0,1,37.484,19L38.5,20.469a3.722,3.722,0,0,0,.877-5.269,1.908,1.908,0,0,1-.34-1.456,1.94,1.94,0,0,1,.814-1.286L38.823,11a3.722,3.722,0,0,0-.877,5.269A1.908,1.908,0,0,1,38.3,17.718Z" transform="translate(-33.076 -11)" fill="#fff"/>
    <path id="パス_10748" data-name="パス 10748" d="M52.477,17.718A1.937,1.937,0,0,1,51.663,19l1.015,1.465a3.722,3.722,0,0,0,.877-5.269,1.908,1.908,0,0,1-.352-1.459,1.94,1.94,0,0,1,.814-1.286L53.006,11a3.722,3.722,0,0,0-.88,5.263A1.908,1.908,0,0,1,52.477,17.718Z" transform="translate(-42.801 -11)" fill="#fff"/>
    <path id="パス_10749" data-name="パス 10749" d="M66.648,17.718A1.937,1.937,0,0,1,65.834,19l1.015,1.465a3.722,3.722,0,0,0,.877-5.269,1.908,1.908,0,0,1-.352-1.459,1.94,1.94,0,0,1,.814-1.286L67.173,11a3.722,3.722,0,0,0-.877,5.269A1.908,1.908,0,0,1,66.648,17.718Z" transform="translate(-52.514 -11)" fill="#fff"/>
    <path id="パス_10750" data-name="パス 10750" d="M34.3,37.373c5.841,0,10.249-2.2,10.249-5.147,0-.877-.4-2.163-2.3-3.317l-.934,1.525c.538.314,1.44.993,1.44,1.792,0,1.588-3.622,3.364-8.466,3.364s-8.466-1.776-8.466-3.364c0-.8.9-1.465,1.44-1.792l-.924-1.525c-1.886,1.151-2.3,2.44-2.3,3.317C24.059,35.16,28.463,37.373,34.3,37.373Z" transform="translate(-24.04 -23.279)" fill="#fff"/>
  </g>
</svg>
