<svg id="グループ_11040" data-name="グループ 11040" xmlns="http://www.w3.org/2000/svg" xmlns:xlink="http://www.w3.org/1999/xlink" width="38.768" height="48.107" viewBox="0 0 38.768 48.107">
  <defs>
    <clipPath id="clip-path">
      <rect id="長方形_24737" data-name="長方形 24737" width="38.767" height="48.107" fill="none"/>
    </clipPath>
  </defs>
  <g id="グループ_11039" data-name="グループ 11039" transform="translate(0 0)">
    <g id="グループ_11038" data-name="グループ 11038">
      <g id="グループ_11037" data-name="グループ 11037" clip-path="url(#clip-path)">
        <path id="パス_10751" data-name="パス 10751" d="M33.089,5.837A19.011,19.011,0,0,0,6.209,5.305q-.271.259-.532.532A20.267,20.267,0,0,0,0,19.9v.054A20.267,20.267,0,0,0,5.676,34.018L19.384,48.107,33.091,34.018a20.266,20.266,0,0,0,5.676-14.075v-.03A20.266,20.266,0,0,0,33.091,5.837ZM19.384,26.552a6.994,6.994,0,1,1,6.994-6.994,6.994,6.994,0,0,1-6.994,6.994" transform="translate(0 0)"/>
      </g>
    </g>
    <circle id="楕円形_108" data-name="楕円形 108" cx="11.63" cy="11.63" r="11.63" transform="translate(7.943 8.071)"/>
  </g>
  <g id="レイヤー_2" data-name="レイヤー 2" transform="translate(6.392 6.574)">
    <g id="waku">
      <rect id="長方形_24738" data-name="長方形 24738" width="26.913" height="26.913" fill="none"/>
    </g>
    <g id="編集モード" transform="translate(2.684 2.531)">
      <path id="パス_10752" data-name="パス 10752" d="M23.808,30.623l.712.985a11.324,11.324,0,0,1,2.786-1.051,8.711,8.711,0,0,1,2.238-.209,14.129,14.129,0,0,1-1.5,2.756,27.17,27.17,0,0,1-2.77,3.29L21,36.538l.555,1.818,4.272.657a1.051,1.051,0,0,0,.828-.237l.19-.159,2.4-2,2.464,1.661-1.661,3.995h1.8L34.4,38.427a1.113,1.113,0,0,0-.142-1.405l-.169-.166-2.559-2.547,1.244-2.217a4.054,4.054,0,0,0,3.51,1.156,7.2,7.2,0,0,0,3.283-1.424l-.641-1.035a5.541,5.541,0,0,1-3.23.529,2.987,2.987,0,0,1-1.73-2.036,2.153,2.153,0,0,0-1.013-1.244c-1.467-.831-3.693-.154-4.633.152a15.926,15.926,0,0,0-2.668,1.135,17.028,17.028,0,0,0-1.839,1.3Z" transform="translate(-18.7 -23.61)" fill="#fff"/>
      <circle id="楕円形_109" data-name="楕円形 109" cx="1.851" cy="1.851" r="1.851" transform="translate(13.571 0.145) rotate(-2.24)" fill="#fff"/>
      <path id="パス_10753" data-name="パス 10753" d="M55.716,89.979H51v1.346h4.723a2.017,2.017,0,0,0,2.015-2.015H56.393a.672.672,0,0,1-.676.669Z" transform="translate(-41.58 -70.643)" fill="#fff"/>
      <path id="パス_10754" data-name="パス 10754" d="M12.6,60.66l-1.286.392,1.377,4.51A2.01,2.01,0,0,0,15.2,66.912l-.4-1.294a.669.669,0,0,1-.838-.453Z" transform="translate(-11.31 -48.793)" fill="#fff"/>
    </g>
  </g>
</svg>
