<svg id="グループ_10997" data-name="グループ 10997" xmlns="http://www.w3.org/2000/svg" xmlns:xlink="http://www.w3.org/1999/xlink" width="38.768" height="48.107" viewBox="0 0 38.768 48.107">
  <defs>
    <clipPath id="clip-path">
      <rect id="長方形_24724" data-name="長方形 24724" width="38.767" height="48.107" fill="none"/>
    </clipPath>
  </defs>
  <g id="グループ_10995" data-name="グループ 10995" transform="translate(0 0)">
    <g id="グループ_10994" data-name="グループ 10994">
      <g id="グループ_10993" data-name="グループ 10993" clip-path="url(#clip-path)">
        <path id="パス_10728" data-name="パス 10728" d="M33.089,5.837A19.011,19.011,0,0,0,6.209,5.305q-.271.259-.532.532A20.267,20.267,0,0,0,0,19.9v.054A20.267,20.267,0,0,0,5.676,34.018L19.384,48.107,33.091,34.018a20.266,20.266,0,0,0,5.676-14.075v-.03A20.266,20.266,0,0,0,33.091,5.837ZM19.384,26.552a6.994,6.994,0,1,1,6.994-6.994,6.994,6.994,0,0,1-6.994,6.994" transform="translate(0 0)"/>
      </g>
    </g>
    <circle id="楕円形_100" data-name="楕円形 100" cx="11.63" cy="11.63" r="11.63" transform="translate(7.943 8.071)"/>
  </g>
  <g id="グループ_10996" data-name="グループ 10996" transform="translate(10.012 13.97)">
    <path id="パス_10729" data-name="パス 10729" d="M423.213,48.19a1.653,1.653,0,1,1-1.653,1.653,1.653,1.653,0,0,1,1.653-1.653" transform="translate(-419.053 -46.537)" fill="#fff"/>
    <path id="パス_10730" data-name="パス 10730" d="M427.414,44.972a1.653,1.653,0,0,0-1.408-1.636l-8.732-1.227a1.653,1.653,0,0,0-1.836,1.18l-.7,2.464h-4.413V39.69H408.67V51.265h1.653V47.959h15.438v3.306h1.653Z" transform="translate(-408.67 -39.69)" fill="#fff"/>
  </g>
</svg>
