<svg id="グループ_11009" data-name="グループ 11009" xmlns="http://www.w3.org/2000/svg" width="38.768" height="48.107" viewBox="0 0 38.768 48.107">
  <g id="グループ_11008" data-name="グループ 11008" transform="translate(0 0)">
    <path id="パス_10737" data-name="パス 10737" d="M33.089,5.837A19.011,19.011,0,0,0,6.209,5.305q-.271.259-.532.532A20.267,20.267,0,0,0,0,19.9v.054A20.267,20.267,0,0,0,5.676,34.018L19.384,48.107,33.091,34.018a20.266,20.266,0,0,0,5.676-14.075v-.03A20.266,20.266,0,0,0,33.091,5.837ZM19.384,26.552a6.994,6.994,0,1,1,6.994-6.994,6.994,6.994,0,0,1-6.994,6.994" transform="translate(0 0)"/>
    <path id="パス_10738" data-name="パス 10738" d="M11.63,0A11.63,11.63,0,1,1,0,11.63,11.63,11.63,0,0,1,11.63,0Z" transform="translate(7.943 8.07)"/>
    <g id="レイヤー_2" data-name="レイヤー 2" transform="translate(7.943 8.07)">
      <g id="waku">
        <rect id="長方形_24727" data-name="長方形 24727" width="21.525" height="21.525" fill="none"/>
      </g>
      <g id="編集モード" transform="translate(3.227 2.151)">
        <path id="パス_10739" data-name="パス 10739" d="M33.685,28.015,23.749,12.582h0a2.8,2.8,0,0,0-4.865.366H17l1.616,1.291v5.874A6.289,6.289,0,0,0,24.907,26.4h0a4.96,4.96,0,0,0,3.18-1.1L31,28.015Z" transform="translate(-17 -11.333)" fill="#fff"/>
      </g>
    </g>
  </g>
</svg>
