<svg xmlns="http://www.w3.org/2000/svg" xmlns:xlink="http://www.w3.org/1999/xlink" width="171.571" height="133.025" viewBox="0 0 171.571 133.025">
  <defs>
    <clipPath id="clip-path">
      <rect id="長方形_23861" data-name="長方形 23861" width="171.571" height="133.025" stroke="#000" stroke-width="0.1"/>
    </clipPath>
  </defs>
  <g id="グループ_8875" data-name="グループ 8875" clip-path="url(#clip-path)">
    <path id="パス_6039" data-name="パス 6039" d="M8.328,24.686c0,1.869.035,3.809.035,4.48,0,1.2.035,2.152.035,2.152a.809.809,0,0,1-.882.776c-.494,0-.988,0-.988-.6v-.141c.035-.6.141-4.127.176-6.667H6.176c-1.2,0-4.2.069-5.326.21a2.549,2.549,0,0,1-.6-1.445c1.129.175,4.655.316,6.49.316V21.547l.035-2.47H3.248c0,.353.069.882.069,1.06,0,.492-.14.986-1.129.986-.492,0-.634-.246-.634-.528,0-.072.035-.141.035-.213.071-.492.106-1.48.106-1.693.106-1.728.141-5.749.141-6.772a31.384,31.384,0,0,0-.282-4.409A11.944,11.944,0,0,1,3.566,8.53h3.28V5.356h-.6c-1.164,0-4.409.071-5.538.212a2.54,2.54,0,0,1-.6-1.446c1.164.176,4.9.317,6.737.317V3.663C6.846,2.6,6.776,1.617,6.634.1h.247C9.315.1,9.456.629,9.456.876c0,.282-.247.635-1.093.882L8.328,4.439h2.928A6.72,6.72,0,0,1,12.7,2.851c.389,0,2.54,1.658,2.54,2.116,0,.247-.317.388-.67.388H8.328V8.53h3.457a4.247,4.247,0,0,1,.847-.847c.071,0,1.9,1.164,1.9,1.693,0,.247-.247.494-1.093.67v3.245c0,.423.035,3.74.071,4.938,0,.389.106,1.377.106,1.481,0,.494-.247.847-1.092.847-.425,0-.636-.212-.636-.669,0-.248.035-.564.035-.813H8.291v4.691h3.035c1.164-1.552,1.411-1.693,1.517-1.693.282,0,2.61,1.659,2.61,2.188,0,.282-.317.423-.669.423ZM6.846,9.447H3.284l-.035,3.774H6.811Zm-.071,8.714c0-1.342.035-2.682.035-4.022H3.248v4.022Zm5.186,0c0-.707.034-3.141.034-4.022H8.328l-.037,4.022Zm.069-8.714h-3.7v3.774H12Zm8.077,20.848c-1.517,0-5.079.141-6.737.353a2.981,2.981,0,0,1-.705-1.624c1.34.142,5.361.282,8.254.282h.741V22.075H19.968a38.191,38.191,0,0,0-4.8.282A3.66,3.66,0,0,1,14.5,20.7a49.021,49.021,0,0,0,6.28.387h.88v-3.1a17.2,17.2,0,0,0-.21-2.963c1.833.037,3,.319,3,.776,0,.282-.389.741-1.165.954v4.337h3.845A18.183,18.183,0,0,1,28.4,19.429c.069-.071.106-.1.176-.1.422,0,2.609,1.658,2.609,2.222a.526.526,0,0,1-.564.528H23.283l-.034,7.231h5.184c.142-.246,1.165-1.939,1.483-1.939a.272.272,0,0,1,.176.071c.459.247,2.468,1.834,2.468,2.363a.5.5,0,0,1-.564.494Zm8.43-29c.53.282,1.8,1.34,1.8,1.869,0,.317-.351.529-1.268.635a22.232,22.232,0,0,1-4.94,6.843,19.623,19.623,0,0,0,8.678,3.421c.106,0,.176.142.176.282,0,.212-.107.459-.319.494a2.774,2.774,0,0,0-1.515.847c-.106.106-.178.176-.284.176A21.1,21.1,0,0,1,23.038,11.6a25.534,25.534,0,0,1-8.044,4.691.573.573,0,0,1-.529-.564.237.237,0,0,1,.141-.247,28.647,28.647,0,0,0,7.478-4.832A22.09,22.09,0,0,1,17.569,3.2a16.45,16.45,0,0,0-2.293.212,4.057,4.057,0,0,1-.705-1.587c1.411.176,5.573.247,5.573.247h7.3c.106-.176.739-.847.882-.847a.127.127,0,0,1,.1.035ZM19.791,3.133s-.529,0-1.27.035a16.553,16.553,0,0,0,4.516,6.561,19.931,19.931,0,0,0,4.372-6.6Z" transform="translate(0.039 0.035)" stroke="#000" stroke-width="0.1"/>
    <path id="パス_6040" data-name="パス 6040" d="M8.328,24.686c0,1.869.035,3.809.035,4.48,0,1.2.035,2.152.035,2.152a.809.809,0,0,1-.882.776c-.494,0-.988,0-.988-.6v-.141c.035-.6.141-4.127.176-6.667H6.176c-1.2,0-4.2.069-5.326.21a2.549,2.549,0,0,1-.6-1.445c1.129.175,4.655.316,6.49.316V21.547l.035-2.47H3.248c0,.353.069.882.069,1.06,0,.492-.14.986-1.129.986-.492,0-.634-.246-.634-.528,0-.072.035-.141.035-.213.071-.492.106-1.48.106-1.693.106-1.728.141-5.749.141-6.772a31.384,31.384,0,0,0-.282-4.409A11.944,11.944,0,0,1,3.566,8.53h3.28V5.356h-.6c-1.164,0-4.409.071-5.538.212a2.54,2.54,0,0,1-.6-1.446c1.164.176,4.9.317,6.737.317V3.663C6.846,2.6,6.776,1.617,6.634.1h.247C9.315.1,9.456.629,9.456.876c0,.282-.247.635-1.093.882L8.328,4.439h2.928A6.72,6.72,0,0,1,12.7,2.851c.389,0,2.54,1.658,2.54,2.116,0,.247-.317.388-.67.388H8.328V8.53h3.457a4.247,4.247,0,0,1,.847-.847c.071,0,1.9,1.164,1.9,1.693,0,.247-.247.494-1.093.67v3.245c0,.423.035,3.74.071,4.938,0,.389.106,1.377.106,1.481,0,.494-.247.847-1.092.847-.425,0-.636-.212-.636-.669,0-.248.035-.564.035-.813H8.291v4.691h3.035c1.164-1.552,1.411-1.693,1.517-1.693.282,0,2.61,1.659,2.61,2.188,0,.282-.317.423-.669.423ZM6.846,9.447H3.284l-.035,3.774H6.811Zm-.071,8.714c0-1.342.035-2.682.035-4.022H3.248v4.022Zm5.186,0c0-.707.034-3.141.034-4.022H8.328l-.037,4.022Zm.069-8.714h-3.7v3.774H12Zm8.077,20.848c-1.517,0-5.079.141-6.737.353a2.981,2.981,0,0,1-.705-1.624c1.34.142,5.361.282,8.254.282h.741V22.075H19.968a38.191,38.191,0,0,0-4.8.282A3.66,3.66,0,0,1,14.5,20.7a49.021,49.021,0,0,0,6.28.387h.88v-3.1a17.2,17.2,0,0,0-.21-2.963c1.833.037,3,.319,3,.776,0,.282-.389.741-1.165.954v4.337h3.845A18.183,18.183,0,0,1,28.4,19.429c.069-.071.106-.1.176-.1.422,0,2.609,1.658,2.609,2.222a.526.526,0,0,1-.564.528H23.283l-.034,7.231h5.184c.142-.246,1.165-1.939,1.483-1.939a.272.272,0,0,1,.176.071c.459.247,2.468,1.834,2.468,2.363a.5.5,0,0,1-.564.494Zm8.43-29c.53.282,1.8,1.34,1.8,1.869,0,.317-.351.529-1.268.635a22.232,22.232,0,0,1-4.94,6.843,19.623,19.623,0,0,0,8.678,3.421c.106,0,.176.142.176.282,0,.212-.107.459-.319.494a2.774,2.774,0,0,0-1.515.847c-.106.106-.178.176-.284.176A21.1,21.1,0,0,1,23.038,11.6a25.534,25.534,0,0,1-8.044,4.691.573.573,0,0,1-.529-.564.237.237,0,0,1,.141-.247,28.647,28.647,0,0,0,7.478-4.832A22.09,22.09,0,0,1,17.569,3.2a16.45,16.45,0,0,0-2.293.212,4.057,4.057,0,0,1-.705-1.587c1.411.176,5.573.247,5.573.247h7.3c.106-.176.739-.847.882-.847a.127.127,0,0,1,.1.035ZM19.791,3.133s-.529,0-1.27.035a16.553,16.553,0,0,0,4.516,6.561,19.931,19.931,0,0,0,4.372-6.6Z" transform="translate(0.039 0.035)" stroke="#000" stroke-miterlimit="10" stroke-width="0.1"/>
    <path id="パス_6041" data-name="パス 6041" d="M51.191,18.954v2.363c0,.918,0,4.2.106,7.232.034.353.106,1.8.106,2.222s-.212.882-1.34.882c-.741,0-.952-.353-.952-.776,0,0,.035-.952.071-1.764.141-2.751.141-6.843.141-7.8V18.954H41c-1.164,7.2-4.76,10.019-10.582,13.44-.035.035-.071.035-.141.035-.282,0-.705-.317-.705-.564a.265.265,0,0,1,.141-.247c5.115-3.351,8.326-5.751,9.383-12.664-1.94.035-7.265.106-8.783.282a3.239,3.239,0,0,1-.6-1.623c1.552.141,6.6.282,9.524.317a42.472,42.472,0,0,0,.282-5.044v-.847c0-.917-.035-1.764-.035-2.54H38.95c-1.48,0-6.349.071-8.007.282a3.364,3.364,0,0,1-.6-1.658c1.693.212,6.525.353,9.136.353,0-1.8,0-3.139-.034-4.268A15.727,15.727,0,0,0,39.2.718c3.141.247,3.423.317,3.423,1.093-.037.459-.917.705-1.236.811V8.514h7.938V4.422a32.889,32.889,0,0,0-.282-3.88c.492.071.951.071,1.376.106.494.035,1.975.176,1.975.882,0,.494-.741.741-1.2.847V8.514h4.233A9.871,9.871,0,0,1,57.15,6.538c.282,0,2.964,1.834,2.964,2.363,0,.282-.212.6-.741.6H51.191v8.465h5.326a15.55,15.55,0,0,1,1.658-1.975.322.322,0,0,1,.176-.106c.423,0,3.033,1.869,3.033,2.469,0,.282-.212.6-.741.6ZM49.321,9.5H41.383v4.233a38.921,38.921,0,0,1-.246,4.233h8.183Z" transform="translate(10.545 0.193)" stroke="#000" stroke-width="0.1"/>
    <path id="パス_6042" data-name="パス 6042" d="M51.191,18.954v2.363c0,.918,0,4.2.106,7.232.034.353.106,1.8.106,2.222s-.212.882-1.34.882c-.741,0-.952-.353-.952-.776,0,0,.035-.952.071-1.764.141-2.751.141-6.843.141-7.8V18.954H41c-1.164,7.2-4.76,10.019-10.582,13.44-.035.035-.071.035-.141.035-.282,0-.705-.317-.705-.564a.265.265,0,0,1,.141-.247c5.115-3.351,8.326-5.751,9.383-12.664-1.94.035-7.265.106-8.783.282a3.239,3.239,0,0,1-.6-1.623c1.552.141,6.6.282,9.524.317a42.472,42.472,0,0,0,.282-5.044v-.847c0-.917-.035-1.764-.035-2.54H38.95c-1.48,0-6.349.071-8.007.282a3.364,3.364,0,0,1-.6-1.658c1.693.212,6.525.353,9.136.353,0-1.8,0-3.139-.034-4.268A15.727,15.727,0,0,0,39.2.718c3.141.247,3.423.317,3.423,1.093-.037.459-.917.705-1.236.811V8.514h7.938V4.422a32.889,32.889,0,0,0-.282-3.88c.492.071.951.071,1.376.106.494.035,1.975.176,1.975.882,0,.494-.741.741-1.2.847V8.514h4.233A9.871,9.871,0,0,1,57.15,6.538c.282,0,2.964,1.834,2.964,2.363,0,.282-.212.6-.741.6H51.191v8.465h5.326a15.55,15.55,0,0,1,1.658-1.975.322.322,0,0,1,.176-.106c.423,0,3.033,1.869,3.033,2.469,0,.282-.212.6-.741.6ZM49.321,9.5H41.383v4.233a38.921,38.921,0,0,1-.246,4.233h8.183Z" transform="translate(10.545 0.193)" stroke="#000" stroke-miterlimit="10" stroke-width="0.1"/>
    <path id="パス_6043" data-name="パス 6043" d="M62.491,12.232A9.427,9.427,0,0,0,58.68,8.775a.293.293,0,0,1-.176-.282.644.644,0,0,1,.6-.6c.034,0,.106.035.14.035,3.386,1.164,5.151,2.187,5.151,3.915,0,.6-.317,1.164-.847,1.164-.317,0-.67-.247-1.058-.776m1.446,11.253a35.233,35.233,0,0,0,.529,4.727,9.556,9.556,0,0,1,.106,1.093c0,1.411-.53,2.293-1.411,2.293-.636,0-1.095-.635-1.095-1.481a1.4,1.4,0,0,1,.037-.388,34.454,34.454,0,0,0,.388-4.656c0-3.175-1.448-3.6-3.175-3.7-.212,0-.317-.248-.317-.5,0-.282.106-.529.351-.529h.037c.776.071,1.587.106,2.363.106a1.44,1.44,0,0,0,1.2-.705A111.8,111.8,0,0,0,69.685,6.694a.362.362,0,0,1,.282-.176c.282,0,.672.282.672.564,0,0-.389,1.27-5.044,11.324-1.411,2.928-1.658,3.527-1.658,5.079M65.313,5.213a8.853,8.853,0,0,0-3.668-3.7.365.365,0,0,1-.176-.247A.678.678,0,0,1,62.1.7c.67,0,4.372,1.8,4.9,3.1a2.879,2.879,0,0,1,.246,1.164c0,.353-.069,1.2-.81,1.2-.353,0-.741-.282-1.129-.952m20.211,8.22H79.845c1.589,6.983,6.28,14.039,11.464,16.014a.236.236,0,0,1,.141.247c0,.246-.141.529-.317.564a2.8,2.8,0,0,0-1.8.741.563.563,0,0,1-.284.106c-.387,0-7.372-4.691-10.159-17.672H74.66v.175c0,10.688-3.245,14.71-6.737,17.955-.071.071-.106.071-.213.071a.565.565,0,0,1-.528-.494.2.2,0,0,1,.069-.176c3.388-3.6,5.574-8.042,5.574-17.744a79.763,79.763,0,0,0-.707-12.1A10.8,10.8,0,0,1,74.731,2.25H85.313a4.282,4.282,0,0,0,.353-.423c.564-.564.636-.6.67-.6s.072.035.106.071c.035,0,2.152.988,2.152,1.587,0,.423-.564.776-1.129.847v7.689c0,.212.035,1.693.106,2.822,0,.247.035.459.035.67v.071c0,.6-.67.811-1.129.811-.528,0-.952-.176-.952-.6V13.433ZM85.595,3.2H74.377c.107,2.787.248,8.818.248,8.818l.035.423h10.9c0-.459.034-.882.034-.952Z" transform="translate(20.865 0.248)" stroke="#000" stroke-width="0.1"/>
    <path id="パス_6044" data-name="パス 6044" d="M62.491,12.232A9.427,9.427,0,0,0,58.68,8.775a.293.293,0,0,1-.176-.282.644.644,0,0,1,.6-.6c.034,0,.106.035.14.035,3.386,1.164,5.151,2.187,5.151,3.915,0,.6-.317,1.164-.847,1.164C63.232,13.008,62.879,12.761,62.491,12.232Zm1.446,11.253a35.233,35.233,0,0,0,.529,4.727,9.556,9.556,0,0,1,.106,1.093c0,1.411-.53,2.293-1.411,2.293-.636,0-1.095-.635-1.095-1.481a1.4,1.4,0,0,1,.037-.388,34.454,34.454,0,0,0,.388-4.656c0-3.175-1.448-3.6-3.175-3.7-.212,0-.317-.248-.317-.5,0-.282.106-.529.351-.529h.037c.776.071,1.587.106,2.363.106a1.44,1.44,0,0,0,1.2-.705A111.8,111.8,0,0,0,69.685,6.694a.362.362,0,0,1,.282-.176c.282,0,.672.282.672.564,0,0-.389,1.27-5.044,11.324C64.184,21.334,63.937,21.934,63.937,23.486ZM65.313,5.213a8.853,8.853,0,0,0-3.668-3.7.365.365,0,0,1-.176-.247A.678.678,0,0,1,62.1.7c.67,0,4.372,1.8,4.9,3.1a2.879,2.879,0,0,1,.246,1.164c0,.353-.069,1.2-.81,1.2C66.089,6.165,65.7,5.883,65.313,5.213Zm20.211,8.22H79.845c1.589,6.983,6.28,14.039,11.464,16.014a.236.236,0,0,1,.141.247c0,.246-.141.529-.317.564a2.8,2.8,0,0,0-1.8.741.563.563,0,0,1-.284.106c-.387,0-7.372-4.691-10.159-17.672H74.66v.175c0,10.688-3.245,14.71-6.737,17.955-.071.071-.106.071-.213.071a.565.565,0,0,1-.528-.494.2.2,0,0,1,.069-.176c3.388-3.6,5.574-8.042,5.574-17.744a79.763,79.763,0,0,0-.707-12.1A10.8,10.8,0,0,1,74.731,2.25H85.313a4.282,4.282,0,0,0,.353-.423c.564-.564.636-.6.67-.6s.072.035.106.071c.035,0,2.152.988,2.152,1.587,0,.423-.564.776-1.129.847v7.689c0,.212.035,1.693.106,2.822,0,.247.035.459.035.67v.071c0,.6-.67.811-1.129.811-.528,0-.952-.176-.952-.6V13.433ZM85.595,3.2H74.377c.107,2.787.248,8.818.248,8.818l.035.423h10.9c0-.459.034-.882.034-.952Z" transform="translate(20.865 0.248)" stroke="#000" stroke-miterlimit="10" stroke-width="0.1"/>
    <path id="パス_6045" data-name="パス 6045" d="M10.114,67.4c-1.2,0-7.443.035-8.607.212a3.58,3.58,0,0,1-.6-1.552c1.236.141,8.4.282,10.125.282h3.986V61.723H12.16c-1.235,0-4.621.035-5.785.176a3.424,3.424,0,0,1-.6-1.517c1.271.176,5.574.317,7.3.317h1.94V56.679H7.4c-2.787,4.268-5.785,6.314-6.033,6.314a.535.535,0,0,1-.528-.459c0-.071,0-.141.069-.176C2.918,60.594,6.763,56.079,7.433,52.3c.494.141,2.787.847,2.787,1.552a.375.375,0,0,1-.106.246,1.169,1.169,0,0,1-.917.319,2.091,2.091,0,0,1-.459-.037c-.247.425-.494.848-.707,1.271h6.985a23.048,23.048,0,0,0-.282-4.093c.141,0,3.21.107,3.21.847,0,.142-.106.707-1.2.954v2.293h7.268a18.606,18.606,0,0,1,1.621-1.728c.072-.035.106-.071.178-.071.246,0,2.962,1.658,2.962,2.328,0,.317-.351.494-.7.494H16.745V60.7h6.279a16.556,16.556,0,0,1,1.587-1.587.194.194,0,0,1,.176-.106c.106,0,2.717,1.446,2.717,2.222,0,.317-.317.494-.67.494H16.745v4.621h9.807c1.233-1.587,1.656-1.869,1.8-1.869.178,0,2.964,1.728,2.964,2.434,0,.282-.319.494-.672.494ZM24.082,50.33H7.786V51.6c0,.353-.705.705-1.27.705-.388,0-.705-.178-.705-.6,0-.388.106-1.023.141-1.589.071-1.3.071-2.856.071-3.668,0,0,.035-3.809.035-4.584a20.961,20.961,0,0,0-.317-3.458A9.8,9.8,0,0,1,8.174,39.5h15.8c.106-.141.777-.952,1.023-.952a.128.128,0,0,1,.106.035l.106.035c.705.389,1.764,1.093,1.764,1.587,0,.388-.564.67-1.092.741v5.079c0,.248.069,1.834.106,3.28,0,.636.1,1.236.1,1.624v.035c0,.494-.705.811-1.27.811-.388,0-.741-.176-.741-.529Zm.071-5.079H7.786L7.75,46.871c0,.176.035,1.411.035,2.47H24.118c0-.5.034-.918.034-1.517Zm0-4.763H7.786v3.774H24.152Z" transform="translate(0.299 13.697)" stroke="#000" stroke-width="0.1"/>
    <path id="パス_6046" data-name="パス 6046" d="M10.114,67.4c-1.2,0-7.443.035-8.607.212a3.58,3.58,0,0,1-.6-1.552c1.236.141,8.4.282,10.125.282h3.986V61.723H12.16c-1.235,0-4.621.035-5.785.176a3.424,3.424,0,0,1-.6-1.517c1.271.176,5.574.317,7.3.317h1.94V56.679H7.4c-2.787,4.268-5.785,6.314-6.033,6.314a.535.535,0,0,1-.528-.459c0-.071,0-.141.069-.176C2.918,60.594,6.763,56.079,7.433,52.3c.494.141,2.787.847,2.787,1.552a.375.375,0,0,1-.106.246,1.169,1.169,0,0,1-.917.319,2.091,2.091,0,0,1-.459-.037c-.247.425-.494.848-.707,1.271h6.985a23.048,23.048,0,0,0-.282-4.093c.141,0,3.21.107,3.21.847,0,.142-.106.707-1.2.954v2.293h7.268a18.606,18.606,0,0,1,1.621-1.728c.072-.035.106-.071.178-.071.246,0,2.962,1.658,2.962,2.328,0,.317-.351.494-.7.494H16.745V60.7h6.279a16.556,16.556,0,0,1,1.587-1.587.194.194,0,0,1,.176-.106c.106,0,2.717,1.446,2.717,2.222,0,.317-.317.494-.67.494H16.745v4.621h9.807c1.233-1.587,1.656-1.869,1.8-1.869.178,0,2.964,1.728,2.964,2.434,0,.282-.319.494-.672.494ZM24.082,50.33H7.786V51.6c0,.353-.705.705-1.27.705-.388,0-.705-.178-.705-.6,0-.388.106-1.023.141-1.589.071-1.3.071-2.856.071-3.668,0,0,.035-3.809.035-4.584a20.961,20.961,0,0,0-.317-3.458A9.8,9.8,0,0,1,8.174,39.5h15.8c.106-.141.777-.952,1.023-.952a.128.128,0,0,1,.106.035l.106.035c.705.389,1.764,1.093,1.764,1.587,0,.388-.564.67-1.092.741v5.079c0,.248.069,1.834.106,3.28,0,.636.1,1.236.1,1.624v.035c0,.494-.705.811-1.27.811-.388,0-.741-.176-.741-.529Zm.071-5.079H7.786L7.75,46.871c0,.176.035,1.411.035,2.47H24.118c0-.5.034-.918.034-1.517Zm0-4.763H7.786v3.774H24.152Z" transform="translate(0.299 13.697)" stroke="#000" stroke-miterlimit="10" stroke-width="0.1"/>
    <path id="パス_6047" data-name="パス 6047" d="M46.115,61.836c.176,0,.351.317.351.564a.33.33,0,0,1-.175.317A95.549,95.549,0,0,1,32.11,66.562c0,1.164-.459,1.376-.67,1.376-.564,0-1.306-1.8-1.587-3.386.212,0,.423.035.67.035a41.072,41.072,0,0,0,6.455-.741V58.873H36.59c-1.129,0-4.585.035-5.679.212a2.51,2.51,0,0,1-.6-1.446c1.093.141,4.8.282,6.667.317V52.769H32.992v1.659c0,.353-.635.6-1.165.6-.422,0-.775-.141-.775-.529v-.035c.035-.282.21-2.541.21-5.927,0,0,.037-5.361.037-5.749a32.3,32.3,0,0,0-.212-4.233,11.879,11.879,0,0,1,2.081.882h9.347c.423-.494.811-.952,1.023-.952.037,0,.071.035.106.035l.107.035c.388.176,1.727.882,1.727,1.517,0,.282-.21.564-1.057.776v7.231c0,.741.034,3.6.069,4.691.037.176.037,1.2.071,1.377v.071c0,.564-.67.7-1.2.7-.351,0-.67-.14-.67-.457V52.769H38.636v5.186h3A11.907,11.907,0,0,1,43.045,56.4a.192.192,0,0,1,.176-.106.273.273,0,0,1,.141.034c.564.282,2.47,1.553,2.47,2.082,0,.282-.282.459-.636.459H38.636v4.691a64.809,64.809,0,0,0,7.443-1.728Zm-9.137-15.31H32.992l-.037,2.963c0,.213.037,1.271.037,2.293h3.986Zm0-6.1H32.992v5.115h3.986Zm5.785,5.115c0-1.658,0-3.633-.034-5.115H38.636v5.115Zm-.034.988H38.636v5.256h4.093Zm9.7,3.67H51.9s-3.951.034-5.607.21a4.375,4.375,0,0,1-.6-1.515c1.8.175,6.174.282,6.174.282l6.561-.035.212-.213.21-.282c.248-.247.53-.529.635-.529.072,0,2.363,1.483,2.363,2.47,0,.423-.564.529-1.129.529a4.324,4.324,0,0,1-.7-.037,21.162,21.162,0,0,1-4.127,4.375.13.13,0,0,1-.071.034c-.178,0-.564-.246-.564-.457a.137.137,0,0,1,.034-.107,20.187,20.187,0,0,0,3.069-4.691L54.193,50.2V61.624c0,.423,0,1.9.071,3.033v.176c0,2.54-2.929,3.845-3.705,3.845a.413.413,0,0,1-.387-.317c-.284-.776-.918-1.093-4.022-1.411-.14,0-.212-.282-.212-.564s.106-.529.247-.529a31.6,31.6,0,0,0,4.127.388c1.27-.035,2.118-.564,2.118-1.764Zm.564-9.666s-4.022,0-5.573.141a4.689,4.689,0,0,1-.564-1.446c1.693.176,6.208.247,6.208.247h3.563c.069-.071.847-.952,1.023-.952a.1.1,0,0,1,.069.035c1.023.529,2.152,1.587,2.152,2.081,0,.388-.459.529-.986.529a2.485,2.485,0,0,1-.494-.035,35.538,35.538,0,0,1-4.34,4.234,3.336,3.336,0,0,1,1.342,2.4,1.085,1.085,0,0,1-.777,1.093c-.316,0-.67-.388-1.057-1.165a11.784,11.784,0,0,0-4.375-4.3.31.31,0,0,1-.106-.212.6.6,0,0,1,.53-.494,18.736,18.736,0,0,1,3.7,2.081,30.185,30.185,0,0,0,3.175-4.268Z" transform="translate(10.647 13.724)" stroke="#000" stroke-width="0.1"/>
    <path id="パス_6048" data-name="パス 6048" d="M46.115,61.836c.176,0,.351.317.351.564a.33.33,0,0,1-.175.317A95.549,95.549,0,0,1,32.11,66.562c0,1.164-.459,1.376-.67,1.376-.564,0-1.306-1.8-1.587-3.386.212,0,.423.035.67.035a41.072,41.072,0,0,0,6.455-.741V58.873H36.59c-1.129,0-4.585.035-5.679.212a2.51,2.51,0,0,1-.6-1.446c1.093.141,4.8.282,6.667.317V52.769H32.992v1.659c0,.353-.635.6-1.165.6-.422,0-.775-.141-.775-.529v-.035c.035-.282.21-2.541.21-5.927,0,0,.037-5.361.037-5.749a32.3,32.3,0,0,0-.212-4.233,11.879,11.879,0,0,1,2.081.882h9.347c.423-.494.811-.952,1.023-.952.037,0,.071.035.106.035l.107.035c.388.176,1.727.882,1.727,1.517,0,.282-.21.564-1.057.776v7.231c0,.741.034,3.6.069,4.691.037.176.037,1.2.071,1.377v.071c0,.564-.67.7-1.2.7-.351,0-.67-.14-.67-.457V52.769H38.636v5.186h3A11.907,11.907,0,0,1,43.045,56.4a.192.192,0,0,1,.176-.106.273.273,0,0,1,.141.034c.564.282,2.47,1.553,2.47,2.082,0,.282-.282.459-.636.459H38.636v4.691a64.809,64.809,0,0,0,7.443-1.728Zm-9.137-15.31H32.992l-.037,2.963c0,.213.037,1.271.037,2.293h3.986Zm0-6.1H32.992v5.115h3.986Zm5.785,5.115c0-1.658,0-3.633-.034-5.115H38.636v5.115Zm-.034.988H38.636v5.256h4.093Zm9.7,3.67H51.9s-3.951.034-5.607.21a4.375,4.375,0,0,1-.6-1.515c1.8.175,6.174.282,6.174.282l6.561-.035.212-.213.21-.282c.248-.247.53-.529.635-.529.072,0,2.363,1.483,2.363,2.47,0,.423-.564.529-1.129.529a4.324,4.324,0,0,1-.7-.037,21.162,21.162,0,0,1-4.127,4.375.13.13,0,0,1-.071.034c-.178,0-.564-.246-.564-.457a.137.137,0,0,1,.034-.107,20.187,20.187,0,0,0,3.069-4.691L54.193,50.2V61.624c0,.423,0,1.9.071,3.033v.176c0,2.54-2.929,3.845-3.705,3.845a.413.413,0,0,1-.387-.317c-.284-.776-.918-1.093-4.022-1.411-.14,0-.212-.282-.212-.564s.106-.529.247-.529a31.6,31.6,0,0,0,4.127.388c1.27-.035,2.118-.564,2.118-1.764Zm.564-9.666s-4.022,0-5.573.141a4.689,4.689,0,0,1-.564-1.446c1.693.176,6.208.247,6.208.247h3.563c.069-.071.847-.952,1.023-.952a.1.1,0,0,1,.069.035c1.023.529,2.152,1.587,2.152,2.081,0,.388-.459.529-.986.529a2.485,2.485,0,0,1-.494-.035,35.538,35.538,0,0,1-4.34,4.234,3.336,3.336,0,0,1,1.342,2.4,1.085,1.085,0,0,1-.777,1.093c-.316,0-.67-.388-1.057-1.165a11.784,11.784,0,0,0-4.375-4.3.31.31,0,0,1-.106-.212.6.6,0,0,1,.53-.494,18.736,18.736,0,0,1,3.7,2.081,30.185,30.185,0,0,0,3.175-4.268Z" transform="translate(10.647 13.724)" stroke="#000" stroke-miterlimit="10" stroke-width="0.1"/>
    <path id="パス_6049" data-name="パス 6049" d="M68.8,47.518c-.282.035-.564.106-.882.176a4.163,4.163,0,0,1-.988.141h-.178c-1.515,0-4.337-1.728-4.337-2.963,0-.212.106-.353.316-.353a1.438,1.438,0,0,1,.847.388,6.212,6.212,0,0,0,3.705,1.164,91.564,91.564,0,0,0,11.076-1.518,1.911,1.911,0,0,0,.917-.351,1.781,1.781,0,0,1,.917-.388h.141a4.646,4.646,0,0,1,2.118.494,1.174,1.174,0,0,1,.246.67c0,.811-.705.882-2.963,1.093-1.34.106-4.162.494-6.774.847.672.459,1.836,1.517,1.836,2.4a3.09,3.09,0,0,1-.212.952,1.854,1.854,0,0,0-.141.6c-.035.635-.247,3.986-.354,6.032a75.286,75.286,0,0,1,7.585-.459,4.453,4.453,0,0,0,1.165-.176A6.311,6.311,0,0,1,84,55.913c.917,0,3.88.776,3.88,2.011,0,.529-.457.882-1.2.882a3.887,3.887,0,0,1-.636-.071,28.475,28.475,0,0,0-6.561-.6c-5.291,0-11.606.776-14.285,1.8a2.8,2.8,0,0,1-1.2.282c-1.481,0-5.079-1.869-5.079-3.492a.557.557,0,0,1,.492-.6.589.589,0,0,1,.46.353,5.2,5.2,0,0,0,4.055,1.552h.178c2.75-.176,4.55-.564,8.183-.952.071-1.517.1-3.633.1-5.361,0-3.739-.14-3.915-.88-4.585Z" transform="translate(21.014 15.625)" stroke="#000" stroke-width="0.1"/>
    <path id="パス_6050" data-name="パス 6050" d="M68.8,47.518c-.282.035-.564.106-.882.176a4.163,4.163,0,0,1-.988.141h-.178c-1.515,0-4.337-1.728-4.337-2.963,0-.212.106-.353.316-.353a1.438,1.438,0,0,1,.847.388,6.212,6.212,0,0,0,3.705,1.164,91.564,91.564,0,0,0,11.076-1.518,1.911,1.911,0,0,0,.917-.351,1.781,1.781,0,0,1,.917-.388h.141a4.646,4.646,0,0,1,2.118.494,1.174,1.174,0,0,1,.246.67c0,.811-.705.882-2.963,1.093-1.34.106-4.162.494-6.774.847.672.459,1.836,1.517,1.836,2.4a3.09,3.09,0,0,1-.212.952,1.854,1.854,0,0,0-.141.6c-.035.635-.247,3.986-.354,6.032a75.286,75.286,0,0,1,7.585-.459,4.453,4.453,0,0,0,1.165-.176A6.311,6.311,0,0,1,84,55.913c.917,0,3.88.776,3.88,2.011,0,.529-.457.882-1.2.882a3.887,3.887,0,0,1-.636-.071,28.475,28.475,0,0,0-6.561-.6c-5.291,0-11.606.776-14.285,1.8a2.8,2.8,0,0,1-1.2.282c-1.481,0-5.079-1.869-5.079-3.492a.557.557,0,0,1,.492-.6.589.589,0,0,1,.46.353,5.2,5.2,0,0,0,4.055,1.552h.178c2.75-.176,4.55-.564,8.183-.952.071-1.517.1-3.633.1-5.361,0-3.739-.14-3.915-.88-4.585Z" transform="translate(21.014 15.625)" stroke="#000" stroke-miterlimit="10" stroke-width="0.1"/>
    <path id="パス_6051" data-name="パス 6051" d="M92.456,44.427c-.037.388-.071,1.129-.071,2.011,0,1.235.034,2.716.034,4.056v1.693c0,3.139,0,4.48-.986,4.48-.707,0-1.377-1.093-1.377-2.187a3.706,3.706,0,0,1,.106-.6c.388-1.376.425-2.363.425-6.913,0-.635-.037-1.2-.037-1.587-.035-.388-.035-.742-.035-1.093a2.276,2.276,0,0,0-1.834-2.575.514.514,0,0,1-.459-.46v-.069c.071-.247.319-.423.777-.423.7,0,3.845.847,3.845,2.152a2.032,2.032,0,0,1-.282.952,2.225,2.225,0,0,0-.106.564m-3.529,23.1c0-.176.141-.388.459-.529a18.985,18.985,0,0,0,10.723-17.46c0-3.176-.034-4.587-.034-6.208,0-1.164,0-2.4-2.257-2.823-.282-.071-.425-.21-.425-.388,0-.282.248-.6.989-.6,1.058,0,4.372.813,4.372,2.259a1.784,1.784,0,0,1-.034.423c-.071.175-.141.388-.248.635a6.209,6.209,0,0,0-.21,1.129c-.106,1.058-.106,3.139-.141,3.7a3.027,3.027,0,0,0-.035.564c0,.423.035.917.035,1.693,0,13.192-11.747,18.095-12.557,18.095-.354,0-.636-.212-.636-.494" transform="translate(31.464 14.095)" stroke="#000" stroke-width="0.1"/>
    <path id="パス_6052" data-name="パス 6052" d="M92.456,44.427c-.037.388-.071,1.129-.071,2.011,0,1.235.034,2.716.034,4.056v1.693c0,3.139,0,4.48-.986,4.48-.707,0-1.377-1.093-1.377-2.187a3.706,3.706,0,0,1,.106-.6c.388-1.376.425-2.363.425-6.913,0-.635-.037-1.2-.037-1.587-.035-.388-.035-.742-.035-1.093a2.276,2.276,0,0,0-1.834-2.575.514.514,0,0,1-.459-.46v-.069c.071-.247.319-.423.777-.423.7,0,3.845.847,3.845,2.152a2.032,2.032,0,0,1-.282.952A2.225,2.225,0,0,0,92.456,44.427Zm-3.529,23.1c0-.176.141-.388.459-.529a18.985,18.985,0,0,0,10.723-17.46c0-3.176-.034-4.587-.034-6.208,0-1.164,0-2.4-2.257-2.823-.282-.071-.425-.21-.425-.388,0-.282.248-.6.989-.6,1.058,0,4.372.813,4.372,2.259a1.784,1.784,0,0,1-.034.423c-.071.175-.141.388-.248.635a6.209,6.209,0,0,0-.21,1.129c-.106,1.058-.106,3.139-.141,3.7a3.027,3.027,0,0,0-.035.564c0,.423.035.917.035,1.693,0,13.192-11.747,18.095-12.557,18.095C89.21,68.025,88.927,67.813,88.927,67.531Z" transform="translate(31.464 14.095)" stroke="#000" stroke-miterlimit="10" stroke-width="0.1"/>
    <path id="パス_6053" data-name="パス 6053" d="M113.609,45.148a3.306,3.306,0,0,1-.882.141c-1.624,0-4.691-2.081-4.691-3.457,0-.317.175-.635.457-.635a.661.661,0,0,1,.5.282A5.692,5.692,0,0,0,113.255,43c.388,0,.777-.035,1.2-.071,4.9-.67,10.864-1.27,13.721-1.552.423-.071.635-.141.811-.176.353-.141.882-.529,1.235-.529.917.035,2.682,1.305,2.682,2.011,0,.494-.636.847-1.2.917a1.683,1.683,0,0,0-.741.388,69.663,69.663,0,0,1-8.995,7.2c-4.268,12.312-11.818,16.331-12.382,16.331a.547.547,0,0,1-.564-.492.6.6,0,0,1,.282-.46c7.619-5.185,10.654-14.885,10.654-16.578,0-1.446-1.27-1.764-2.257-1.834-.319-.035-.459-.212-.459-.423,0-.705.952-.705,1.058-.705.353,0,4.127.459,4.55,2.011a57.167,57.167,0,0,0,6.561-6.455c-3.739.317-10.617.882-14.25,2.081Z" transform="translate(38.531 14.503)" stroke="#000" stroke-width="0.1"/>
    <path id="パス_6054" data-name="パス 6054" d="M113.609,45.148a3.306,3.306,0,0,1-.882.141c-1.624,0-4.691-2.081-4.691-3.457,0-.317.175-.635.457-.635a.661.661,0,0,1,.5.282A5.692,5.692,0,0,0,113.255,43c.388,0,.777-.035,1.2-.071,4.9-.67,10.864-1.27,13.721-1.552.423-.071.635-.141.811-.176.353-.141.882-.529,1.235-.529.917.035,2.682,1.305,2.682,2.011,0,.494-.636.847-1.2.917a1.683,1.683,0,0,0-.741.388,69.663,69.663,0,0,1-8.995,7.2c-4.268,12.312-11.818,16.331-12.382,16.331a.547.547,0,0,1-.564-.492.6.6,0,0,1,.282-.46c7.619-5.185,10.654-14.885,10.654-16.578,0-1.446-1.27-1.764-2.257-1.834-.319-.035-.459-.212-.459-.423,0-.705.952-.705,1.058-.705.353,0,4.127.459,4.55,2.011a57.167,57.167,0,0,0,6.561-6.455c-3.739.317-10.617.882-14.25,2.081Z" transform="translate(38.531 14.503)" stroke="#000" stroke-miterlimit="10" stroke-width="0.1"/>
    <path id="パス_6055" data-name="パス 6055" d="M20.549,98.1c0,.106,0,1.164-.741,1.164-.564,0-1.164-.811-1.481-1.34-1.9-3.21-6.878-6.878-9.171-8.077-.317-.176-.459-.353-.459-.494,0-.212.247-.388.6-.388.529,0,3.175,1.2,6.384,3.457,4.162-3.774,8.077-8.642,8.077-8.959a.035.035,0,0,0-.035-.035c-.035-.035-.1-.035-.21-.035a2.334,2.334,0,0,0-.459.035A106.819,106.819,0,0,0,8.062,86c-.776.212-1.271.388-1.764.529a2.351,2.351,0,0,1-.741.106c-2.011,0-4.9-1.975-4.9-3.245,0-.353.21-.564.459-.564a.786.786,0,0,1,.528.282A5.062,5.062,0,0,0,5.2,84.346a13.4,13.4,0,0,0,2.224-.212c4.727-.705,11.746-1.587,15.063-1.975a5.571,5.571,0,0,0,1.092-.317c.529-.212.67-.423,1.023-.423.741,0,2.964,1.129,2.964,2.011,0,.353-.388.67-1.2.988-.247.106-.353.176-1.2.988-2.54,2.363-5.644,5.4-8.5,7.725,3.6,2.787,3.88,3.739,3.88,4.973" transform="translate(0.234 29.037)" stroke="#000" stroke-width="0.1"/>
    <path id="パス_6056" data-name="パス 6056" d="M20.549,98.1c0,.106,0,1.164-.741,1.164-.564,0-1.164-.811-1.481-1.34-1.9-3.21-6.878-6.878-9.171-8.077-.317-.176-.459-.353-.459-.494,0-.212.247-.388.6-.388.529,0,3.175,1.2,6.384,3.457,4.162-3.774,8.077-8.642,8.077-8.959a.035.035,0,0,0-.035-.035c-.035-.035-.1-.035-.21-.035a2.334,2.334,0,0,0-.459.035A106.819,106.819,0,0,0,8.062,86c-.776.212-1.271.388-1.764.529a2.351,2.351,0,0,1-.741.106c-2.011,0-4.9-1.975-4.9-3.245,0-.353.21-.564.459-.564a.786.786,0,0,1,.528.282A5.062,5.062,0,0,0,5.2,84.346a13.4,13.4,0,0,0,2.224-.212c4.727-.705,11.746-1.587,15.063-1.975a5.571,5.571,0,0,0,1.092-.317c.529-.212.67-.423,1.023-.423.741,0,2.964,1.129,2.964,2.011,0,.353-.388.67-1.2.988-.247.106-.353.176-1.2.988-2.54,2.363-5.644,5.4-8.5,7.725C20.267,95.915,20.549,96.867,20.549,98.1Z" transform="translate(0.234 29.037)" stroke="#000" stroke-miterlimit="10" stroke-width="0.1"/>
    <path id="パス_6057" data-name="パス 6057" d="M30.825,91.573A15.035,15.035,0,0,0,27.9,85.965a.83.83,0,0,1-.176-.459.428.428,0,0,1,.459-.459c.529,0,4.375,3.774,4.375,6,0,.247-.142,1.834-.954,1.834-.457,0-.67-.811-.776-1.305m10.864-7.3a.543.543,0,0,1-.281-.423c0-.106.034-.529.741-.529,1.023,0,3.7,1.411,3.7,2.681a1.321,1.321,0,0,1-.528.988,1.456,1.456,0,0,0-.319.564A31.7,31.7,0,0,1,40,96.3a24.134,24.134,0,0,1-9.735,6.95.574.574,0,0,1-.494-.247.466.466,0,0,1-.034-.212.573.573,0,0,1,.388-.529c9.8-5.116,13.157-14.322,13.157-16.368a1.461,1.461,0,0,0-.494-.988,4.23,4.23,0,0,0-1.095-.635m-8.254-.353a.733.733,0,0,1-.176-.423c0-.247.248-.388.529-.388,1.024,0,3.986,4.444,3.986,6.1,0,.882-.388,1.941-1.023,1.941a.571.571,0,0,1-.317-.107,2.458,2.458,0,0,1-.459-1.27,14.709,14.709,0,0,0-2.54-5.855" transform="translate(9.887 29.639)" stroke="#000" stroke-width="0.1"/>
    <path id="パス_6058" data-name="パス 6058" d="M30.825,91.573A15.035,15.035,0,0,0,27.9,85.965a.83.83,0,0,1-.176-.459.428.428,0,0,1,.459-.459c.529,0,4.375,3.774,4.375,6,0,.247-.142,1.834-.954,1.834C31.144,92.879,30.931,92.067,30.825,91.573Zm10.864-7.3a.543.543,0,0,1-.281-.423c0-.106.034-.529.741-.529,1.023,0,3.7,1.411,3.7,2.681a1.321,1.321,0,0,1-.528.988,1.456,1.456,0,0,0-.319.564A31.7,31.7,0,0,1,40,96.3a24.134,24.134,0,0,1-9.735,6.95.574.574,0,0,1-.494-.247.466.466,0,0,1-.034-.212.573.573,0,0,1,.388-.529c9.8-5.116,13.157-14.322,13.157-16.368a1.461,1.461,0,0,0-.494-.988A4.23,4.23,0,0,0,41.689,84.272Zm-8.254-.353a.733.733,0,0,1-.176-.423c0-.247.248-.388.529-.388,1.024,0,3.986,4.444,3.986,6.1,0,.882-.388,1.941-1.023,1.941a.571.571,0,0,1-.317-.107,2.458,2.458,0,0,1-.459-1.27A14.709,14.709,0,0,0,33.435,83.919Z" transform="translate(9.887 29.639)" stroke="#000" stroke-miterlimit="10" stroke-width="0.1"/>
    <path id="パス_6059" data-name="パス 6059" d="M70.179,83.543a.636.636,0,0,0-.247.282c-6.139,15.239-17.426,20.46-18.589,20.46-.353,0-.6-.212-.6-.423a.651.651,0,0,1,.459-.564C61.608,98.077,67.638,84.6,67.638,82.732c0-.317-.14-.459-.459-.459-1.022,0-3,.388-10.863,2.116-.847.176-1.411.5-1.906.6a2.85,2.85,0,0,1-.7.106,2.133,2.133,0,0,1-.989-.282c-1.023-.353-3.21-1.693-3.21-2.928,0-.317.106-.564.354-.564a1.091,1.091,0,0,1,.6.317,6.4,6.4,0,0,0,3.705,1.129,5.229,5.229,0,0,0,.741-.035c3.316-.459,7.653-1.27,11.358-1.728a3.208,3.208,0,0,0,.882-.388c.212-.106.529-.388.811-.388.847,0,3,1.553,3,2.222,0,.388-.459.847-.67,1.024Zm.106-4.444a3.757,3.757,0,1,1,3.774,3.774A3.726,3.726,0,0,1,70.285,79.1m3.7-2.293a2.346,2.346,0,1,0,2.363,2.328,2.349,2.349,0,0,0-2.363-2.328" transform="translate(17.657 26.876)" stroke="#000" stroke-width="0.1"/>
    <path id="パス_6060" data-name="パス 6060" d="M70.179,83.543a.636.636,0,0,0-.247.282c-6.139,15.239-17.426,20.46-18.589,20.46-.353,0-.6-.212-.6-.423a.651.651,0,0,1,.459-.564C61.608,98.077,67.638,84.6,67.638,82.732c0-.317-.14-.459-.459-.459-1.022,0-3,.388-10.863,2.116-.847.176-1.411.5-1.906.6a2.85,2.85,0,0,1-.7.106,2.133,2.133,0,0,1-.989-.282c-1.023-.353-3.21-1.693-3.21-2.928,0-.317.106-.564.354-.564a1.091,1.091,0,0,1,.6.317,6.4,6.4,0,0,0,3.705,1.129,5.229,5.229,0,0,0,.741-.035c3.316-.459,7.653-1.27,11.358-1.728a3.208,3.208,0,0,0,.882-.388c.212-.106.529-.388.811-.388.847,0,3,1.553,3,2.222,0,.388-.459.847-.67,1.024Zm.106-4.444a3.757,3.757,0,1,1,3.774,3.774A3.726,3.726,0,0,1,70.285,79.1Zm3.7-2.293a2.346,2.346,0,1,0,2.363,2.328A2.349,2.349,0,0,0,73.989,76.806Z" transform="translate(17.657 26.876)" stroke="#000" stroke-miterlimit="10" stroke-width="0.1"/>
  </g>
</svg>
