<?xml version="1.0" encoding="utf-8"?>
<!-- Generator: Adobe Illustrator 28.1.0, SVG Export Plug-In . SVG Version: 6.00 Build 0)  -->
<svg version="1.1" id="レイヤー_1" xmlns="http://www.w3.org/2000/svg" xmlns:xlink="http://www.w3.org/1999/xlink" x="0px"
	 y="0px" viewBox="0 0 200 200" style="enable-background:new 0 0 200 200;" xml:space="preserve">
<style type="text/css">
	.st0{fill:#FFE000;}
	.st1{fill:#006FBA;}
</style>
<g>
	<circle class="st0" cx="100.2" cy="79.9" r="63.6"/>
	<path class="st1" d="M100.2,140.3c33.1,0,59.9-27.4,59.9-60.5c0-33-26.8-60.3-59.9-60.3S40.4,46.8,40.4,79.9
		C40.4,112.9,67.1,140.3,100.2,140.3z"/>
	<polygon class="st0" points="66.7,92.1 65.3,101.7 68.5,108.3 70.7,100.8 67.6,92 	"/>
	<polygon class="st0" points="70,109.8 78.2,105.1 83.5,105.9 83.7,107.2 79.8,110 	"/>
	<polygon class="st0" points="69.5,112 73.6,120.8 79.6,124.2 77.4,117.5 	"/>
	<polygon class="st0" points="60.1,125.5 61.5,118.6 68.8,111.4 66.2,120.8 	"/>
	<polygon class="st0" points="68.4,110 58.9,106.9 52.7,109 58.9,112.1 	"/>
	<path class="st0" d="M100.2,70.3L100.2,70.3V18.2l-1.8,0.3l-0.3,1L77,66.5H41.4l-0.6,0.4l15.3,12.7L41.1,91.7l0.1,0.5h35.5
		l22.6,50.1h0.9v-53l0,0c5.3,0,9.5-4.3,9.5-9.5C109.7,74.6,105.6,70.3,100.2,70.3z"/>
	<polygon class="st0" points="56.1,38.7 61.3,46.6 54.9,56.4 65,52.2 70.9,61.2 71,49.8 81.4,45.3 70.9,41.3 70.6,32.5 65.8,39.5 
		57.9,36.4 	"/>
	<path class="st0" d="M141.7,106.1c0-9.2-7.1-16.6-16.4-16.6s-16.6,7.4-16.6,16.6c0,8.1,5.7,14.8,13.4,16.4v14.3h7v-14.4
		C136.3,120.7,141.7,114,141.7,106.1z"/>
	<path class="st0" d="M120.5,79c0-10.3-9.1-19.7-20.3-19.7v8.8c6.5,0,11.4,5.2,11.4,10.8h8.8V79z"/>
	<path class="st0" d="M100.2,40.7c21.7,0,38.7,17.5,38.7,38.3h-16.4c0-11.8-9.7-21.8-22.3-21.8C100.2,57.2,100.2,40.7,100.2,40.7z"
		/>
	<path class="st0" d="M100.2,38.6C123,38.6,141,57,141,79h17c0-31.3-25.7-57.4-57.8-57.4V38.6z"/>
	<circle class="st1" cx="141.1" cy="38.7" r="10.4"/>
	<ellipse class="st1" cx="126.7" cy="115.7" rx="3.1" ry="2.7"/>
	<ellipse class="st1" cx="123.2" cy="96" rx="3.1" ry="2.7"/>
	<ellipse class="st1" cx="117.2" cy="108.5" rx="3.4" ry="3"/>
	<ellipse class="st1" cx="127.9" cy="103.7" rx="1.9" ry="1.8"/>
	<ellipse class="st1" cx="134.9" cy="107.9" rx="2.3" ry="2.1"/>
	<polygon class="st1" points="105,69.8 118.5,56.1 117.9,63 124.4,62.7 110.7,76.4 	"/>
	<circle class="st1" cx="100.2" cy="79.9" r="4.3"/>
	<path class="st1" d="M60.4,162.7c0,6-4.9,10.9-10.9,10.9c-2.5,0-4.5-0.8-6.2-2.2V183h-4.3v-31.2h4.3v2.2c1.7-1.4,3.8-2.3,6.2-2.3
		C55.6,151.8,60.4,156.8,60.4,162.7z M49.6,168.8c3.4,0,6.1-2.7,6.1-6.1c0-3.4-2.7-6.1-6.1-6.1c-3.4,0-6.1,2.7-6.1,6.1
		S46.2,168.8,49.6,168.8z"/>
	<path class="st1" d="M140.2,162.6c0-6.1,4.9-11,11-11c6.1,0,11,4.9,11,11s-4.9,11-11,11C145.2,173.5,140.2,168.6,140.2,162.6z
		 M151.3,168.7c3.4,0,6.1-2.7,6.1-6.1s-2.7-6.1-6.1-6.1c-3.4,0-6.1,2.7-6.1,6.1C145,166,147.9,168.7,151.3,168.7z"/>
	<rect x="61.7" y="152" class="st1" width="4.4" height="21.4"/>
	<rect x="61.7" y="145.9" class="st1" width="4.4" height="4.7"/>
	<rect x="134.4" y="152" class="st1" width="4.4" height="21.4"/>
	<rect x="134.4" y="145.9" class="st1" width="4.4" height="4.7"/>
	<path class="st1" d="M83.7,165.3c-1,2.1-3.1,3.5-5.6,3.5c-3.4,0-6.1-2.7-6.1-6.1c0-3.4,2.7-6.1,6.1-6.1c2.5,0,4.5,1.4,5.5,3.5h5.2
		c-1.2-4.8-5.5-8.3-10.6-8.3c-6.1,0-10.9,4.9-10.9,10.9c0,6.1,4.9,10.9,10.9,10.9c5.2,0,9.5-3.5,10.6-8.3H83.7z"/>
	<path class="st1" d="M106.1,165.3c-1,2.1-3.1,3.5-5.6,3.5c-3.4,0-6.1-2.7-6.1-6.1c0-3.4,2.7-6.1,6.1-6.1c2.5,0,4.5,1.4,5.5,3.5h5.2
		c-1.2-4.8-5.5-8.3-10.6-8.3c-6.1,0-10.9,4.9-10.9,10.9c0,6.1,4.9,10.9,10.9,10.9c5.2,0,9.5-3.5,10.6-8.3H106.1z"/>
	<path class="st1" d="M122.4,151.6c-2.2,0-4.5,0.9-5.3,1.8v-7.7h-4.4v27.8h4.4v-12.3c0.8-2.7,2.6-4.7,5.1-4.7c4,0,5.2,3.5,5.5,5.1
		v12.1h4.5c0,0,0.1-10.1,0.1-12.2C132.3,157.5,128.5,151.6,122.4,151.6z"/>
	<path class="st1" d="M47.2,176.9h0.6l0.5,3.4h0.1l0.5-3.4h0.8l0.5,3.4h0.1l0.5-3.4h0.6l-0.8,5.2h-0.6l-0.6-3.9h-0.1l-0.6,3.9H48
		L47.2,176.9z"/>
	<path class="st1" d="M54.5,176.9v5.2h-0.8v-5.2H54.5z"/>
	<path class="st1" d="M57.1,176.9h0.8v4.7h2.9v0.5h-3.6C57.1,182.1,57.1,176.9,57.1,176.9z"/>
	<path class="st1" d="M64.8,177.3c0.5,0.4,0.8,1.2,0.8,2.1c0,1-0.3,1.7-0.8,2.1c-0.5,0.4-1,0.5-1.8,0.5h-1.2v-5.2H63
		C63.7,176.9,64.3,177,64.8,177.3z M63,181.6c0.4,0,0.8-0.1,1.2-0.4c0.4-0.3,0.5-0.8,0.5-1.7s-0.1-1.4-0.5-1.8
		c-0.3-0.3-0.6-0.4-1-0.4h-0.5v4.2H63V181.6z"/>
	<path class="st1" d="M66.1,176.9h0.8v4.7h2.9v0.5h-3.6C66.1,182.1,66.1,176.9,66.1,176.9z"/>
	<path class="st1" d="M73.1,176.9v5.2h-0.8v-5.2H73.1z"/>
	<path class="st1" d="M75.6,182.1v-5.2h3.6v0.5h-2.9v1.7h2.2v0.5h-2.2v2.5H75.6z"/>
	<path class="st1" d="M81.3,179h2.3v0.5h-2.3v1.9H84v0.5h-3.6v-5.2h3.4v0.5h-2.6v1.7H81.3z"/>
	<path class="st1" d="M93.2,177.3c0.3,0.3,0.5,0.5,0.5,1c0,0.4-0.1,0.6-0.5,0.9c-0.3,0.1-0.4,0.3-0.6,0.4l1.3,2.5H93l-1.2-2.3h-1
		v2.3H90v-5.2h1.8C92.3,176.9,92.8,177,93.2,177.3z M92.6,178.8c0.1-0.1,0.3-0.4,0.3-0.6c0-0.3-0.1-0.5-0.3-0.6
		c-0.3-0.1-0.5-0.3-0.9-0.3h-0.8v1.8h1C92,179.1,92.3,179.1,92.6,178.8z"/>
	<path class="st1" d="M95.6,179h2.3v0.5h-2.3v1.9h2.7v0.5h-3.6v-5.2H98v0.5h-2.6v1.7H95.6z"/>
	<path class="st1" d="M102.3,179.6c0.5,0.3,0.8,0.5,0.8,1c0,0.4-0.1,0.8-0.5,1c-0.4,0.3-0.8,0.4-1.4,0.4c-0.5,0-1-0.1-1.3-0.4
		c-0.4-0.3-0.5-0.6-0.5-1v-0.3h0.9v0.3c0,0.3,0.1,0.5,0.3,0.6c0.1,0.1,0.4,0.3,0.6,0.3c0.4,0,0.6-0.1,0.9-0.3
		c0.3-0.1,0.3-0.4,0.3-0.6c0-0.3-0.1-0.5-0.5-0.6c-0.6-0.3-1.2-0.6-1.7-0.9c-0.4-0.3-0.5-0.5-0.6-0.9c0-0.4,0.1-0.8,0.5-1
		c0.4-0.3,0.8-0.4,1.2-0.4c0.5,0,0.9,0.1,1.2,0.3c0.4,0.3,0.5,0.6,0.5,1.2H102c0-0.3,0-0.5-0.3-0.8c-0.1-0.1-0.4-0.1-0.6-0.1
		c-0.3,0-0.4,0-0.6,0.1c-0.3,0.1-0.3,0.4-0.3,0.5c0,0.3,0.1,0.4,0.5,0.6C101.4,179.1,101.8,179.4,102.3,179.6z"/>
	<path class="st1" d="M105,179h2.3v0.5H105v1.9h2.7v0.5h-3.6v-5.2h3.4v0.5h-2.6v1.7H105z"/>
	<path class="st1" d="M109.7,182.1h-0.9l1.8-5.2h0.6l1.8,5.2h-0.9l-0.5-1.6h-1.6L109.7,182.1z M111,178.2L111,178.2l-0.6,1.8h1.2
		L111,178.2z"/>
	<path class="st1" d="M117,177.3c0.3,0.3,0.5,0.5,0.5,1c0,0.4-0.1,0.6-0.5,0.9c-0.3,0.1-0.4,0.3-0.6,0.4l1.3,2.5h-0.9l-1.2-2.3h-1
		v2.3h-0.8v-5.2h1.8C116.2,176.9,116.7,177,117,177.3z M116.5,178.8c0.1-0.1,0.3-0.4,0.3-0.6c0-0.3-0.1-0.5-0.3-0.6
		c-0.3-0.1-0.5-0.3-0.9-0.3h-0.8v1.8h1C115.9,179.1,116.2,179.1,116.5,178.8z"/>
	<path class="st1" d="M121.4,181.7c-0.4,0.3-0.8,0.4-1.2,0.4c-0.4,0-0.8-0.1-1.2-0.4c-0.6-0.4-0.9-1.2-0.9-2.1c0-1,0.3-1.9,0.9-2.3
		c0.4-0.3,0.6-0.4,1.2-0.4c0.4,0,0.8,0.1,1,0.3c0.5,0.4,0.8,0.9,0.6,1.6h-0.8c0-0.5-0.1-0.9-0.4-1.2c-0.1-0.1-0.4-0.1-0.5-0.1
		c-0.3,0-0.4,0-0.5,0.1c-0.5,0.4-0.6,1-0.6,1.9c0,0.9,0.3,1.4,0.6,1.7c0.1,0.1,0.4,0.3,0.6,0.3s0.4-0.1,0.6-0.3s0.4-0.6,0.4-1.2h0.9
		C122,180.8,121.8,181.4,121.4,181.7z"/>
	<path class="st1" d="M123.1,182.1v-5.2h0.8v2.1h1.9v-2.1h0.8v5.2h-0.8v-1.3v-1.3h-1.9v2.6H123.1z"/>
	<path class="st1" d="M135.3,181.7c-0.4,0.3-0.8,0.4-1.2,0.4s-0.8-0.1-1.2-0.4c-0.6-0.4-0.9-1.2-0.9-2.1c0-1,0.3-1.9,0.9-2.3
		c0.4-0.3,0.6-0.4,1.2-0.4c0.4,0,0.8,0.1,1,0.3c0.5,0.4,0.8,0.9,0.6,1.6H135c0-0.5-0.1-0.9-0.4-1.2c-0.1-0.1-0.4-0.1-0.5-0.1
		c-0.3,0-0.4,0-0.5,0.1c-0.5,0.4-0.6,1-0.6,1.9c0,0.9,0.3,1.4,0.6,1.7c0.1,0.1,0.4,0.3,0.6,0.3c0.3,0,0.4-0.1,0.6-0.3
		c0.3-0.1,0.4-0.6,0.4-1.2h0.9C135.9,180.8,135.7,181.4,135.3,181.7z"/>
	<path class="st1" d="M137.8,179h2.3v0.5h-2.3v1.9h2.7v0.5h-3.6v-5.2h3.4v0.5h-2.6v1.7H137.8z"/>
	<path class="st1" d="M145.3,176.9v5.2h-1l-1.8-3.9l0,0v3.9h-0.8v-5.2h1l1.8,3.9l0,0v-3.9H145.3z"/>
	<path class="st1" d="M147.8,182.1v-2.3v-2.3h-1.4v-0.5h3.6v0.5h-1.4v4.7H147.8z"/>
	<path class="st1" d="M152,179h2.3v0.5H152v1.9h2.7v0.5h-3.6v-5.2h3.4v0.5h-2.6v1.7H152z"/>
	<path class="st1" d="M159.1,177.3c0.3,0.3,0.5,0.5,0.5,1c0,0.4-0.1,0.6-0.5,0.9c-0.3,0.1-0.4,0.3-0.6,0.4l1.3,2.5h-0.9l-1.2-2.3h-1
		v2.3h-0.8v-5.2h1.8C158.1,176.9,158.7,177,159.1,177.3z M158.4,178.8c0.1-0.1,0.3-0.4,0.3-0.6c0-0.3-0.1-0.5-0.3-0.6
		c-0.3-0.1-0.5-0.3-0.9-0.3h-0.8v1.8h1C158,179.1,158.1,179.1,158.4,178.8z"/>
</g>
</svg>
