<?xml version="1.0" encoding="UTF-8"?>
<svg id="_レイヤー_2" data-name="レイヤー 2" xmlns="http://www.w3.org/2000/svg" xmlns:xlink="http://www.w3.org/1999/xlink" version="1.1" viewBox="0 0 470 598.7">
  <defs>
    <style>
      .cls-1 {
        letter-spacing: 0em;
      }

      .cls-2 {
        letter-spacing: 0em;
      }

      .cls-3, .cls-4 {
        letter-spacing: 0em;
      }

      .cls-5 {
        letter-spacing: 0em;
      }

      .cls-6 {
        letter-spacing: 0em;
      }

      .cls-7 {
        letter-spacing: 0em;
      }

      .cls-8 {
        clip-path: url(#clippath);
      }

      .cls-9 {
        letter-spacing: 0em;
      }

      .cls-10 {
        letter-spacing: 0em;
      }

      .cls-11 {
        fill: none;
      }

      .cls-11, .cls-12, .cls-13, .cls-14, .cls-15, .cls-16, .cls-17 {
        stroke-width: 0px;
      }

      .cls-18 {
        letter-spacing: 0em;
      }

      .cls-19 {
        letter-spacing: 0em;
      }

      .cls-20 {
        letter-spacing: 0em;
      }

      .cls-21 {
        letter-spacing: -.1em;
      }

      .cls-22 {
        letter-spacing: 0em;
      }

      .cls-23 {
        letter-spacing: -.1em;
      }

      .cls-24 {
        letter-spacing: .1em;
      }

      .cls-24, .cls-14, .cls-25, .cls-4, .cls-26 {
        fill: #000;
      }

      .cls-24, .cls-25, .cls-4, .cls-26, .cls-27 {
        font-family: TsukuMinPr6N-L-83pv-RKSJ-H, 'FOT-TsukuMin Pr6N';
      }

      .cls-24, .cls-26 {
        font-size: 19px;
      }

      .cls-28 {
        letter-spacing: -.1em;
      }

      .cls-29 {
        letter-spacing: -.1em;
      }

      .cls-30 {
        letter-spacing: 0em;
      }

      .cls-31 {
        letter-spacing: -.2em;
      }

      .cls-32 {
        letter-spacing: 0em;
      }

      .cls-33 {
        letter-spacing: 0em;
      }

      .cls-12 {
        fill: #2e5694;
      }

      .cls-13 {
        fill: #e8e8d8;
      }

      .cls-15 {
        fill: #f15a24;
      }

      .cls-34 {
        letter-spacing: -.1em;
      }

      .cls-35 {
        letter-spacing: 0em;
      }

      .cls-36 {
        letter-spacing: .1em;
      }

      .cls-37 {
        letter-spacing: -.1em;
      }

      .cls-38 {
        letter-spacing: 0em;
      }

      .cls-39 {
        letter-spacing: -.1em;
      }

      .cls-25, .cls-4 {
        font-size: 18px;
      }

      .cls-40 {
        letter-spacing: 0em;
      }

      .cls-41 {
        letter-spacing: -.2em;
      }

      .cls-42 {
        letter-spacing: 0em;
      }

      .cls-43 {
        letter-spacing: 0em;
      }

      .cls-16 {
        fill: #20a7d1;
      }

      .cls-44 {
        letter-spacing: -.2em;
      }

      .cls-17 {
        fill: #fff;
      }

      .cls-45 {
        letter-spacing: 0em;
      }

      .cls-27 {
        fill: #5c5c5c;
        font-size: 12px;
        letter-spacing: 0em;
      }
    </style>
    <clipPath id="clippath">
      <rect class="cls-11" y="-1" width="470" height="598.7"/>
    </clipPath>
  </defs>
  <g id="_レイヤー_1" data-name=" レイヤー 1">
    <g id="_グループ_10517" data-name=" グループ 10517">
      <path id="_線_659" data-name=" 線 659" class="cls-13" d="M197.9,27H10.8v-2.6h187.1v2.6h0Z"/>
      <g id="_グループ_10516" data-name=" グループ 10516">
        <g class="cls-8">
          <g id="_グループ_10515" data-name=" グループ 10515">
            <path id="_パス_9861" data-name=" パス 9861" class="cls-13" d="M165.4,685.8l-5.2-7.9c42.5-28.2,71.2-70.2,71.5-70.7.3-.4,32.8-51.6,43.8-118.9,9.8-60-12.9-133.9-23.2-163-9.1-25.7-12-33.7-18.9-45.2-1.4-2.2-2.9-4.4-4.5-6.5-5.6-7.4-10.9-14.3-15.1-42.8-5.2-35.1-25.3-260.8-26.1-270.4l9.4-.8c.2,2.3,20.9,235.1,26.1,270,3.8,26.1,8.2,31.8,13.2,38.5,1.8,2.3,3.5,4.8,5.1,7.4,7.3,12.3,10.5,21,19.6,46.9,10.5,29.7,33.8,105.5,23.6,167.7-11.3,69.3-43.8,120.4-45.2,122.6-1.2,1.7-30,43.9-74.1,73.1h0Z"/>
            <path id="_パス_9862" data-name=" パス 9862" class="cls-13" d="M187.4,375l-1.7-2c4.1-3.5,8.7-6.5,13.6-8.8,4.4-2.1,8.9-4,13.5-5.5,6.1-2.1,8-4.7,9-6.5,1.4-2.7,1.5-5.9,1.8-9.6.1-3.3.5-6.6,1.2-9.8.8-3.3,3-6.1,6.1-7.5,3-1.5,6.3-2.4,9.6-2.7,4.2-.4,8.5-.4,12.7.1l-.4,2.6c-4-.5-8.1-.5-12.1-.1-3,.2-5.9,1.1-8.6,2.4-2.4,1.1-4.1,3.2-4.7,5.8-.6,3.1-1,6.2-1.1,9.4-.4,7.8-.8,14.5-12.5,18.5-4.5,1.5-8.9,3.3-13.2,5.4-4.9,2.1-9.3,5-13.2,8.3h0Z"/>
            <path id="_パス_9863" data-name=" パス 9863" class="cls-13" d="M254.6,565.6c-9.5-3.9-18.7-8.5-27.6-13.8-8.8-5.1-17.3-10.9-25.4-17.1-9.2-7.1-17.6-15.1-25.1-23.9-4.6-5.4-8.4-11.4-11-18l2.5-1c2.6,6.3,6.2,12.1,10.6,17.2,7.4,8.7,15.7,16.6,24.7,23.5,8,6.2,16.3,11.9,25.1,16.9,8.8,5.2,17.9,9.7,27.3,13.6l-1.1,2.6Z"/>
            <path id="_パス_9864" data-name=" パス 9864" class="cls-13" d="M59.5,301.2c-14.6,0-33.5-.4-50.4-2.1l.3-2.6c9.9,1,26.3,2.1,50.1,2.1h6.5c16.3-.1,28.2-.7,28.4-.7s9.4-.5,21.8-2c7.3-.9,14.3-2,20.7-3.2,7.2-1.3,14.3-3,21.2-5.1,7.7-2.4,22.1-6.4,46.6-11.9,14.6-3.2,26.1-5.5,26.3-5.5l.5,2.6c-.1,0-11.6,2.3-26.2,5.5-13.5,3-32.4,7.5-46.3,11.8-7.1,2.2-14.3,3.9-21.5,5.2-6.5,1.2-13.5,2.3-20.8,3.2-12.5,1.5-21.9,2-22,2.1,0,0-12.1.6-28.5.7-2.3-.1-4.5-.1-6.7-.1Z"/>
            <path id="_パス_9865" data-name=" パス 9865" class="cls-13" d="M251.5,275.9s26-19.3,40.6-25.8l-17-44.8h-48.1c0,.1,3.6,29.1,8.9,47.5,2,6.6,15.6,23.1,15.6,23.1"/>
            <path id="_パス_9866" data-name=" パス 9866" class="cls-13" d="M505.9,307.7c-13.4-4-27-7.3-40.7-9.9-13-2.5-26.2-4.4-39.4-5.4-13.9-1.2-27.9-1.1-41.7.4-7.6,1.1-15.3.5-22.6-1.7-5.2-1.7-10-4.5-14.1-8.2s-7.2-8.2-9.2-13.3c-1.1-3.2-2.9-6.1-5.4-8.4-2.1-1.9-4.5-3.4-7.1-4.4-2.8-1.1-5.9-1.8-8.9-1.9h0c-7-.4-14.1.6-20.7,3.1-6.9,2.5-13.5,5.8-19.6,9.8-9.3,6.1-18,13-26.1,20.7-2.1,1.9-2.3,2.1-2.8,2.3l-.6-2.6c-.1,0-.2.1-.3.1.2-.1,1.1-.9,1.9-1.8,8.2-7.8,17-14.8,26.5-21,15.5-9.9,29.7-14.4,41.9-13.4,3.3.1,6.6.8,9.7,2,2.9,1.1,5.6,2.8,7.9,4.9,2.8,2.6,4.9,5.9,6.2,9.5h0c.5,1.4,1.1,2.7,1.9,4,4.4,7.6,11.4,13.3,19.8,15.9,6.9,2.1,14.2,2.6,21.4,1.6,14-1.5,28.2-1.7,42.3-.4,13.3,1.1,26.6,2.9,39.7,5.5,13.8,2.6,27.5,5.9,41,10l-.9,2.6h0Z"/>
            <path id="_パス_9867" data-name=" パス 9867" class="cls-13" d="M212.8,207.7c-.2-.2-1-.7-5.2-2.4-3.1-1.2-7.3-2.8-12.2-4.6-14.8-5.5-37.3-13.9-58.3-24-10.2-4.8-20.1-10.3-29.6-16.4-4.2-2.8-8.3-5.8-12.2-9.1-3.4-2.9-6.6-6.1-9.4-9.6-13.4-17.2-25.8-35.3-36.9-54-4.2-6.8-7.7-12.7-11.5-18C26.5,53.6,1.9,16.8,1.6,16.4l2.2-1.5c.2.4,24.8,37.2,36,53.2,3.8,5.4,7.4,11.3,11.6,18.1,11,18.7,23.3,36.7,36.7,53.8,4.6,5.9,11.6,11.9,20.9,18.1,9.4,6.1,19.2,11.5,29.3,16.2,20.9,10,43.2,18.4,58,23.9,5.1,1.9,9.5,3.5,12.6,4.8,4.4,1.8,5.5,2.5,6,3.1l-2.1,1.6h0Z"/>
            <path id="_パス_9876" data-name=" パス 9876" class="cls-14" d="M226.7,289.2c0,3.3-2.7,6-6,6s-6-2.7-6-6,2.7-6,6-6,6,2.7,6,6"/>
            <path id="_パス_9936" data-name=" パス 9936" class="cls-13" d="M519.1,590.8c-.6,0-1.2,0-1.8-.3-1-.2-2.6-.5-4.5-1-3.7-.8-9.2-2.1-16.2-3.9-12.5-3-30.5-7.5-53.5-13.3-42-10.5-93.5-23.6-127.6-32.2-23.8-6-41.1-10.4-42.1-10.6-.7,0-1.2-.8-1.1-1.5.1-.6.7-1.1,1.3-1.1,1.2.2,2.3.5,3.5.8,1.9.5,4.8,1.2,8.7,2.2,7.4,1.9,18.1,4.6,30.5,7.7,33.5,8.5,84.1,21.3,125.7,31.8,22.8,5.7,40.8,10.2,53.5,13.3,18.4,4.5,22.8,5.4,23.7,5.5.7,0,1.4.4,1.5,1.1,0,.5,0,1-.5,1.2s-.8.3-1.1.3Z"/>
            <path id="_線_660" data-name=" 線 660" class="cls-13" d="M300.3,489.5l-20.1-2.1.7-7,20.1,2.1-.7,7Z"/>
            <path id="_線_661" data-name=" 線 661" class="cls-13" d="M284.2,420.3l-4.6-5.3,48.8-42.9,4.6,5.3-48.8,42.9Z"/>
            <path id="_パス_9937" data-name=" パス 9937" class="cls-13" d="M299.2,481.9s-8.1,36-9.9,41.4c0-.3,48.1,12.9,48.1,12.9,0,0,18-34.6,29.5-71.7l-40.8-11.5c-7.8,10.6-16.8,20.3-26.9,28.9"/>
            <path id="_パス_9938" data-name=" パス 9938" class="cls-13" d="M295.8,404.5l-15.3-55.3s-3.8-14.5,18.3-18.5c22-4,39.2,37.9,39.2,37.9l-42.2,35.9Z"/>
            <path id="_パス_9939" data-name=" パス 9939" class="cls-13" d="M293.9,410.7l-16.8-60.6c-.9-4.3-.1-8.7,2.3-12.4,3.4-5.3,9.7-8.9,18.7-10.5,1.2-.2,2.4-.3,3.6-.3,22.7,0,38.8,38.7,39.5,40.3l1,2.3-48.3,41.2h0ZM301.8,333.8c-.8,0-1.6.1-2.4.2-6.9,1.3-11.7,3.8-14,7.3-1.4,2-1.9,4.5-1.5,7l13.8,49.9,36-30.7c-5-11.2-18-33.7-31.9-33.7h0Z"/>
            <path id="_パス_9946" data-name=" パス 9946" class="cls-14" d="M268.8,291.7c0,3.3-2.7,6-6,6s-6-2.7-6-6,2.7-6,6-6,6,2.7,6,6"/>
            <path id="_パス_9984" data-name=" パス 9984" class="cls-17" d="M308.4,352.9c0,6.2-5,11.3-11.3,11.3s-11.3-5-11.3-11.3,5-11.3,11.3-11.3,11.3,5.1,11.3,11.3"/>
            <path id="_パス_9985" data-name=" パス 9985" class="cls-12" d="M299.4,348.5c-.7-.4-1.5-.6-2.3-.5h-1.1v4.9h1.3c.8.1,1.5-.1,2.1-.5.6-.5.9-1.2.9-2,.1-.8-.3-1.5-.9-1.9"/>
            <path id="_パス_9986" data-name=" パス 9986" class="cls-12" d="M297,340.6c-6.8,0-12.4,5.5-12.4,12.3s5.5,12.4,12.3,12.4,12.4-5.5,12.4-12.3h0c0-6.9-5.5-12.4-12.3-12.4h0ZM301.7,353.5c-1,.9-2.3,1.3-3.6,1.3h-1.8v5.2h-2.7v-14.1h4.1c1.3-.1,2.7.2,3.7,1.1,1.8,1.7,2,4.6.3,6.5"/>
            <path id="_パス_9987" data-name=" パス 9987" class="cls-12" d="M322.8,350.7c0-1.2-.5-1.8-1.5-1.8s-1,.2-1.3.6c-.3.6-.5,1.2-.4,1.9h-3.6c0-1.6.6-3.1,1.7-4.2,1.1-1,2.5-1.5,4-1.4,1.4-.1,2.7.4,3.8,1.3.9.9,1.3,2.1,1.3,3.3s-.7,3.2-1.7,4.4c-1.2,1.4-2.6,2.7-4.1,3.6h6.1v3h-11v-2.8c4.4-3.4,6.7-6,6.7-7.9"/>
            <path id="_パス_9988" data-name=" パス 9988" class="cls-17" d="M332.6,485c0,6.2-5,11.3-11.3,11.3s-11.3-5-11.3-11.3,5-11.3,11.3-11.3h0c6.2,0,11.3,5.1,11.3,11.3"/>
            <path id="_パス_9989" data-name=" パス 9989" class="cls-12" d="M323.7,480.6c-.7-.4-1.5-.6-2.3-.5h-1.1v4.9h1.3c.8.1,1.5-.1,2.1-.5.6-.5.9-1.2.9-2s-.3-1.5-.9-1.9"/>
            <path id="_パス_9990" data-name=" パス 9990" class="cls-12" d="M321.3,472.7c-6.8,0-12.4,5.5-12.4,12.3s5.5,12.4,12.3,12.4,12.4-5.5,12.4-12.3h0c0-6.9-5.5-12.4-12.3-12.4h0ZM326,485.6c-1,.9-2.3,1.3-3.6,1.3h-1.8v5.2h-2.7v-14.1h4.1c1.3-.1,2.7.2,3.7,1.1,1.8,1.7,1.9,4.6.3,6.5"/>
            <path id="_パス_9991" data-name=" パス 9991" class="cls-12" d="M348.7,478c1.5.7,2.4,2.1,2.4,3.7s-.2,1.7-.8,2.4c-.5.6-1.2,1-1.9,1.2h0c2,.7,3,2,3,3.8s-.2,1.6-.6,2.4c-.4.7-1,1.3-1.8,1.6-.9.4-1.8.6-2.8.6-1.5.1-3-.4-4.2-1.3-1.1-1-1.7-2.5-1.7-4h3.6c0,.6.2,1.2.6,1.6s1,.6,1.5.6c.9.1,1.7-.6,1.7-1.5v-.2c0-1.3-.9-1.9-2.7-1.9h-.7v-3h.7c1.6,0,2.5-.6,2.5-1.8s-.1-.9-.4-1.2c-.7-.6-1.7-.6-2.4.1-.3.4-.5.9-.5,1.4h-3.6c0-1.4.5-2.8,1.5-3.8,1.1-.9,2.5-1.4,4-1.3.8,0,1.7.2,2.6.6"/>
            <path id="_線_662" data-name=" 線 662" class="cls-13" d="M286.3,260.1l-3-6.5,2.4-1.1,3,6.5-2.4,1.1Z"/>
            <path id="_パス_9992" data-name=" パス 9992" class="cls-17" d="M261.9,240.3c0,6.2-5,11.3-11.3,11.3s-11.3-5-11.3-11.3,5-11.3,11.3-11.3h0c6.3.1,11.3,5.1,11.3,11.3"/>
            <path id="_パス_9993" data-name=" パス 9993" class="cls-12" d="M253,235.9c-.7-.4-1.5-.6-2.3-.5h-1.1v4.9h1.3c.8.1,1.5-.1,2.1-.5.6-.5.9-1.2.9-2s-.3-1.4-.9-1.9"/>
            <path id="_パス_9994" data-name=" パス 9994" class="cls-12" d="M250.6,228c-6.8,0-12.4,5.5-12.4,12.3s5.5,12.4,12.3,12.4,12.4-5.5,12.4-12.3h0c0-6.8-5.5-12.4-12.3-12.4h0ZM255.3,241c-1,.9-2.3,1.3-3.6,1.3h-1.8v5.2h-2.7v-14.1h4.1c1.3-.1,2.7.2,3.7,1.1,1.8,1.7,1.9,4.6.3,6.5"/>
            <path id="_パス_9995" data-name=" パス 9995" class="cls-12" d="M268.9,237v-3.5h6.2v15.5h-3.9v-12h-2.3Z"/>
            <rect id="_長方形_24613" data-name=" 長方形 24613" class="cls-14" x="206.3" y="196.8" width="19.8" height="12.1"/>
            <path id="_パス_9996" data-name=" パス 9996" class="cls-14" d="M212.4,202.8c0,3.3-2.7,6-6.1,6s-6-2.7-6-6.1,2.7-6,6-6c3.4.1,6.1,2.8,6.1,6.1h0"/>
            <path id="_パス_9997" data-name=" パス 9997" class="cls-17" d="M209.9,202.8c0,2-1.6,3.6-3.6,3.6s-3.6-1.6-3.6-3.6,1.6-3.6,3.6-3.6,3.6,1.6,3.6,3.6h0"/>
            <path id="_パス_9998" data-name=" パス 9998" class="cls-14" d="M222.1,202.8c0,3.3-2.7,6-6.1,6s-6-2.7-6-6.1,2.7-6,6-6c3.4.1,6.1,2.8,6.1,6.1h0"/>
            <path id="_パス_9999" data-name=" パス 9999" class="cls-17" d="M219.6,202.8c0,2-1.6,3.6-3.6,3.6s-3.6-1.6-3.6-3.6,1.6-3.6,3.6-3.6,3.6,1.6,3.6,3.6h0"/>
            <path id="_パス_10000" data-name=" パス 10000" class="cls-14" d="M231.8,202.8c0,3.3-2.7,6-6.1,6s-6-2.7-6-6.1,2.7-6,6-6c3.4.1,6.1,2.8,6.1,6.1h0"/>
            <path id="_パス_10001" data-name=" パス 10001" class="cls-17" d="M229.3,202.8c0,2-1.6,3.6-3.6,3.6s-3.6-1.6-3.6-3.6,1.6-3.6,3.6-3.6,3.6,1.6,3.6,3.6h0"/>
            <path id="_線_663" data-name=" 線 663" class="cls-14" d="M221.3,198.6l-.9-.4,12.4-31.7.9.4-12.4,31.7Z"/>
            <path id="_線_664" data-name=" 線 664" class="cls-15" d="M285.5,415l-.6-.8,12.2-10.1.6.8-12.2,10.1Z"/>
            <path id="_パス_10036" data-name=" パス 10036" class="cls-15" d="M298.4,406.8l1.7-4.5-4.8.8,3.1,3.7h0Z"/>
            <path id="_線_665" data-name=" 線 665" class="cls-15" d="M300.8,486.4l-14.1-1.7v-1c.1,0,14.2,1.7,14.2,1.7v1h-.1Z"/>
            <path id="_パス_10037" data-name=" パス 10037" class="cls-15" d="M299.8,488.2l4.5-1.9-3.9-2.9-.6,4.8Z"/>
            <path id="_パス_10038" data-name=" パス 10038" class="cls-15" d="M249.2,288.3l-.2-.4-.3-.4c.2-.1,7.3-6.3,8-7,6.7-5.8,13.9-11.1,21.5-15.8,4.5-2.8,7.8-4.4,8.9-5l-3.3-7.3.9-.4,3.6,8.2-.4.2s-3.7,1.7-9.3,5.2c-7.5,4.6-14.7,9.9-21.3,15.7l-4.2,3.7c-2.6,2.1-3.9,3.2-3.9,3.3h0Z"/>
            <path id="_パス_10039" data-name=" パス 10039" class="cls-15" d="M282.3,253.8l.5-4.8,3.9,2.8-4.4,2Z"/>
            <path id="_パス_10040" data-name=" パス 10040" class="cls-16" d="M286.8,373c7.2,0,13,5.8,13,13s-5.8,13-13,13-13-5.8-13-13h0c0-7.2,5.8-13,13-13"/>
            <path id="_パス_10041" data-name=" パス 10041" class="cls-17" d="M292.6,384.7c-1.7,0-3.1,1.2-3.3,2.9h-1.4l1.9-4.8h-6.1l.9-2.3c.2-.3.5-.6.9-.6h1.4v-1h-1.4c-.8,0-1.4.5-1.7,1.2l-1.8,4.6c-1.8-.4-3.6.7-4,2.5s.7,3.6,2.5,4,3.6-.7,4-2.5c.3-1.4-.3-2.9-1.6-3.7l.5-1.4h5l-1.9,4.8h2.8c.3,1.8,2,3.1,3.8,2.8,1.8-.3,3.1-2,2.8-3.8-.2-1.5-1.6-2.7-3.3-2.7M283.5,388c0,1.3-1.1,2.4-2.4,2.4s-2.4-1.1-2.4-2.4,1.1-2.4,2.4-2.4h.4l-.8,2.2.9.3.8-2.2c.7.5,1.1,1.3,1.1,2.1M292.6,390.4c-1.1,0-2.1-.8-2.3-1.9h2.3v-1h-2.3c.3-1.3,1.5-2.1,2.8-1.9,1.3.3,2.1,1.5,1.9,2.8-.3,1.2-1.3,2-2.4,2h0Z"/>
            <rect id="_長方形_24614" data-name=" 長方形 24614" class="cls-17" x="288.3" y="380.8" width="3.3" height="1"/>
            <path id="_パス_10042" data-name=" パス 10042" class="cls-16" d="M290.4,494.1c7.2,0,13,5.8,13,13s-5.8,13-13,13-13-5.8-13-13,5.8-13,13-13h0"/>
            <path id="_パス_10043" data-name=" パス 10043" class="cls-17" d="M296.2,505.8c-1.7,0-3.1,1.2-3.3,2.9h-1.4l1.9-4.8h-6.1l.9-2.3c.2-.3.5-.6.9-.6h1.4v-1h-1.4c-.8,0-1.4.5-1.7,1.2l-1.8,4.6c-1.8-.4-3.6.7-4,2.5s.7,3.6,2.5,4,3.6-.7,4-2.5c.3-1.4-.3-2.9-1.6-3.7l.5-1.4h5l-1.9,4.8h2.8c.3,1.8,2,3.1,3.8,2.8s3.1-2,2.8-3.8c-.2-1.5-1.7-2.7-3.3-2.7M287.1,509.1c0,1.3-1.1,2.4-2.4,2.4s-2.4-1.1-2.4-2.4,1.1-2.4,2.4-2.4h.4l-.8,2.2.9.3.8-2.2c.7.5,1.1,1.3,1.1,2.1M296.2,511.5c-1.1,0-2.1-.8-2.3-1.9h2.3v-1h-2.3c.3-1.3,1.5-2.1,2.8-1.9,1.3.3,2.1,1.5,1.9,2.8-.3,1.2-1.3,2-2.4,2h0Z"/>
            <rect id="_長方形_24615" data-name=" 長方形 24615" class="cls-17" x="291.9" y="501.9" width="3.3" height="1"/>
            <path id="_パス_10044" data-name=" パス 10044" class="cls-16" d="M282.9,196.8c7.2,0,13,5.8,13,13s-5.8,13-13,13-13-5.8-13-13,5.8-13,13-13h0"/>
            <path id="_パス_10045" data-name=" パス 10045" class="cls-17" d="M288.7,208.5c-1.7,0-3.1,1.2-3.3,2.9h-1.4l1.9-4.8h-6.1l.9-2.3c.2-.3.5-.6.9-.6h1.4v-1h-1.4c-.8,0-1.4.5-1.7,1.2l-1.8,4.6c-1.8-.4-3.6.7-4,2.5s.7,3.6,2.5,4,3.6-.7,4-2.5c.3-1.4-.3-2.9-1.6-3.7l.5-1.4h5l-1.9,4.8h2.8c.3,1.8,2,3.1,3.8,2.8s3.1-2,2.8-3.8c-.2-1.5-1.7-2.7-3.3-2.7M279.6,211.8c0,1.3-1.1,2.4-2.4,2.4s-2.4-1.1-2.4-2.4,1.1-2.4,2.4-2.4h.4l-.8,2.2.9.3.8-2.2c.7.6,1.1,1.3,1.1,2.1M288.7,214.2c-1.1,0-2.1-.8-2.3-1.9h2.3v-1h-2.3c.3-1.3,1.5-2.1,2.8-1.9,1.3.3,2.1,1.5,1.9,2.8-.3,1.2-1.3,2-2.4,2h0Z"/>
            <rect id="_長方形_24616" data-name=" 長方形 24616" class="cls-17" x="284.4" y="204.7" width="3.3" height="1"/>
            <path id="_パス_10046" data-name=" パス 10046" class="cls-16" d="M276.9,301.5c7.2,0,13,5.8,13,13s-5.8,13-13,13-13-5.8-13-13,5.9-13,13-13"/>
            <path id="_パス_10047" data-name=" パス 10047" class="cls-17" d="M282.7,313.2c-1.7,0-3.1,1.2-3.3,2.9h-1.4l1.9-4.8h-6.1l.9-2.3c.2-.3.5-.6.9-.6h1.4v-1h-1.4c-.8,0-1.4.5-1.7,1.2l-1.8,4.6c-1.8-.4-3.6.7-4,2.5s.7,3.6,2.5,4,3.6-.7,4-2.5c.3-1.4-.3-2.9-1.6-3.7l.5-1.4h5l-1.9,4.8h2.8c.3,1.8,2,3.1,3.8,2.8s3.1-2,2.8-3.8c-.2-1.5-1.6-2.7-3.3-2.7M273.7,316.5c0,1.3-1.1,2.4-2.4,2.4s-2.4-1.1-2.4-2.4,1.1-2.4,2.4-2.4h.4l-.8,2.2.9.3.8-2.2c.6.5,1.1,1.3,1.1,2.1M282.7,318.9c-1.1,0-2.1-.8-2.3-1.9h2.3v-1h-2.3c.3-1.3,1.5-2.1,2.8-1.9,1.3.3,2.1,1.5,1.9,2.8-.2,1.2-1.2,2-2.4,2h0Z"/>
            <rect id="_長方形_24617" data-name=" 長方形 24617" class="cls-17" x="278.4" y="309.3" width="3.3" height="1"/>
            <path id="_パス_10048" data-name=" パス 10048" class="cls-16" d="M240.2,521.7c7.2,0,13,5.8,13,13s-5.8,13-13,13-13-5.8-13-13,5.8-13,13-13h0"/>
            <path id="_パス_10049" data-name=" パス 10049" class="cls-17" d="M246,533.4c-1.7,0-3.1,1.2-3.3,2.9h-1.4l1.9-4.8h-6.1l.9-2.3c.2-.3.5-.6.9-.6h1.4v-1h-1.4c-.8,0-1.4.5-1.7,1.2l-1.8,4.6c-1.8-.4-3.6.7-4,2.5s.7,3.6,2.5,4,3.6-.7,4-2.5c.3-1.4-.3-2.9-1.6-3.7l.5-1.4h5l-1.9,4.8h2.8c.3,1.8,2,3.1,3.8,2.8s3.1-2,2.8-3.8c-.2-1.5-1.7-2.7-3.3-2.7M236.9,536.7c0,1.3-1.1,2.4-2.4,2.4s-2.4-1.1-2.4-2.4,1.1-2.4,2.4-2.4h.4l-.8,2.2.9.3.8-2.2c.7.5,1.1,1.3,1.1,2.1M246,539.1c-1.1,0-2.1-.8-2.3-1.9h2.3v-1h-2.3c.3-1.3,1.5-2.1,2.8-1.9s2.1,1.5,1.9,2.8c-.3,1.2-1.3,2-2.4,2h0Z"/>
            <rect id="_長方形_24618" data-name=" 長方形 24618" class="cls-17" x="241.7" y="529.5" width="3.3" height="1"/>
          </g>
        </g>
      </g>
    </g>
  </g>
  <g id="_レイヤー_2-2" data-name=" レイヤー 2">
    <path id="_パス_12270" data-name=" パス 12270" class="cls-14" d="M241.1,403.9c0,3.3-2.7,6.1-6.1,6.1s-6.1-2.7-6.1-6.1,2.7-6.1,6.1-6.1h0c3.3,0,6.1,2.7,6.1,6.1h0"/>
    <path id="_パス_12299" data-name=" パス 12299" class="cls-14" d="M210.9,445.5c0,3.3-2.7,6.1-6.1,6.1s-6.1-2.7-6.1-6.1,2.7-6.1,6.1-6.1,6.1,2.7,6.1,6.1h0"/>
    <path id="_パス_12314" data-name=" パス 12314" class="cls-14" d="M334.2,398.8c0,3.3-2.7,6.1-6.1,6.1s-6.1-2.7-6.1-6.1,2.7-6.1,6.1-6.1,6.1,2.7,6.1,6.1h0"/>
    <path id="_パス_12333" data-name=" パス 12333" class="cls-14" d="M306,234.9c0,3.3-2.7,6.1-6.1,6.1s-6.1-2.7-6.1-6.1,2.7-6.1,6.1-6.1,6.1,2.7,6.1,6.1h0"/>
    <path id="_パス_12342" data-name=" パス 12342" class="cls-14" d="M419.1,312.4c0,3.3-2.7,6.1-6.1,6.1s-6.1-2.7-6.1-6.1,2.7-6.1,6.1-6.1,6.1,2.7,6.1,6.1h0"/>
    <path id="_パス_12452" data-name=" パス 12452" class="cls-14" d="M333,176.7c0,3.3-2.7,6.1-6.1,6.1s-6.1-2.7-6.1-6.1,2.7-6.1,6.1-6.1,6.1,2.7,6.1,6.1h0"/>
  </g>
  <text class="cls-24" transform="translate(270.9 593.9)"><tspan x="0" y="0">至 中軽井沢駅</tspan></text>
  <text class="cls-24" transform="translate(218.7 19.5)"><tspan x="0" y="0">至 北軽井沢 草津</tspan></text>
  <text class="cls-26" transform="translate(226.6 160.1)"><tspan class="cls-10" x="0" y="0">千</tspan><tspan class="cls-39" x="17.5" y="0">ヶ</tspan><tspan class="cls-2" x="34.6" y="0">滝南</tspan></text>
  <text class="cls-26" transform="translate(275.5 297.2)"><tspan class="cls-30" x="0" y="0">バ</tspan><tspan class="cls-43" x="19.8" y="0">ス</tspan><tspan class="cls-36" x="39.1" y="0">停</tspan></text>
  <text class="cls-27" transform="translate(343.6 200.2)"><tspan x="0" y="0">Tombo no Yu</tspan></text>
  <text class="cls-25" transform="translate(341.3 160.8)"><tspan class="cls-3"><tspan x="0" y="0">星野温泉</tspan></tspan><tspan class="cls-31" x="-3.6" y="22">ト</tspan><tspan class="cls-18" x="10.8" y="22">ン</tspan><tspan x="28.4" y="22">ボ</tspan><tspan class="cls-35" x="46.4" y="22">の</tspan><tspan class="cls-3" x="65" y="22">湯</tspan></text>
  <text class="cls-4" transform="translate(314.8 242.3)"><tspan x="0" y="0">村民食堂</tspan></text>
  <text class="cls-27" transform="translate(314.8 257.6)"><tspan x="0" y="0">Sonmin-Shokudo</tspan></text>
  <text class="cls-25" transform="translate(382.4 338)"><tspan class="cls-21" x="0" y="0">ピ</tspan><tspan class="cls-23" x="15.7" y="0">ッ</tspan><tspan class="cls-20" x="31.1" y="0">キ</tspan><tspan class="cls-22" x="47.7" y="0">オ</tspan></text>
  <text class="cls-27" transform="translate(385.4 354.4)"><tspan x="0" y="0">Picchio</tspan></text>
  <text class="cls-27" transform="translate(342.7 421.2)"><tspan x="0" y="0">Harunire Terrace</tspan></text>
  <text class="cls-25" transform="translate(341.8 404.5)"><tspan class="cls-5" x="0" y="0">ハ</tspan><tspan class="cls-19" x="17.3" y="0">ル</tspan><tspan class="cls-40" x="34.9" y="0">ニ</tspan><tspan class="cls-37" x="51.3" y="0">レ</tspan><tspan class="cls-29" x="67.5" y="0">テ</tspan><tspan class="cls-34" x="83.3" y="0">ラ</tspan><tspan class="cls-38" x="99.4" y="0">ス</tspan></text>
  <text class="cls-4" transform="translate(90.3 398.7)"><tspan x="0" y="0">軽井沢高原教会</tspan></text>
  <text class="cls-27" transform="translate(84.5 416.6)"><tspan x="0" y="0">Karuizawa Kogen Church</tspan></text>
  <text class="cls-25" transform="translate(81.7 453)"><tspan class="cls-3" x="0" y="0">軽井</tspan><tspan class="cls-33" x="37.8" y="0">沢</tspan><tspan class="cls-45" x="56" y="0">ホテ</tspan><tspan class="cls-32" x="89.5" y="0">ル</tspan><tspan class="cls-42" x="-18" y="22">ブ</tspan><tspan class="cls-7" x="-.9" y="22">レ</tspan><tspan class="cls-44" x="15.7" y="22">ス</tspan><tspan class="cls-31" x="29.2" y="22">ト</tspan><tspan class="cls-42" x="43.6" y="22">ン</tspan><tspan class="cls-45" x="60.7" y="22">コ</tspan><tspan class="cls-41" x="77.4" y="22">ー</tspan><tspan class="cls-28" x="92" y="22">ト</tspan></text>
  <text class="cls-27" transform="translate(98.6 492.6)"><tspan x="0" y="0">Karuizawa Hotel</tspan><tspan x="15.3" y="14">Bleston Court</tspan></text>
  <text class="cls-26" transform="translate(136.5 297.4)"><tspan class="cls-1" x="0" y="0">エ</tspan><tspan class="cls-6" x="20" y="0">ネ</tspan><tspan class="cls-9" x="38.2" y="0">オ</tspan><tspan class="cls-32" x="56.8" y="0">ス</tspan></text>
</svg>