<svg id="グループ_8898" data-name="グループ 8898" xmlns="http://www.w3.org/2000/svg" xmlns:xlink="http://www.w3.org/1999/xlink" width="371.579" height="164.92" viewBox="0 0 371.579 164.92">
  <defs>
    <clipPath id="clip-path">
      <rect id="長方形_23871" data-name="長方形 23871" width="371.579" height="164.92" fill="none"/>
    </clipPath>
  </defs>
  <g id="グループ_8898-2" data-name="グループ 8898" clip-path="url(#clip-path)">
    <path id="パス_6068" data-name="パス 6068" d="M449.865,143.091a9.855,9.855,0,0,0-2.154,1.229,34.2,34.2,0,0,1-10.967,5.692,116.728,116.728,0,0,1-17.675,4.525,69.129,69.129,0,0,1-25.607.253c-4.99-.965-9.979-1.948-14.975-2.893-2.8-.53-5.712-.814-8.281-2.153-4.746-2.473-9.686-4.706-13.891-8.023-6.474-5.109-13.871-9.318-18.1-16.8a57.241,57.241,0,0,0-5.447-7.275,23.5,23.5,0,0,1-3.667-6.154c-4.008-10.4-6.987-21-6.071-31.716a92.732,92.732,0,0,1,5.015-33.507c5.935-17.2,16.828-29.454,35-34.177,2.663-.693,5.5-.689,8.21-1.235,6.869-1.385,13.663-.929,20.513.249,7.507,1.291,14.192,4.546,20.906,7.884,11.44,5.688,19.96,14.4,26.747,25.021,5.776,9.034,7.5,19.145,7.927,29.576.376,9.176-.216,18.248-3.925,26.842-2.275,5.271-4.945,10.316-9.756,13.752-8.7,6.211-18.625,8.951-29.114,10.269-9.207,1.156-17.266-2.371-25.279-5.83-6.558-2.83-11.731-7.828-16.23-13.2-8.3-9.909-9.939-21.273-5.821-33.461,1.089-3.226,2.379-6.385,3.6-9.565a20.505,20.505,0,0,1,11.805-11.7A29.389,29.389,0,0,1,392.159,49.6c5.389,1.606,10.658,3.289,14.111,8.118a39.175,39.175,0,0,1,6.16,13.23,25.555,25.555,0,0,1-.058,12.354c-1.472,5.844-6.1,9.222-11.368,11.284-8.626,3.379-13.628-.062-14.14-9.289-.292-5.267.12-10.292,5.893-12.771,2.019-.867,3.266-2.259,2.91-4.46s-2.111-3.167-4.152-3.506c-3.182-.528-5.736.848-8.108,2.793-9.472,7.764-7.246,23.407-2.632,30.34,4.971,7.469,17.678,10.151,25.842,6.481a22.805,22.805,0,0,0,11.79-11.994c5.456-13.012,5.619-26.013-3.4-37.921-5.818-7.685-13.1-13-22.856-14.981a37.228,37.228,0,0,0-14.006-.12c-10.1,1.654-17.417,6.8-22.9,14.871-7.7,11.339-9.9,24.051-7.233,37.3,3.737,18.555,15.528,30.466,32.916,37.147,2.756,1.059,5.534,2.039,8.25,3.218,4.229,1.836,8.419,3.1,13.347,2.638,7.038-.656,13.867-2.2,20.732-3.572,4.934-.983,9.705-2.73,13.21-6.84a36.472,36.472,0,0,1,6.184-5.941c4.23-3.063,6.743-7.223,8.767-11.851,6.549-14.978,7.217-30.854,3.682-46.188-4.48-19.432-14.014-36.236-32.356-46.885a118.663,118.663,0,0,0-21.83-10C396.505,1.566,392.063.164,387.194.027a75.142,75.142,0,0,0-20.268,2.329c-10.889,2.686-21.19,6.47-29.332,14.684-9.538,9.623-17.993,20.032-21.113,33.5-3.639,15.714-4.495,31.69-.426,47.459,4.982,19.311,14.736,35.774,31.3,47.523,7.875,5.586,15.581,11.529,25.327,13.922,14.471,3.554,28.791,7.46,43.984,4.328,9.323-1.922,18.8-3.1,27.392-7.562,3.98-2.066,7.657-4.511,9.891-8.586.656-1.2.98-2.457-.083-3.593a3.243,3.243,0,0,0-4-.943" transform="translate(-139.052 0)" fill="#fff"/>
    <path id="パス_6069" data-name="パス 6069" d="M53.936,190.837q18.442-.028,36.885-.052c1.356,0,2.859-.172,2.911-1.835.053-1.714-1.479-1.884-2.817-1.922-4.615-.13-9.231-.254-13.848-.339-8.919-.164-17.837-.329-26.757-.433-3.417-.04-6.836.073-10.253.146a2.244,2.244,0,0,0-2.231,1.358,1.333,1.333,0,0,0,.761,1.848c3.031,1.032,2.41,3.126,1.823,5.38a38.367,38.367,0,0,1-2.366,6.77A50.815,50.815,0,0,0,36,207.182a1.968,1.968,0,0,0,.674,2.47,2.327,2.327,0,0,0,2.841-.246,9.058,9.058,0,0,0,2.841-3.7,3.389,3.389,0,0,1,3.47-2.214c2.674.075,5.349-.164,8.013-.211,10.3-.183,20.613-.088,30.919-.111,3.177-.007,3.746.424,3.687,3.578-.135,7.464-.046,14.93-.57,22.391-.184,2.62-1.293,3.63-3.705,3.742a5.494,5.494,0,0,0-1.9.355,2.127,2.127,0,0,0-.393,3.784c4.237,3.049,11.023.3,11.225-4.814.38-9.589.416-19.2-.091-28.785-.175-3.293-1.01-4.009-4.343-4.052-6.654-.086-13.311-.026-19.966-.026q0-.347,0-.7c-6.743,0-13.489-.053-20.232.028-2.557.031-2.756-1.224-2.124-3.164,1.069-3.284,3.321-4.671,7.589-4.678" transform="translate(-15.9 -82.648)" fill="#fff"/>
    <path id="パス_6070" data-name="パス 6070" d="M71.176,122.659v-.008c-5.631,0-11.265-.114-16.892.037-4.4.117-5.274,1.053-5.458,5.507a160.1,160.1,0,0,0,.08,17.68c.289,4.18,1.226,5.281,5.237,5.491,11.44.6,22.888.445,34.331.059,3.577-.121,4.782-1.332,4.848-5q.168-9.257-.063-18.521c-.1-4.026-1.187-5.111-5.188-5.211-5.629-.14-11.264-.036-16.9-.036m12.745,24.433q-6.778-.013-13.558,0v-.524c-4.79,0-9.581-.023-14.372.014-1.467.011-2.842.174-2.573-2.036.238-1.951-.842-4.521,2.6-4.713,5.158-.289,10.316-.581,15.485-.383,4.884.187,9.767.461,14.653.572,1.738.039,2.368.55,2.4,2.4.083,4.67.168,4.685-4.633,4.676m5.016-18.758a10.838,10.838,0,0,1-.585,6.777c-.394.81-1.517.378-2.307.382-4.706.026-9.413.013-14.12.013v-.81c-5.354,0-10.71-.055-16.063.024-2.456.037-2.789-1.5-2.43-3.226.378-1.817.261-4.4,3.067-4.419,9.605-.072,19.212-.028,28.817.053,1.3.011,3.334-.3,3.621,1.206" transform="translate(-21.576 -54.408)" fill="#fff"/>
    <path id="パス_6071" data-name="パス 6071" d="M39.37,59.863A129.505,129.505,0,0,0,57.1,59.844c1.728-.128,3.1-.942,3.309-2.776a50.013,50.013,0,0,0-.032-12.395c-.169-1.254-.728-2.356-2.247-2.36-1.641-.005-1.9,1.24-2,2.479-.224,2.847-.418,5.7-.566,8.55-.094,1.807-.911,2.662-2.783,2.6-3.6-.113-7.206-.166-10.809-.186a1.957,1.957,0,0,1-2.228-2.181c-.084-7.37-.531-14.744.323-22.1.124-1.064.367-1.672,1.623-1.655,11.629.154,23.26-.161,34.889.252,2.722.1,3.463.862,3.331,3.753-.411,9.021-.369,18.063-.471,27.1-.015,1.33.121,2.694,1.959,2.745a2.309,2.309,0,0,0,2.632-2.507,250.291,250.291,0,0,0,0-32.342c-.18-2.427-1.223-3.589-3.813-3.549-6.651.1-13.3.034-19.956.034a164.282,164.282,0,0,0-20.229-.436c-2.217.121-3.909.9-4.166,3.2a138.589,138.589,0,0,0-.295,28.161,3.66,3.66,0,0,0,3.794,3.633" transform="translate(-15.53 -10.965)" fill="#fff"/>
    <path id="パス_6072" data-name="パス 6072" d="M221.889,213.6c-.125-1.437-1.357-1-2.163-1.032-4.063-.14-8.129-.212-12.195-.278-4.712-.076-4.712-.062-5.129-4.733-.025-.275-.035-.554-.084-.825-.177-.972-.57-1.781-1.7-1.872a2.041,2.041,0,0,0-2.387,1.433,9.657,9.657,0,0,0-.652,2.959c.082,2.726-1.285,3.255-3.752,3.3-4.424.081-8.844.552-13.26.927-1.075.091-2.473.207-2.469,1.668,0,1.638,1.461,1.61,2.66,1.743a104.422,104.422,0,0,0,14.119.328c2.272-.058,2.6.775,2.529,2.708-.132,3.589-.038,7.188-.038,10.782-.042,4.421-.442,8.859.17,13.264.143,1.026.451,2.115,1.785,2.058a2.046,2.046,0,0,0,2.025-1.925c.2-1.459.408-2.925.462-4.394.24-6.634.472-13.27.607-19.907.042-2.031.683-3.014,2.9-2.971,3.415.066,6.835-.084,10.251-.206a36.332,36.332,0,0,0,4.407-.427,2.178,2.178,0,0,0,1.92-2.6" transform="translate(-79.031 -90.899)" fill="#fff"/>
    <path id="パス_6073" data-name="パス 6073" d="M619.314,43.185c.437-.325,1.092-.557,1.277-.989,1.639-3.836,5.012-2.074,7.7-2.383,1.076-.124,1.226.84,1.214,1.752-.016,1.237-.809,1.264-1.7,1.159-1.462-.172-2.916-.439-4.383-.531-2.109-.132-3.054.55-1.564,2.618,1.931.174,3.862.342,5.792.525.824.078,1.817.063,1.757,1.252-.057,1.155-1.037,1.094-1.866,1.136-2.859.147-5.72.268-8.577.451-.6.038-1.55-.055-1.593.741-.056,1.027.982.913,1.652.957a176.192,176.192,0,0,0,24.09.025c.688-.05,1.766.082,1.774-.873.008-1-1.094-.8-1.757-.834-3.136-.164-6.276-.264-9.416-.367-.922-.03-1.661-.2-1.623-1.36.034-1.019.748-1.136,1.519-1.207,1.656-.153,3.313-.3,4.968-.463.565-.056,1.286-.2,1.33-.78.07-.906-.843-.844-1.423-.9-1.562-.155-3.133-.266-4.7-.288-1.537-.021-1.913-1.107-1.9-2.212.016-1.3,1.215-.785,1.937-.828,1.843-.109,3.7-.055,5.536-.2.987-.08,2.183.184,3.091-1.182-2.78-.977-5.487-.57-8.1-.9-.882-.11-2.244.448-2.212-1.261.027-1.458,1.025-1.838,2.253-1.843,1.57-.006,3.144-.011,4.711.077,1.484.082,2.192-.3,2.047-2.01a47.988,47.988,0,0,1-.078-6.91c.107-1.777-.6-2.2-2.224-2.171-4.987.082-9.982.2-14.961-.007-2.679-.111-3.446.5-3.195,3.332.448,5.046,1.212,10.236-2.874,14.569-1.768,1.875.109,1.936,1.492,1.9m5.469-17.233q6.1.052,12.193.164c.676.012,1.349.192,1.233,1.091-.1.758-.744.676-1.285.678-2.49.006-4.981,0-7.471,0v.306c-1.567-.087-3.133-.181-4.7-.259-.6-.03-1.137-.175-1.2-.862-.078-.857.531-1.128,1.23-1.122m.088,4.041c3.971.093,7.942.135,11.913.224.627.014,1.4.034,1.4.954.005,1.118-.9.994-1.6,1.005-1.939.031-3.878.011-5.817.014s-3.88,0-5.82,0c-.826,0-1.524-.22-1.446-1.206.06-.769.6-1.013,1.369-1M623.1,34.707c1.744-.656,3.572-.194,5.326.014,1.736.206,1.263,1.648.683,2.5-.775,1.137-4.365.374-4.98-.981-.254-.56-1.246-.526-1.029-1.532" transform="translate(-273.838 -10.369)" fill="#fff"/>
    <path id="パス_6074" data-name="パス 6074" d="M644.712,250.8c-.808-.446-1.634-.861-2.443-1.3-1.5-.82-1.828-1.764-.291-2.9.52-.383,1.019-.8,1.542-1.174,2.745-1.976,2.747-2.084.007-3.81-1.121,1.05-2.258,2.085-3.358,3.158-.591.576-1.272.973-1.89.267-.953-1.087-2.074-2.215-1.934-3.8.09-1,1.114-.671,1.8-.752,1.81-.215,3.651.464,5.446-.191.671-3.087.428-6.244.727-9.358.148-1.546-.481-1.931-1.9-1.8-1.931.171-3.874.216-5.813.276-.773.024-1.653-.055-1.129-1.188.353-.765.734-1.435-.482-1.561-.974-.1-2.3-.353-2.52,1-.339,2.046-1.754,1.829-3.119,1.777-5.345-.205-5.344-.22-5.279,5.027.072,5.755.075,5.868,5.8,5.714,2.478-.066,3.725.216,3.128,3.182-.429,2.134-.145,4.409-.2,6.621-.024.913.037,1.882-1.094,2.3-.644.239-1.708.251-1.455,1.271s1.31.848,2.105.806c1.808-.1,2.9-.868,2.92-2.9.017-1.49-.508-3.113.727-4.686,1.51,1.356,2.926,2.654,4.372,3.918a8.581,8.581,0,0,0,3.475,2.2c.752.185,1.6.126,1.9-.684.283-.761-.475-1.094-1.037-1.4m-16.3-19.237c3.955.019,7.91.1,11.865.183.576.012,1.11.207,1.086.943-.027.829-.563,1.065-1.3,1.063q-3.036-.007-6.073,0v.028c-1.841,0-3.682.007-5.522,0-.731,0-1.553.073-1.578-1.02-.024-1.049.809-1.2,1.519-1.192m5.634,6.721c-1.84,0-3.681-.028-5.52.015-.993.024-1.649-.311-1.674-1.349-.027-1.1.866-1.015,1.576-1.021,3.776-.029,7.552-.029,11.327-.043.9,0,1.731.107,1.648,1.292s-.992,1.108-1.836,1.105c-1.841-.006-3.681,0-5.521,0" transform="translate(-276.924 -100.543)" fill="#fff"/>
    <path id="パス_6075" data-name="パス 6075" d="M228.5,153.267c-.328-1.024-1.44-1.05-2.353-1.127a9.887,9.887,0,0,0-4.334.765c-7.781,2.929-15.568,5.842-23.338,8.8-5.264,2.005-10.677,3.63-15.764,6.093-.935.452-1.979.9-1.731,2.169.26,1.323,1.407,1.566,2.794,1.68a36.311,36.311,0,0,0,3.536-.956q18.559-6.909,37.09-13.893a14.842,14.842,0,0,0,2.7-1.408c.76-.484,1.751-1.039,1.4-2.124" transform="translate(-80.295 -67.501)" fill="#fff"/>
    <path id="パス_6076" data-name="パス 6076" d="M184.139,58.25c.157,1.48.751,2.422,2.43,2.365,1.871-.065,1.62-1.426,1.623-2.587.018-6.641.008-13.282.008-19.923h.044q0-10.376,0-20.753c0-1.641-.4-2.93-2.455-2.908-2.075.023-2.035,1.46-2.035,2.881,0,8.942-.019,17.885.024,26.827a139.464,139.464,0,0,0,.362,14.1" transform="translate(-81.538 -6.409)" fill="#fff"/>
    <path id="パス_6077" data-name="パス 6077" d="M645.755,195.483c-2.924-1.393-2.262-3.941-1.935-6.234.381-2.667-.793-3.454-3.225-3.469-5.256-.032-10.511-.172-15.766-.307-.659-.017-1.382-.225-1.716.483-1.491,3.162-2.959,6.337-4.352,9.543a1.348,1.348,0,0,0,.824,1.826c.845.311,1.047-.548,1.318-1.054,1.429-2.669,2.811-5.363,4.209-8.049.738,2.564,1.866,5.2-.727,7.349-.774.641-.51,1.324.508,1.535a8.743,8.743,0,0,0,1.649.184q8.582.119,17.165.205c.822.008,1.726.1,2.234-.751.245-.411.225-1.064-.188-1.26m-14.668-5.415c-.076,1.28-.179,2.56-.219,3.841-.019.636-.2,1.049-.9,1.1-.752.051-1.293-.225-1.349-1.014-.1-1.371-.135-2.746-.174-4.119a1.414,1.414,0,0,1,1.694-1.636c1.28.078,1.005,1.039.944,1.832m3.972,5.019c-1.194.034-1.582-.763-1.623-1.769-.045-1.092-.006-2.189.007-3.283.011-.962.087-1.915,1.412-1.853,1.193.057,1.122.971,1.13,1.8.006.639,0,1.277,0,1.916h.091c0,.456.028.914-.007,1.368-.058.754.308,1.783-1.011,1.821m4.789-.038c-2.266.019-.9-2.217-1.3-3.393a3.287,3.287,0,0,1-.046-1.092c.019-1.081-.218-2.412,1.465-2.371,1.563.038,1.174,1.312,1.21,2.266.014.366,0,.733,0,1.294-.534.974,1.036,3.277-1.329,3.3" transform="translate(-274.523 -82.285)" fill="#fff"/>
    <path id="パス_6078" data-name="パス 6078" d="M618.623,112.526c.919.026,1.841-.034,2.76,0,.874.032,2.009-.24,2.119,1.12a1.945,1.945,0,0,1-1.831,2.3,24.683,24.683,0,0,0-3.236.632,1.386,1.386,0,0,0-.914,1.771.829.829,0,0,0,.967.762c3.8-.641,7.675-.942,11.384-2.058.891-.268,1.812-.935.171-1.659a13.125,13.125,0,0,0-2.434-.3c-.886.05-1.529.232-1.635-1.056-.117-1.423.65-1.465,1.663-1.516a20.536,20.536,0,0,0,2.736-.348,1.1,1.1,0,0,0,1.007-1.13c-.021-.655-.537-.953-1.1-1.042-1-.157-2.017-.261-3.03-.344a1.216,1.216,0,0,1-1.265-1.448c.036-.843.6-1.051,1.3-1.129,2.461-.275,4.927-.523,7.383-.839,1.233-.159,1.725.4,1.728,1.532.007,2.952-.016,5.9-.005,8.856a1.326,1.326,0,0,1-1.243,1.52c-.769.121-1.986-.074-1.893,1.065.107,1.319,1.442,1.2,2.42,1.283a2.547,2.547,0,0,0,3.112-2.657c.135-1.748.285-3.494.479-5.236.064-.574-.279-1.5.637-1.585,2.759-.253,3.292-2.741,4.479-4.456,1.362-1.967.9-2.7-1.592-2.748a1.972,1.972,0,0,1-2.063-1.347,2.078,2.078,0,0,1,.4-2.729c.868-.828,1.748-1.646,2.57-2.519.561-.6,1.934-.706,1.381-2.021-.444-1.057-1.468-1.009-2.381-1.029-7.574-.157-15.149-.264-22.722-.462-1.5-.04-1.905.513-1.858,1.925.092,2.766.165,5.544,0,8.3-.137,2.229.243,3.551,2.9,3.2,1-.132,2.431-.316,2.305,1.489-.12,1.7-1.495,1.247-2.521,1.393-1.255.179-2.81-.731-3.653.978-.452,1.427.522,1.5,1.488,1.527m22.392-6.075c.436,1.243-.646,1.877-1.569,2.813.093-1.193-1.242-2.115-.07-3.082.454-.374,1.4-.413,1.639.269M632.6,96.023a29.122,29.122,0,0,0,3.307.035v.025c.738,0,1.48-.041,2.214.011.788.055,1.718-.379,2.316.407.342.449-.106.862-.458,1.136-.751.585-1.343,1.747-2.565.976-1.036-.654-2.133-1.121-2.834.18s.855,1.575,1.453,2.27c.419.487.958.877,1.351,1.382.579.745.607,1.418-.58,1.436-1.476.022-2.953-.057-4.429-.1a.817.817,0,0,1-.861-.866c-.046-2.116-.08-4.234-.057-6.35.009-.814.54-.617,1.143-.547M627,96.062c1.037.19,1.873.431,1.883,1.638.007.9-.135,1.639-1.253,1.664-1.06.023-1.731-.373-1.718-1.557.01-.857.087-1.631,1.087-1.745m.332,5.488c.978.031,1.625.323,1.56,1.517.128,1.125-.444,1.561-1.621,1.545-.954-.014-1.723-.146-1.62-1.307.087-.979.426-1.793,1.68-1.754m-5.239-5.532c.93-.072,1.358.388,1.36,1.294,0,.948.041,1.918-1.314,1.965-1.034.036-1.184-.629-1.192-1.447-.008-.86-.058-1.721,1.146-1.813m.02,8.718c-1.178-.018-1.217-.851-1.223-1.7a1.3,1.3,0,0,1,1.516-1.467c.948.052,1.094.753,1.057,1.554-.041.9-.249,1.619-1.35,1.61" transform="translate(-273.802 -41.583)" fill="#fff"/>
    <path id="パス_6079" data-name="パス 6079" d="M208.459,48.216a8.852,8.852,0,0,0,1.327.392c8.205,1.911,16.621,2.577,24.883,4.163a2.531,2.531,0,0,0,3.241-2.233c.3-1.838-1-2.491-2.453-2.718-8.31-1.307-16.63-2.55-24.946-3.814l-.03.219h-1.388c-1.262,0-2.188.492-2.374,1.824-.178,1.275.765,1.771,1.74,2.168" transform="translate(-91.721 -19.527)" fill="#fff"/>
    <path id="パス_6080" data-name="パス 6080" d="M95.769,226.142c-1.469-.975-2.368.182-3.094,1.313a19.386,19.386,0,0,0-1.2,2.164c-2.833,5.982-5.737,11.928-9.124,17.624a5.087,5.087,0,0,0-.522,2.433c.235,1.083-.358,2.676,1.017,3.162,1.277.451,2.168-.825,2.933-1.7a18.047,18.047,0,0,0,2.378-3.364,99.494,99.494,0,0,0,4.733-9.515c1.174-2.926,3-5.477,4.24-8.342.744-1.715-.1-2.94-1.357-3.778" transform="translate(-36.31 -100.188)" fill="#fff"/>
    <path id="パス_6081" data-name="パス 6081" d="M61.938,223.351c-1.145-.676-1.947.141-2.573.946a25.168,25.168,0,0,0-2.325,3.413c-2.79,5.158-4.906,10.694-8.747,15.259a4.259,4.259,0,0,0-1.062,2.8,3.251,3.251,0,0,0,1.809,3.17c1.252.594,2.135-.262,2.905-1.027a7.623,7.623,0,0,0,1.609-2.213,158.953,158.953,0,0,1,9.076-17.314,5.817,5.817,0,0,0,.837-2.018,2.88,2.88,0,0,0-1.529-3.01" transform="translate(-20.959 -99)" fill="#fff"/>
    <path id="パス_6082" data-name="パス 6082" d="M14.783,232.191a2.373,2.373,0,0,0-2.94.93A79.412,79.412,0,0,0,.3,251.9a1.916,1.916,0,0,0,.378,2.526,2.406,2.406,0,0,0,3.074-.187,8,8,0,0,0,1.48-1.624,130.335,130.335,0,0,0,9.2-14.455,9.629,9.629,0,0,0,1.386-4.33,1.65,1.65,0,0,0-1.034-1.634" transform="translate(0 -102.938)" fill="#fff"/>
    <path id="パス_6083" data-name="パス 6083" d="M636.7,172.078c2.769-.089,5.549-.032,8.318.1,5.087.247,5.085.289,4.747-4.861-.464-7.071-.464-7.071-7.59-7.009-1.571,0-3.149.086-4.713-.021-2.119-.145-2.755.878-2.689,2.819a68.946,68.946,0,0,1-.052,6.915c-.105,1.585.365,2.107,1.979,2.054m2.12-9.3a33.619,33.619,0,0,1,7.4.27c.6.121,1.041.361,1.017,1.038s-.5.942-1.1.956c-1.19.028-2.38.008-3.571.008v-.023c-1.19,0-2.379,0-3.569,0-.708,0-1.287-.238-1.351-1.034a1.077,1.077,0,0,1,1.178-1.214m-.17,4.709c1.2-.011,2.4,0,3.6,0v-.013c1.2,0,2.4.014,3.6-.005.873-.014,1.423.275,1.412,1.251-.008.82-.452,1.152-1.216,1.156q-3.734.021-7.468.033c-.938,0-1.311-.536-1.278-1.412s.665-1,1.351-1.008" transform="translate(-281.65 -71.122)" fill="#fff"/>
    <path id="パス_6084" data-name="パス 6084" d="M184.437,124.25c2.1.238,4.209.371,6.212.54,2.116-.18,4.142.347,6.145-.189,1.034-.276,1.969-.611,1.859-1.955a2.017,2.017,0,0,0-1.932-1.983,56.243,56.243,0,0,0-12.35-.381c-1.095.111-2.344.274-2.326,1.788.018,1.489,1.123,2.036,2.392,2.18" transform="translate(-80.782 -53.288)" fill="#fff"/>
    <path id="パス_6085" data-name="パス 6085" d="M178.182,244.734a2.04,2.04,0,0,0-2.939.479,26.629,26.629,0,0,0-4.886,9.754c-.244.972-.053,1.645,1.133,1.585a3.765,3.765,0,0,0,3.322-2.12c1.234-2.349,2.464-4.7,3.668-7.064.471-.922.9-1.895-.3-2.635" transform="translate(-75.555 -108.416)" fill="#fff"/>
    <path id="パス_6086" data-name="パス 6086" d="M575.211,234.983c-1.611.333-4.411,4.144-4.413,6.033.231,1.36.152,3.094,1.639,3.8,1.393.663,2.338-.744,3.248-1.539a17.276,17.276,0,0,0,2.705-3.093c1-1.417.121-2.641-.749-3.73-.606-.759-1.2-1.728-2.43-1.473" transform="translate(-253.291 -104.255)" fill="#fff"/>
    <path id="パス_6087" data-name="パス 6087" d="M628.565,256.707c-.918-2.018-3.284-.965-4.347-1.12-1.889,0-3.087-.041-4.28.016a1.17,1.17,0,0,0-1.26,1.2,1.2,1.2,0,0,0,1.073,1.121c1.274.214,2.566.323,3.852.469,1.9.216,1.9,1.12.85,2.371a16.933,16.933,0,0,1-4.647,3.447c-.555.328-1.623.522-1.074,1.523.414.755,1.233.662,1.983.378a13.4,13.4,0,0,0,5.967-4.792c1.021-1.373,2.636-2.965,1.885-4.616" transform="translate(-274.493 -113.355)" fill="#fff"/>
    <path id="パス_6088" data-name="パス 6088" d="M250.231,245.838a1.831,1.831,0,0,0-.641,2.438,25.291,25.291,0,0,0,4.955,8.215c.477.538,1.144,1.083,1.933.645s.961-1.292.941-2.6a27.535,27.535,0,0,0-4.886-8.379,1.807,1.807,0,0,0-2.3-.323" transform="translate(-110.667 -108.968)" fill="#fff"/>
    <path id="パス_6089" data-name="パス 6089" d="M11.6,194.265a3.327,3.327,0,0,0,3.3-3.14c.149-1.68-2.9-4.258-4.866-4.251a2.7,2.7,0,0,0-2.975,2.9c0,1.936,2.638,4.656,4.538,4.49" transform="translate(-3.136 -82.925)" fill="#fff"/>
    <path id="パス_6090" data-name="パス 6090" d="M16.919,144.926a3.157,3.157,0,0,0,2.879-3.442c-.042-1.7-2.49-3.566-4.393-3.45a2.31,2.31,0,0,0-2.481,2.35c.1,2.386,2.3,4.816,4,4.542" transform="translate(-5.735 -61.25)" fill="#fff"/>
    <path id="パス_6091" data-name="パス 6091" d="M254.081,204.287a2.479,2.479,0,0,0-2.631-2.574,1.883,1.883,0,0,0-2.141,1.991c.009,1.834,1.431,2.1,2.478,2.233,1.55.065,2.41-.248,2.295-1.65" transform="translate(-110.63 -89.509)" fill="#fff"/>
    <path id="パス_6092" data-name="パス 6092" d="M267.722,201.488c-1.225.071-2.257.594-2.167,1.986.1,1.579,1.392,2.184,2.716,2.283,1.4.105,1.8-1.025,1.926-2.226a2.142,2.142,0,0,0-2.474-2.043" transform="translate(-117.837 -89.407)" fill="#fff"/>
    <path id="パス_6093" data-name="パス 6093" d="M622.08,177.715c.144-.737-2.567-3.163-3.631-3.183-.75.046-1.563.645-1.327,1.307.616,1.725,2.407,2.016,3.934,2.523a.777.777,0,0,0,1.024-.647" transform="translate(-273.828 -77.448)" fill="#fff"/>
    <path id="パス_6094" data-name="パス 6094" d="M620.649,161.257c.212,1.832,1.947,2.127,3.331,2.629.622.226,1.252-.092,1.426-1.2a5.91,5.91,0,0,0-3.168-2.449,1.154,1.154,0,0,0-1.589,1.022" transform="translate(-275.41 -71.073)" fill="#fff"/>
  </g>
</svg>
