<?xml version="1.0" encoding="utf-8"?>
<!-- Generator: Adobe Illustrator 28.2.0, SVG Export Plug-In . SVG Version: 6.00 Build 0)  -->
<svg version="1.1" id="グループ_8898" xmlns="http://www.w3.org/2000/svg" xmlns:xlink="http://www.w3.org/1999/xlink" x="0px"
	 y="0px" viewBox="0 0 371.6 164.9" style="enable-background:new 0 0 371.6 164.9;" xml:space="preserve">
<g id="グループ_8898-2">
	<path id="パス_6068" d="M310.8,143.1c-0.8,0.3-1.5,0.7-2.2,1.2c-3.3,2.5-7,4.5-11,5.7c-5.8,2-11.7,3.5-17.7,4.5
		c-8.4,1.7-17.1,1.8-25.6,0.3c-5-1-10-1.9-15-2.9c-2.8-0.5-5.7-0.8-8.3-2.2c-4.7-2.5-9.7-4.7-13.9-8c-6.5-5.1-13.9-9.3-18.1-16.8
		c-1.6-2.6-3.4-5-5.4-7.3c-1.5-1.9-2.8-3.9-3.7-6.2c-4-10.4-7-21-6.1-31.7c-0.4-11.4,1.3-22.7,5-33.5c5.9-17.2,16.8-29.5,35-34.2
		c2.7-0.7,5.5-0.7,8.2-1.2c6.9-1.4,13.7-0.9,20.5,0.2c7.5,1.3,14.2,4.5,20.9,7.9c11.4,5.7,20,14.4,26.7,25c5.8,9,7.5,19.1,7.9,29.6
		c0.4,9.2-0.2,18.2-3.9,26.8c-2.3,5.3-4.9,10.3-9.8,13.8c-8.7,6.2-18.6,9-29.1,10.3c-9.2,1.2-17.3-2.4-25.3-5.8
		c-6.6-2.8-11.7-7.8-16.2-13.2c-8.3-9.9-9.9-21.3-5.8-33.5c1.1-3.2,2.4-6.4,3.6-9.6c2.1-5.4,6.4-9.6,11.8-11.7
		c6.2-2.6,13.1-3,19.5-1.1c5.4,1.6,10.7,3.3,14.1,8.1c2.9,4,5,8.5,6.2,13.2c1,4.1,1,8.3-0.1,12.4c-1.5,5.8-6.1,9.2-11.4,11.3
		c-8.6,3.4-13.6-0.1-14.1-9.3c-0.3-5.3,0.1-10.3,5.9-12.8c2-0.9,3.3-2.3,2.9-4.5s-2.1-3.2-4.2-3.5c-3.2-0.5-5.7,0.8-8.1,2.8
		c-9.5,7.8-7.2,23.4-2.6,30.3c5,7.5,17.7,10.2,25.8,6.5c5.3-2.3,9.5-6.6,11.8-12c5.5-13,5.6-26-3.4-37.9c-5.8-7.7-13.1-13-22.9-15
		c-4.6-0.9-9.4-1-14-0.1C229,40.8,221.7,46,216.2,54c-7.7,11.3-9.9,24.1-7.2,37.3c3.7,18.6,15.5,30.5,32.9,37.1
		c2.8,1.1,5.5,2,8.2,3.2c4.2,1.8,8.4,3.1,13.3,2.6c7-0.7,13.9-2.2,20.7-3.6c4.9-1,9.7-2.7,13.2-6.8c1.8-2.2,3.9-4.2,6.2-5.9
		c4.2-3.1,6.7-7.2,8.8-11.9c6.5-15,7.2-30.9,3.7-46.2c-4.5-19.4-14-36.2-32.4-46.9c-6.9-4.1-14.2-7.4-21.8-10
		c-4.4-1.5-8.9-2.9-13.7-3c-6.8-0.1-13.6,0.6-20.3,2.3C217,5,206.7,8.8,198.5,17c-9.5,9.6-18,20-21.1,33.5
		c-3.6,15.7-4.5,31.7-0.4,47.5c5,19.3,14.7,35.8,31.3,47.5c7.9,5.6,15.6,11.5,25.3,13.9c14.5,3.6,28.8,7.5,44,4.3
		c9.3-1.9,18.8-3.1,27.4-7.6c4-2.1,7.7-4.5,9.9-8.6c0.7-1.2,1-2.5-0.1-3.6C313.9,142.8,312.2,142.4,310.8,143.1"/>
	<path id="パス_6069" d="M38,108.2c12.3,0,24.6,0,36.9-0.1c1.4,0,2.9-0.2,2.9-1.8c0.1-1.7-1.5-1.9-2.8-1.9
		c-4.6-0.1-9.2-0.3-13.8-0.3c-8.9-0.2-17.8-0.3-26.8-0.4c-3.4,0-6.8,0.1-10.3,0.1c-1-0.1-1.9,0.5-2.2,1.4c-0.3,0.7-0.1,1.5,0.6,1.8
		c0,0,0.1,0,0.2,0.1c3,1,2.4,3.1,1.8,5.4c-0.6,2.3-1.4,4.6-2.4,6.8c-0.8,1.8-1.5,3.6-2,5.4c-0.4,0.9-0.1,1.9,0.7,2.5
		c0.9,0.6,2.1,0.5,2.8-0.2c1.3-1,2.2-2.2,2.8-3.7c0.5-1.4,1.9-2.3,3.5-2.2c2.7,0.1,5.3-0.2,8-0.2c10.3-0.2,20.6-0.1,30.9-0.1
		c3.2,0,3.7,0.4,3.7,3.6c-0.1,7.5,0,14.9-0.6,22.4c-0.2,2.6-1.3,3.6-3.7,3.7c-0.6,0-1.3,0.1-1.9,0.4c-1.1,0.4-1.7,1.6-1.2,2.7
		c0.2,0.4,0.5,0.8,0.8,1c4.2,3,11,0.3,11.2-4.8c0.4-9.6,0.4-19.2-0.1-28.8c-0.2-3.3-1-4-4.3-4.1c-6.7-0.1-13.3,0-20,0
		c0-0.2,0-0.5,0-0.7c-6.7,0-13.5-0.1-20.2,0c-2.6,0-2.8-1.2-2.1-3.2C31.5,109.6,33.8,108.2,38,108.2"/>
	<path id="パス_6070" d="M49.6,68.3L49.6,68.3c-5.6,0-11.3-0.1-16.9,0c-4.4,0.1-5.3,1.1-5.5,5.5C27,79.7,27,85.6,27.3,91.5
		c0.3,4.2,1.2,5.3,5.2,5.5C44,97.6,55.5,97.4,66.9,97c3.6-0.1,4.8-1.3,4.8-5c0.1-6.2,0.1-12.3-0.1-18.5c-0.1-4-1.2-5.1-5.2-5.2
		C60.9,68.1,55.2,68.2,49.6,68.3 M62.3,92.7c-4.5,0-9,0-13.6,0v-0.5c-4.8,0-9.6,0-14.4,0c-1.5,0-2.8,0.2-2.6-2
		c0.2-2-0.8-4.5,2.6-4.7c5.2-0.3,10.3-0.6,15.5-0.4c4.9,0.2,9.8,0.5,14.7,0.6c1.7,0,2.4,0.6,2.4,2.4C67.1,92.7,67.1,92.7,62.3,92.7
		 M67.4,73.9c0.5,2.3,0.3,4.6-0.6,6.8c-0.4,0.8-1.5,0.4-2.3,0.4c-4.7,0-9.4,0-14.1,0v-0.8c-5.4,0-10.7-0.1-16.1,0
		c-2.5,0-2.8-1.5-2.4-3.2c0.4-1.8,0.3-4.4,3.1-4.4c9.6-0.1,19.2,0,28.8,0.1C65,72.7,67.1,72.4,67.4,73.9"/>
	<path id="パス_6071" d="M23.8,48.9c5.9,0.4,11.8,0.4,17.7,0c1.7-0.1,3.1-0.9,3.3-2.8c0.5-4.1,0.5-8.3,0-12.4
		c-0.2-1.3-0.7-2.4-2.2-2.4c-1.6,0-1.9,1.2-2,2.5c-0.2,2.8-0.4,5.7-0.6,8.5c-0.1,1.8-0.9,2.7-2.8,2.6c-3.6-0.1-7.2-0.2-10.8-0.2
		c-1.1,0.2-2.1-0.6-2.2-1.6c0-0.2,0-0.4,0-0.5c-0.1-7.4-0.5-14.7,0.3-22.1c0.1-1.1,0.4-1.7,1.6-1.7C37.8,19,49.4,18.7,61,19.1
		c2.7,0.1,3.5,0.9,3.3,3.8C64,31.9,64,40.9,63.9,50c0,1.3,0.1,2.7,2,2.7c1.3,0.2,2.4-0.7,2.6-2c0-0.2,0-0.4,0-0.6
		c0.7-10.8,0.7-21.6,0-32.3c-0.2-2.4-1.2-3.6-3.8-3.5c-6.7,0.1-13.3,0-20,0c-6.7-0.6-13.5-0.7-20.2-0.4c-2.2,0.1-3.9,0.9-4.2,3.2
		c-1.1,9.4-1.2,18.8-0.3,28.2c0,2,1.7,3.6,3.7,3.6C23.8,48.9,23.8,48.9,23.8,48.9"/>
	<path id="パス_6072" d="M142.9,122.7c-0.1-1.4-1.4-1-2.2-1c-4.1-0.1-8.1-0.2-12.2-0.3c-4.7-0.1-4.7-0.1-5.1-4.7
		c0-0.3,0-0.6-0.1-0.8c-0.2-1-0.6-1.8-1.7-1.9c-1-0.2-2.1,0.4-2.4,1.4c-0.4,0.9-0.6,1.9-0.7,3c0.1,2.7-1.3,3.3-3.8,3.3
		c-4.4,0.1-8.8,0.6-13.3,0.9c-1.1,0.1-2.5,0.2-2.5,1.7c0,1.6,1.5,1.6,2.7,1.7c4.7,0.4,9.4,0.5,14.1,0.3c2.3-0.1,2.6,0.8,2.5,2.7
		c-0.1,3.6,0,7.2,0,10.8c0,4.4-0.4,8.9,0.2,13.3c0.1,1,0.5,2.1,1.8,2.1c1.1,0,2-0.9,2-1.9c0.2-1.5,0.4-2.9,0.5-4.4
		c0.2-6.6,0.5-13.3,0.6-19.9c0-2,0.7-3,2.9-3c3.4,0.1,6.8-0.1,10.3-0.2c1.5-0.1,2.9-0.2,4.4-0.4c1.2-0.1,2.1-1.2,2-2.4
		C142.9,122.8,142.9,122.8,142.9,122.7"/>
	<path id="パス_6073" d="M345.5,32.8c0.4-0.3,1.1-0.6,1.3-1c1.6-3.8,5-2.1,7.7-2.4c1.1-0.1,1.2,0.8,1.2,1.8c0,1.2-0.8,1.3-1.7,1.2
		c-1.5-0.2-2.9-0.4-4.4-0.5c-2.1-0.1-3.1,0.5-1.6,2.6c1.9,0.2,3.9,0.3,5.8,0.5c0.8,0.1,1.8,0.1,1.8,1.3c-0.1,1.2-1,1.1-1.9,1.1
		c-2.9,0.1-5.7,0.3-8.6,0.5c-0.6,0-1.5-0.1-1.6,0.7c-0.1,1,1,0.9,1.7,1c8,0.6,16.1,0.6,24.1,0c0.7,0,1.8,0.1,1.8-0.9
		c0-1-1.1-0.8-1.8-0.8c-3.1-0.2-6.3-0.3-9.4-0.4c-0.9,0-1.7-0.2-1.6-1.4c0-1,0.7-1.1,1.5-1.2c1.7-0.2,3.3-0.3,5-0.5
		c0.6-0.1,1.3-0.2,1.3-0.8c0.1-0.9-0.8-0.8-1.4-0.9c-1.6-0.2-3.1-0.3-4.7-0.3c-1.5,0-1.9-1.1-1.9-2.2c0-1.3,1.2-0.8,1.9-0.8
		c1.8-0.1,3.7-0.1,5.5-0.2c1-0.1,2.2,0.2,3.1-1.2c-2.8-1-5.5-0.6-8.1-0.9c-0.9-0.1-2.2,0.4-2.2-1.3c0-1.5,1-1.8,2.3-1.8
		c1.6,0,3.1,0,4.7,0.1c1.5,0.1,2.2-0.3,2-2c-0.2-2.3-0.2-4.6-0.1-6.9c0.1-1.8-0.6-2.2-2.2-2.2c-5,0.1-10,0.2-15,0
		c-2.7-0.1-3.4,0.5-3.2,3.3c0.4,5,1.2,10.2-2.9,14.6C342.2,32.8,344.1,32.8,345.5,32.8 M350.9,15.6c4.1,0,8.1,0.1,12.2,0.2
		c0.7,0,1.3,0.2,1.2,1.1c-0.1,0.8-0.7,0.7-1.3,0.7c-2.5,0-5,0-7.5,0v0.3c-1.6-0.1-3.1-0.2-4.7-0.3c-0.6,0-1.1-0.2-1.2-0.9
		C349.6,15.8,350.2,15.6,350.9,15.6 M351,19.6c4,0.1,7.9,0.1,11.9,0.2c0.6,0,1.4,0,1.4,1c0,1.1-0.9,1-1.6,1c-1.9,0-3.9,0-5.8,0
		s-3.9,0-5.8,0c-0.8,0-1.5-0.2-1.4-1.2C349.7,19.8,350.3,19.6,351,19.6 M349.3,24.3c1.7-0.7,3.6-0.2,5.3,0c1.7,0.2,1.3,1.6,0.7,2.5
		c-0.8,1.1-4.4,0.4-5-1C350,25.3,349,25.3,349.3,24.3"/>
	<path id="パス_6074" d="M367.8,150.3c-0.8-0.4-1.6-0.9-2.4-1.3c-1.5-0.8-1.8-1.8-0.3-2.9c0.5-0.4,1-0.8,1.5-1.2
		c2.7-2,2.7-2.1,0-3.8c-1.1,1.1-2.3,2.1-3.4,3.2c-0.6,0.6-1.3,1-1.9,0.3c-1-1.1-2.1-2.2-1.9-3.8c0.1-1,1.1-0.7,1.8-0.8
		c1.8-0.2,3.7,0.5,5.4-0.2c0.7-3.1,0.4-6.2,0.7-9.4c0.1-1.5-0.5-1.9-1.9-1.8c-1.9,0.2-3.9,0.2-5.8,0.3c-0.8,0-1.7-0.1-1.1-1.2
		c0.4-0.8,0.7-1.4-0.5-1.6c-1-0.1-2.3-0.4-2.5,1c-0.3,2-1.8,1.8-3.1,1.8c-5.3-0.2-5.3-0.2-5.3,5c0.1,5.8,0.1,5.9,5.8,5.7
		c2.5-0.1,3.7,0.2,3.1,3.2c-0.4,2.1-0.1,4.4-0.2,6.6c0,0.9,0,1.9-1.1,2.3c-0.6,0.2-1.7,0.3-1.5,1.3s1.3,0.8,2.1,0.8
		c1.8-0.1,2.9-0.9,2.9-2.9c0-1.5-0.5-3.1,0.7-4.7c1.5,1.4,2.9,2.7,4.4,3.9c1,1,2.2,1.8,3.5,2.2c0.8,0.2,1.6,0.1,1.9-0.7
		C369.1,150.9,368.4,150.6,367.8,150.3 M351.5,131c4,0,7.9,0.1,11.9,0.2c0.6,0,1.1,0.2,1.1,0.9c0,0.8-0.6,1.1-1.3,1.1
		c-2,0-4,0-6.1,0v0c-1.8,0-3.7,0-5.5,0c-0.7,0-1.6,0.1-1.6-1C349.9,131.2,350.8,131,351.5,131 M357.1,137.8c-1.8,0-3.7,0-5.5,0
		c-1,0-1.6-0.3-1.7-1.3c0-1.1,0.9-1,1.6-1c3.8,0,7.6,0,11.3,0c0.9,0,1.7,0.1,1.6,1.3s-1,1.1-1.8,1.1
		C360.8,137.8,359,137.8,357.1,137.8"/>
	<path id="パス_6075" d="M148.2,85.8c-0.3-1-1.4-1.1-2.4-1.1c-1.5-0.1-3,0.2-4.3,0.8c-7.8,2.9-15.6,5.8-23.3,8.8
		c-5.3,2-10.7,3.6-15.8,6.1c-0.9,0.5-2,0.9-1.7,2.2c0.3,1.3,1.4,1.6,2.8,1.7c1.2-0.3,2.4-0.6,3.5-1c12.4-4.6,24.7-9.2,37.1-13.9
		c0.9-0.4,1.9-0.8,2.7-1.4C147.6,87.4,148.6,86.8,148.2,85.8"/>
	<path id="パス_6076" d="M102.6,51.8c0.2,1.5,0.8,2.4,2.4,2.4c1.9-0.1,1.6-1.4,1.6-2.6c0-6.6,0-13.3,0-19.9h0c0-6.9,0-13.8,0-20.8
		c0-1.6-0.4-2.9-2.5-2.9c-2.1,0-2,1.5-2,2.9c0,8.9,0,17.9,0,26.8C102.1,42.4,102.2,47.2,102.6,51.8"/>
	<path id="パス_6077" d="M371.2,113.2c-2.9-1.4-2.3-3.9-1.9-6.2c0.4-2.7-0.8-3.5-3.2-3.5c-5.3,0-10.5-0.2-15.8-0.3
		c-0.7,0-1.4-0.2-1.7,0.5c-1.5,3.2-3,6.3-4.4,9.5c-0.3,0.7,0,1.5,0.7,1.8c0,0,0.1,0,0.1,0c0.8,0.3,1-0.5,1.3-1.1
		c1.4-2.7,2.8-5.4,4.2-8c0.7,2.6,1.9,5.2-0.7,7.3c-0.8,0.6-0.5,1.3,0.5,1.5c0.5,0.1,1.1,0.2,1.6,0.2c5.7,0.1,11.4,0.1,17.2,0.2
		c0.8,0,1.7,0.1,2.2-0.8C371.7,114,371.6,113.4,371.2,113.2 M356.6,107.8c-0.1,1.3-0.2,2.6-0.2,3.8c0,0.6-0.2,1-0.9,1.1
		c-0.8,0.1-1.3-0.2-1.3-1c-0.1-1.4-0.1-2.7-0.2-4.1c-0.1-0.8,0.4-1.5,1.1-1.6c0.2,0,0.4,0,0.6,0C356.9,106,356.6,107,356.6,107.8
		 M360.5,112.8c-1.2,0-1.6-0.8-1.6-1.8c0-1.1,0-2.2,0-3.3c0-1,0.1-1.9,1.4-1.9c1.2,0.1,1.1,1,1.1,1.8c0,0.6,0,1.3,0,1.9h0.1
		c0,0.5,0,0.9,0,1.4C361.5,111.7,361.8,112.8,360.5,112.8 M365.3,112.8c-2.3,0-0.9-2.2-1.3-3.4c-0.1-0.4-0.1-0.7,0-1.1
		c0-1.1-0.2-2.4,1.5-2.4c1.6,0,1.2,1.3,1.2,2.3c0,0.4,0,0.7,0,1.3C366.1,110.4,367.7,112.8,365.3,112.8"/>
	<path id="パス_6078" d="M344.8,70.9c0.9,0,1.8,0,2.8,0c0.9,0,2-0.2,2.1,1.1c0.2,1.1-0.5,2.1-1.6,2.3c-0.1,0-0.2,0-0.3,0
		c-1.1,0.1-2.2,0.3-3.2,0.6c-0.7,0.2-1.1,1-0.9,1.7c0,0,0,0,0,0c0,0.5,0.4,0.8,0.9,0.8c0,0,0.1,0,0.1,0c3.8-0.6,7.7-0.9,11.4-2.1
		c0.9-0.3,1.8-0.9,0.2-1.7c-0.8-0.2-1.6-0.3-2.4-0.3c-0.9,0.1-1.5,0.2-1.6-1.1c-0.1-1.4,0.7-1.5,1.7-1.5c0.9-0.1,1.8-0.2,2.7-0.3
		c0.6,0,1-0.5,1-1.1c0-0.7-0.5-1-1.1-1c-1-0.2-2-0.3-3-0.3c-0.7,0-1.2-0.5-1.3-1.1c0-0.1,0-0.2,0-0.3c0-0.8,0.6-1.1,1.3-1.1
		c2.5-0.3,4.9-0.5,7.4-0.8c1.2-0.2,1.7,0.4,1.7,1.5c0,3,0,5.9,0,8.9c0.1,0.7-0.4,1.4-1.1,1.5c0,0-0.1,0-0.1,0
		c-0.8,0.1-2-0.1-1.9,1.1c0.1,1.3,1.4,1.2,2.4,1.3c1.4,0.3,2.7-0.5,3.1-1.9c0.1-0.2,0.1-0.5,0.1-0.7c0.1-1.7,0.3-3.5,0.5-5.2
		c0.1-0.6-0.3-1.5,0.6-1.6c2.8-0.3,3.3-2.7,4.5-4.5c1.4-2,0.9-2.7-1.6-2.7c-0.9,0.1-1.8-0.5-2.1-1.3c-0.6-0.9-0.4-2.1,0.4-2.7
		c0.9-0.8,1.7-1.6,2.6-2.5c0.6-0.6,1.9-0.7,1.4-2c-0.4-1.1-1.5-1-2.4-1c-7.6-0.2-15.1-0.3-22.7-0.5c-1.5,0-1.9,0.5-1.9,1.9
		c0.1,2.8,0.2,5.5,0,8.3c-0.1,2.2,0.2,3.6,2.9,3.2c1-0.1,2.4-0.3,2.3,1.5c-0.1,1.7-1.5,1.2-2.5,1.4c-1.3,0.2-2.8-0.7-3.7,1
		C342.9,70.8,343.9,70.9,344.8,70.9 M367.2,64.9c0.4,1.2-0.6,1.9-1.6,2.8c0.1-1.2-1.2-2.1-0.1-3.1C366,64.2,367,64.2,367.2,64.9
		 M358.8,54.4c1.1,0.1,2.2,0.1,3.3,0v0c0.7,0,1.5,0,2.2,0c0.8,0.1,1.7-0.4,2.3,0.4c0.3,0.4-0.1,0.9-0.5,1.1c-0.8,0.6-1.3,1.7-2.6,1
		c-1-0.7-2.1-1.1-2.8,0.2s0.9,1.6,1.5,2.3c0.4,0.5,1,0.9,1.4,1.4c0.6,0.7,0.6,1.4-0.6,1.4c-1.5,0-3-0.1-4.4-0.1
		c-0.5,0-0.8-0.3-0.9-0.8c0,0,0-0.1,0-0.1c0-2.1-0.1-4.2-0.1-6.3C357.7,54.2,358.2,54.4,358.8,54.4 M353.2,54.5
		c1,0.2,1.9,0.4,1.9,1.6c0,0.9-0.1,1.6-1.3,1.7c-1.1,0-1.7-0.4-1.7-1.6C352.1,55.4,352.2,54.6,353.2,54.5 M353.5,60
		c1,0,1.6,0.3,1.6,1.5c0.1,1.1-0.4,1.6-1.6,1.5c-1,0-1.7-0.1-1.6-1.3C351.9,60.7,352.3,59.9,353.5,60 M348.3,54.4
		c0.9-0.1,1.4,0.4,1.4,1.3c0,0.9,0,1.9-1.3,2c-1,0-1.2-0.6-1.2-1.4C347.1,55.4,347.1,54.5,348.3,54.4 M348.3,63.2
		c-1.2,0-1.2-0.9-1.2-1.7c-0.1-0.7,0.4-1.4,1.1-1.5c0.1,0,0.3,0,0.4,0c0.9,0.1,1.1,0.8,1.1,1.6C349.6,62.4,349.4,63.2,348.3,63.2"/>
	<path id="パス_6079" d="M116.7,28.7c0.4,0.2,0.9,0.3,1.3,0.4c8.2,1.9,16.6,2.6,24.9,4.2c1.3,0.4,2.7-0.4,3.1-1.7
		c0.1-0.2,0.1-0.3,0.1-0.5c0.3-1.8-1-2.5-2.5-2.7c-8.3-1.3-16.6-2.5-24.9-3.8l0,0.2h-1.4c-1.3,0-2.2,0.5-2.4,1.8
		C114.8,27.8,115.8,28.3,116.7,28.7"/>
	<path id="パス_6080" d="M59.5,126c-1.5-1-2.4,0.2-3.1,1.3c-0.4,0.7-0.8,1.4-1.2,2.2c-2.8,6-5.7,11.9-9.1,17.6
		c-0.4,0.8-0.6,1.6-0.5,2.4c0.2,1.1-0.4,2.7,1,3.2c1.3,0.5,2.2-0.8,2.9-1.7c0.9-1,1.7-2.2,2.4-3.4c1.7-3.1,3.3-6.3,4.7-9.5
		c1.2-2.9,3-5.5,4.2-8.3C61.6,128,60.7,126.8,59.5,126"/>
	<path id="パス_6081" d="M41,124.4c-1.1-0.7-1.9,0.1-2.6,0.9c-0.9,1.1-1.6,2.2-2.3,3.4c-2.8,5.2-4.9,10.7-8.7,15.3
		c-0.7,0.8-1.1,1.8-1.1,2.8c-0.1,1.3,0.6,2.6,1.8,3.2c1.3,0.6,2.1-0.3,2.9-1c0.7-0.6,1.2-1.4,1.6-2.2c2.7-6,5.7-11.7,9.1-17.3
		c0.4-0.6,0.7-1.3,0.8-2C42.7,126.1,42.1,124.9,41,124.4"/>
	<path id="パス_6082" d="M14.8,129.3c-1.1-0.5-2.3-0.1-2.9,0.9c-4.7,5.7-8.6,12-11.5,18.8c-0.5,0.8-0.4,1.9,0.4,2.5
		c0.9,0.7,2.2,0.6,3.1-0.2c0.6-0.5,1.1-1,1.5-1.6c3.4-4.6,6.5-9.4,9.2-14.5c0.8-1.3,1.3-2.8,1.4-4.3
		C15.9,130.2,15.4,129.5,14.8,129.3"/>
	<path id="パス_6083" d="M355.1,101c2.8-0.1,5.5,0,8.3,0.1c5.1,0.2,5.1,0.3,4.7-4.9c-0.5-7.1-0.5-7.1-7.6-7c-1.6,0-3.1,0.1-4.7,0
		c-2.1-0.1-2.8,0.9-2.7,2.8c0.1,2.3,0.1,4.6-0.1,6.9C353,100.5,353.4,101,355.1,101 M357.2,91.7c2.5-0.2,5-0.1,7.4,0.3
		c0.6,0.1,1,0.4,1,1s-0.5,0.9-1.1,1c-1.2,0-2.4,0-3.6,0v0c-1.2,0-2.4,0-3.6,0c-0.7,0-1.3-0.2-1.4-1c-0.1-0.6,0.3-1.1,0.9-1.2
		C357,91.6,357.1,91.6,357.2,91.7 M357,96.4c1.2,0,2.4,0,3.6,0v0c1.2,0,2.4,0,3.6,0c0.9,0,1.4,0.3,1.4,1.3c0,0.8-0.5,1.2-1.2,1.2
		c-2.5,0-5,0-7.5,0c-0.9,0-1.3-0.5-1.3-1.4S356.3,96.4,357,96.4"/>
	<path id="パス_6084" d="M103.7,71c2.1,0.2,4.2,0.4,6.2,0.5c2.1-0.2,4.1,0.3,6.1-0.2c1-0.3,2-0.6,1.9-2c0-1.1-0.9-1.9-1.9-2
		c-4.1-0.6-8.2-0.7-12.4-0.4c-1.1,0.1-2.3,0.3-2.3,1.8C101.3,70.3,102.4,70.8,103.7,71"/>
	<path id="パス_6085" d="M102.6,136.3c-0.9-0.7-2.2-0.5-2.9,0.4c0,0-0.1,0.1-0.1,0.1c-2.3,2.9-3.9,6.2-4.9,9.8
		c-0.2,1-0.1,1.6,1.1,1.6c1.4,0,2.7-0.8,3.3-2.1c1.2-2.3,2.5-4.7,3.7-7.1C103.4,138,103.8,137.1,102.6,136.3"/>
	<path id="パス_6086" d="M321.9,130.7c-1.6,0.3-4.4,4.1-4.4,6c0.2,1.4,0.2,3.1,1.6,3.8c1.4,0.7,2.3-0.7,3.2-1.5
		c1-0.9,1.9-2,2.7-3.1c1-1.4,0.1-2.6-0.7-3.7C323.7,131.4,323.1,130.5,321.9,130.7"/>
	<path id="パス_6087" d="M354.1,143.4c-0.9-2-3.3-1-4.3-1.1c-1.9,0-3.1,0-4.3,0c-0.6,0-1.2,0.4-1.3,1.1c0,0,0,0.1,0,0.1
		c0,0.6,0.5,1.1,1.1,1.1c1.3,0.2,2.6,0.3,3.9,0.5c1.9,0.2,1.9,1.1,0.8,2.4c-1.3,1.4-2.9,2.6-4.6,3.4c-0.6,0.3-1.6,0.5-1.1,1.5
		c0.4,0.8,1.2,0.7,2,0.4c2.4-1,4.5-2.6,6-4.8C353.2,146.6,354.8,145,354.1,143.4"/>
	<path id="パス_6088" d="M139.6,136.9c-0.8,0.5-1.1,1.6-0.6,2.4c1.1,3,2.8,5.8,5,8.2c0.5,0.5,1.1,1.1,1.9,0.6s1-1.3,0.9-2.6
		c-1.1-3.1-2.8-5.9-4.9-8.4C141.3,136.5,140.3,136.4,139.6,136.9"/>
	<path id="パス_6089" d="M8.5,111.3c1.8,0,3.2-1.4,3.3-3.1c0.1-1.7-2.9-4.3-4.9-4.3c-1.5-0.2-2.8,0.9-3,2.4c0,0.2,0,0.3,0,0.5
		C3.9,108.8,6.6,111.5,8.5,111.3"/>
	<path id="パス_6090" d="M11.2,83.7c1.7-0.1,3-1.7,2.9-3.4c0,0,0,0,0,0c0-1.7-2.5-3.6-4.4-3.4c-1.3-0.1-2.4,0.9-2.5,2.1
		c0,0.1,0,0.1,0,0.2C7.3,81.5,9.5,83.9,11.2,83.7"/>
	<path id="パス_6091" d="M143.5,114.8c0.1-1.4-1-2.5-2.4-2.6c-0.1,0-0.2,0-0.3,0c-1-0.1-2,0.6-2.1,1.6c0,0.1,0,0.3,0,0.4
		c0,1.8,1.4,2.1,2.5,2.2C142.7,116.5,143.6,116.2,143.5,114.8"/>
	<path id="パス_6092" d="M149.9,112.1c-1.2,0.1-2.3,0.6-2.2,2c0.1,1.6,1.4,2.2,2.7,2.3c1.4,0.1,1.8-1,1.9-2.2c0-1.2-1-2.1-2.2-2.1
		C150.1,112.1,150,112.1,149.9,112.1"/>
	<path id="パス_6093" d="M348.3,100.3c0.1-0.7-2.6-3.2-3.6-3.2c-0.8,0-1.6,0.6-1.3,1.3c0.6,1.7,2.4,2,3.9,2.5
		c0.4,0.1,0.8-0.1,1-0.5C348.2,100.4,348.2,100.3,348.3,100.3"/>
	<path id="パス_6094" d="M345.2,90.2c0.2,1.8,1.9,2.1,3.3,2.6c0.6,0.2,1.3-0.1,1.4-1.2c-0.7-1.2-1.9-2-3.2-2.4
		c-0.6-0.2-1.3,0-1.5,0.6C345.3,89.9,345.2,90.1,345.2,90.2"/>
</g>
</svg>
